<svg width="108" height="108" viewBox="0 0 108 108" fill="none" xmlns="http://www.w3.org/2000/svg">
<g clip-path="url(#clip0_2168_8249)">
<path d="M97.5594 65.4125H42.9582C40.6379 65.4125 38.75 63.5246 38.75 61.2043V32.2531C38.75 29.9328 40.6379 28.0449 42.9582 28.0449H97.5594C99.8797 28.0449 101.768 29.9328 101.768 32.2531V61.2148C101.768 63.5352 99.8797 65.4125 97.5594 65.4125Z" fill="white"/>
<path d="M46.7434 73.7336C44.9926 72.5102 43.5371 71.9723 42.4297 72.1305C41.5754 72.257 40.932 72.7844 40.2359 73.3434C39.4977 73.9445 38.6645 74.6301 37.5254 74.6617C36.4602 74.6934 35.3738 74.05 33.9184 72.5312C31.5875 70.0949 27.1578 63.9883 27.2211 60.6238C27.1895 60.0859 27.2317 58.8941 28.0649 57.9766C28.6238 57.3648 29.3938 57.0273 30.2586 57.0273C30.4274 56.9746 30.9652 56.7004 31.4188 55.9832C31.9988 55.0656 32.5262 53.3254 31.7563 50.2035C30.4063 44.698 28.2125 43.791 27.9067 43.6855H27.7801C27.0313 43.6855 24.2469 43.8227 22.1902 45.7633C20.5133 47.3559 19.6801 49.8344 19.7328 53.1461C19.8488 60.666 22.8442 68.1332 28.6449 75.3367C31.3449 78.6906 38.9703 85.5145 45.309 85.1875C49.9918 84.9449 51.2891 80.5574 51.3734 80.2832L51.4051 80.1355C51.4684 79.7031 51.5844 77.1191 46.7434 73.7336Z" fill="#E6E6E6"/>
<path d="M45.5312 42.4402H52.7137C51.2266 44.307 50.0453 46.427 49.1594 48.7895C48.2734 51.1625 47.7988 53.4828 47.7461 55.7609H50.7941C50.7836 54.3055 51.0262 52.6602 51.5113 50.8039C51.9965 48.9582 52.6926 47.2074 53.6207 45.5727C54.5383 43.9273 55.4453 42.6723 56.3418 41.7969V39.5082H45.5312V42.4402ZM69.5781 43.8219H65.8656L63.6402 47.1125L61.5309 43.8219H57.6707L61.8051 49.6121L57.4914 55.7609H61.1934L63.6402 52.0695L66.0766 55.7609H69.9473L65.5387 49.4855L69.5781 43.8219ZM78.0789 50.1289C79.0703 49.2113 79.7664 48.5152 80.1461 48.0301C80.7262 47.2918 81.148 46.5957 81.4117 45.9207C81.6754 45.2457 81.8125 44.5391 81.8125 43.8008C81.8125 42.493 81.3484 41.4066 80.4203 40.5312C79.4922 39.6559 78.216 39.2129 76.5918 39.2129C75.1047 39.2129 73.8707 39.5926 72.8793 40.352C71.8879 41.1113 71.2973 42.3559 71.118 44.0961L74.2609 44.4125C74.3242 43.4949 74.5457 42.8305 74.9359 42.4297C75.3262 42.0289 75.8535 41.8285 76.5074 41.8285C77.1719 41.8285 77.6992 42.0184 78.0789 42.398C78.4586 42.7777 78.6484 43.3156 78.6484 44.0223C78.6484 44.6551 78.427 45.309 77.9945 45.9523C77.6676 46.427 76.8027 47.3234 75.3789 48.6523C73.607 50.2977 72.4258 51.616 71.8246 52.6074C71.2234 53.5988 70.8648 54.6535 70.7488 55.7609H81.823V52.8289H75.5477C75.7164 52.5441 75.9273 52.2488 76.191 51.9535C76.4547 51.6582 77.0875 51.0465 78.0789 50.1289ZM93.2031 39.2129H90.5453L83.3945 49.6754V52.4387H90.1445V55.7504H93.2031V52.4387H95.2492V49.6754H93.2031V39.2129ZM90.1445 49.6754H86.3582L90.1445 44.0434V49.6754ZM66.8781 70.2418C66.4035 69.9781 65.8023 70.1469 65.5281 70.6215C65.3699 70.8957 65.2117 71.1805 65.043 71.4547C64.7582 71.9188 64.9164 72.5305 65.3805 72.8152C65.5387 72.9102 65.718 72.9523 65.8867 72.9523C66.2242 72.9523 66.5512 72.7836 66.7305 72.4777C66.8992 72.193 67.0785 71.8977 67.2473 71.6023C67.5215 71.1066 67.3527 70.5055 66.8781 70.2418ZM64.273 74.4289C63.8406 74.0914 63.2184 74.1758 62.8914 74.6082C62.7016 74.8613 62.5012 75.1145 62.2902 75.357C61.9422 75.7789 62.0055 76.4012 62.4273 76.7492C62.6066 76.8969 62.8281 76.9707 63.0496 76.9707C63.3344 76.9707 63.6191 76.8441 63.8195 76.6121C64.0305 76.3484 64.2414 76.0848 64.4523 75.8105C64.7898 75.3887 64.7055 74.7664 64.273 74.4289ZM59.6957 78.1941L58.9996 78.8586C58.5988 79.2277 58.5777 79.85 58.9469 80.2508C59.1367 80.4617 59.4109 80.5672 59.6746 80.5672C59.9172 80.5672 60.1492 80.4828 60.3391 80.3035C60.5922 80.0715 60.8348 79.8395 61.0773 79.6074C61.4676 79.2277 61.4781 78.6055 61.0984 78.2152C60.7187 77.825 60.0859 77.8145 59.6957 78.1941ZM68.8609 65.7172C68.3547 65.5168 67.7746 65.7699 67.5848 66.2762C67.4687 66.5715 67.3527 66.8773 67.2262 67.1621C67.0152 67.6684 67.2473 68.2484 67.7535 68.4594C67.8801 68.5121 68.0066 68.5332 68.1332 68.5332C68.5234 68.5332 68.882 68.3012 69.0402 67.932C69.1668 67.6156 69.3039 67.2992 69.4199 66.9934C69.6203 66.4871 69.3672 65.907 68.8609 65.7172ZM56.0359 81.2949C55.7828 81.4848 55.5191 81.6746 55.2555 81.8539C54.802 82.1598 54.6965 82.782 55.0023 83.225C55.1922 83.4992 55.498 83.6574 55.8145 83.6574C56.0043 83.6574 56.2047 83.6047 56.3734 83.4887C56.6477 83.2988 56.9324 83.0984 57.2066 82.898C57.6496 82.5711 57.7445 81.9594 57.4176 81.5164C57.0906 81.0629 56.4789 80.968 56.0359 81.2949Z" fill="#004AAD"/>
<path d="M97.8102 28.0449H62.4992C62.5309 27.4648 62.3199 26.8848 61.8559 26.4629C55.127 20.3773 46.4152 17.0234 37.3344 17.0234C32.3984 17.0234 27.6102 17.9938 23.0961 19.9027C18.7402 21.7484 14.8273 24.3852 11.4734 27.7391C8.11953 31.093 5.48281 35.0059 3.63711 39.3617C1.72812 43.8758 0.757812 48.6641 0.757812 53.6C0.757812 58.5359 1.72812 63.3242 3.63711 67.8383C5.48281 72.1941 8.11953 76.107 11.4734 79.4609C14.8273 82.8148 18.7402 85.4516 23.0961 87.2973C27.6102 89.2063 32.3984 90.1766 37.3344 90.1766C39.7496 90.1766 42.1648 89.9445 44.5062 89.4699C44.7805 89.4172 45.0336 89.3012 45.2551 89.1535C45.3395 89.1535 45.4344 89.143 45.5187 89.143C48.4297 88.9953 50.9293 87.793 52.7961 85.6519C52.9648 85.4621 53.1336 85.2617 53.2918 85.0508C53.334 84.998 53.3762 84.9453 53.4184 84.882C54.6102 83.2578 55.0848 81.718 55.1902 81.3488C55.475 80.4418 56.477 75.7062 49.0098 70.5066C42.7977 66.1719 39.391 68.9562 37.7457 70.2957C37.6719 70.359 37.577 70.4328 37.4926 70.4961C36.7754 69.8844 35.4148 68.4078 33.875 66.1402C31.966 63.3348 31.2699 61.4996 31.175 60.8668C32.2824 60.5926 33.432 59.8227 34.2863 58.7469C35.552 57.1543 36.807 54.2223 35.5941 49.2547C34.782 45.9535 33.548 43.4223 31.9027 41.7453C30.2574 40.0684 28.7703 39.7941 28.3484 39.752C28.2957 39.752 23.3387 39.3406 19.5945 42.7789C16.9895 45.1625 15.7133 48.6746 15.7766 53.2098C15.8609 58.557 17.2426 63.9148 19.8793 69.1355C22.073 73.4703 24.6148 76.6344 25.5641 77.8156C27.125 79.7563 30.8164 83.5004 35.3305 86.1477C18.2762 85.1035 4.71289 70.9074 4.71289 53.5895C4.71289 35.607 19.3414 20.968 37.3344 20.968C44.7383 20.968 51.8574 23.4676 57.616 28.0344H42.7027C40.5195 28.0344 38.7477 29.8062 38.7477 31.9895V61.4574C38.7477 63.6406 40.5195 65.4125 42.7027 65.4125H97.8207C100.004 65.4125 101.776 63.6406 101.776 61.4574V32C101.765 29.8168 99.9934 28.0449 97.8102 28.0449ZM28.6437 75.3266C22.843 68.1125 19.8477 60.6453 19.7316 53.1359C19.6789 49.8242 20.5121 47.3457 22.1891 45.7531C24.2457 43.8125 27.0301 43.6754 27.7789 43.6754H27.9055C28.2113 43.7809 30.4051 44.6879 31.7551 50.1934C32.525 53.3152 31.9871 55.066 31.4176 55.973C30.9641 56.7008 30.4262 56.9645 30.2574 57.0172C29.3926 57.0277 28.6121 57.3547 28.0637 57.9664C27.2305 58.884 27.1883 60.0758 27.2199 60.6137C27.1566 63.9781 31.5863 70.0953 33.9172 72.5211C35.3832 74.0504 36.459 74.6832 37.5242 74.6516C38.6633 74.6199 39.4965 73.9344 40.2348 73.3332C40.9203 72.7742 41.5637 72.2469 42.4285 72.1203C43.5359 71.9621 44.9914 72.5 46.7422 73.7234C51.5938 77.109 51.4672 79.693 51.4039 80.1148L51.3723 80.2625C51.2984 80.5367 50.0012 84.9242 45.3078 85.1668C38.9691 85.5148 31.3438 78.691 28.6437 75.3266ZM99.793 61.468C99.793 62.5543 98.907 63.4402 97.8207 63.4402H42.7027C41.6164 63.4402 40.7305 62.5543 40.7305 61.468V32C40.7305 30.9137 41.6164 30.0277 42.7027 30.0277H97.8207C98.907 30.0277 99.793 30.9137 99.793 32V61.468Z" fill="#004AAD"/>
<path d="M107.01 51.0684C106.461 51.0684 106.018 51.5113 106.018 52.0598V65.3805C106.018 67.859 104.004 69.8734 101.525 69.8734H74.9367C74.3883 69.8734 73.9453 70.3164 73.9453 70.8648C73.9453 71.4133 74.3883 71.8562 74.9367 71.8562H101.536C105.101 71.8562 108.001 68.9559 108.001 65.391V52.0598C108.001 51.5113 107.558 51.0684 107.01 51.0684Z" fill="#06F3FF"/>
</g>
<defs>
<clipPath id="clip0_2168_8249">
<rect width="108" height="108" fill="white"/>
</clipPath>
</defs>
</svg>
