<svg width="38" height="38" viewBox="0 0 38 38" fill="none" xmlns="http://www.w3.org/2000/svg">
<path d="M11.2357 15.7622C10.6643 15.7666 10.0913 15.7903 9.50026 15.8333C7.18544 16.0016 5.17141 17.2627 4.83985 19.5599L4.77536 20.0067C4.58427 21.3306 5.50401 22.5664 6.83406 22.709C8.21568 22.8572 9.47223 22.939 10.7148 22.9553M26.5879 15.7614C27.218 15.7619 27.8481 15.7859 28.5001 15.8333C30.8149 16.0016 32.8289 17.2627 33.1605 19.5599L33.225 20.0067C33.4161 21.3306 32.4963 22.5664 31.1663 22.709C29.6905 22.8673 28.3573 22.9498 27.0315 22.9577M22.5607 16.964C22.5607 19.0296 20.8863 20.704 18.8207 20.704C16.7552 20.704 15.0807 19.0296 15.0807 16.964C15.0807 14.8985 16.7552 13.2241 18.8207 13.2241C20.8863 13.2241 22.5607 14.8985 22.5607 16.964ZM14.1817 32.1801C17.6341 32.5484 20.3764 32.5527 23.8237 32.183C25.2926 32.0255 26.3083 30.6608 26.0973 29.1986L26.0261 28.7052C25.6599 26.1684 23.6965 24.0945 21.1401 23.9087C19.6817 23.8026 18.3226 23.8028 16.8614 23.9092C14.304 24.0956 12.3392 26.1695 11.9729 28.7074L11.9028 29.193C11.6914 30.6573 12.7105 32.0232 14.1817 32.1801ZM7.97747 8.9282C7.97747 10.7986 9.49369 12.3148 11.364 12.3148C13.2344 12.3148 14.7506 10.7986 14.7506 8.9282C14.7506 7.05785 13.2344 5.54163 11.364 5.54163C9.49369 5.54163 7.97747 7.05785 7.97747 8.9282ZM30.0228 8.9282C30.0228 10.7986 28.5066 12.3148 26.6362 12.3148C24.7659 12.3148 23.2496 10.7986 23.2496 8.9282C23.2496 7.05785 24.7659 5.54163 26.6362 5.54163C28.5066 5.54163 30.0228 7.05785 30.0228 8.9282Z" stroke="#667085" stroke-width="1.5" stroke-linecap="round"/>
</svg>
