<svg width="38" height="38" viewBox="0 0 38 38" fill="none" xmlns="http://www.w3.org/2000/svg">
<path d="M4.83974 14.2499C4.62172 19.2444 4.81464 23.6212 5.27024 29.2017C5.34652 30.136 5.74942 30.9775 6.3654 31.6097M4.83974 14.2499C4.91572 12.5094 5.04162 10.6938 5.2237 8.72609C5.39564 6.86801 6.87982 5.40415 8.73844 5.244C16.3786 4.58567 21.6833 4.58375 29.2622 5.23994C31.1299 5.40165 32.616 6.88024 32.7813 8.74815C33.4484 16.2873 33.3868 21.6105 32.7577 29.2127C32.6014 31.1015 31.1052 32.6058 29.2173 32.7659C27.2595 32.9318 25.4545 33.055 23.7252 33.1354M4.83974 14.2499L14.2825 23.6927M23.7252 33.1354C18.7404 33.3672 14.3849 33.244 8.8135 32.769C7.8548 32.6872 6.9978 32.2588 6.3654 31.6097M23.7252 33.1354L14.2825 23.6927M14.2825 23.6927L6.3654 31.6097" stroke="#667085" stroke-width="1.5"/>
<path d="M26.9167 15.616C26.9167 17.3343 24.679 20.2782 23.2753 21.9558C22.6867 22.6592 21.6468 22.6592 21.0582 21.9558C19.6545 20.2782 17.4167 17.3343 17.4167 15.616C17.4167 13.1127 19.5434 11.0834 22.1667 11.0834C24.7901 11.0834 26.9167 13.1127 26.9167 15.616Z" stroke="#667085" stroke-width="1.5"/>
<path d="M22.1826 15.8334L22.1668 15.8334" stroke="#667085" stroke-width="2" stroke-linecap="round"/>
</svg>
