<svg width="1250" height="1445" viewBox="0 0 1250 1445" fill="none" xmlns="http://www.w3.org/2000/svg">
<path opacity="0.2" fill-rule="evenodd" clip-rule="evenodd" d="M88.0313 673.375C85.4671 677.187 85.182 682.09 87.3041 686.164C88.2658 688.006 89.6917 689.597 91.4246 690.763L99.622 696.262C99.3818 698.719 99.8401 701.236 101.007 703.48C102.085 705.54 103.702 707.27 105.699 708.495L113.276 713.131C112.971 715.728 113.443 718.394 114.692 720.798L114.688 720.791C115.88 723.079 117.702 724.958 119.963 726.225L126.922 730.115C126.58 732.835 127.058 735.636 128.356 738.127L128.349 738.131C129.662 740.645 131.693 742.661 134.231 743.961L140.518 747.176C140.152 749.985 140.65 752.861 142.002 755.457C143.437 758.214 145.684 760.364 148.502 761.686L154.11 764.313C153.746 767.199 154.259 770.15 155.639 772.802C157.175 775.75 159.701 778.098 162.766 779.416L167.673 781.522C167.325 784.464 167.859 787.471 169.258 790.148C170.911 793.332 173.671 795.813 177.026 797.138L181.224 798.791C180.912 801.767 181.471 804.806 182.873 807.505C184.66 810.935 187.649 813.541 191.293 814.857L194.751 816.105C194.469 819.102 195.053 822.118 196.478 824.859L196.474 824.853C198.387 828.532 201.613 831.278 205.553 832.579L208.272 833.479C208.042 836.479 208.649 839.488 210.069 842.222C212.115 846.147 215.577 849.015 219.813 850.302L221.784 850.899C221.614 853.889 222.247 856.88 223.653 859.588C225.799 863.704 229.596 866.784 234.073 868.024L235.292 868.363C235.183 871.329 235.839 874.289 237.231 876.958C239.507 881.331 243.557 884.532 248.329 885.74L248.804 885.86C248.758 888.794 249.436 891.712 250.805 894.339L250.812 894.335C253.171 898.875 257.358 902.163 262.316 903.397C262.336 906.278 263.033 909.136 264.375 911.713C266.751 916.276 270.884 919.59 275.815 920.925C275.882 923.756 276.593 926.527 277.932 929.095C280.328 933.688 284.413 937.032 289.325 938.466C289.449 941.245 290.176 943.959 291.488 946.477L291.478 946.474C293.891 951.105 297.945 954.478 302.831 956.005C303.002 958.733 303.742 961.395 305.031 963.867L305.038 963.863C307.422 968.45 311.519 971.905 316.352 973.533C316.571 976.214 317.322 978.827 318.581 981.253L318.574 981.257C320.981 985.867 325.047 989.358 329.867 991.071C330.124 993.704 330.883 996.265 332.123 998.643C334.542 1003.29 338.578 1006.81 343.382 1008.6C343.675 1011.18 344.441 1013.7 345.659 1016.04L345.652 1016.04C348.091 1020.72 352.11 1024.27 356.903 1026.14C357.23 1028.68 358.001 1031.14 359.195 1033.43C361.648 1038.15 365.641 1041.73 370.417 1043.67C370.775 1046.16 371.55 1048.58 372.721 1050.84L372.717 1050.83C376.318 1057.74 383.097 1062.25 390.858 1062.91L1077.81 1120.85C1083.83 1121.36 1089.69 1119.5 1094.32 1115.6C1098.95 1111.71 1101.78 1106.26 1102.3 1100.24L1161.83 414.222C1162.2 409.944 1161.35 405.679 1159.38 401.885C1155.79 394.98 1149.01 390.463 1141.25 389.809L454.297 331.866C450.832 331.574 447.418 332.068 444.261 333.283C441.888 333.398 439.569 333.893 437.377 334.745C434.975 334.855 432.657 335.365 430.496 336.217C428.116 336.308 425.787 336.802 423.591 337.675C421.222 337.756 418.901 338.246 416.714 339.124C414.323 339.196 412.009 339.699 409.863 340.568C407.468 340.618 405.113 341.111 402.902 342.026C400.556 342.069 398.248 342.55 396.077 343.451C393.695 343.474 391.348 343.962 389.146 344.894C386.79 344.907 384.463 345.39 382.278 346.322C379.875 346.32 377.535 346.82 375.39 347.745C372.989 347.724 370.646 348.221 368.503 349.155C366.139 349.114 363.788 349.588 361.587 350.565C359.198 350.512 356.856 351.003 354.725 351.955C352.367 351.872 350.006 352.335 347.798 353.341C345.567 353.25 343.327 353.663 341.218 354.579C341.106 354.627 340.995 354.677 340.885 354.728C338.498 354.614 336.135 355.096 334.005 356.09C331.612 355.951 329.235 356.427 327.1 357.439C324.709 357.275 322.323 357.746 320.188 358.773C317.805 358.587 315.417 359.051 313.286 360.09C310.909 359.88 308.515 360.335 306.385 361.386C301.923 360.94 297.355 362.897 294.678 366.867L88.0313 673.375ZM303.598 363.245C300.685 363.66 297.948 365.257 296.177 367.882L89.5437 674.382C87.3434 677.643 87.1017 681.839 88.9202 685.323C89.7371 686.898 90.956 688.259 92.4426 689.253L99.9669 694.302C100.282 693.072 100.78 691.881 101.46 690.776L301.103 366.199C301.8 365.066 302.645 364.078 303.598 363.245ZM101.564 695.373C101.818 694.105 102.3 692.868 103.008 691.716L302.633 367.14C303.67 365.459 305.085 364.149 306.701 363.253C307.381 363.353 308.055 363.52 308.714 363.755C308.278 364.304 307.879 364.894 307.525 365.524L116.469 705.374L101.564 695.373ZM101.351 697.422C101.336 699.201 101.756 700.987 102.616 702.644C103.538 704.416 104.932 705.906 106.648 706.961L113.64 711.239C113.925 710.183 114.344 709.153 114.896 708.172L115.575 706.965L101.351 697.422ZM117.078 707.973L116.472 709.05C115.904 710.06 115.499 711.131 115.258 712.229L130.422 721.507L132.174 718.101L117.078 707.973ZM133.679 719.111L131.962 722.449L147.074 731.695L148.363 728.962L133.679 719.111ZM149.147 727.3L134.517 717.483L314.687 367.369L317.862 369.499L149.147 727.3ZM149.881 729.98L148.625 732.644L163.294 741.618L164.179 739.573L149.881 729.98ZM164.912 737.877L150.665 728.318L319.384 370.52L322.779 372.798L164.912 737.877ZM165.706 740.597L164.853 742.572L179.121 751.301L179.655 749.955L165.706 740.597ZM180.34 748.229L166.439 738.902L324.307 373.823L327.91 376.241L180.34 748.229ZM181.19 750.985L180.685 752.258L194.58 760.76L194.812 760.124L181.19 750.985ZM195.451 758.367L181.875 749.259L329.445 377.271L333.232 379.812L195.451 758.367ZM196.357 761.161L196.153 761.722L207.972 768.953L196.357 761.161ZM210.272 768.312L196.997 759.405L334.782 380.851L338.739 383.506L210.272 768.312ZM224.817 778.071L211.825 769.354L340.287 384.545L344.413 387.313L224.817 778.071ZM239.103 787.656L226.381 779.12L345.985 388.368L350.238 391.222L239.103 787.656ZM244.906 791.55L240.687 788.719L351.827 392.288L356.219 395.235L253.27 796.667L244.906 791.55ZM288.57 820.847L285.226 818.603L290.253 821.413L293.186 823.208L288.57 820.847ZM287.745 822.472L293.697 826.465L293.478 827.589L281.138 821.809L281.661 819.36L287.745 822.472ZM268.167 809.337L274.906 813.858L267.943 810.297L268.167 809.337ZM265.755 807.719L266.559 808.258L266.281 809.447L253.535 802.928L253.992 801.144L265.755 807.719ZM243.823 793.005L247.241 795.298L239.98 791.24L240.121 790.74L243.823 793.005ZM295.325 827.557L299.757 830.531L295.165 828.38L295.325 827.557ZM307.324 833.429L301.402 829.456L307.476 832.563L307.324 833.429ZM310.511 835.568L308.967 834.532L309.162 833.425L313.572 835.68L320.75 840.072L320.707 840.344L310.511 835.568ZM309.658 837.173L308.591 836.673L308.038 839.817L319.977 844.943L320.099 844.178L309.658 837.173ZM321.755 845.289L321.693 845.68L323.483 846.448L321.755 845.289ZM332.49 850.315L322.068 843.322L322.117 843.009L333.686 848.428L333.363 850.69L332.49 850.315ZM331.647 851.925L333.052 852.868L332.547 856.414L320.728 851.761L321.4 847.526L331.647 851.925ZM334.727 853.992L345.862 861.462L345.838 861.646L334.284 857.098L334.727 853.992ZM346.117 859.458L340.652 855.792L346.277 858.207L346.117 859.458ZM354.403 865.018L347.8 860.587L348.009 858.95L359.225 863.766L358.884 866.782L354.403 865.018ZM353.577 866.638L358.525 869.957L358.161 873.175L346.722 869.046L347.342 864.183L353.577 866.638ZM360.217 871.092L369.332 877.207L359.909 873.806L360.217 871.092ZM371.255 876.324L361.418 869.724L371.516 873.699L371.255 876.324ZM376.342 879.738L372.957 877.467L373.264 874.388L383.279 878.33L384.125 878.848L383.814 882.435L376.342 879.738ZM375.522 881.36L372.672 880.331L372.128 885.792L383.205 889.457L383.446 886.676L375.522 881.36ZM383.624 884.624L382.531 883.89L383.653 884.295L383.624 884.624ZM385.167 887.831L384.975 890.043L391.86 892.321L385.167 887.831ZM398.245 894.434L385.345 885.779L385.419 884.933L406.521 892.55L410.665 895.086C409.011 896.121 407.109 896.683 405.179 896.728L398.245 894.434ZM397.466 896.082L397.955 896.41C400.081 897.839 402.491 898.527 404.88 898.536L429.757 906.767L430.333 907.12C432.266 908.302 434.391 908.913 436.511 909.002L462.091 917.466L462.725 917.821C464.444 918.783 466.289 919.32 468.137 919.467L494.382 928.151L495.095 928.516C496.591 929.282 498.164 929.744 499.744 929.926L526.763 938.866L527.49 939.207C528.738 939.792 530.03 940.178 531.329 940.377L558.934 949.511L559.853 949.906C560.872 950.343 561.915 950.653 562.964 950.845L591.353 960.239L592.244 960.589C592.981 960.879 593.727 961.105 594.476 961.272L620.293 969.815L384.262 898.261L384.814 891.896L397.466 896.082ZM408.801 897.927C410.063 897.521 411.266 896.916 412.357 896.121L422.973 902.616L408.801 897.927ZM414.894 893.654L427.87 898.338L416.175 891.801L415.373 892.99C415.22 893.218 415.06 893.439 414.894 893.654ZM417.489 889.853L426.205 893.284L418.003 889.089L417.489 889.853ZM416.359 888.296L415.767 889.175L413.811 888.405L404.534 883.219L416.359 888.296ZM419.627 886.681L446.353 899.2L447.831 899.834L646.19 577.339C648.252 573.982 648.397 569.907 646.582 566.412L646.575 566.416C645.653 564.643 644.258 563.154 642.547 562.105L424.987 428.99L424.151 438.619L618.631 569.101C620.363 570.267 621.789 571.858 622.747 573.693C624.869 577.767 624.595 582.673 622.013 586.486L419.627 886.681ZM423.971 440.693L617.602 570.608C619.088 571.602 620.314 572.959 621.131 574.534L621.142 574.537C622.953 578.025 622.712 582.221 620.515 585.489L417.971 885.905L391.875 873.681L386.628 870.997L423.971 440.693ZM422.428 437.463L423.255 427.93L418.051 424.746L417.138 433.914L422.428 437.463ZM416.933 435.97L422.248 439.536L384.884 870.105L374.233 864.658L416.933 435.97ZM415.435 432.771L416.339 423.698L411.199 420.553L410.213 429.268L415.435 432.771ZM409.982 431.307L415.23 434.828L372.505 863.774L361.672 858.234L409.982 431.307ZM408.521 428.132L409.497 419.512L404.428 416.411L403.374 424.679L408.521 428.132ZM403.116 426.7L408.29 430.172L359.951 857.354L348.931 851.718L403.116 426.7ZM401.686 423.547L402.728 415.371L397.73 412.312L396.613 420.143L401.686 423.547ZM396.327 422.145L401.428 425.567L347.216 850.84L340.06 847.18L336.021 844.923L396.327 422.145ZM394.944 419.023L396.048 411.283L391.126 408.272L389.951 415.674L394.944 419.023ZM389.637 417.656L394.659 421.025L334.321 843.973L322.971 837.629L389.637 417.656ZM388.294 414.562L389.455 407.249L384.626 404.295L383.399 411.277L388.294 414.562ZM383.054 413.239L387.979 416.544L321.288 836.688L309.725 830.224L383.054 413.239ZM381.747 410.169L382.96 403.275L378.215 400.372L376.94 406.944L381.747 410.169ZM376.563 408.884L381.402 412.131L308.052 829.289L296.267 822.702L376.563 408.884ZM375.308 405.849L376.566 399.363L371.912 396.515L370.595 402.687L375.308 405.849ZM370.185 404.605L374.931 407.789L294.607 821.774L291.132 819.831L282.666 814.652L370.185 404.605ZM368.982 401.604L370.281 395.517L365.734 392.736L364.38 398.517L368.982 401.604ZM363.936 400.412L368.572 403.523L281.031 813.652L268.896 806.227L363.936 400.412ZM362.776 397.441L364.111 391.742L359.676 389.029L358.291 394.431L362.776 397.441ZM357.811 396.303L362.332 399.336L267.268 805.231L254.887 797.656L357.811 396.303ZM356.699 393.364L358.064 388.042L353.756 385.406L352.344 390.442L356.699 393.364ZM350.756 389.376L352.145 384.421L347.974 381.869L346.542 386.549L350.756 389.376ZM344.97 385.494L346.378 380.892L342.333 378.417L340.885 382.754L344.97 385.494ZM339.337 381.715L340.759 377.454L336.882 375.082L335.423 379.089L339.337 381.715ZM333.873 378.049L335.305 374.117L331.596 371.848L330.132 375.539L333.873 378.049ZM328.597 374.509L330.033 370.891L326.507 368.734L325.042 372.124L328.597 374.509ZM323.514 371.099L324.949 367.781L321.632 365.752L320.169 368.854L323.514 371.099ZM318.648 367.834L320.078 364.801L317.909 363.473C317.712 363.353 317.513 363.24 317.312 363.133C316.636 363.882 316.045 364.729 315.562 365.667L315.525 365.739L318.648 367.834ZM314.012 364.724C314.457 363.879 314.979 363.1 315.565 362.39C314.926 362.182 314.276 362.034 313.622 361.946C312.962 362.304 312.335 362.728 311.751 363.215C311.869 363.289 311.986 363.365 312.103 363.443L314.012 364.724ZM310.41 364.534C309.922 365.101 309.482 365.725 309.101 366.402L117.972 706.382L133.012 716.473L313.173 366.353L311.085 364.952C310.864 364.804 310.638 364.664 310.41 364.534ZM310.037 362.322C310.163 362.205 310.291 362.09 310.42 361.979C310.14 362.022 309.862 362.076 309.587 362.141C309.738 362.198 309.888 362.259 310.037 362.322ZM414.593 890.916L413.872 891.986C413.63 892.345 413.37 892.684 413.093 893.004L407.33 890.923L393.002 882.158L413.024 890.039L414.593 890.916ZM116.294 719.965C115.349 718.152 114.92 716.161 115.004 714.188L129.594 723.115L128.332 725.568C127.887 726.431 127.54 727.331 127.29 728.25L120.852 724.651C118.895 723.56 117.324 721.941 116.294 719.965ZM129.936 726.384L131.134 724.057L146.3 733.337L144.233 737.72L128.924 729.163C129.142 728.208 129.479 727.274 129.936 726.384ZM145.814 738.604L147.851 734.285L162.571 743.291L160.941 747.06L145.814 738.604ZM162.528 747.947L164.129 744.245L178.446 753.004L177.199 756.147L162.528 747.947ZM178.789 757.036L180.009 753.961L193.95 762.491L193.037 765L178.789 757.036ZM194.635 765.893L195.523 763.453L209.117 771.771L208.493 773.64L194.635 765.893ZM210.095 774.535L210.696 772.736L223.965 780.855L223.59 782.078L210.095 774.535ZM225.2 782.978L225.552 781.826L238.514 789.757L238.353 790.33L225.2 782.978ZM335.71 847.105L337.569 848.243L341.778 850.214L339.497 848.939L335.723 847.009L335.71 847.105ZM346.574 855.873L336.759 849.867L335.406 849.233L335.093 851.432L346.515 856.336L346.574 855.873ZM322.786 841.318L322.421 841.095L322.414 841.143L322.786 841.318ZM349.255 857.513L348.269 856.909L348.247 857.08L349.255 857.513ZM351.542 856.792L359.466 861.639L359.588 860.56L351.542 856.792ZM360.627 867.468L360.944 864.664L371.757 871.28L371.702 871.828L360.627 867.468ZM371.686 869.116L371.956 869.281L371.961 869.234L371.686 869.116ZM373.45 872.516L373.469 872.328L374.365 872.876L373.45 872.516ZM373.668 870.329L384.089 876.704L384.304 876.789L384.493 874.615L373.703 869.982L373.668 870.329ZM398.872 887.87L385.855 879.906L385.58 883.072L398.872 887.87ZM414.98 895.604L430.527 905.116L436.837 907.204C438.56 907.238 440.272 906.872 441.828 906.14L437.563 903.756L414.98 895.604ZM443.701 907.187C442.761 907.746 441.756 908.182 440.714 908.487L453.733 912.795L443.701 907.187ZM455.8 908.42L446.415 905.032C446.711 904.722 446.994 904.396 447.262 904.053L455.8 908.42ZM478.486 912.996L449.51 900.555L647.731 578.284C650.086 574.444 650.262 569.577 648.184 565.579C647.112 563.515 645.496 561.785 643.498 560.56L425.162 426.973L425.894 418.542L667.484 553.588C669.441 554.679 671.016 556.305 672.042 558.274L672.038 558.268C673.837 561.718 673.774 565.791 671.867 569.178L479.238 911.827C479.008 912.236 478.757 912.626 478.486 912.996ZM424.154 417.569L423.43 425.913L418.25 422.744L419.05 414.717L424.154 417.569ZM417.329 413.755L416.538 421.696L411.424 418.567L412.287 410.936L417.329 413.755ZM410.575 409.979L409.721 417.526L404.679 414.44L405.602 407.199L410.575 409.979ZM403.892 406.243L402.979 413.4L398.009 410.359L398.987 403.501L403.892 406.243ZM397.294 402.555L396.327 409.33L391.434 406.336L392.462 399.854L397.294 402.555ZM390.778 398.913L389.762 405.314L384.964 402.378L386.039 396.264L390.778 398.913ZM384.358 395.324L383.297 401.358L378.583 398.474L379.7 392.72L384.358 395.324ZM378.036 391.79L376.934 397.465L372.313 394.637L373.466 389.236L378.036 391.79ZM371.818 388.315L370.682 393.639L366.169 390.878L367.354 385.819L371.818 388.315ZM365.713 384.902L364.545 389.885L360.147 387.194L361.359 382.468L365.713 384.902ZM359.727 381.556L358.535 386.207L354.264 383.594L355.498 379.192L359.727 381.556ZM353.866 378.28L352.653 382.609L348.522 380.081L349.773 375.992L353.866 378.28ZM348.155 375.087L346.925 379.104L342.922 376.655L344.186 372.868L348.155 375.087ZM342.588 371.975L341.348 375.692L337.514 373.346L338.786 369.85L342.588 371.975ZM337.184 368.954L335.936 372.381L332.274 370.14L333.55 366.923L337.184 368.954ZM331.96 366.034L330.71 369.183L327.233 367.056L328.464 364.21C328.479 364.175 328.494 364.14 328.509 364.105L331.96 366.034ZM326.804 363.49L325.675 366.102L322.438 364.122C322.939 363.236 323.537 362.434 324.212 361.721C324.387 361.807 324.561 361.899 324.733 361.995L326.925 363.22C326.884 363.309 326.843 363.399 326.804 363.49ZM322.414 361.015C321.848 361.677 321.337 362.398 320.893 363.176L318.865 361.936C318.808 361.901 318.75 361.866 318.693 361.832C319.269 361.371 319.884 360.967 320.528 360.623C321.161 360.7 321.792 360.83 322.414 361.015ZM317.225 360.702C317.126 360.787 317.027 360.874 316.93 360.962C316.815 360.916 316.7 360.872 316.584 360.829C316.797 360.781 317.01 360.738 317.225 360.702ZM444.525 904.35C444.913 904.001 445.279 903.622 445.619 903.213L442.711 901.725L425.571 894.978L438.347 902.12L444.525 904.35ZM128.648 731.079C128.517 733.202 128.956 735.351 129.961 737.283C131.1 739.464 132.865 741.211 135.064 742.337L140.891 745.318C141.109 744.516 141.399 743.727 141.763 742.958L143.461 739.359L128.648 731.079ZM145.042 740.243L143.398 743.729C143.024 744.52 142.74 745.335 142.543 746.163L157.927 754.03L160.22 748.727L145.042 740.243ZM161.807 749.614L159.541 754.856L174.646 762.581L176.526 757.842L161.807 749.614ZM178.117 758.731L176.262 763.408L190.893 770.891L192.41 766.721L178.117 758.731ZM194.009 767.614L192.514 771.72L206.71 778.98L207.911 775.385L194.009 767.614ZM209.513 776.281L208.334 779.811L222.126 786.864L223.049 783.847L209.513 776.281ZM224.658 784.747L223.755 787.698L237.168 794.557L237.851 792.121L224.658 784.747ZM239.478 793.031L238.814 795.399L251.882 802.083L252.357 800.23L239.478 793.031ZM389.309 874.709L386.8 873.307L390.879 875.217L392.899 876.25L389.309 874.709ZM363.902 862.581L372.164 867.199L372.149 867.342L361.174 862.63L361.317 861.37L363.902 862.581ZM388.534 876.35L401.263 883.465L386.065 877.482L386.249 875.368L388.534 876.35ZM462.831 915.805L448.042 907.539L468.56 914.945L472.804 917.116C471.417 917.571 469.946 917.764 468.474 917.672L462.831 915.805ZM472.647 919.053C473.435 918.842 474.203 918.56 474.942 918.209L483.823 922.751L472.647 919.053ZM477.81 916.364L481.796 917.803L478.129 916.086C478.071 916.138 478.013 916.19 477.954 916.241C477.906 916.282 477.858 916.324 477.81 916.364ZM480.194 913.729L502.875 923.467L508.603 925.721C509.95 924.687 511.095 923.348 511.922 921.741L697.548 561.024C699.306 557.603 699.298 553.534 697.524 550.125L697.528 550.132C696.395 547.947 694.631 546.201 692.421 545.071L426.707 409.174L426.065 416.568L668.373 552.015C670.634 553.281 672.463 555.156 673.655 557.445C675.726 561.429 675.652 566.154 673.451 570.07L480.822 912.719C480.626 913.068 480.416 913.404 480.194 913.729ZM424.325 415.595L424.96 408.281L419.946 405.717L419.245 412.756L424.325 415.595ZM417.525 411.794L418.218 404.832L413.265 402.299L412.508 408.989L417.525 411.794ZM410.796 408.032L411.544 401.419L406.658 398.92L405.849 405.267L410.796 408.032ZM404.138 404.311L404.937 398.04L400.117 395.575L399.26 401.584L404.138 404.311ZM397.567 400.638L398.414 394.704L393.666 392.275L392.764 397.953L397.567 400.638ZM391.08 397.011L391.969 391.408L387.312 389.026L386.37 394.379L391.08 397.011ZM384.689 393.439L385.617 388.159L381.039 385.818L380.062 390.853L384.689 393.439ZM378.398 389.922L379.361 384.959L374.869 382.662L373.861 387.386L378.398 389.922ZM372.213 386.465L373.206 381.812L368.818 379.567L367.783 383.989L372.213 386.465ZM366.141 383.071L367.161 378.72L362.881 376.531L361.823 380.657L366.141 383.071ZM360.192 379.745L361.232 375.688L357.076 373.562L356 377.402L360.192 379.745ZM354.368 376.49L355.426 372.718L351.405 370.662L350.314 374.224L354.368 376.49ZM348.696 373.319L349.766 369.823L345.868 367.83L344.768 371.124L348.696 373.319ZM343.171 370.231L344.249 367.002L340.517 365.093L339.412 368.13L343.171 370.231ZM337.81 367.234L338.892 364.262L335.369 362.46C335.207 362.788 335.057 363.124 334.921 363.468L334.222 365.229L337.81 367.234ZM332.632 364.34L333.24 362.807C333.398 362.408 333.572 362.018 333.761 361.638L331.553 360.509C331.407 360.434 331.261 360.363 331.113 360.295C330.456 360.956 329.865 361.696 329.357 362.509L332.632 364.34ZM327.776 361.625C328.218 360.907 328.717 360.238 329.265 359.622C328.665 359.458 328.058 359.344 327.451 359.278C326.818 359.609 326.213 359.994 325.642 360.433L327.776 361.625ZM323.828 359.585C323.899 359.523 323.971 359.461 324.043 359.4C323.888 359.428 323.733 359.459 323.579 359.494C323.662 359.523 323.745 359.554 323.828 359.585ZM476.318 915.238C476.143 915.375 475.965 915.507 475.783 915.633L469.39 913.325L460.073 908.56L472.539 913.467L476.318 915.238ZM143.611 754.62C142.538 752.558 142.081 750.297 142.249 748.061L157.201 755.708L155.195 760.348C154.895 761.043 154.652 761.753 154.464 762.472L149.276 760.041C146.815 758.891 144.857 757.017 143.611 754.62ZM156.855 761.067L158.815 756.534L173.971 764.285L171.52 770.461L156.134 763.254C156.306 762.512 156.547 761.78 156.855 761.067ZM173.159 771.229L175.586 765.111L190.264 772.618L188.205 778.277L173.159 771.229ZM189.848 779.046L191.886 773.447L206.126 780.73L204.411 785.868L189.848 779.046ZM206.055 786.638L207.75 781.56L221.584 788.635L220.171 793.25L206.055 786.638ZM221.819 794.023L223.213 789.469L236.666 796.348L235.519 800.44L221.819 794.023ZM237.183 801.219L238.312 797.19L251.417 803.893L250.503 807.459L237.183 801.219ZM252.172 808.241L253.07 804.738L265.852 811.275L265.14 814.315L252.172 808.241ZM266.818 815.101L267.514 812.125L279.994 818.508L279.458 821.022L266.818 815.101ZM441.862 899.246L443.571 900.12L446.539 901.289L445.658 900.876L441.862 899.246ZM482.15 919.851L495.147 926.498L500.09 928.134C501.249 928.254 502.411 928.202 503.539 927.988L499.669 926.175L482.15 919.851ZM506.056 929.167C505.572 929.345 505.078 929.496 504.577 929.619L512.901 932.373L506.056 929.167ZM538.685 937.563L510.523 926.477C511.721 925.398 512.747 924.089 513.528 922.575L699.15 561.851C701.181 557.913 701.171 553.218 699.126 549.292C697.82 546.775 695.782 544.762 693.244 543.462L426.875 407.234L427.438 400.747L717.365 536.55C719.816 537.698 721.778 539.579 723.023 541.975L723.019 541.968C724.805 545.398 724.886 549.37 723.237 552.866L544.618 931.659C543.342 934.362 541.203 936.389 538.685 937.563ZM425.685 399.925L425.128 406.341L420.138 403.789L420.753 397.615L425.685 399.925ZM419.018 396.802L418.41 402.905L413.481 400.384L414.145 394.52L419.018 396.802ZM412.416 393.71L411.761 399.504L406.9 397.019L407.609 391.459L412.416 393.71ZM405.88 390.648L405.18 396.139L400.387 393.687L401.137 388.427L405.88 390.648ZM399.424 387.624L398.683 392.816L393.963 390.402L394.751 385.436L399.424 387.624ZM393.044 384.636L392.267 389.535L387.638 387.168L388.461 382.49L393.044 384.636ZM386.755 381.69L385.944 386.301L381.397 383.975L382.249 379.58L386.755 381.69ZM380.558 378.788L379.718 383.117L375.258 380.836L376.138 376.717L380.558 378.788ZM374.461 375.932L373.596 379.986L369.242 377.759L370.143 373.909L374.461 375.932ZM368.471 373.126L367.584 376.911L363.34 374.741L364.26 371.154L368.471 373.126ZM362.595 370.374L361.691 373.898L357.573 371.791L358.507 368.459L362.595 370.374ZM356.839 367.677L355.922 370.947L351.941 368.911L352.885 365.825L356.839 367.677ZM351.227 365.049L350.302 368.073L346.445 366.1L347.395 363.254L351.227 365.049ZM345.756 362.486L344.826 365.272L341.139 363.386L341.375 362.737C341.615 362.076 341.902 361.442 342.233 360.836L345.756 362.486ZM339.668 362.128L339.513 362.555L336.28 360.902C336.783 360.162 337.359 359.479 337.999 358.86C338.126 358.915 338.252 358.971 338.377 359.03L340.594 360.068C340.239 360.726 339.93 361.414 339.668 362.128ZM336.099 358.223C335.573 358.799 335.092 359.417 334.66 360.073L332.595 359.017C333.154 358.605 333.745 358.24 334.361 357.926C334.941 357.982 335.522 358.081 336.099 358.223ZM330.845 358.093C330.826 358.108 330.808 358.123 330.79 358.138C330.769 358.156 330.747 358.174 330.725 358.193L330.689 358.18L330.651 358.167C330.631 358.159 330.61 358.152 330.589 358.145C330.644 358.133 330.7 358.122 330.755 358.11C330.785 358.104 330.815 358.099 330.845 358.093ZM155.844 765.126C155.66 767.464 156.128 769.83 157.241 771.969C158.583 774.549 160.798 776.598 163.486 777.756L168.004 779.696C168.167 779.036 168.376 778.384 168.631 777.744L170.849 772.154L155.844 765.126ZM172.488 772.921L170.312 778.405C170.051 779.065 169.845 779.739 169.694 780.422L185.028 787.005L187.581 779.991L172.488 772.921ZM189.224 780.761L186.691 787.719L201.649 794.141L203.832 787.603L189.224 780.761ZM205.476 788.373L203.312 794.855L217.779 801.066L219.634 795.005L205.476 788.373ZM221.282 795.777L219.444 801.781L233.456 807.797L235.022 802.213L221.282 795.777ZM236.686 802.992L235.136 808.518L248.734 814.356L250.044 809.249L236.686 802.992ZM251.713 810.031L250.419 815.079L263.633 820.752L264.717 816.122L251.713 810.031ZM266.394 816.908L265.324 821.478L278.182 826.999L279.069 822.845L266.394 816.908ZM280.749 823.632L279.875 827.726L292.408 833.107L293.122 829.427L280.749 823.632ZM294.808 830.217L294.106 833.836L306.329 839.083L306.893 835.878L294.808 830.217ZM500.419 924.525L499.304 924.003L501.946 925.043L502.434 925.253L500.419 924.525ZM527.447 937.186L518.291 932.897L530.521 937.312L533.804 938.722C533.118 938.741 532.426 938.704 531.737 938.606L527.447 937.186ZM536.543 940.196C536.692 940.163 536.84 940.127 536.988 940.089L539.573 941.199L536.543 940.196ZM540.89 938.432L562.38 946.891L568.223 949.001C572.136 948.174 575.607 945.527 577.31 941.588L748.922 544.719C750.445 541.195 750.3 537.223 748.529 533.821L748.536 533.817C747.194 531.237 744.975 529.182 742.298 528.026L428.098 393.14L427.604 398.829L718.136 534.916C720.955 536.238 723.201 538.388 724.632 541.139C726.681 545.071 726.769 549.629 724.882 553.64L546.256 932.437C545.044 935.007 543.149 937.043 540.89 938.432ZM425.851 398.008L426.339 392.385L421.482 390.3L420.943 395.709L425.851 398.008ZM419.208 394.896L419.74 389.552L414.94 387.492L414.359 392.625L419.208 394.896ZM412.631 391.815L413.204 386.746L408.469 384.714L407.849 389.576L412.631 391.815ZM406.12 388.766L406.731 383.968L402.059 381.962L401.404 386.557L406.12 388.766ZM399.69 385.754L400.337 381.222L395.734 379.246L395.046 383.579L399.69 385.754ZM393.339 382.779L394.017 378.509L389.502 376.571L388.785 380.646L393.339 382.779ZM387.079 379.847L387.785 375.834L383.346 373.928L382.604 377.751L387.079 379.847ZM380.913 376.959L381.643 373.197L377.288 371.328L376.525 374.903L380.913 376.959ZM374.849 374.118L375.599 370.602L371.345 368.776L370.564 372.111L374.849 374.118ZM368.892 371.328L369.659 368.052L365.512 366.272L364.717 369.372L368.892 371.328ZM363.052 368.592L363.832 365.551L359.807 363.823L359.001 366.695L363.052 368.592ZM357.333 365.914L358.122 363.1L354.231 361.429L353.419 364.08L357.333 365.914ZM351.761 363.304L352.539 360.762L352.555 360.71L349.093 359.223C348.659 359.946 348.285 360.718 347.98 361.533L351.761 363.304ZM346.347 360.768C346.651 359.977 347.014 359.222 347.427 358.508L345.19 357.548C345.09 357.505 344.989 357.463 344.888 357.423C344.272 357.995 343.712 358.623 343.213 359.3L346.347 360.768ZM341.549 358.52C341.97 357.919 342.432 357.351 342.933 356.818C342.373 356.693 341.809 356.608 341.246 356.561C340.65 356.861 340.081 357.202 339.544 357.581L341.549 358.52ZM337.612 356.783L337.615 356.781L337.609 356.782L337.612 356.783ZM170.867 789.311C169.726 787.118 169.24 784.682 169.421 782.273L184.408 788.708L182.067 795.141C181.848 795.739 181.669 796.348 181.528 796.963L177.694 795.453C174.745 794.289 172.326 792.11 170.867 789.311ZM183.766 795.754L186.071 789.422L201.074 795.863L198.479 803.636L183.234 797.634C183.365 796.999 183.543 796.37 183.766 795.754ZM200.16 804.297L202.737 796.577L217.246 802.807L215.002 810.14L200.16 804.297ZM216.683 810.802L218.912 803.522L232.963 809.555L231.03 816.45L216.683 810.802ZM232.726 817.117L234.643 810.276L248.279 816.131L246.623 822.588L232.726 817.117ZM248.321 823.257L249.963 816.854L263.213 822.543L261.803 828.564L248.321 823.257ZM263.507 829.235L264.905 823.269L277.797 828.804L276.604 834.391L263.507 829.235ZM278.309 835.062L279.49 829.531L292.055 834.926L291.055 840.08L278.309 835.062ZM292.764 840.753L293.753 835.655L306.007 840.917L305.177 845.639L292.764 840.753ZM306.895 846.316L307.716 841.65L319.684 846.789L319.003 851.082L306.895 846.316ZM559.44 947.751L559.655 947.844L560.142 948.005L559.44 947.751ZM598.183 959.815L571.029 950.013C574.462 948.629 577.375 945.949 578.955 942.297L750.571 545.436C752.31 541.408 752.152 536.872 750.127 532.981C748.602 530.037 746.065 527.686 743.004 526.375L428.263 391.245L428.696 386.25L767.217 519.51C770.162 520.668 772.586 522.854 774.045 525.652L774.052 525.648C775.81 529.029 776.013 533.005 774.606 536.555L609.998 951.492C608.01 956.511 603.262 959.634 598.183 959.815ZM426.932 385.555L426.504 390.49L421.67 388.415L422.142 383.67L426.932 385.555ZM420.394 382.982L419.928 387.667L415.152 385.617L415.661 381.119L420.394 382.982ZM413.919 380.433L413.416 384.871L408.707 382.849L409.249 378.594L413.919 380.433ZM407.504 377.907L406.969 382.103L402.324 380.109L402.896 376.094L407.504 377.907ZM401.166 375.412L400.601 379.369L396.026 377.405L396.626 373.625L401.166 375.412ZM394.9 372.946L394.309 376.668L389.823 374.742L390.448 371.193L394.9 372.946ZM388.72 370.513L388.106 374.005L383.698 372.112L384.343 368.79L388.72 370.513ZM382.629 368.115L381.995 371.381L377.673 369.525L378.334 366.425L382.629 368.115ZM376.634 365.755L375.984 368.8L371.764 366.989L372.44 364.104L376.634 365.755ZM370.74 363.435L370.078 366.265L365.966 364.499L366.652 361.826L370.74 363.435ZM364.958 361.159L364.287 363.778L360.299 362.066L360.723 360.553C360.813 360.233 360.912 359.918 361.021 359.609L364.958 361.159ZM358.971 360.072L358.614 361.343L354.848 359.726C355.166 358.99 355.543 358.287 355.972 357.622L359.33 358.944C359.198 359.313 359.078 359.689 358.971 360.072ZM354.26 356.948C353.855 357.606 353.496 358.295 353.185 359.012L350.145 357.707C350.644 357.081 351.193 356.502 351.783 355.975C351.859 356.004 351.935 356.033 352.01 356.062L354.26 356.948ZM349.783 355.403C349.304 355.894 348.855 356.419 348.44 356.975L346.498 356.141C347.021 355.785 347.574 355.462 348.151 355.177C348.697 355.218 349.242 355.293 349.783 355.403ZM182.983 799.483C182.819 801.949 183.325 804.442 184.482 806.668C186.055 809.696 188.693 811.998 191.91 813.164L195.029 814.29C195.156 813.697 195.317 813.107 195.512 812.522L197.904 805.357L182.983 799.483ZM199.585 806.019L197.224 813.092C197.023 813.692 196.864 814.299 196.746 814.91L211.871 820.369L214.47 811.878L199.585 806.019ZM216.151 812.54L213.567 820.982L228.272 826.289L230.539 818.204L216.151 812.54ZM232.234 818.871L229.981 826.906L244.199 832.039L246.169 824.357L232.234 818.871ZM247.868 825.025L245.911 832.656L259.681 837.627L261.386 830.347L247.868 825.025ZM263.09 831.017L261.397 838.246L274.752 843.067L276.221 836.186L263.09 831.017ZM277.926 836.858L276.469 843.687L289.446 848.371L290.704 841.888L277.926 836.858ZM292.413 842.561L291.165 848.992L303.786 853.548L304.857 847.459L292.413 842.561ZM306.575 848.135L305.514 854.171L317.808 858.609L318.712 852.913L306.575 848.135ZM320.437 853.592L319.542 859.235L331.527 863.561L332.284 858.256L320.437 853.592ZM334.022 858.94L333.273 864.191L344.975 868.416L345.602 863.498L334.022 858.94ZM601.701 961.085C606.089 959.875 609.882 956.698 611.683 952.159L776.294 537.211C777.894 533.182 777.662 528.661 775.661 524.811C774.007 521.628 771.247 519.147 767.896 517.828L428.86 384.366L429.24 379.987L792.155 510.993C795.368 512.152 798.01 514.461 799.582 517.489L799.586 517.496C801.344 520.859 801.604 524.838 800.302 528.41L642.697 961.416C640.293 968.018 633.272 971.651 626.595 969.994L624.025 969.143L601.701 961.085ZM427.095 383.672L427.47 379.349L422.743 377.642L422.329 381.795L427.095 383.672ZM420.581 381.107L420.989 377.009L416.317 375.323L415.872 379.254L420.581 381.107ZM414.13 378.568L414.568 374.691L409.959 373.027L409.485 376.739L414.13 378.568ZM407.74 376.052L408.207 372.395L403.658 370.753L403.159 374.249L407.74 376.052ZM401.429 373.568L401.92 370.125L397.438 368.508L396.917 371.792L401.429 373.568ZM395.191 371.112L395.704 367.882L391.309 366.295L390.768 369.371L395.191 371.112ZM389.041 368.691L389.572 365.668L385.251 364.108L384.694 366.98L389.041 368.691ZM382.98 366.306L383.527 363.486L379.288 361.956L378.718 364.628L382.98 366.306ZM377.017 363.958L377.576 361.338L373.437 359.844L372.857 362.321L377.017 363.958ZM371.158 361.652L371.726 359.226L367.828 357.819C367.565 358.465 367.342 359.136 367.164 359.83L367.106 360.057L371.158 361.652ZM365.412 359.39L365.413 359.385C365.606 358.633 365.846 357.906 366.128 357.205L362.855 356.024C362.435 356.627 362.056 357.267 361.724 357.938L365.412 359.39ZM360.031 357.271C360.348 356.616 360.705 355.988 361.097 355.389L358.826 354.569C358.807 354.562 358.788 354.556 358.769 354.549C358.738 354.538 358.707 354.527 358.677 354.516C358.106 355.008 357.576 355.542 357.091 356.114L360.031 357.271ZM355.325 355.419C355.724 354.911 356.153 354.428 356.611 353.97C356.099 353.877 355.584 353.814 355.068 353.781C354.515 354.048 353.979 354.35 353.465 354.687L355.325 355.419ZM198.087 824.023C196.897 821.736 196.368 819.238 196.516 816.742L211.343 822.094L208.948 829.919C208.772 830.493 208.629 831.072 208.517 831.654L206.13 830.864C202.641 829.707 199.781 827.275 198.087 824.023ZM210.674 830.434L213.039 822.707L227.784 828.029L225.219 837.181L210.245 832.226C210.35 831.625 210.493 831.027 210.674 830.434ZM226.941 837.75L229.493 828.646L243.749 833.793L241.499 842.567L226.941 837.75ZM243.223 843.138L245.461 834.411L259.267 839.394L257.299 847.796L243.223 843.138ZM259.027 848.367L260.983 840.014L274.372 844.847L272.658 852.878L259.027 848.367ZM274.385 853.449L276.089 845.467L289.099 850.163L287.612 857.826L274.385 853.449ZM289.34 858.398L290.818 850.783L303.469 855.35L302.186 862.649L289.34 858.398ZM303.922 863.223L305.197 855.974L317.52 860.423L316.419 867.358L303.922 863.223ZM318.161 867.934L319.254 861.048L331.267 865.385L330.329 871.961L318.161 867.934ZM332.082 872.541L333.012 866.015L344.742 870.249L343.949 876.468L332.082 872.541ZM345.702 877.048L346.488 870.879L357.952 875.018L357.289 880.882L345.702 877.048ZM359.043 881.462L359.701 875.649L370.918 879.698L370.37 885.21L359.043 881.462ZM657.578 980.246L632.531 971.958C637.794 971.025 642.439 967.392 644.393 962.022L801.998 529.017C803.468 524.97 803.176 520.456 801.188 516.645C799.405 513.222 796.412 510.609 792.768 509.294L429.401 378.125L429.734 374.291L817.084 502.463C820.579 503.615 823.428 506.044 825.126 509.304L825.133 509.3C826.91 512.698 827.212 516.589 825.997 520.231L675.398 971.312C672.933 978.68 664.948 982.682 657.578 980.246ZM427.96 373.704L427.632 377.486L422.928 375.788L423.289 372.158L427.96 373.704ZM421.53 371.576L421.174 375.155L416.526 373.477L416.914 370.049L421.53 371.576ZM415.159 369.468L414.777 372.846L410.193 371.191L410.605 367.961L415.159 369.468ZM408.846 367.379L408.441 370.558L403.919 368.926L404.351 365.892L408.846 367.379ZM402.606 365.314L402.181 368.298L397.727 366.691L398.178 363.849L402.606 365.314ZM396.435 363.272L395.992 366.065L391.627 364.489L392.093 361.835L396.435 363.272ZM390.348 361.258L389.89 363.862L385.6 362.313L386.079 359.845L390.348 361.258ZM384.345 359.272L383.876 361.691L379.669 360.172L380.051 358.381C380.087 358.216 380.124 358.052 380.164 357.888L384.345 359.272ZM378.287 358.008L377.957 359.554L373.885 358.084C374.096 357.39 374.353 356.715 374.651 356.064L378.447 357.32C378.39 357.548 378.336 357.777 378.287 358.008ZM372.924 355.493C372.64 356.133 372.392 356.793 372.183 357.47L368.611 356.181C368.948 355.571 369.324 354.989 369.734 354.437L372.924 355.493ZM367.937 353.842C367.558 354.391 367.209 354.964 366.893 355.56L364.042 354.531C364.519 354.004 365.032 353.513 365.574 353.061C365.595 353.067 365.615 353.074 365.636 353.081L367.937 353.842ZM363.447 352.546C363.015 352.964 362.605 353.407 362.219 353.873L360.424 353.225C360.73 353.033 361.044 352.85 361.367 352.679C361.559 352.577 361.752 352.479 361.947 352.386C362.446 352.412 362.946 352.465 363.447 352.546ZM210.045 834.066C209.933 836.582 210.485 839.091 211.678 841.385C213.497 844.87 216.569 847.428 220.342 848.568L221.988 849.067C222.088 848.474 222.219 847.883 222.383 847.297L224.73 838.925L210.045 834.066ZM226.452 839.495L224.129 847.783C223.96 848.383 223.83 848.989 223.737 849.597L238.545 854.086L241.048 844.325L226.452 839.495ZM242.772 844.895L240.281 854.612L254.68 858.978L256.885 849.565L242.772 844.895ZM258.612 850.136L256.418 859.504L270.343 863.726L272.278 854.658L258.612 850.136ZM274.005 855.23L272.079 864.252L285.571 868.342L287.264 859.617L274.005 855.23ZM288.993 860.189L287.309 868.869L300.395 872.836L301.869 864.45L288.993 860.189ZM303.605 865.024L302.139 873.365L314.854 877.219L316.132 869.169L303.605 865.024ZM317.873 869.746L316.603 877.75L328.968 881.498L330.069 873.781L317.873 869.746ZM331.822 874.361L330.728 882.032L342.774 885.684L343.716 878.297L331.822 874.361ZM345.468 878.877L344.533 886.217L356.282 889.779L357.081 882.719L345.468 878.877ZM358.835 883.3L358.042 890.312L369.515 893.79L370.186 887.055L358.835 883.3ZM371.944 887.637L371.278 894.325L382.488 897.723L383.044 891.31L371.944 887.637ZM662.923 982.738L689.907 990.919C697.582 993.244 705.736 988.896 708.09 981.223L851.681 512.066C852.802 508.404 852.447 504.517 850.681 501.122L850.678 501.133C848.855 497.641 845.788 495.089 842.01 493.943L430.185 369.096L429.895 372.438L817.66 500.747C821.594 502.052 824.823 504.788 826.735 508.467C828.733 512.31 829.078 516.691 827.708 520.8L677.114 971.889C674.995 978.229 669.232 982.363 662.923 982.738ZM428.121 371.851L428.407 368.557L423.787 367.156L423.473 370.313L428.121 371.851ZM421.714 369.731L422.024 366.622L417.458 365.238L417.122 368.211L421.714 369.731ZM415.367 367.631L415.699 364.704L411.194 363.339L410.838 366.132L415.367 367.631ZM409.079 365.55L409.429 362.804L404.984 361.456L404.611 364.071L409.079 365.55ZM402.866 363.494L403.233 360.925L398.853 359.597L398.465 362.038L402.866 363.494ZM396.723 361.461L397.103 359.067L392.809 357.765L392.41 360.034L396.723 361.461ZM390.664 359.456L391.055 357.233L386.916 355.979C386.751 356.529 386.613 357.09 386.502 357.661L386.426 358.054L390.664 359.456ZM384.693 357.48L384.723 357.325C384.846 356.69 385.001 356.065 385.185 355.454L381.48 354.331C381.181 354.92 380.917 355.529 380.69 356.156L384.693 357.48ZM378.976 355.589C379.196 354.977 379.447 354.38 379.728 353.8L376.61 352.854C376.211 353.361 375.844 353.891 375.51 354.442L378.976 355.589ZM373.752 353.86C374.062 353.32 374.4 352.798 374.764 352.295L372.467 351.598C371.949 352.015 371.457 352.466 370.994 352.948L373.752 353.86ZM369.115 352.326C369.485 351.901 369.875 351.495 370.282 351.109C369.808 351.041 369.332 350.996 368.856 350.975C368.356 351.209 367.869 351.47 367.397 351.758L369.115 352.326ZM225.262 858.751C224.077 856.471 223.505 853.962 223.573 851.442L238.094 855.844L235.826 864.69C235.67 865.297 235.548 865.909 235.459 866.523L234.565 866.275C230.568 865.163 227.178 862.419 225.262 858.751ZM237.583 865.132L239.83 856.37L254.266 860.747L251.848 871.07L237.222 867.012C237.303 866.382 237.423 865.754 237.583 865.132ZM253.596 871.556L256.004 861.274L269.963 865.506L267.829 875.505L253.596 871.556ZM269.574 875.989L271.699 866.032L285.224 870.132L283.346 879.811L269.574 875.989ZM285.091 880.295L286.961 870.659L300.078 874.636L298.432 883.997L285.091 880.295ZM300.183 884.483L301.822 875.164L314.567 879.028L313.131 888.076L300.183 884.483ZM314.886 888.563L316.316 879.558L328.709 883.315L327.462 892.052L314.886 888.563ZM329.228 892.543L330.469 883.849L342.541 887.509L341.467 895.939L329.228 892.543ZM343.231 896.428L344.3 888.042L356.074 891.612L355.155 899.737L343.231 896.428ZM356.92 900.226L357.834 892.145L369.332 895.631L368.552 903.454L356.92 900.226ZM370.32 903.945L371.095 896.165L382.327 899.571L381.674 907.096L370.32 903.945ZM383.452 907.589L384.102 900.109L682.414 990.547L383.452 907.589ZM722.241 1001.6L692.123 993.241C699.871 994.201 707.462 989.473 709.821 981.763L853.412 512.606C854.674 508.485 854.272 504.118 852.287 500.296C850.242 496.37 846.786 493.499 842.543 492.216L430.345 367.251L430.598 364.338L866.939 485.412C870.936 486.524 874.323 489.26 876.235 492.94L876.242 492.936C878.005 496.324 878.41 500.219 877.376 503.904L740.788 991.13C738.553 999.121 730.231 1003.82 722.241 1001.6ZM428.816 363.844L428.567 366.712L423.97 365.318L424.244 362.575L428.816 363.844ZM422.476 362.085L422.207 364.784L417.666 363.407L417.957 360.831L422.476 362.085ZM416.192 360.341L415.906 362.873L411.426 361.515L411.734 359.104L416.192 360.341ZM409.963 358.613L409.662 360.98L405.243 359.641L405.564 357.392L409.963 358.613ZM403.806 356.904L403.491 359.11L399.14 357.79L399.39 356.212C399.417 356.041 399.447 355.872 399.478 355.703L403.806 356.904ZM397.6 355.936L397.39 357.26L393.151 355.975C393.3 355.336 393.482 354.71 393.697 354.099L397.727 355.217C397.681 355.455 397.638 355.695 397.6 355.936ZM391.943 353.612C391.736 354.211 391.557 354.823 391.407 355.446L387.529 354.27C387.768 353.701 388.037 353.148 388.335 352.611L391.943 353.612ZM386.55 352.116C386.271 352.645 386.018 353.188 385.791 353.743L382.415 352.72C382.747 352.217 383.107 351.732 383.493 351.268L386.55 352.116ZM381.603 350.743C381.253 351.205 380.925 351.683 380.62 352.176L377.942 351.364C378.387 350.924 378.86 350.509 379.359 350.121L381.603 350.743ZM377.106 349.662C376.72 350.017 376.351 350.389 376 350.775L374.373 350.282C374.826 350.017 375.291 349.774 375.767 349.555C376.212 349.571 376.658 349.606 377.106 349.662ZM237.095 868.863C237.075 871.372 237.666 873.863 238.84 876.121C240.881 880.04 244.497 882.902 248.782 883.986L248.927 884.023C249.005 883.369 249.12 882.718 249.271 882.072L251.433 872.841L237.095 868.863ZM253.181 873.326L251.037 882.48C250.883 883.14 250.77 883.805 250.701 884.472L265.133 888.133L267.449 877.285L253.181 873.326ZM269.194 877.769L266.887 888.578L280.953 892.145L282.999 881.6L269.194 877.769ZM284.744 882.084L282.706 892.59L296.314 896.042L298.116 885.794L284.744 882.084ZM299.867 886.28L298.072 896.487L311.264 899.833L312.844 889.881L299.867 886.28ZM314.6 890.368L313.026 900.28L325.825 903.527L327.204 893.865L314.6 890.368ZM328.97 894.355L327.598 903.976L340.04 907.132L341.235 897.758L328.97 894.355ZM342.999 898.247L341.809 907.581L353.92 910.652L354.948 901.563L342.999 898.247ZM356.713 902.053L355.689 911.101L367.492 914.095L368.37 905.287L356.713 902.053ZM370.137 905.777L369.264 914.544L380.775 917.464L381.515 908.934L370.137 905.777ZM383.293 909.427L382.556 917.916L754.57 1012.27C762.872 1014.37 771.356 1009.34 773.483 1001.05L903.064 495.746C904.015 492.045 903.566 488.138 901.803 484.75L901.8 484.761C899.763 480.849 896.144 477.98 891.865 476.892L430.975 359.994L430.756 362.513L867.432 483.68C871.909 484.921 875.702 487.994 877.848 492.11C879.828 495.907 880.277 500.275 879.119 504.4L742.531 991.626C740.024 1000.57 730.698 1005.82 721.751 1003.34L383.293 909.427ZM428.974 362.019L429.189 359.542L424.66 358.393L424.425 360.757L428.974 362.019ZM422.657 360.266L422.888 357.943L418.412 356.808L418.162 359.019L422.657 360.266ZM416.397 358.529L416.643 356.359L412.227 355.239L411.964 357.299L416.397 358.529ZM410.194 356.808L410.451 354.789L406.179 353.705C406.036 354.293 405.921 354.89 405.834 355.496L405.82 355.594L410.194 356.808ZM404.063 355.107C404.156 354.482 404.277 353.867 404.425 353.26L400.486 352.261C400.264 352.81 400.067 353.374 399.898 353.951L404.063 355.107ZM398.153 353.467C398.317 352.904 398.505 352.352 398.716 351.812L395.192 350.919C394.9 351.406 394.631 351.907 394.387 352.422L398.153 353.467ZM392.614 351.93C392.843 351.427 393.093 350.935 393.363 350.455L390.382 349.699C390.011 350.123 389.663 350.564 389.338 351.021L392.614 351.93ZM387.499 350.511C387.795 350.063 388.11 349.628 388.444 349.207L386.237 348.647C385.765 349.005 385.315 349.385 384.888 349.786L387.499 350.511ZM382.886 349.231C383.217 348.881 383.563 348.544 383.923 348.219C383.493 348.173 383.064 348.144 382.638 348.134C382.196 348.335 381.761 348.557 381.334 348.8L382.886 349.231ZM252.414 893.502C251.252 891.267 250.643 888.805 250.615 886.32L264.755 889.906L262.717 899.453C262.569 900.148 262.462 900.848 262.396 901.55C258.096 900.375 254.484 897.468 252.414 893.502ZM264.485 899.833L266.509 890.351L280.607 893.927L278.407 905.268L264.174 901.974C264.23 901.258 264.334 900.542 264.485 899.833ZM280.167 905.676L282.36 894.371L296 897.83L294.055 908.89L280.167 905.676ZM295.82 909.298L297.758 898.276L310.979 901.63L309.268 912.41L295.82 909.298ZM311.036 912.819L312.741 902.077L325.568 905.33L324.069 915.836L311.036 912.819ZM325.847 916.247L327.34 905.779L339.809 908.942L338.505 919.176L325.847 916.247ZM340.278 919.587L341.578 909.39L353.714 912.468L352.586 922.435L340.278 919.587ZM354.36 922.846L355.484 912.917L367.311 915.917L366.345 925.619L354.36 922.846ZM368.12 926.03L369.083 916.366L380.616 919.291L379.797 928.732L368.12 926.03ZM381.582 929.145L382.398 919.743L754.135 1014.02C763.403 1016.38 772.875 1010.75 775.245 1001.5L904.826 496.195C905.886 492.061 905.385 487.696 903.417 483.92C901.141 479.547 897.094 476.353 892.318 475.138L431.133 358.17L431.32 356.012L916.795 468.361C921.361 469.421 925.217 472.412 927.383 476.563C929.145 479.951 929.634 483.863 928.759 487.584L806.186 1010.96C804.174 1019.56 795.52 1024.94 786.911 1022.95L381.582 929.145ZM429.531 355.598L429.348 357.718L424.841 356.575L425.042 354.559L429.531 355.598ZM423.266 354.149L423.069 356.125L418.617 354.996L418.723 354.064C418.759 353.749 418.802 353.437 418.852 353.127L423.266 354.149ZM416.926 353.857L416.848 354.547L412.502 353.445C412.615 352.873 412.754 352.308 412.917 351.754L417.086 352.718C417.023 353.094 416.969 353.474 416.926 353.857ZM411.145 351.343C410.988 351.887 410.852 352.439 410.738 352.998L406.69 351.971C406.869 351.455 407.071 350.948 407.294 350.452L411.145 351.343ZM405.5 350.037C405.291 350.524 405.101 351.02 404.93 351.525L401.262 350.594C401.508 350.13 401.773 349.678 402.056 349.24L405.5 350.037ZM400.194 348.809C399.934 349.241 399.689 349.684 399.461 350.138L396.27 349.328C396.585 348.916 396.918 348.517 397.27 348.132L400.194 348.809ZM395.273 347.67C394.958 348.052 394.66 348.445 394.376 348.848L391.855 348.209C392.26 347.846 392.684 347.5 393.127 347.174L395.273 347.67ZM390.758 346.771C390.424 347.065 390.101 347.37 389.791 347.685L388.303 347.308C388.702 347.088 389.108 346.886 389.52 346.701C389.932 346.709 390.345 346.732 390.758 346.771ZM264.132 903.82C264.213 906.27 264.838 908.689 265.978 910.88C268.053 914.864 271.609 917.79 275.863 919.068C275.919 918.325 276.019 917.579 276.162 916.835L278.062 907.043L264.132 903.82ZM279.822 907.451L277.935 917.175C277.785 917.952 277.689 918.73 277.645 919.504L291.669 922.459L293.742 910.672L279.822 907.451ZM295.506 911.08L293.44 922.832L307.155 925.722L308.984 914.199L295.506 911.08ZM310.752 914.608L308.928 926.096L322.207 928.894L323.813 917.631L310.752 914.608ZM325.591 918.043L323.99 929.269L336.872 931.984L338.275 920.978L325.591 918.043ZM340.049 921.388L338.65 932.359L351.165 934.996L352.382 924.242L340.049 921.388ZM354.156 924.653L352.943 935.37L365.118 937.936L366.164 927.432L354.156 924.653ZM367.94 927.843L366.897 938.311L378.749 940.808L379.639 930.55L367.94 927.843ZM381.424 930.963L380.537 941.185L819.244 1033.63C823.565 1034.53 827.986 1033.71 831.7 1031.3C835.407 1028.89 837.96 1025.19 838.884 1020.87L954.455 479.422C955.253 475.68 954.727 471.753 952.962 468.376L952.965 468.365C950.673 463.964 946.574 460.856 941.724 459.831L431.639 352.354C431.631 352.443 431.622 352.532 431.615 352.622L431.478 354.194L917.208 466.602C922.292 467.778 926.579 471.1 928.992 475.726C930.952 479.488 931.496 483.847 930.526 487.993L807.948 1011.36C805.705 1020.94 796.083 1026.92 786.498 1024.71L381.424 930.963ZM429.689 353.78L429.803 352.469C429.817 352.305 429.833 352.141 429.851 351.977L425.519 351.064C425.4 351.619 425.304 352.18 425.231 352.748L429.689 353.78ZM423.462 352.339C423.538 351.784 423.634 351.235 423.75 350.692L419.682 349.834C419.509 350.333 419.356 350.841 419.222 351.358L423.462 352.339ZM417.458 350.95C417.587 350.444 417.733 349.947 417.897 349.458L414.127 348.664C413.904 349.112 413.699 349.57 413.512 350.036L417.458 350.95ZM411.725 349.623C411.901 349.167 412.092 348.719 412.299 348.279L408.919 347.567C408.645 347.966 408.386 348.375 408.144 348.794L411.725 349.623ZM406.308 348.369C406.53 347.96 406.767 347.559 407.016 347.166L404.168 346.566C403.835 346.914 403.515 347.277 403.21 347.652L406.308 348.369ZM401.271 347.203C401.543 346.837 401.828 346.481 402.124 346.135L400.021 345.692C399.604 345.991 399.203 346.306 398.817 346.636L401.271 347.203ZM396.677 346.14C396.968 345.857 397.267 345.581 397.577 345.314C397.19 345.283 396.804 345.265 396.419 345.261C396.033 345.431 395.652 345.617 395.277 345.816L396.677 346.14ZM279.541 928.258C278.404 926.076 277.766 923.735 277.641 921.34L291.358 924.23L289.601 934.22C289.464 935.007 289.375 935.794 289.334 936.578C285.123 935.204 281.62 932.258 279.541 928.258ZM291.383 934.528L293.128 924.603L306.873 927.5L304.936 939.703L291.442 937.121C291.335 937.101 291.228 937.079 291.122 937.057C291.148 936.216 291.235 935.372 291.383 934.528ZM306.714 940.044L308.646 927.874L321.952 930.678L320.247 942.633L306.714 940.044ZM322.035 942.975L323.735 931.053L336.644 933.774L335.151 945.485L322.035 942.975ZM336.933 945.826L338.422 934.148L350.962 936.791L349.664 948.262L336.933 945.826ZM351.446 948.603L352.74 937.166L364.938 939.736L363.819 950.971L351.446 948.603ZM365.602 951.312L366.718 940.111L378.592 942.614L377.637 953.615L365.602 951.312ZM379.428 953.958L380.38 942.991L818.864 1035.39C823.659 1036.4 828.568 1035.49 832.685 1032.82C836.805 1030.13 839.63 1026.02 840.655 1021.24L956.226 479.792C957.11 475.64 956.523 471.288 954.567 467.532C952.024 462.649 947.479 459.199 942.097 458.067L431.896 350.555C431.99 350.048 432.103 349.547 432.234 349.052L966.65 451.311C971.791 452.297 976.133 455.523 978.551 460.174L978.548 460.185C980.341 463.61 980.89 467.45 980.15 471.261L871.586 1030.78C870.71 1035.25 868.16 1039.12 864.38 1041.67C860.599 1044.22 856.053 1045.16 851.577 1044.31L379.428 953.958ZM430.445 348.71C430.32 349.195 430.21 349.685 430.117 350.18L425.979 349.308C426.121 348.848 426.28 348.394 426.455 347.947L430.445 348.71ZM424.652 347.602C424.489 348.04 424.339 348.484 424.203 348.934L420.365 348.125C420.555 347.708 420.759 347.299 420.977 346.898L424.652 347.602ZM419.118 346.543C418.918 346.936 418.729 347.336 418.553 347.743L415.055 347.006C415.29 346.632 415.539 346.266 415.8 345.908L419.118 346.543ZM413.85 345.535C413.614 345.886 413.389 346.245 413.176 346.61L410.15 345.973C410.438 345.638 410.739 345.314 411.052 344.999L413.85 345.535ZM408.952 344.598C408.677 344.908 408.411 345.227 408.156 345.553L405.797 345.055C406.158 344.759 406.531 344.476 406.915 344.208L408.952 344.598ZM404.415 343.858C404.135 344.095 403.861 344.339 403.594 344.591L402.274 344.313C402.617 344.136 402.966 343.971 403.318 343.818C403.683 343.82 404.049 343.833 404.415 343.858ZM291.161 938.905C291.335 941.239 291.981 943.515 293.087 945.637C295.176 949.649 298.634 952.623 302.805 954.082C302.834 953.257 302.914 952.429 303.047 951.602L304.652 941.487L291.161 938.905ZM306.431 941.828L304.834 951.888C304.69 952.796 304.615 953.704 304.608 954.607C304.955 954.688 305.306 954.76 305.661 954.821L318.198 956.992L319.991 944.422L306.431 941.828ZM321.779 944.765L319.991 957.303L333.349 959.616L334.922 947.28L321.779 944.765ZM336.704 947.621L335.135 959.926L348.09 962.169L349.46 950.062L336.704 947.621ZM351.242 950.403L349.875 962.478L362.456 964.657L363.64 952.775L351.242 950.403ZM365.422 953.116L364.242 964.966L376.469 967.084L377.48 955.424L365.422 953.116ZM379.271 955.767L378.262 967.395L883.921 1054.97C893.476 1056.63 902.604 1050.21 904.284 1040.67L1005.84 463.081C1006.52 459.253 1005.93 455.408 1004.14 451.965L1004.14 451.972C1001.59 447.075 997.011 443.727 991.572 442.784L433.265 346.089C433.087 346.497 432.923 346.91 432.772 347.329L966.977 449.546C972.675 450.635 977.467 454.209 980.146 459.345C982.119 463.146 982.738 467.379 981.922 471.601L873.348 1031.12C872.397 1036.07 869.561 1040.35 865.385 1043.17C861.206 1045.99 856.176 1047.03 851.23 1046.08L379.271 955.767ZM430.967 346.983C431.108 346.574 431.262 346.17 431.426 345.771L427.81 345.145C427.596 345.511 427.394 345.884 427.204 346.263L430.967 346.983ZM425.366 345.912C425.541 345.542 425.726 345.177 425.921 344.818L422.697 344.259C422.445 344.585 422.203 344.92 421.972 345.262L425.366 345.912ZM420.05 344.895C420.259 344.561 420.476 344.234 420.702 343.914L417.952 343.437C417.653 343.726 417.366 344.023 417.088 344.328L420.05 344.895ZM415.037 343.935C415.28 343.638 415.532 343.348 415.793 343.063L413.796 342.718C413.563 342.878 413.332 343.044 413.104 343.215C412.981 343.307 412.86 343.401 412.74 343.496L415.037 343.935ZM410.467 343.061C410.715 342.834 410.969 342.613 411.23 342.397C410.893 342.379 410.556 342.37 410.221 342.372C409.889 342.513 409.561 342.665 409.238 342.826L410.467 343.061ZM306.64 963.03C305.565 960.967 304.911 958.756 304.691 956.487C304.909 956.533 305.129 956.575 305.35 956.613L317.941 958.794L316.488 968.976C316.365 969.849 316.298 970.722 316.286 971.591C312.173 970.029 308.704 966.991 306.64 963.03ZM318.289 969.237L319.734 959.104L333.119 961.422L331.471 974.354L319.886 972.546C319.282 972.451 318.687 972.326 318.101 972.173C318.087 971.198 318.149 970.217 318.289 969.237ZM333.26 974.634L334.905 961.732L347.885 963.979L346.447 976.693L333.26 974.634ZM348.235 976.972L349.671 964.289L362.275 966.472L361.03 978.97L348.235 976.972ZM362.819 979.249L364.061 966.781L376.311 968.902L375.245 981.189L362.819 979.249ZM377.041 981.469L378.104 969.213L883.606 1056.76C894.14 1058.57 904.215 1051.5 906.065 1040.98L1007.63 463.389C1008.37 459.16 1007.73 454.925 1005.75 451.128C1002.93 445.728 997.879 442.037 991.876 440.996L434.096 344.398C434.28 344.064 434.473 343.735 434.675 343.411L1016.48 434.254C1022.14 435.138 1027.09 438.696 1029.73 443.77C1031.52 447.213 1032.15 451.074 1031.54 454.919L936.979 1050.59C936.228 1055.35 933.648 1059.55 929.735 1062.4C925.829 1065.25 921.042 1066.41 916.258 1065.66L377.041 981.469ZM432.739 343.109C432.556 343.426 432.38 343.747 432.213 344.072L428.884 343.496C429.101 343.196 429.326 342.901 429.561 342.613L432.739 343.109ZM427.526 342.295C427.318 342.577 427.117 342.864 426.923 343.156L424.071 342.662C424.328 342.394 424.592 342.133 424.863 341.879L427.526 342.295ZM422.646 341.533C422.412 341.782 422.183 342.036 421.96 342.296L419.732 341.911C420.046 341.672 420.366 341.445 420.691 341.228L422.646 341.533ZM418.051 340.935C417.823 341.12 417.599 341.31 417.381 341.503L416.23 341.304C416.508 341.169 416.79 341.042 417.074 340.921C417.398 340.917 417.724 340.922 418.051 340.935ZM318.227 974.063C318.488 976.269 319.148 978.417 320.194 980.423C322.261 984.397 325.688 987.452 329.769 989.096C329.767 988.186 329.824 987.27 329.941 986.354L331.242 976.146L319.606 974.329C319.142 974.256 318.682 974.168 318.227 974.063ZM333.032 976.425L331.736 986.59C331.603 987.637 331.556 988.685 331.593 989.723C332.418 989.96 333.263 990.141 334.124 990.262L344.743 991.75L346.244 978.487L333.032 976.425ZM348.032 978.767L346.535 992.001L359.551 993.824L360.851 980.768L348.032 978.767ZM362.64 981.047L361.342 994.075L373.973 995.844L375.088 982.991L362.64 981.047ZM376.884 983.271L375.771 996.096L948.61 1076.34C953.539 1077.02 958.448 1075.75 962.428 1072.76C966.415 1069.77 968.992 1065.41 969.698 1060.48L1057.25 446.749C1057.8 442.882 1057.14 439.013 1055.34 435.563L1055.33 435.56C1052.56 430.229 1047.35 426.555 1041.4 425.721L436.456 340.978C436.237 341.235 436.026 341.497 435.821 341.763L1016.77 432.467C1022.99 433.431 1028.43 437.35 1031.33 442.926C1033.31 446.716 1034 450.956 1033.33 455.187L938.762 1050.85C937.933 1056.1 935.095 1060.72 930.791 1063.85C926.48 1066.98 921.217 1068.26 915.964 1067.43L376.884 983.271ZM433.801 341.448C433.983 341.19 434.17 340.935 434.362 340.685L431.74 340.317C431.49 340.543 431.245 340.775 431.008 341.011L433.801 341.448ZM428.843 340.674C429.047 340.445 429.257 340.22 429.471 340L427.599 339.737C427.301 339.931 427.009 340.133 426.722 340.342L428.843 340.674ZM424.29 339.963C424.486 339.794 424.685 339.629 424.886 339.468C424.587 339.458 424.288 339.456 423.99 339.461C423.734 339.567 423.48 339.679 423.228 339.797L424.29 339.963ZM333.73 997.818C332.714 995.869 332.053 993.785 331.758 991.641C332.446 991.813 333.146 991.949 333.855 992.048L344.54 993.545L343.386 1003.74C343.277 1004.69 343.232 1005.65 343.25 1006.61C339.199 1004.89 335.811 1001.81 333.73 997.818ZM345.183 1003.94L346.332 993.796L359.372 995.623L358.021 1009.18L348.34 1007.97C347.227 1007.83 346.139 1007.6 345.085 1007.28C345.024 1006.17 345.056 1005.06 345.183 1003.94ZM359.815 1009.41L361.163 995.874L373.816 997.646L372.657 1011.01L359.815 1009.41ZM374.457 1011.24L375.615 997.898L948.345 1078.13C953.752 1078.89 959.132 1077.5 963.502 1074.21C967.875 1070.93 970.707 1066.14 971.477 1060.74L1059.03 447.004C1059.63 442.758 1058.91 438.51 1056.93 434.727C1053.89 428.887 1048.18 424.856 1041.66 423.942L437.969 339.376C438.186 339.169 438.409 338.966 438.636 338.767L1066.33 417.19C1072.57 417.974 1078.04 421.77 1080.94 427.346L1080.94 427.357C1082.73 430.818 1083.42 434.696 1082.93 438.584L1002.39 1070.39C1001.06 1080.87 991.432 1088.32 980.943 1087.02L374.457 1011.24ZM436.301 338.475C436.108 338.668 435.919 338.864 435.734 339.063L433.671 338.774C433.93 338.591 434.192 338.415 434.458 338.245L436.301 338.475ZM431.344 338.279C431.285 338.327 431.227 338.375 431.17 338.424L430.234 338.292C430.451 338.194 430.67 338.099 430.891 338.009C431.154 338.003 431.418 338.002 431.682 338.007C431.569 338.097 431.456 338.188 431.344 338.279ZM345.289 1009.21C345.614 1011.29 346.277 1013.32 347.265 1015.21C349.354 1019.22 352.712 1022.33 356.736 1024.11C356.701 1023.12 356.732 1022.12 356.832 1021.12L357.843 1010.97L348.107 1009.76C347.149 1009.64 346.208 1009.45 345.289 1009.21ZM359.637 1011.2L358.631 1021.3C358.514 1022.48 358.5 1023.66 358.587 1024.82C359.865 1025.24 361.196 1025.53 362.563 1025.68L371.3 1026.65L372.501 1012.81L359.637 1011.2ZM374.302 1013.03L373.103 1026.85L1013.28 1097.7C1018.51 1098.28 1023.66 1096.78 1027.78 1093.5C1031.91 1090.21 1034.5 1085.52 1035.09 1080.29L1108.63 430.411C1109.07 426.509 1108.35 422.618 1106.55 419.143C1103.51 413.31 1097.79 409.387 1091.25 408.663L441.35 336.748C441.115 336.895 440.882 337.047 440.653 337.204L1066.56 415.41C1073.39 416.266 1079.37 420.42 1082.54 426.524C1084.51 430.311 1085.27 434.553 1084.72 438.813L1004.18 1070.62C1002.72 1082.09 992.188 1090.26 980.711 1088.82L374.302 1013.03ZM438.067 336.881L437.206 336.773C437.384 336.695 437.563 336.619 437.743 336.546C437.995 336.538 438.247 336.535 438.5 336.537C438.354 336.65 438.21 336.764 438.067 336.881ZM360.797 1032.6C359.844 1030.76 359.184 1028.8 358.831 1026.79C359.974 1027.11 361.153 1027.34 362.356 1027.48L371.143 1028.45L370.271 1038.5C370.181 1039.54 370.164 1040.58 370.216 1041.61C366.223 1039.76 362.895 1036.63 360.797 1032.6ZM372.079 1038.65L372.946 1028.65L1013.09 1099.47C1018.8 1100.1 1024.42 1098.48 1028.92 1094.89C1033.42 1091.3 1036.25 1086.18 1036.9 1080.47L1110.44 430.593C1110.92 426.333 1110.13 422.078 1108.16 418.295C1104.84 411.925 1098.6 407.646 1091.46 406.859L444.236 335.241C444.365 335.187 444.494 335.133 444.623 335.081C445.521 335.05 446.427 335.078 447.336 335.167L1116.16 400.134C1123.01 400.799 1128.99 404.832 1132.16 410.929L1132.16 410.936C1133.97 414.407 1134.72 418.317 1134.33 422.239L1067.8 1090.19C1066.69 1101.29 1056.74 1109.44 1045.62 1108.37L376.787 1043.39C375.163 1043.23 373.588 1042.88 372.087 1042.36C371.974 1041.14 371.97 1039.89 372.079 1038.65ZM372.37 1044.36C373.738 1044.77 375.157 1045.05 376.613 1045.19L1045.46 1110.17C1057.56 1111.35 1068.41 1102.46 1069.61 1090.36L1136.14 422.409C1136.57 418.135 1135.74 413.875 1133.77 410.088C1130.32 403.458 1123.8 399.06 1116.35 398.338L450.619 333.665C451.78 333.569 452.957 333.57 454.141 333.671L1141.08 391.618C1148.22 392.216 1154.47 396.372 1157.77 402.722L1157.78 402.718C1159.59 406.196 1160.38 410.122 1160.03 414.062L1100.5 1100.08C1100.02 1105.62 1097.41 1110.63 1093.16 1114.22C1088.9 1117.8 1083.51 1119.51 1077.96 1119.04L391.018 1061.11C383.883 1060.5 377.644 1056.35 374.333 1049.99C373.403 1048.21 372.745 1046.31 372.37 1044.36Z" fill="#E4E7F1"/>
</svg>
