<svg width="38" height="38" viewBox="0 0 38 38" fill="none" xmlns="http://www.w3.org/2000/svg">
<path d="M33.25 19C33.25 26.8701 26.8701 33.25 19 33.25M33.25 19C33.25 11.1299 26.8701 4.75 19 4.75M33.25 19C33.25 15.9394 26.8701 13.4583 19 13.4583C11.1299 13.4583 4.75 15.9394 4.75 19M33.25 19C33.25 22.0606 26.8701 24.5417 19 24.5417C11.1299 24.5417 4.75 22.0606 4.75 19M19 33.25C11.1299 33.25 4.75 26.8701 4.75 19M19 33.25C22.4978 33.25 25.3333 26.8701 25.3333 19C25.3333 11.1299 22.4978 4.75 19 4.75M19 33.25C15.5022 33.25 12.6667 26.8701 12.6667 19C12.6667 11.1299 15.5022 4.75 19 4.75M4.75 19C4.75 11.1299 11.1299 4.75 19 4.75" stroke="#667085" stroke-width="1.5"/>
</svg>
