<svg width="457" height="274" viewBox="0 0 457 274" fill="none" xmlns="http://www.w3.org/2000/svg">
<path fill-rule="evenodd" clip-rule="evenodd" d="M45.66 0.159689H0.159837V45.6179H40.9462L45.66 40.9084V0.159689ZM50.4996 45.6179L45.8465 40.9691V0.159689H91.3467V45.6179H50.4996ZM45.8465 50.3837L50.4303 45.8042H91.3467V91.2624H45.8465V50.3837ZM41.0155 45.8042L45.66 50.4444V91.2624H0.159837V45.8042H41.0155ZM0 0V45.6445V45.7776V91.2889V91.4221V136.933V137.066V182.578V182.711V228.222V228.355V274H45.6867H45.8199H91.3733H91.5066H137.06H137.193H182.747H182.88H228.433H228.567H274.12H274.253H319.807H319.94H365.493H365.627H411.18H411.313H457L457 228.355V182.711V182.578V136.933V91.4221V45.7776V45.6445V0H411.313H411.18H365.627H365.493H319.94H319.807H274.253H274.12H228.567H228.433H182.88H182.747H137.193H137.06H91.5066H91.3733H45.8199H45.6867H0ZM91.5331 0.159689H137.033V45.6179H91.5331V0.159689ZM182.72 0.159689H137.22V45.6179H182.72V0.159689ZM182.907 0.159689H228.407V45.6179H182.907V0.159689ZM274.093 0.159689H228.593V45.6179H274.093V0.159689ZM274.28 0.159689H319.78V45.6179H274.28V0.159689ZM365.467 0.159689H319.967V45.6179H365.467V0.159689ZM365.653 0.159689H411.153V45.6179H365.653V0.159689ZM456.84 0.159689H411.34V45.6179H456.84V0.159689ZM91.5331 45.8042H137.033V91.2624H91.5331V45.8042ZM182.72 45.8042H137.22V91.2624H178.143L182.72 86.6899V45.8042ZM187.41 91.2624L182.907 86.7631V45.8042H228.407V91.2624H187.41ZM182.907 96.1652L187.612 91.4642L187.596 91.4486H228.407V136.907H182.907V96.1652ZM177.957 91.4486L177.941 91.4642L182.72 96.2384V136.907H137.22V91.4486H177.957ZM274.093 45.8042H228.593V91.2624H274.093V45.8042ZM274.28 45.8042H319.78V91.2624H274.28V45.8042ZM365.467 45.8042H319.967V91.2624H365.467V45.8042ZM365.653 45.8042H411.153V78.6508L411.076 78.728L398.53 91.2624H365.653V45.8042ZM398.344 91.4486H365.653V132.428L365.806 132.276L370.441 136.907H411.153V104.278L411.076 104.2L398.452 91.5875L398.328 91.4642L398.344 91.4486ZM411.153 104.031L398.575 91.4642L398.591 91.4486H406.38L406.364 91.4642L411.153 96.2488V104.031ZM411.34 104.184V136.907H456.84V91.4486H424.055L424.071 91.4642L423.948 91.5875L411.34 104.184ZM423.808 91.4486L423.824 91.4642L411.34 103.937V96.1549L416.035 91.4642L416.019 91.4486H423.808ZM423.869 91.2624H456.84V45.8042H411.34V78.7449L423.869 91.2624ZM411.34 78.9916L423.622 91.2624H415.833L411.34 86.7735V78.9916ZM411.153 78.8975L398.777 91.2624H406.566L411.153 86.6796V78.8975ZM365.653 141.785L365.806 141.937L370.641 137.107L370.628 137.093H411.153V182.551H365.653V141.785ZM360.984 137.093L360.971 137.107L365.467 141.598V182.551H319.967V137.093H360.984ZM365.467 132.615L361.171 136.907H319.967V91.4486H365.467V132.615ZM0.159837 91.4486H45.66V136.907H0.159837V91.4486ZM91.3467 91.4486H45.8465V136.907H91.3467V91.4486ZM91.5331 91.4486H137.033V136.907H91.5331V91.4486ZM274.093 91.4486H228.593V136.907H274.093V91.4486ZM274.28 91.4486H319.78V136.907H274.28V91.4486ZM0.159837 137.093H45.66V182.551H0.159837V137.093ZM91.3467 137.093H45.8465V182.551H78.7748L78.7156 182.492L78.8391 182.369L91.3467 169.873V137.093ZM91.3467 170.119L78.9625 182.492L79.0217 182.551H86.811L86.7518 182.492L91.3467 177.901V170.119ZM91.5331 177.715V169.933L91.587 169.879L104.212 182.492L104.152 182.551H96.3632L96.4224 182.492L91.5871 177.661L91.5331 177.715ZM91.5331 187.269L91.5871 187.323L96.1767 182.738H103.966L91.587 195.105L91.5331 195.051V187.269ZM86.9975 182.738L91.3467 187.083V194.865L79.2082 182.738H86.9975ZM78.9613 182.738H45.8465V228.196H91.3467V195.112L78.9613 182.738ZM91.5331 195.298V228.196H137.033V182.738H104.213L91.7105 195.228L91.587 195.352L91.5331 195.298ZM104.399 182.551H137.033V137.093H91.5331V169.686L91.587 169.633L91.7105 169.756L104.335 182.369L104.458 182.492L104.399 182.551ZM182.72 137.093H137.22V182.551H182.72V137.093ZM182.907 137.093H228.407V182.551H182.907V137.093ZM274.093 137.093H228.593V182.551H274.093V137.093ZM274.28 137.093H319.78V182.551H274.28V137.093ZM456.84 137.093H411.34V182.551H456.84V137.093ZM0.159837 182.738H45.66V228.196H0.159837V182.738ZM182.72 182.738H137.22V228.196H182.72V182.738ZM182.907 182.738H228.407V228.196H182.907V182.738ZM274.093 182.738H228.593V228.196H274.093V182.738ZM274.28 182.738H319.78V228.196H274.28V182.738ZM365.467 182.738H319.967V228.196H365.467V182.738ZM365.653 182.738H411.153V228.196H365.653V182.738ZM456.84 182.738H411.34V228.196H456.84V182.738ZM0.159837 228.382H45.66V273.84H0.159837V228.382ZM91.3467 228.382H45.8465V273.84H91.3467V228.382ZM91.5331 228.382H137.033V273.84H91.5331V228.382ZM182.72 228.382H137.22V273.84H182.72V228.382ZM182.907 228.382H228.407V273.84H182.907V228.382ZM274.093 228.382H228.593V273.84H274.093V228.382ZM274.28 228.382H319.78V273.84H274.28V228.382ZM365.467 228.382H319.967V273.84H365.467V228.382ZM365.653 228.382H411.153V273.84H365.653V228.382ZM456.84 228.382H411.34V273.84H456.84V228.382Z" fill="url(#paint0_radial_2168_8206)" fill-opacity="0.6"/>
<defs>
<radialGradient id="paint0_radial_2168_8206" cx="0" cy="0" r="1" gradientUnits="userSpaceOnUse" gradientTransform="translate(228.5 -153.789) rotate(90) scale(393.266 655.922)">
<stop stop-color="#0060E0"/>
<stop offset="1" stop-color="#EAE1FF"/>
</radialGradient>
</defs>
</svg>
