<svg width="131" height="38" viewBox="0 0 131 38" fill="none" xmlns="http://www.w3.org/2000/svg">
<path d="M25.5799 16.0747C27.7536 16.0747 29.5156 14.3126 29.5156 12.139L29.5156 11.1551C29.5156 8.98148 27.7536 7.21941 25.5799 7.21941L19.6764 7.21941C17.5028 7.21941 15.7407 8.98148 15.7407 11.1551L15.7407 12.139C15.7407 14.3126 17.5028 16.0747 19.6764 16.0747L25.5799 16.0747Z" fill="#72A9F3"/>
<path d="M3.93569 7.21924C1.76207 7.21924 7.70224e-08 8.98131 1.72034e-07 11.1549L6.45129e-07 21.9781C7.40141e-07 24.1517 1.76207 25.9138 3.93569 25.9138L9.83922 25.9138C12.0128 25.9138 13.7749 24.1517 13.7749 21.9781L13.7749 11.1549C13.7749 8.9813 12.0128 7.21924 9.83922 7.21924L3.93569 7.21924Z" fill="#F07575"/>
<path d="M25.5838 36.7368C27.7575 36.7368 29.5195 34.9747 29.5195 32.8011L29.5195 21.978C29.5195 19.8044 27.7575 18.0423 25.5838 18.0423L19.6803 18.0423C17.5067 18.0423 15.7446 19.8044 15.7446 21.978L15.7446 32.8011C15.7446 34.9748 17.5067 36.7368 19.6803 36.7368L25.5838 36.7368Z" fill="#D8C38C"/>
<path d="M9.83775 36.7368C12.0114 36.7368 13.7734 34.9747 13.7734 32.8011L13.7734 31.8172C13.7734 29.6436 12.0114 27.8815 9.83775 27.8815L3.93422 27.8815C1.7606 27.8815 -0.0014712 29.6436 -0.00147071 31.8172L-0.00147049 32.8011C-0.00147001 34.9747 1.7606 36.7368 3.93422 36.7368L9.83775 36.7368Z" fill="#99CCB0"/>
<path d="M111.247 5.72709L112.154 6.55667C111.486 7.35626 110.54 7.77605 109.643 7.77605C108.258 7.77605 106.982 6.78655 106.982 4.67763C106.982 2.73861 108.367 1.80908 109.693 1.80908C110.918 1.80908 112.094 2.59868 112.094 4.11791C112.094 4.23785 112.094 4.36778 112.074 4.49772L108.816 5.907C109.105 6.23683 109.513 6.38676 109.922 6.38676C110.44 6.38676 110.968 6.14688 111.247 5.72709ZM108.427 4.70761V4.74759L110.55 3.82806C110.55 3.41826 110.151 3.1584 109.703 3.1584C109.115 3.1584 108.427 3.59817 108.427 4.70761Z" fill="#98A2B3"/>
<path d="M115.024 3.56819C115.024 4.08792 117.126 4.29782 117.126 5.95698C117.126 6.63663 116.778 7.74607 114.974 7.74607C113.988 7.74607 113.21 7.23633 112.602 6.4967L113.559 5.53719C113.559 5.53719 114.177 6.46672 114.974 6.46672C115.303 6.46672 115.612 6.3068 115.612 5.95698C115.612 5.01745 113.3 5.10741 113.3 3.51821C113.3 2.83856 113.718 1.84906 115.173 1.84906C116.329 1.84906 116.977 2.47874 117.196 2.84855L116.22 3.61816C116.22 3.61816 115.921 3.18838 115.452 3.18838C115.173 3.18838 115.024 3.32831 115.024 3.56819Z" fill="#98A2B3"/>
<path d="M126.905 1.27935C126.427 1.27935 126.218 1.54921 126.138 1.90903H127.095V3.06844H126.088V7.6861H124.653V3.06844H124.294V1.90903H124.693C124.823 0.949518 125.271 0 126.895 0H127.772V1.27935H126.905Z" fill="#98A2B3"/>
<path d="M129.961 1.90412H130.997V3.06564H129.961V7.37084L128.516 7.99052V3.06839H127.48L127.48 1.90128H128.516V0.634259H129.961V1.90412Z" fill="#98A2B3"/>
<path d="M122.66 3.04158C122.757 2.96561 122.899 2.98312 122.967 3.08683C123.306 3.60563 123.47 4.22277 123.431 4.84611C123.391 5.46945 123.15 6.06075 122.748 6.53219C122.668 6.62644 122.525 6.6258 122.438 6.53802L121.803 5.90023C121.715 5.81244 121.717 5.67104 121.791 5.57143C121.965 5.33668 122.068 5.05527 122.087 4.76033C122.106 4.46538 122.038 4.17306 121.896 3.9181C121.835 3.80992 121.851 3.66944 121.949 3.59348L122.66 3.04158Z" fill="#98A2B3"/>
<path d="M118.937 2.58289C118.861 2.48544 118.877 2.34338 118.98 2.27445C119.494 1.92962 120.108 1.75994 120.73 1.79443C121.352 1.82893 121.943 2.0655 122.417 2.46513C122.511 2.54502 122.512 2.68801 122.425 2.7764L121.794 3.41853C121.708 3.50691 121.567 3.5064 121.467 3.43327C121.231 3.26094 120.95 3.15926 120.656 3.14294C120.361 3.12661 120.07 3.19654 119.817 3.34177C119.71 3.40339 119.57 3.38831 119.493 3.29086L118.937 2.58289Z" fill="#98A2B3"/>
<path d="M118.512 6.32182C118.416 6.39948 118.274 6.38445 118.204 6.28194C117.856 5.76914 117.681 5.15496 117.71 4.53102C117.739 3.90709 117.969 3.31168 118.363 2.83328C118.442 2.73764 118.584 2.73579 118.673 2.82203L119.319 3.44863C119.408 3.53488 119.409 3.67629 119.337 3.77717C119.167 4.01493 119.069 4.2981 119.055 4.59333C119.041 4.88855 119.114 5.17966 119.261 5.43209C119.323 5.53919 119.309 5.67993 119.213 5.75759L118.512 6.32182Z" fill="#98A2B3"/>
<path d="M122.243 6.71471C122.321 6.81077 122.307 6.95309 122.206 7.02385C121.698 7.37784 121.087 7.55848 120.465 7.53511C119.842 7.51175 119.247 7.28581 118.766 6.8947C118.67 6.81652 118.667 6.67356 118.752 6.58364L119.371 5.93033C119.457 5.84041 119.598 5.8384 119.699 5.90972C119.937 6.07781 120.22 6.17444 120.515 6.1855C120.809 6.19655 121.099 6.12143 121.349 5.97169C121.456 5.90816 121.596 5.92074 121.674 6.0168L122.243 6.71471Z" fill="#98A2B3"/>
<path fill-rule="evenodd" clip-rule="evenodd" d="M106.84 7.56745L103.658 0.539765C103.593 0.386848 103.491 0.310389 103.351 0.310389H103.278C103.136 0.310389 103.03 0.385221 102.962 0.534885L99.7898 7.56257C99.7541 7.64716 99.7525 7.71548 99.7849 7.76754C99.8206 7.8196 99.8838 7.84563 99.9746 7.84563H101.254C101.4 7.84563 101.499 7.77079 101.551 7.62113L101.794 7.02085H104.835L105.084 7.62601C105.145 7.77567 105.242 7.85051 105.375 7.85051H106.665C106.752 7.85051 106.812 7.82448 106.845 7.77242C106.881 7.71711 106.879 7.64879 106.84 7.56745ZM104.019 5.32914L104.071 5.29892C104.265 5.18675 104.334 4.90949 104.219 4.69839L103.595 3.54446C103.45 3.27589 103.107 3.27589 102.962 3.54446L102.337 4.69839C102.223 4.90949 102.292 5.18675 102.486 5.29892L103.095 5.65086C103.093 5.65768 103.092 5.66483 103.092 5.6722V5.75698C103.092 5.8038 103.126 5.84176 103.167 5.84176H103.39C103.431 5.84176 103.464 5.8038 103.464 5.75698V5.6722C103.464 5.66483 103.463 5.65768 103.462 5.65086L103.996 5.34201H104.026L104.019 5.32914Z" fill="#98A2B3"/>
<path d="M89.4225 13.9987H95.1292V36.747H89.8947L89.4618 33.7165C88.2811 35.8418 86.1952 37.0225 83.1254 37.0225C76.5134 37.0225 76.5528 31.5125 76.5528 25.1367V13.9593H82.2595V26.9077C82.2595 29.5446 82.4169 31.5125 84.2273 31.5125C86.9036 31.5125 89.4225 30.2531 89.4225 25.5696V13.9987Z" fill="#FCFCFC"/>
<path d="M110.049 13.6838H111.465V19.3906H110.049C106.703 19.3906 105.326 21.6339 105.326 24.7431V36.747H99.619V13.9987H104.814L105.168 16.2814C106.113 14.7465 107.648 13.6838 110.049 13.6838Z" fill="#FCFCFC"/>
<path d="M122.614 14.1955C128.006 14.1955 130.997 16.4782 130.997 21.9094V36.747H125.802L125.409 34.543C123.835 36.314 121.512 37.2192 119.269 37.2192C115.924 37.2192 112.815 35.1727 112.815 30.8041C112.815 28.3246 113.799 25.609 118.088 24.074L125.173 21.5158C124.818 19.9809 123.874 18.997 122.142 18.997H114.861V14.1955H122.614ZM125.291 28.2065V26.278L120.489 28.3639C119.741 28.6788 119.23 29.4266 119.23 30.2137C119.23 31.5912 120.292 32.2603 121.552 32.2603C123.244 32.2603 125.291 30.9615 125.291 28.2065Z" fill="#FCFCFC"/>
<path fill-rule="evenodd" clip-rule="evenodd" d="M74.4426 36.0404L62.106 8.8773C61.8545 8.28625 61.4583 7.99072 60.9176 7.99072H60.6346C60.0813 7.99072 59.6726 8.27996 59.4085 8.85843L47.1097 36.0216C46.9713 36.3485 46.965 36.6126 47.0908 36.8138C47.2291 37.015 47.4744 37.1156 47.8265 37.1156H52.7875C53.3534 37.1156 53.737 36.8264 53.9382 36.2479L54.8813 33.9277H66.6709L67.6329 36.2668C67.8719 36.8453 68.2491 37.1345 68.7647 37.1345H73.7635C74.103 37.1345 74.3357 37.0339 74.4614 36.8327C74.5998 36.6189 74.5935 36.3548 74.4426 36.0404ZM63.5046 27.3889L63.7074 27.272C64.4599 26.8384 64.7256 25.7668 64.2827 24.9508L61.8621 20.4907C61.2987 19.4526 59.9702 19.4526 59.4068 20.4907L56.9862 24.9508C56.5433 25.7668 56.8089 26.8384 57.5615 27.272L59.9225 28.6323C59.9165 28.6587 59.9133 28.6863 59.9133 28.7148V29.0425C59.9133 29.2234 60.0425 29.3702 60.2018 29.3702H61.0671C61.2264 29.3702 61.3556 29.2234 61.3556 29.0425V28.7148C61.3556 28.6863 61.3524 28.6587 61.3464 28.6323L63.418 27.4388H63.532L63.5046 27.3889Z" fill="#FCFCFC"/>
</svg>
