<svg width="24" height="24" viewBox="0 0 24 24" fill="none" xmlns="http://www.w3.org/2000/svg">
<path d="M3.29912 6.59319C3.40769 5.61526 4.34486 4.8448 5.51848 4.76051C10.3428 4.41402 13.6924 4.41302 18.4781 4.75838C19.6574 4.84349 20.5958 5.62169 20.7002 6.6048C21.1214 10.5728 21.0825 13.3744 20.6853 17.3756C20.5866 18.3697 19.6418 19.1615 18.4497 19.2457C13.65 19.5849 10.3044 19.5841 5.56588 19.2474C4.37088 19.1624 3.42612 18.3664 3.3285 17.3698C2.94056 13.4091 2.85423 10.6005 3.29912 6.59319Z" stroke="#FCFCFC" stroke-width="1.5"/>
<path d="M6 8L10.3107 11.9515C11.2665 12.8276 12.7335 12.8276 13.6893 11.9515L18 8" stroke="#FCFCFC" stroke-width="1.5" stroke-linecap="round"/>
</svg>
