<svg width="1366" height="586" viewBox="0 0 1366 586" fill="none" xmlns="http://www.w3.org/2000/svg">
<path opacity="0.2" d="M1477.76 5.27223L1464.98 1M1477.76 5.27223H1439.91M1477.76 5.27223L1490.95 9.68556M1477.76 5.27223H1504.56M1464.98 1L1469.63 1.00167L1474.23 1.01092L1478.73 1.03693L1483.1 1.08815L1487.27 1.17128L1491.21 1.2964L1494.87 1.47021L1498.26 1.69187L1501.18 1.99837L1503.83 2.35355L1504.56 2.47796V5.27223M1464.98 1H1427.75M1427.75 1H1390.51M1427.75 1L1439.91 5.27223M1390.51 1H1353.27M1390.51 1L1402.06 5.27223M1353.27 1H1316.03M1353.27 1L1364.22 5.27223M1316.03 1H1278.8M1316.03 1L1326.37 5.27223M1278.8 1H1241.56M1278.8 1L1288.53 5.27223M1241.56 1H1204.32M1241.56 1L1250.68 5.27223M1204.32 1H1167.09M1204.32 1L1212.84 5.27223M1167.09 1H1129.85M1167.09 1L1174.99 5.27223M1129.85 1H1092.61M1129.85 1L1137.15 5.27223M1092.61 1H1055.37M1092.61 1L1099.3 5.27223M1055.37 1H1018.14M1055.37 1L1061.45 5.27223M1018.14 1H980.899M1018.14 1L1019.49 2.05546L1021.54 3.65337L1023.61 5.27223M980.899 1H943.662M980.899 1L982.1 2.05546L985.764 5.27223M943.662 1H906.424M943.662 1L947.918 5.27223M906.424 1H869.186M906.424 1L907.778 2.58612L909.15 4.19074L909.61 4.73065L910.073 5.27223M869.186 1H831.949M869.186 1L870.315 2.58612L870.695 3.11847L871.076 3.65337L872.228 5.27223M831.949 1H794.712M831.949 1L834.382 5.27223M794.712 1L794.937 1.52646L795.162 2.05546L796.305 4.73065L796.537 5.27223M794.712 1H757.475M757.475 1H720.237M757.475 1L758.691 5.27223M720.237 1H683M720.237 1L720.463 2.58612L720.846 5.27223M683 1H645.763M683 1V5.27223M645.763 1H608.525M645.763 1L645.537 2.58612L645.154 5.27223M608.525 1H571.288M608.525 1L607.309 5.27223M571.288 1L571.063 1.52646L570.838 2.05546L569.695 4.73065L569.463 5.27223M571.288 1H534.051M534.051 1H496.813M534.051 1L531.927 4.73065L531.618 5.27223M496.813 1H459.576M496.813 1L495.685 2.58612L495.305 3.11847L494.542 4.19074L494.158 4.73065L493.772 5.27223M459.576 1H422.339M459.576 1L458.222 2.58612L456.85 4.19074L456.39 4.73065L455.927 5.27223M422.339 1H385.101M422.339 1L418.082 5.27223M385.101 1H347.864M385.101 1L383.9 2.05546L380.236 5.27223M347.864 1H310.626M347.864 1L342.391 5.27223M310.626 1H273.389M310.626 1L304.545 5.27223M273.389 1H236.151M273.389 1L266.7 5.27223M236.151 1H198.914M236.151 1L228.854 5.27223M198.914 1H161.677M198.914 1L191.009 5.27223M161.677 1H124.44M161.677 1L153.163 5.27223M124.44 1H87.2022M124.44 1L115.317 5.27223M87.2022 1H49.9651M87.2022 1L77.4719 5.27223M49.9651 1H12.728M49.9651 1L39.6263 5.27223M12.728 1H-24.5099M12.728 1L1.78076 5.27223M-24.5099 1H-61.7471M-24.5099 1L-36.064 5.27223M-61.7471 1H-98.9842M-61.7471 1L-73.9095 5.27223M-98.9842 1L-103.631 1.00167L-108.23 1.01092L-112.733 1.03693L-117.095 1.08815L-121.268 1.17128L-125.207 1.2964L-128.866 1.47021L-132.262 1.69187L-135.175 1.99837L-137.828 2.35355L-138.558 2.47798V5.27223M-98.9842 1L-111.755 5.27223M-36.064 5.27223H1.78076M-36.064 5.27223H-73.9095M-36.064 5.27223L-48.0031 9.68556M1.78076 5.27223L-9.52935 9.68556M1.78076 5.27223H39.6263M115.317 5.27223H153.163M115.317 5.27223H77.4719M115.317 5.27223L112.991 6.36213L105.893 9.68556M153.163 5.27223L144.366 9.68556M153.163 5.27223H191.009M266.7 5.27223H304.545M266.7 5.27223H228.854M266.7 5.27223L264.993 6.36213L264.134 6.9096L259.787 9.68556M304.545 5.27223L303.771 5.8155L302.994 6.36213L298.262 9.68556M304.545 5.27223H342.391M418.082 5.27223L417.539 5.8155L413.683 9.68556M418.082 5.27223H455.927M418.082 5.27223H380.236M455.927 5.27223L454.996 6.36213L454.527 6.9096L454.058 7.46043L452.157 9.68556M455.927 5.27223H493.772M569.463 5.27223H607.309M569.463 5.27223H531.618M569.463 5.27223L567.579 9.68556M607.309 5.27223L607.154 5.8155L606.999 6.36213L606.842 6.9096L606.37 8.56796L606.053 9.68556M607.309 5.27223H645.154M720.846 5.27223H758.691M720.846 5.27223H683M720.846 5.27223L721.474 9.68556M758.691 5.27223L758.846 5.8155L759.001 6.36213L759.157 6.9096L759.947 9.68556M758.691 5.27223H796.537M872.228 5.27223H910.073M872.228 5.27223H834.382M872.228 5.27223L873.003 6.36213L874.574 8.56796L874.971 9.1255L875.369 9.68556M910.073 5.27223L911.004 6.36213L911.473 6.9096L911.942 7.46043L913.843 9.68556M910.073 5.27223H947.918M1023.61 5.27223H1061.45M1023.61 5.27223H985.764M1023.61 5.27223L1025.01 6.36213L1025.71 6.9096L1029.26 9.68556M1061.45 5.27223L1062.23 5.8155L1063.01 6.36213L1067.74 9.68556M1061.45 5.27223H1099.3M1174.99 5.27223H1212.84M1174.99 5.27223H1137.15M1174.99 5.27223L1177.01 6.36213L1178.02 6.9096L1183.16 9.68556M1212.84 5.27223L1221.63 9.68556M1212.84 5.27223H1250.68M1326.37 5.27223H1364.22M1326.37 5.27223H1288.53M1326.37 5.27223L1337.05 9.68556M1364.22 5.27223L1375.53 9.68556M1364.22 5.27223H1402.06M-138.69 45.2238H-138.558M-100.598 45.2238L-86.149 39.5854M-100.598 45.2238L-115.601 51.078M-100.598 45.2238H-57.065M-100.598 45.2238H-138.558M-86.149 39.5854H-128.879M-86.149 39.5854L-72.2228 34.1511M-86.149 39.5854H-43.4186M-128.879 39.5854L-114.18 34.1511M-128.879 39.5854H-138.558M-128.879 39.5854L-138.558 43.1625M-86.3219 23.8517H-45.8311M-86.3219 23.8517L-73.1102 18.9673M-86.3219 23.8517H-126.812M-86.3219 23.8517L-100.003 28.9098M-45.8311 23.8517L-33.3143 18.9673M-45.8311 23.8517L-58.792 28.9098M-45.8311 23.8517H-5.34028M-73.1102 18.9673H-33.3143M-73.1102 18.9673L-60.3444 14.2483M-73.1102 18.9673H-112.905M-33.3143 18.9673H6.48076M-33.3143 18.9673L-21.2212 14.2483M-138.974 134.221H-138.558M-103.848 134.221L-85.2154 124.873M-103.848 134.221L-123.406 144.034M-103.848 134.221H-47.6436M-103.848 134.221H-138.558M-85.2154 124.873L-67.4449 115.957M-85.2154 124.873H-30.343M-85.2154 124.873H-138.558M-121.048 115.957H-67.4449M-121.048 115.957L-102.869 107.444M-121.048 115.957H-138.558M-121.048 115.957L-138.558 124.156M-85.4952 99.3079H-34.2625M-85.4952 99.3079L-68.8724 91.5241M-85.4952 99.3079H-136.728M-85.4952 99.3079L-102.869 107.444M-34.2625 99.3079L-18.7471 91.5241M-34.2625 99.3079L-50.4789 107.444M-34.2625 99.3079H16.971M-68.8724 91.5241H-18.7471M-68.8724 91.5241H-118.997M-68.8724 91.5241L-52.953 84.0695M-18.7471 91.5241L-3.88971 84.0695M-18.7471 91.5241H31.3774M-23.0551 70.0689H24.015M-23.0551 70.0689L-8.99877 63.4867M-23.0551 70.0689H-70.1252M-23.0551 70.0689L-37.6942 76.9239M24.015 70.0689L37.1342 63.4867M24.015 70.0689L10.3523 76.9239M24.015 70.0689H71.086M-8.99877 63.4867H37.1342M-8.99877 63.4867H-55.1318M-8.99877 63.4867L4.509 57.1614M37.1342 63.4867L49.7417 57.1614M37.1342 63.4867H83.2681M30.0012 45.2238H73.5344M30.0012 45.2238L42.0422 39.5854M30.0012 45.2238H-13.5319M30.0012 45.2238L17.499 51.078M73.5344 45.2238L84.7726 39.5854M73.5344 45.2238L61.8657 51.078M73.5344 45.2238H117.067M42.0422 39.5854H84.7726M42.0422 39.5854H-0.688202M42.0422 39.5854L53.6475 34.1511M84.7726 39.5854L95.6043 34.1511M84.7726 39.5854H127.503M75.6405 23.8517H116.131M75.6405 23.8517L86.0708 18.9673M75.6405 23.8517H35.1505M75.6405 23.8517L64.8396 28.9098M116.131 23.8517L125.866 18.9673M116.131 23.8517L106.05 28.9098M116.131 23.8517H156.622M86.0708 18.9673H125.866M86.0708 18.9673L96.1495 14.2483M86.0708 18.9673H46.2758M125.866 18.9673H165.662M125.866 18.9673L135.273 14.2483M-109.763 296.289L-83.5397 277.869M-109.763 296.289L-137.845 316.014M-109.763 296.289H-30.4868M-109.763 296.289H-138.558M-83.5397 277.869L-58.9948 260.629M-83.5397 277.869H-6.88583M-83.5397 277.869H-138.558M-84.072 229.26H-14.338M-84.072 229.26L-61.6632 214.952M-84.072 229.26L-107.872 244.459M-84.072 229.26H-138.558M-14.338 229.26L6.03317 214.952M-14.338 229.26L-35.9741 244.459M-14.338 229.26H55.3959M-61.6632 214.952H6.03317M-61.6632 214.952H-129.36M-61.6632 214.952L-40.526 201.454M6.03317 214.952L25.249 201.454M6.03317 214.952H73.7304M-1.65953 176.635H60.5829M-1.65953 176.635L16.2496 165.199M-1.65953 176.635H-63.9011M-1.65953 176.635L-20.5562 188.703M60.5829 176.635L76.8634 165.199M60.5829 176.635L43.4029 188.703M60.5829 176.635H122.824M16.2496 165.199H76.8634M16.2496 165.199H-44.3643M16.2496 165.199L33.2447 154.347M76.8634 165.199L92.3138 154.347M76.8634 165.199H137.476M64.7625 134.221H120.966M64.7625 134.221L79.4025 124.873M64.7625 134.221H8.55946M64.7625 134.221L49.396 144.034M120.966 134.221L134.275 124.873M120.966 134.221L106.996 144.034M120.966 134.221H177.17M79.4025 124.873H134.275M79.4025 124.873H24.5302M79.4025 124.873L93.3647 115.957M134.275 124.873L146.968 115.957M134.275 124.873H189.147M119.437 99.3079H170.67M119.437 99.3079L131.627 91.5241M119.437 99.3079H68.2037M119.437 99.3079L106.695 107.444M170.67 99.3079L181.752 91.5241M170.67 99.3079L159.087 107.444M170.67 99.3079H221.903M131.627 91.5241H181.752M131.627 91.5241H81.5027M131.627 91.5241L143.301 84.0695M181.752 91.5241L192.365 84.0695M181.752 91.5241H231.877M165.226 70.0689H212.296M165.226 70.0689L175.534 63.4867M165.226 70.0689H118.156M165.226 70.0689L154.491 76.9239M212.296 70.0689L213.489 69.2317L221.667 63.4867M212.296 70.0689L202.538 76.9239M212.296 70.0689H259.367M175.534 63.4867H221.667M175.534 63.4867H129.401M175.534 63.4867L185.44 57.1614M221.667 63.4867L230.673 57.1614M221.667 63.4867H267.801M204.134 45.2238H247.668M204.134 45.2238L212.965 39.5854M204.134 45.2238H160.601M204.134 45.2238L194.966 51.078M247.668 45.2238L255.695 39.5854M247.668 45.2238L244.579 47.3935L239.332 51.078M247.668 45.2238H291.201M212.965 39.5854H255.695M212.965 39.5854H170.234M212.965 39.5854L221.475 34.1511M255.695 39.5854L263.431 34.1511M255.695 39.5854H298.425M237.603 23.8517H278.094M237.603 23.8517L245.252 18.9673M237.603 23.8517H197.113M237.603 23.8517L229.683 28.9098M278.094 23.8517L283.332 20.173L284.191 19.5685L285.048 18.9673M278.094 23.8517L270.893 28.9098M278.094 23.8517H318.584M245.252 18.9673H285.048M245.252 18.9673L252.642 14.2483M245.252 18.9673H205.457M285.048 18.9673H324.843M285.048 18.9673L291.766 14.2483M-81.04 506.116H28.1091M-81.04 506.116L-46.6715 471.629M-81.04 506.116L-118.806 544.013M-81.04 506.116L-138.558 506.117M28.1091 506.116L57.5679 471.629M28.1091 506.116L-4.26197 544.013M28.1091 506.116H137.257M-46.6715 471.629H57.5679M-46.6715 471.629L-15.2614 440.111M-46.6715 471.629H-138.558M57.5679 471.629L84.4902 440.111M57.5679 471.629H161.806M40.0884 384.57H131.933M40.0884 384.57L64.5982 359.976M40.0884 384.57H-51.7557M40.0884 384.57L13.5556 411.195M131.933 384.57L152.941 359.976M131.933 384.57L109.191 411.195M131.933 384.57H223.778M64.5982 359.976H152.941M64.5982 359.976H-23.7449M64.5982 359.976L87.3083 337.188M152.941 359.976L172.407 337.188M152.941 359.976H241.284M128.066 296.289H207.342M128.066 296.289L146.423 277.869M128.066 296.289H48.7892M128.066 296.289L108.409 316.014M207.342 296.289L223.077 277.869M207.342 296.289L190.493 316.014M207.342 296.289H286.618M146.423 277.869H223.077M146.423 277.869H69.768M146.423 277.869L163.604 260.629M223.077 277.869L237.803 260.629M223.077 277.869H299.731M194.863 229.26H264.597M194.863 229.26L209.124 214.952M194.863 229.26H125.13M194.863 229.26L179.718 244.459M264.597 229.26L276.82 214.952M264.597 229.26L251.616 244.459M264.597 229.26H334.331M209.124 214.952H276.82M209.124 214.952H141.427M209.124 214.952L222.574 201.454M276.82 214.952L288.349 201.454M276.82 214.952H344.517M247.307 176.635H309.55M247.307 176.635L258.704 165.199M247.307 176.635H185.066M247.307 176.635L235.282 188.703M309.55 176.635L319.318 165.199M309.55 176.635L299.242 188.703M309.55 176.635H371.791M258.704 165.199H319.318M258.704 165.199H198.09M258.704 165.199L269.519 154.347M319.318 165.199L328.588 154.347M319.318 165.199H379.932M289.577 134.221H345.78M289.577 134.221L298.893 124.873M289.577 134.221H233.373M289.577 134.221L279.797 144.034M345.78 134.221L353.765 124.873M345.78 134.221L337.397 144.034M345.78 134.221H401.983M298.893 124.873H353.765M298.893 124.873H244.02M298.893 124.873L307.778 115.957M353.765 124.873L361.381 115.957M353.765 124.873H408.637M324.369 99.3079H375.602M324.369 99.3079L332.126 91.5241M324.369 99.3079H273.136M324.369 99.3079L316.261 107.444M375.602 99.3079L382.251 91.5241M375.602 99.3079L368.652 107.444M375.602 99.3079H426.835M332.126 91.5241H382.251M332.126 91.5241H282.001M332.126 91.5241L339.556 84.0695M382.251 91.5241L388.619 84.0695M382.251 91.5241H432.376M353.508 70.0689H400.578M353.508 70.0689L360.067 63.4867M353.508 70.0689H306.437M353.508 70.0689L346.676 76.9239M400.578 70.0689L399.859 70.9102L394.722 76.9239M400.578 70.0689L406.2 63.4867M400.578 70.0689H447.649M360.067 63.4867H406.2M360.067 63.4867H313.934M360.067 63.4867L366.371 57.1614M406.2 63.4867L411.604 57.1614M406.2 63.4867H452.334M378.267 45.2238H421.8M378.267 45.2238L383.886 39.5854M378.267 45.2238H334.734M378.267 45.2238L372.433 51.078M421.8 45.2238L426.617 39.5854M421.8 45.2238L419.948 47.3935L418.697 48.8571L416.8 51.078M421.8 45.2238H465.333M383.886 39.5854H426.617M383.886 39.5854H341.156M383.886 39.5854L389.302 34.1511M426.617 39.5854L428.378 37.524L429.538 36.1654L431.259 34.1511M426.617 39.5854H469.347M399.566 23.8517H440.056M399.566 23.8517L403.232 20.173L404.433 18.9673M399.566 23.8517H359.075M399.566 23.8517L395.165 28.2675L394.525 28.9098M440.056 23.8517L443.199 20.173L443.715 19.5685L444.229 18.9673M440.056 23.8517L437.915 26.3581L435.736 28.9098M440.056 23.8517H480.547M404.433 18.9673H444.229M404.433 18.9673L409.136 14.2483M404.433 18.9673H364.638M444.229 18.9673H484.024M444.229 18.9673L448.26 14.2483M355.555 506.116H464.703M355.555 506.116L370.284 471.629M355.555 506.116H246.406M355.555 506.116L339.369 544.013M464.703 506.116L474.523 471.629M464.703 506.116L453.913 544.013M464.703 506.116H573.852M370.284 471.629H474.523M370.284 471.629H266.045M370.284 471.629L383.745 440.111M474.523 471.629L483.497 440.111M474.523 471.629H578.761M407.467 384.57H499.311M407.467 384.57L417.971 359.976M407.467 384.57H315.622M407.467 384.57L396.095 411.195M499.311 384.57L506.314 359.976M499.311 384.57L491.73 411.195M499.311 384.57H591.156M417.971 359.976H506.314M417.971 359.976H329.628M417.971 359.976L427.704 337.188M506.314 359.976L512.802 337.188M506.314 359.976H594.657M445.171 296.289H524.447M445.171 296.289L453.038 277.869M445.171 296.289H365.895M445.171 296.289L436.747 316.014M524.447 296.289L529.692 277.869M524.447 296.289L518.831 316.014M524.447 296.289H603.724M453.038 277.869H529.692M453.038 277.869H376.384M453.038 277.869L460.402 260.629M529.692 277.869L534.601 260.629M529.692 277.869H606.346M473.799 229.26H543.532M473.799 229.26L479.91 214.952M473.799 229.26H404.065M473.799 229.26L467.308 244.459M543.532 229.26L547.606 214.952M543.532 229.26L539.205 244.459M543.532 229.26H613.266M479.91 214.952H547.606M479.91 214.952H412.214M479.91 214.952L485.675 201.454M547.606 214.952L551.45 201.454M547.606 214.952H615.304M496.275 176.635H558.517M496.275 176.635L501.159 165.199M496.275 176.635H434.033M496.275 176.635L491.121 188.703M558.517 176.635L561.772 165.199M558.517 176.635L555.081 188.703M558.517 176.635H620.759M501.159 165.199H561.772M501.159 165.199H440.546M501.159 165.199L505.794 154.347M561.772 165.199L564.863 154.347M561.772 165.199H622.386M514.39 134.221H570.593M514.39 134.221L518.382 124.873M514.39 134.221H458.187M514.39 134.221L510.199 144.034M570.593 134.221L573.255 124.873M570.593 134.221L567.799 144.034M570.593 134.221H626.797M518.382 124.873H573.255M518.382 124.873H463.51M518.382 124.873L519.832 121.48L522.19 115.957M573.255 124.873L575.794 115.957M573.255 124.873H628.128M529.301 99.3079H580.534M529.301 99.3079L532.626 91.5241M529.301 99.3079H478.068M529.301 99.3079L526.71 105.376L525.826 107.444M580.534 99.3079L581.377 96.3489L582.75 91.5241M580.534 99.3079L578.217 107.444M580.534 99.3079H631.767M532.626 91.5241L533.031 90.5745L535.809 84.0695M532.626 91.5241H582.75M532.626 91.5241H482.501M582.75 91.5241L583.557 88.6911L583.823 87.7565L584.088 86.8279L584.873 84.0695M582.75 91.5241H632.876M541.789 70.0689H588.859M541.789 70.0689L543.209 66.7446L543.559 65.9242L543.908 65.1072L544.255 64.2953L544.6 63.4867M541.789 70.0689H494.719M541.789 70.0689L538.861 76.9239M588.859 70.0689L590.272 65.1072L590.504 64.2953L590.733 63.4867M588.859 70.0689L586.908 76.9239M588.859 70.0689H635.93M544.6 63.4867H590.733M544.6 63.4867H498.467M544.6 63.4867L546.301 59.5041L546.636 58.719L547.302 57.1614M590.733 63.4867L591.867 59.5041L592.091 58.719L592.313 57.9381L592.535 57.1614M590.733 63.4867H636.867M552.401 45.2238H595.934M552.401 45.2238L554.809 39.5854M552.401 45.2238H508.867M552.401 45.2238L551.784 46.6664L550.848 48.8571L549.9 51.078M595.934 45.2238L595.728 45.9434L594.478 50.3341L594.267 51.078M595.934 45.2238L597.539 39.5854M595.934 45.2238H639.467M554.809 39.5854H597.539M554.809 39.5854H512.078M554.809 39.5854L557.13 34.1511M597.539 39.5854L598.126 37.524L598.32 36.843L598.513 36.1654L599.086 34.1511M597.539 39.5854H640.27M561.528 23.8517H602.018M561.528 23.8517L563.1 20.173L563.614 18.9673M561.528 23.8517H521.038M561.528 23.8517L560.727 25.7275L560.458 26.3581L560.187 26.992L559.368 28.9098M602.018 23.8517L602.196 23.232L602.546 22.0002L602.894 20.7793L603.409 18.9673M602.018 23.8517L601.305 26.3581L601.125 26.992L600.761 28.2675L600.579 28.9098M602.018 23.8517H642.509M563.614 18.9673H603.409M563.614 18.9673L565.381 14.8294L565.63 14.2483M563.614 18.9673H523.819M603.409 18.9673L603.58 18.3686L603.75 17.7724L603.919 17.1788L604.087 16.5877L604.588 14.8294L604.754 14.2483M603.409 18.9673H643.205M792.148 506.116H901.297M792.148 506.116L787.238 471.629M792.148 506.116H683M792.148 506.116L797.544 544.013M901.297 506.116L891.478 471.629M901.297 506.116L912.087 544.013M901.297 506.116H1010.45M787.238 471.629H891.478M787.238 471.629H683M787.238 471.629L782.752 440.111M891.478 471.629L882.503 440.111M891.478 471.629H995.716M774.844 384.57H866.689M774.844 384.57L771.343 359.976M774.844 384.57H683M774.844 384.57L778.635 411.195M866.689 384.57L859.686 359.976M866.689 384.57L874.27 411.195M866.689 384.57H958.533M771.343 359.976H859.686M771.343 359.976H683M771.343 359.976L768.099 337.188M859.686 359.976L853.198 337.188M859.686 359.976H948.029M762.276 296.289H841.553M762.276 296.289L759.654 277.869M762.276 296.289H683M762.276 296.289L765.085 316.014M841.553 296.289L836.308 277.869M841.553 296.289L847.169 316.014M841.553 296.289H920.829M759.654 277.869H836.308M759.654 277.869H683M759.654 277.869L757.199 260.629M836.308 277.869L831.399 260.629M836.308 277.869H912.962M752.734 229.26H822.468M752.734 229.26L750.696 214.952M752.734 229.26H683M752.734 229.26L754.897 244.459M822.468 229.26L818.394 214.952M822.468 229.26L826.795 244.459M822.468 229.26H892.201M750.696 214.952H818.394M750.696 214.952H683M750.696 214.952L748.775 201.454M818.394 214.952L814.55 201.454M818.394 214.952H886.09M745.242 176.635H807.483M745.242 176.635L743.614 165.199M745.242 176.635H683M745.242 176.635L746.96 188.703M807.483 176.635L804.228 165.199M807.483 176.635L810.919 188.703M807.483 176.635H869.725M743.614 165.199H804.228M743.614 165.199H683M743.614 165.199L742.068 154.347M804.228 165.199L801.137 154.347M804.228 165.199H864.841M739.203 134.221H795.407M739.203 134.221L737.872 124.873M739.203 134.221H683M739.203 134.221L740.601 144.034M795.407 134.221L792.745 124.873M795.407 134.221L798.201 144.034M795.407 134.221H851.61M737.872 124.873H792.745M737.872 124.873H683M737.872 124.873L736.603 115.957M792.745 124.873L790.206 115.957M792.745 124.873H847.618M734.233 99.3079H785.466M734.233 99.3079L733.124 91.5241M734.233 99.3079H683M734.233 99.3079L735.391 107.444M785.466 99.3079L783.521 92.4788L783.25 91.5241M785.466 99.3079L787.783 107.444M785.466 99.3079H836.699M733.124 91.5241L732.99 90.5745L732.063 84.0695M733.124 91.5241H783.25M733.124 91.5241H683M783.25 91.5241L782.443 88.6911L782.177 87.7565L781.912 86.8279L781.127 84.0695M783.25 91.5241H833.374M730.07 70.0689H777.141M730.07 70.0689L729.133 63.4867M730.07 70.0689H683M730.07 70.0689L730.431 72.6063L730.554 73.4611L730.675 74.3201L730.922 76.0515L731.047 76.9239M777.141 70.0689L775.728 65.1072L775.266 63.4867M777.141 70.0689L779.092 76.9239M777.141 70.0689H824.211M729.133 63.4867H775.266M729.133 63.4867H683M729.133 63.4867L728.233 57.1614M775.266 63.4867L774.133 59.5041L773.909 58.719L773.687 57.9381L773.465 57.1614M775.266 63.4867H821.4M726.533 45.2238H770.066M726.533 45.2238L725.73 39.5854M726.533 45.2238H683M726.533 45.2238L727.367 51.078M770.066 45.2238L770.272 45.9434L771.522 50.3341L771.733 51.078M770.066 45.2238L768.461 39.5854M770.066 45.2238H813.599M725.73 39.5854H768.461M725.73 39.5854H683M725.73 39.5854L724.957 34.1511M768.461 39.5854L767.874 37.524L767.68 36.843L767.487 36.1654L766.913 34.1511M768.461 39.5854H811.191M723.491 23.8517H763.982M723.491 23.8517L722.795 18.9673M723.491 23.8517H683M723.491 23.8517L724.211 28.9098M763.982 23.8517L763.804 23.232L763.454 22.0002L763.28 21.388L762.933 20.173L762.762 19.5685L762.59 18.9673M763.982 23.8517L764.695 26.3581L764.875 26.992L765.239 28.2675L765.421 28.9098M763.982 23.8517H804.472M722.795 18.9673L722.71 18.3686L722.625 17.7724L722.541 17.1788L722.123 14.2483M722.795 18.9673H762.59M722.795 18.9673H683M762.59 18.9673H802.386M762.59 18.9673L762.25 17.7724L762.081 17.1788L761.913 16.5877L761.412 14.8294L761.246 14.2483M1228.74 506.116H1337.89M1228.74 506.116L1204.19 471.629M1228.74 506.116H1119.59M1228.74 506.116L1255.72 544.013M1337.89 506.116L1308.43 471.629M1337.89 506.116L1370.26 544.013M1337.89 506.116H1447.04M1204.19 471.629H1308.43M1204.19 471.629H1099.96M1204.19 471.629L1181.76 440.111M1308.43 471.629L1281.51 440.111M1308.43 471.629H1412.67M1142.22 384.57H1234.07M1142.22 384.57L1124.72 359.976M1142.22 384.57H1050.38M1142.22 384.57L1161.17 411.195M1234.07 384.57L1213.06 359.976M1234.07 384.57L1256.81 411.195M1234.07 384.57H1325.91M1124.72 359.976H1213.06M1124.72 359.976H1036.37M1124.72 359.976L1108.49 337.188M1213.06 359.976L1193.59 337.188M1213.06 359.976H1301.4M1079.38 296.289H1158.66M1079.38 296.289L1066.27 277.869M1079.38 296.289H1000.1M1079.38 296.289L1093.42 316.014M1158.66 296.289L1142.92 277.869M1158.66 296.289L1175.51 316.014M1158.66 296.289H1237.93M1066.27 277.869H1142.92M1066.27 277.869H989.616M1066.27 277.869L1054 260.629M1142.92 277.869L1128.2 260.629M1142.92 277.869H1219.58M1031.67 229.26H1101.4M1031.67 229.26L1021.48 214.952M1031.67 229.26H961.935M1031.67 229.26L1042.49 244.459M1101.4 229.26L1089.18 214.952M1101.4 229.26L1114.38 244.459M1101.4 229.26H1171.14M1021.48 214.952H1089.18M1021.48 214.952H953.786M1021.48 214.952L1011.88 201.454M1089.18 214.952L1077.65 201.454M1089.18 214.952H1156.88M994.209 176.635H1056.45M994.209 176.635L986.068 165.199M994.209 176.635H931.967M994.209 176.635L1002.8 188.703M1056.45 176.635L1046.68 165.199M1056.45 176.635L1066.76 188.703M1056.45 176.635H1118.69M986.068 165.199H1046.68M986.068 165.199H925.454M986.068 165.199L978.343 154.347M1046.68 165.199L1037.41 154.347M1046.68 165.199H1107.3M964.017 134.221H1020.22M964.017 134.221L957.363 124.873M964.017 134.221H907.813M964.017 134.221L971.002 144.034M1020.22 134.221L1012.23 124.873M1020.22 134.221L1028.6 144.034M1020.22 134.221H1076.42M957.363 124.873H1012.23M957.363 124.873H902.49M957.363 124.873L951.016 115.957M1012.23 124.873L1004.62 115.957M1012.23 124.873H1067.11M939.165 99.3079L939.875 100.305L940.589 101.308L944.956 107.444M939.165 99.3079H990.398M939.165 99.3079L933.624 91.5241M939.165 99.3079H887.932M990.398 99.3079L983.749 91.5241M990.398 99.3079L997.348 107.444M990.398 99.3079H1041.63M933.624 91.5241H983.749M933.624 91.5241H883.499M933.624 91.5241L928.318 84.0695M983.749 91.5241L977.381 84.0695M983.749 91.5241H1033.87M918.351 70.0689H965.422M918.351 70.0689L913.666 63.4867M918.351 70.0689H871.281M918.351 70.0689L923.231 76.9239M965.422 70.0689L961.881 65.9242L959.8 63.4867M965.422 70.0689L971.278 76.9239M965.422 70.0689H1012.49M913.666 63.4867H959.8M913.666 63.4867H867.533M913.666 63.4867L909.717 57.9381L909.164 57.1614M959.8 63.4867L954.396 57.1614M959.8 63.4867H1005.93M900.666 45.2238H944.2M900.666 45.2238L899.649 43.7939L896.653 39.5854M900.666 45.2238H857.133M900.666 45.2238L901.693 46.6664L903.777 49.5935L904.833 51.078M944.2 45.2238L939.383 39.5854M944.2 45.2238L946.052 47.3935L947.303 48.8571L949.2 51.078M944.2 45.2238H987.733M896.653 39.5854H939.383M896.653 39.5854H853.922M896.653 39.5854L893.738 35.4903L892.784 34.1511M939.383 39.5854L937.622 37.524L936.462 36.1654L934.741 34.1511M939.383 39.5854H982.114M885.453 23.8517H925.944M885.453 23.8517L883.266 20.7793L881.976 18.9673M885.453 23.8517H844.962M885.453 23.8517L889.053 28.9098M925.944 23.8517L922.801 20.173L922.285 19.5685L921.771 18.9673M925.944 23.8517L928.085 26.3581L930.264 28.9098M925.944 23.8517H966.434M881.976 18.9673H921.771M881.976 18.9673L880.282 16.5877L879.446 15.4129L879.03 14.8294L878.617 14.2483M881.976 18.9673H842.181M921.771 18.9673H961.567M921.771 18.9673L917.74 14.2483M1478.09 359.976H1389.74M1478.09 359.976L1448.89 337.188M1478.09 359.976H1504.56M1478.09 359.976L1504.56 380.634M1396.49 296.289H1475.76M1396.49 296.289L1372.89 277.869M1396.49 296.289H1317.21M1396.49 296.289L1421.76 316.014M1475.76 296.289L1449.54 277.869M1475.76 296.289L1503.84 316.014M1475.76 296.289H1504.56M1372.89 277.869H1449.54M1372.89 277.869H1296.23M1372.89 277.869L1350.8 260.629M1449.54 277.869L1424.99 260.629M1449.54 277.869H1504.56M1310.6 229.26H1380.34M1310.6 229.26L1292.27 214.952M1310.6 229.26H1240.87M1310.6 229.26L1330.08 244.459M1380.34 229.26L1359.97 214.952M1380.34 229.26L1401.97 244.459M1380.34 229.26H1450.07M1292.27 214.952H1359.97M1292.27 214.952H1224.57M1292.27 214.952L1274.98 201.454M1359.97 214.952L1340.75 201.454M1359.97 214.952H1427.66M1243.18 176.635H1305.42M1243.18 176.635L1228.52 165.199M1243.18 176.635H1180.93M1243.18 176.635L1258.64 188.703M1305.42 176.635L1289.14 165.199M1305.42 176.635L1322.6 188.703M1305.42 176.635H1367.66M1228.52 165.199H1289.14M1228.52 165.199H1167.91M1228.52 165.199L1214.62 154.347M1289.14 165.199L1273.69 154.347M1289.14 165.199H1349.75M1188.83 134.221H1245.03M1188.83 134.221L1176.85 124.873M1188.83 134.221H1132.63M1188.83 134.221L1201.4 144.034M1245.03 134.221L1231.73 124.873M1245.03 134.221L1259 144.034M1245.03 134.221H1301.24M1176.85 124.873H1231.73M1176.85 124.873H1121.98M1176.85 124.873L1165.43 115.957M1231.73 124.873L1219.03 115.957M1231.73 124.873H1286.6M1144.1 99.3079H1195.33M1144.1 99.3079L1134.12 91.5241M1144.1 99.3079H1092.86M1144.1 99.3079L1154.52 107.444M1195.33 99.3079L1184.25 91.5241M1195.33 99.3079L1206.91 107.444M1195.33 99.3079H1246.56M1134.12 91.5241H1184.25M1134.12 91.5241H1084M1134.12 91.5241L1124.57 84.0695M1184.25 91.5241L1173.63 84.0695M1184.25 91.5241H1234.37M1106.63 70.0689H1153.7M1106.63 70.0689L1098.2 63.4867M1106.63 70.0689H1059.56M1106.63 70.0689L1115.42 76.9239M1153.7 70.0689L1144.33 63.4867M1153.7 70.0689L1163.46 76.9239M1153.7 70.0689H1200.77M1098.2 63.4867H1144.33M1098.2 63.4867H1052.07M1098.2 63.4867L1090.09 57.1614M1144.33 63.4867L1135.33 57.1614M1144.33 63.4867H1190.47M1074.8 45.2238H1118.33M1074.8 45.2238L1067.57 39.5854M1074.8 45.2238H1031.27M1074.8 45.2238L1076.65 46.6664L1077.58 47.3935L1082.3 51.078M1118.33 45.2238L1110.3 39.5854M1118.33 45.2238L1126.67 51.078M1118.33 45.2238H1161.87M1067.57 39.5854H1110.3M1067.57 39.5854H1024.84M1067.57 39.5854L1060.61 34.1511M1110.3 39.5854L1102.57 34.1511M1110.3 39.5854H1153.04M1047.42 23.8517H1087.91M1047.42 23.8517L1041.16 18.9673M1047.42 23.8517H1006.92M1047.42 23.8517L1053.9 28.9098M1087.91 23.8517L1082.67 20.173L1081.81 19.5685L1080.95 18.9673M1087.91 23.8517L1095.11 28.9098M1087.91 23.8517H1128.4M1041.16 18.9673H1080.95M1041.16 18.9673L1035.86 14.8294L1035.11 14.2483M1041.16 18.9673H1001.36M1080.95 18.9673H1120.75M1080.95 18.9673L1074.23 14.2483M1492.14 176.635L1470.98 165.199M1492.14 176.635H1429.9M1492.14 176.635L1504.56 183.343M1492.14 176.635H1504.56M1470.98 165.199H1410.36M1470.98 165.199L1450.89 154.347M1470.98 165.199H1504.56M1413.64 134.221H1469.85M1413.64 134.221L1396.34 124.873M1413.64 134.221H1357.44M1413.64 134.221L1431.81 144.034M1469.85 134.221L1451.22 124.873M1469.85 134.221L1489.41 144.034M1469.85 134.221H1504.56M1396.34 124.873H1451.22M1396.34 124.873H1341.47M1396.34 124.873L1379.84 115.957M1451.22 124.873L1433.44 115.957M1451.22 124.873H1504.56M1349.03 99.3079H1400.26M1349.03 99.3079L1334.62 91.5241M1349.03 99.3079H1297.8M1349.03 99.3079L1364.09 107.444M1400.26 99.3079L1384.75 91.5241M1400.26 99.3079L1416.48 107.444M1400.26 99.3079H1451.5M1334.62 91.5241H1384.75M1334.62 91.5241H1284.5M1334.62 91.5241L1320.83 84.0695M1384.75 91.5241L1369.89 84.0695M1384.75 91.5241H1434.87M1294.91 70.0689H1341.98M1294.91 70.0689L1282.73 63.4867M1294.91 70.0689H1247.84M1294.91 70.0689L1307.6 76.9239M1341.98 70.0689L1328.87 63.4867M1341.98 70.0689L1355.65 76.9239M1341.98 70.0689H1389.06M1282.73 63.4867H1328.87M1282.73 63.4867H1236.6M1282.73 63.4867L1271.03 57.1614M1328.87 63.4867L1316.26 57.1614M1328.87 63.4867H1375M1248.93 45.2238H1292.47M1248.93 45.2238L1238.5 39.5854M1248.93 45.2238H1205.4M1248.93 45.2238L1259.77 51.078M1292.47 45.2238L1281.23 39.5854M1292.47 45.2238L1304.13 51.078M1292.47 45.2238H1336M1238.5 39.5854H1281.23M1238.5 39.5854H1195.77M1238.5 39.5854L1228.44 34.1511M1281.23 39.5854L1270.4 34.1511M1281.23 39.5854H1323.96M1209.38 23.8517H1249.87M1209.38 23.8517L1200.34 18.9673M1209.38 23.8517H1168.89M1209.38 23.8517L1218.74 28.9098M1249.87 23.8517L1240.13 18.9673M1249.87 23.8517L1259.95 28.9098M1249.87 23.8517H1290.36M1200.34 18.9673H1240.13M1200.34 18.9673L1191.6 14.2483M1200.34 18.9673H1160.54M1240.13 18.9673H1279.93M1240.13 18.9673L1230.73 14.2483M1483.2 70.0689L1467.26 63.4867M1483.2 70.0689H1436.13M1483.2 70.0689L1499.79 76.9239M1483.2 70.0689H1504.56M1467.26 63.4867H1421.13M1467.26 63.4867L1451.96 57.1614M1467.26 63.4867H1504.56M1423.07 45.2238H1466.6M1423.07 45.2238L1409.42 39.5854M1423.07 45.2238H1379.53M1423.07 45.2238L1437.23 51.078M1466.6 45.2238L1452.15 39.5854M1466.6 45.2238L1481.6 51.078M1466.6 45.2238H1504.56M1409.42 39.5854H1452.15M1409.42 39.5854H1366.69M1409.42 39.5854L1396.27 34.1511M1452.15 39.5854L1438.22 34.1511M1452.15 39.5854H1494.88M1371.34 23.8517H1411.83M1371.34 23.8517L1359.52 18.9673M1371.34 23.8517H1330.85M1371.34 23.8517L1383.58 28.9098M1411.83 23.8517L1399.31 18.9673M1411.83 23.8517L1424.79 28.9098M1411.83 23.8517H1452.32M1359.52 18.9673H1399.31M1359.52 18.9673L1348.1 14.2483M1359.52 18.9673H1319.72M1399.31 18.9673H1439.11M1399.31 18.9673L1387.22 14.2483M1424.79 28.9098L1438.22 34.1511M1424.79 28.9098H1466M1424.79 28.9098H1383.58M1452.32 23.8517L1439.11 18.9673M1452.32 23.8517L1466 28.9098M1452.32 23.8517H1492.81M1439.11 18.9673H1478.91M1439.11 18.9673L1426.34 14.2483M1387.22 14.2483H1348.1M1387.22 14.2483H1426.34M1387.22 14.2483L1375.53 9.68556M1466 28.9098L1480.18 34.1511M1466 28.9098H1504.56M1492.81 23.8517L1478.91 18.9673M1492.81 23.8517L1504.56 27.9766M1492.81 23.8517H1504.56M1478.91 18.9673L1465.47 14.2483M1478.91 18.9673H1504.56M1426.34 14.2483H1465.47M1426.34 14.2483L1414 9.68556M1465.47 14.2483L1452.48 9.68556M1465.47 14.2483H1504.56M1438.22 34.1511H1480.18M1438.22 34.1511H1396.27M1494.88 39.5854L1480.18 34.1511M1494.88 39.5854L1504.56 43.1625M1494.88 39.5854H1504.56M1480.18 34.1511H1504.56M1396.27 34.1511H1354.31M1396.27 34.1511L1383.58 28.9098M1383.58 28.9098H1342.37M1481.6 51.078L1497.19 57.1614M1481.6 51.078H1437.23M1481.6 51.078H1504.56M1504.69 45.2238H1504.56M1497.19 57.1614H1451.96M1497.19 57.1614L1504.56 60.0364M1497.19 57.1614H1504.56M1451.96 57.1614H1406.72M1451.96 57.1614L1437.23 51.078M1437.23 51.078H1392.87M1259.95 28.9098L1270.4 34.1511M1259.95 28.9098H1301.16M1259.95 28.9098H1218.74M1290.36 23.8517L1279.93 18.9673M1290.36 23.8517L1301.16 28.9098M1290.36 23.8517H1330.85M1279.93 18.9673H1319.72M1279.93 18.9673L1269.85 14.2483M1230.73 14.2483H1269.85M1230.73 14.2483L1221.63 9.68556M1230.73 14.2483H1191.6M1301.16 28.9098L1312.35 34.1511M1301.16 28.9098H1342.37M1330.85 23.8517L1319.72 18.9673M1330.85 23.8517L1342.37 28.9098M1319.72 18.9673L1308.97 14.2483M1269.85 14.2483H1308.97M1269.85 14.2483L1260.11 9.68556M1342.37 28.9098L1354.31 34.1511M1348.1 14.2483H1308.97M1348.1 14.2483L1337.05 9.68556M1308.97 14.2483L1298.58 9.68556M1270.4 34.1511H1312.35M1270.4 34.1511H1228.44M1323.96 39.5854L1312.35 34.1511M1323.96 39.5854L1336 45.2238M1323.96 39.5854H1366.69M1312.35 34.1511H1354.31M1228.44 34.1511H1186.48M1228.44 34.1511L1218.74 28.9098M1354.31 34.1511L1366.69 39.5854M1218.74 28.9098H1177.53M1336 45.2238L1348.5 51.078M1336 45.2238H1379.53M1366.69 39.5854L1379.53 45.2238M1379.53 45.2238L1392.87 51.078M1304.13 51.078L1316.26 57.1614M1304.13 51.078H1348.5M1304.13 51.078H1259.77M1348.5 51.078L1361.49 57.1614M1348.5 51.078H1392.87M1392.87 51.078L1406.72 57.1614M1316.26 57.1614H1361.49M1316.26 57.1614H1271.03M1375 63.4867L1361.49 57.1614M1375 63.4867L1389.06 70.0689M1375 63.4867H1421.13M1361.49 57.1614H1406.72M1271.03 57.1614H1225.79M1271.03 57.1614L1259.77 51.078M1406.72 57.1614L1421.13 63.4867M1259.77 51.078H1215.4M1389.06 70.0689L1403.69 76.9239M1389.06 70.0689H1436.13M1421.13 63.4867L1436.13 70.0689M1436.13 70.0689L1451.74 76.9239M1355.65 76.9239L1369.89 84.0695M1355.65 76.9239H1403.69M1355.65 76.9239H1307.6M1403.69 76.9239L1418.95 84.0695M1403.69 76.9239H1451.74M1451.74 76.9239L1468.02 84.0695M1451.74 76.9239H1499.79M1499.79 76.9239H1504.56M1499.79 76.9239L1504.56 78.8949M1369.89 84.0695H1418.95M1369.89 84.0695H1320.83M1434.87 91.5241L1418.95 84.0695M1434.87 91.5241L1451.5 99.3079M1434.87 91.5241H1485M1418.95 84.0695H1468.02M1320.83 84.0695H1271.76M1320.83 84.0695L1307.6 76.9239M1468.02 84.0695L1485 91.5241M1468.02 84.0695H1504.56M1307.6 76.9239H1259.56M1451.5 99.3079L1468.87 107.444M1451.5 99.3079H1502.73M1485 91.5241L1502.73 99.3079M1485 91.5241H1504.56M1504.81 84.0695H1504.56M1502.73 99.3079L1504.56 100.111M1502.73 99.3079H1504.56M1416.48 107.444L1433.44 115.957M1416.48 107.444H1468.87M1416.48 107.444H1364.09M1468.87 107.444L1487.05 115.957M1468.87 107.444H1504.56M1505 100.305L1504.56 100.111M1433.44 115.957H1487.05M1433.44 115.957H1379.84M1487.05 115.957H1504.56M1487.05 115.957L1504.56 124.156M1379.84 115.957H1326.24M1379.84 115.957L1364.09 107.444M1364.09 107.444H1311.7M1489.41 144.034H1431.81M1489.41 144.034L1504.56 151.636M1489.41 144.034H1504.56M1504.97 134.221H1504.56M1431.81 144.034H1374.2M1431.81 144.034L1450.89 154.347M1504.72 151.719L1504.56 151.636M1095.11 28.9098L1102.57 34.1511M1095.11 28.9098H1136.32M1095.11 28.9098H1053.9M1128.4 23.8517L1120.75 18.9673M1128.4 23.8517L1136.32 28.9098M1128.4 23.8517H1168.89M1120.75 18.9673H1160.54M1120.75 18.9673L1113.36 14.2483M1074.23 14.2483H1113.36M1074.23 14.2483L1071.77 12.5194L1067.74 9.68556M1074.23 14.2483H1035.11M1136.32 28.9098L1144.53 34.1511M1136.32 28.9098H1177.53M1168.89 23.8517L1160.54 18.9673M1168.89 23.8517L1177.53 28.9098M1160.54 18.9673L1152.48 14.2483M1113.36 14.2483H1152.48M1113.36 14.2483L1106.21 9.68556M1177.53 28.9098L1186.48 34.1511M1191.6 14.2483L1183.16 9.68556M1191.6 14.2483H1152.48M1152.48 14.2483L1151.49 13.6689L1149.53 12.5194L1144.69 9.68556M1102.57 34.1511H1144.53M1102.57 34.1511H1060.61M1153.04 39.5854L1144.53 34.1511M1153.04 39.5854L1161.87 45.2238M1153.04 39.5854H1195.77M1144.53 34.1511H1186.48M1060.61 34.1511H1018.66M1060.61 34.1511L1053.9 28.9098M1186.48 34.1511L1195.77 39.5854M1053.9 28.9098H1012.69M1161.87 45.2238L1171.03 51.078M1161.87 45.2238H1205.4M1195.77 39.5854L1196.95 40.2781L1205.4 45.2238M1205.4 45.2238L1215.4 51.078M1126.67 51.078L1127.73 51.8261L1135.33 57.1614M1126.67 51.078H1171.03M1126.67 51.078H1082.3M1171.03 51.078L1180.56 57.1614M1171.03 51.078H1215.4M1215.4 51.078L1225.79 57.1614M1135.33 57.1614H1180.56M1135.33 57.1614H1090.09M1190.47 63.4867L1180.56 57.1614M1190.47 63.4867L1200.77 70.0689M1190.47 63.4867H1236.6M1180.56 57.1614H1225.79M1090.09 57.1614H1044.86M1090.09 57.1614L1082.3 51.078M1225.79 57.1614L1236.6 63.4867M1082.3 51.078H1037.93M1200.77 70.0689L1211.51 76.9239M1200.77 70.0689H1247.84M1236.6 63.4867L1247.84 70.0689M1247.84 70.0689L1259.56 76.9239M1163.46 76.9239L1173.63 84.0695M1163.46 76.9239H1211.51M1163.46 76.9239H1115.42M1211.51 76.9239L1222.7 84.0695M1211.51 76.9239H1259.56M1259.56 76.9239L1271.76 84.0695M1173.63 84.0695H1222.7M1173.63 84.0695H1124.57M1234.37 91.5241L1222.7 84.0695M1234.37 91.5241L1246.56 99.3079M1234.37 91.5241H1284.5M1222.7 84.0695H1271.76M1124.57 84.0695H1075.51M1124.57 84.0695L1115.42 76.9239M1271.76 84.0695L1284.5 91.5241M1115.42 76.9239H1067.37M1246.56 99.3079L1259.3 107.444M1246.56 99.3079H1297.8M1284.5 91.5241L1297.8 99.3079M1297.8 99.3079L1311.7 107.444M1206.91 107.444L1219.03 115.957M1206.91 107.444H1259.3M1206.91 107.444H1154.52M1259.3 107.444L1272.64 115.957M1259.3 107.444H1311.7M1311.7 107.444L1326.24 115.957M1219.03 115.957H1272.64M1219.03 115.957H1165.43M1286.6 124.873L1272.64 115.957M1286.6 124.873L1301.24 134.221M1286.6 124.873H1341.47M1272.64 115.957H1326.24M1165.43 115.957H1111.83M1165.43 115.957L1154.52 107.444M1326.24 115.957L1341.47 124.873M1154.52 107.444H1102.13M1301.24 134.221L1316.6 144.034M1301.24 134.221H1357.44M1341.47 124.873L1357.44 134.221M1357.44 134.221L1374.2 144.034M1259 144.034L1273.69 154.347M1259 144.034H1316.6M1259 144.034H1201.4M1316.6 144.034L1332.76 154.347M1316.6 144.034H1374.2M1374.2 144.034L1391.82 154.347M1273.69 154.347H1332.76M1273.69 154.347H1214.62M1349.75 165.199L1332.76 154.347M1349.75 165.199L1367.66 176.635M1349.75 165.199H1410.36M1332.76 154.347H1391.82M1214.62 154.347H1155.55M1214.62 154.347L1201.4 144.034M1391.82 154.347L1410.36 165.199M1391.82 154.347H1450.89M1201.4 144.034H1143.8M1367.66 176.635L1386.56 188.703M1367.66 176.635H1429.9M1410.36 165.199L1429.9 176.635M1450.89 154.347H1504.56M1429.9 176.635L1450.52 188.703M1322.6 188.703L1340.75 201.454M1322.6 188.703H1386.56M1322.6 188.703H1258.64M1386.56 188.703L1406.53 201.454M1386.56 188.703H1450.52M1450.52 188.703L1472.3 201.454M1450.52 188.703H1504.56M1340.75 201.454H1406.53M1340.75 201.454H1274.98M1427.66 214.952L1406.53 201.454M1427.66 214.952L1450.07 229.26M1427.66 214.952H1495.36M1406.53 201.454H1472.3M1274.98 201.454H1209.2M1274.98 201.454L1258.64 188.703M1472.3 201.454L1495.36 214.952M1472.3 201.454H1504.56M1258.64 188.703H1194.68M1450.07 229.26L1473.87 244.459M1450.07 229.26H1504.56M1495.36 214.952H1504.56M1495.36 214.952L1504.56 220.335M1401.97 244.459L1424.99 260.629M1401.97 244.459H1473.87M1401.97 244.459H1330.08M1473.87 244.459L1499.19 260.629M1473.87 244.459H1504.56M1424.99 260.629H1499.19M1424.99 260.629H1350.8M1499.19 260.629L1504.56 264.053M1499.19 260.629H1504.56M1350.8 260.629H1276.6M1350.8 260.629L1330.08 244.459M1330.08 244.459H1258.18M1503.84 316.014H1421.76M1503.84 316.014H1504.56M1503.84 316.014L1504.56 316.514M1421.76 316.014H1339.68M1421.76 316.014L1448.89 337.188M930.264 28.9098L931.924 30.8528L932.482 31.5069L934.741 34.1511M930.264 28.9098H971.475M930.264 28.9098H889.053M966.434 23.8517L962.768 20.173L961.567 18.9673M966.434 23.8517L970.835 28.2675L971.475 28.9098M966.434 23.8517H1006.92M961.567 18.9673H1001.36M961.567 18.9673L956.864 14.2483M917.74 14.2483H956.864M917.74 14.2483L916.263 12.5194L913.843 9.68556M917.74 14.2483H878.617M971.475 28.9098L972.763 30.2021L976.698 34.1511M971.475 28.9098H1012.69M1006.92 23.8517L1001.36 18.9673M1006.92 23.8517L1012.69 28.9098M1001.36 18.9673L997.313 15.4129L995.987 14.2483M956.864 14.2483H995.987M956.864 14.2483L952.317 9.68556M1012.69 28.9098L1018.66 34.1511M1035.11 14.2483L1034.37 13.6689L1029.26 9.68556M1035.11 14.2483H995.987M995.987 14.2483L994.018 12.5194L990.791 9.68556M934.741 34.1511H976.698M934.741 34.1511H892.784M982.114 39.5854L976.698 34.1511M982.114 39.5854L987.733 45.2238M982.114 39.5854H1024.84M976.698 34.1511H1018.66M892.784 34.1511H850.827M892.784 34.1511L889.053 28.9098M1018.66 34.1511L1024.84 39.5854M889.053 28.9098H847.843M987.733 45.2238L991.353 48.8571L992.088 49.5935L993.567 51.078M987.733 45.2238H1031.27M1024.84 39.5854L1031.27 45.2238M1031.27 45.2238L1037.93 51.078M949.2 51.078L954.396 57.1614M949.2 51.078H993.567M949.2 51.078H904.833M993.567 51.078L999.629 57.1614M993.567 51.078H1037.93M1037.93 51.078L1044.86 57.1614M954.396 57.1614H999.629M954.396 57.1614H909.164M1005.93 63.4867L1001.96 59.5041L1001.18 58.719L999.629 57.1614M1005.93 63.4867L1012.49 70.0689M1005.93 63.4867H1052.07M999.629 57.1614H1044.86M909.164 57.1614H863.931M909.164 57.1614L904.833 51.078M1044.86 57.1614L1052.07 63.4867M904.833 51.078H860.467M1012.49 70.0689L1019.32 76.9239M1012.49 70.0689H1059.56M1052.07 63.4867L1059.56 70.0689M1059.56 70.0689L1067.37 76.9239M971.278 76.9239L974.298 80.4589L975.062 81.3549L977.381 84.0695M971.278 76.9239H1019.32M971.278 76.9239H923.231M1019.32 76.9239L1026.44 84.0695M1019.32 76.9239H1067.37M1067.37 76.9239L1075.51 84.0695M977.381 84.0695H1026.44M977.381 84.0695H928.318M1033.87 91.5241L1026.44 84.0695M1033.87 91.5241L1041.63 99.3079M1033.87 91.5241H1084M1026.44 84.0695H1075.51M928.318 84.0695H879.254M928.318 84.0695L927.026 82.255L923.231 76.9239M1075.51 84.0695L1084 91.5241M923.231 76.9239H875.185M1041.63 99.3079L1049.74 107.444M1041.63 99.3079H1092.86M1084 91.5241L1092.86 99.3079M1092.86 99.3079L1102.13 107.444M997.348 107.444L1004.62 115.957M997.348 107.444H1049.74M997.348 107.444H944.956M1049.74 107.444L1058.22 115.957M1049.74 107.444H1102.13M1102.13 107.444L1111.83 115.957M1004.62 115.957H1058.22M1004.62 115.957H951.016M1067.11 124.873L1058.22 115.957M1067.11 124.873L1076.42 134.221M1067.11 124.873H1121.98M1058.22 115.957H1111.83M951.016 115.957H897.413M951.016 115.957L944.956 107.444M1111.83 115.957L1121.98 124.873M944.956 107.444H892.566M1076.42 134.221L1086.2 144.034M1076.42 134.221H1132.63M1121.98 124.873L1132.63 134.221M1132.63 134.221L1143.8 144.034M1028.6 144.034L1037.41 154.347M1028.6 144.034H1086.2M1028.6 144.034H971.002M1086.2 144.034L1096.48 154.347M1086.2 144.034H1143.8M1143.8 144.034L1155.55 154.347M1037.41 154.347H1096.48M1037.41 154.347H978.343M1107.3 165.199L1096.48 154.347M1107.3 165.199L1118.69 176.635M1107.3 165.199H1167.91M1096.48 154.347H1155.55M978.343 154.347H919.275M978.343 154.347L971.002 144.034M1155.55 154.347L1167.91 165.199M971.002 144.034H913.402M1118.69 176.635L1130.72 188.703M1118.69 176.635H1180.93M1167.91 165.199L1180.93 176.635M1180.93 176.635L1194.68 188.703M1066.76 188.703L1077.65 201.454M1066.76 188.703H1130.72M1066.76 188.703H1002.8M1130.72 188.703L1143.43 201.454M1130.72 188.703H1194.68M1194.68 188.703L1209.2 201.454M1077.65 201.454H1143.43M1077.65 201.454H1011.88M1156.88 214.952L1143.43 201.454M1156.88 214.952L1171.14 229.26M1156.88 214.952H1224.57M1143.43 201.454H1209.2M1011.88 201.454H946.1M1011.88 201.454L1002.8 188.703M1209.2 201.454L1224.57 214.952M1002.8 188.703H938.839M1171.14 229.26L1186.28 244.459M1171.14 229.26H1240.87M1224.57 214.952L1240.87 229.26M1240.87 229.26L1258.18 244.459M1114.38 244.459L1128.2 260.629M1114.38 244.459H1186.28M1114.38 244.459H1042.49M1186.28 244.459L1202.4 260.629M1186.28 244.459H1258.18M1258.18 244.459L1276.6 260.629M1128.2 260.629H1202.4M1128.2 260.629H1054M1219.58 277.869L1202.4 260.629M1219.58 277.869L1237.93 296.289M1219.58 277.869H1296.23M1202.4 260.629H1276.6M1054 260.629H979.798M1054 260.629L1042.49 244.459M1276.6 260.629L1296.23 277.869M1042.49 244.459H970.59M1237.93 296.289L1257.59 316.014M1237.93 296.289H1317.21M1296.23 277.869L1317.21 296.289M1317.21 296.289L1339.68 316.014M1175.51 316.014L1193.59 337.188M1175.51 316.014H1257.59M1175.51 316.014H1093.42M1257.59 316.014L1278.69 337.188M1257.59 316.014H1339.68M1339.68 316.014L1363.79 337.188M1193.59 337.188H1278.69M1193.59 337.188H1108.49M1301.4 359.976L1278.69 337.188M1301.4 359.976L1325.91 384.57M1301.4 359.976H1389.74M1278.69 337.188H1363.79M1108.49 337.188H1023.4M1108.49 337.188L1093.42 316.014M1363.79 337.188L1389.74 359.976M1363.79 337.188H1448.89M1093.42 316.014H1011.34M1325.91 384.57L1352.44 411.195M1325.91 384.57H1417.76M1389.74 359.976L1417.76 384.57M1448.89 337.188H1504.56M1417.76 384.57L1448.08 411.195M1417.76 384.57H1504.56M1256.81 411.195L1281.51 440.111M1256.81 411.195H1352.44M1256.81 411.195H1161.17M1352.44 411.195L1381.26 440.111M1352.44 411.195H1448.08M1448.08 411.195L1481.01 440.111M1448.08 411.195H1504.56M1281.51 440.111H1381.26M1281.51 440.111H1181.76M1412.67 471.629L1381.26 440.111M1412.67 471.629L1447.04 506.116M1412.67 471.629H1504.56M1381.26 440.111H1481.01M1181.76 440.111H1082.01M1181.76 440.111L1161.17 411.195M1481.01 440.111H1504.56M1481.01 440.111L1504.56 460.784M1161.17 411.195H1065.54M1447.04 506.116L1484.81 544.013M1447.04 506.116H1504.56M1370.26 544.013L1406 585.851M1370.26 544.013H1484.81M1370.26 544.013H1255.72M1484.81 544.013L1504.56 563.833M1484.81 544.013H1504.56M1406 585.851H1285.5M1406 585.851L1504.56 585.851M1285.5 585.851H1165M1285.5 585.851L1255.72 544.013M1255.72 544.013H1141.17M765.421 28.9098L765.605 29.5547L765.789 30.2021L765.975 30.8528L766.16 31.5069L766.725 33.4852L766.913 34.1511M765.421 28.9098H806.632M765.421 28.9098H724.211M804.472 23.8517L802.9 20.173L802.386 18.9673M804.472 23.8517L805.813 26.992L806.632 28.9098M804.472 23.8517H844.962M802.386 18.9673H842.181M802.386 18.9673L800.868 15.4129L800.37 14.2483M761.246 14.2483L761.082 13.6689L760.43 11.3783L759.947 9.68556M761.246 14.2483H800.37M761.246 14.2483H722.123M806.632 28.9098L806.907 29.5547L807.184 30.2021L807.462 30.8528L807.741 31.5069L808.87 34.1511M806.632 28.9098H847.843M844.962 23.8517L842.867 20.173L842.181 18.9673M844.962 23.8517L847.843 28.9098M842.181 18.9673L840.825 16.5877L839.824 14.8294L839.494 14.2483M800.37 14.2483L800.123 13.6689L799.632 12.5194L799.144 11.3783L798.903 10.8116L798.421 9.68556M800.37 14.2483H839.494M847.843 28.9098L850.071 32.8227L850.827 34.1511M878.617 14.2483L876.171 10.8116L875.369 9.68556M878.617 14.2483H839.494M839.494 14.2483L837.216 10.2473L836.895 9.68556M766.913 34.1511H808.87M766.913 34.1511H724.957M811.191 39.5854L808.87 34.1511M811.191 39.5854L813.599 45.2238M811.191 39.5854H853.922M808.87 34.1511H850.827M724.957 34.1511H683M724.957 34.1511L724.211 28.9098M850.827 34.1511L853.922 39.5854M724.211 28.9098H683M813.599 45.2238L814.216 46.6664L815.152 48.8571L816.1 51.078M813.599 45.2238H857.133M853.922 39.5854L854.317 40.2781L857.133 45.2238M857.133 45.2238L857.542 45.9434L857.955 46.6664L858.368 47.3935L860.467 51.078M771.733 51.078L773.465 57.1614M771.733 51.078H816.1M771.733 51.078H727.367M816.1 51.078L818.698 57.1614M816.1 51.078H860.467M860.467 51.078L863.052 55.6181L863.491 56.3881L863.931 57.1614M773.465 57.1614H818.698M773.465 57.1614H728.233M821.4 63.4867L821.745 64.2953L822.092 65.1072L822.441 65.9242L824.211 70.0689M821.4 63.4867L820.036 60.2926L819.699 59.5041L819.364 58.719L818.698 57.1614M821.4 63.4867H867.533M818.698 57.1614H863.931M728.233 57.1614H683M728.233 57.1614L727.367 51.078M863.931 57.1614L867.533 63.4867M727.367 51.078H683M824.211 70.0689L826.767 76.0515L827.139 76.9239M824.211 70.0689H871.281M867.533 63.4867L868.456 65.1072L871.281 70.0689M871.281 70.0689L872.727 72.6063L875.185 76.9239M779.092 76.9239L780.1 80.4589L780.354 81.3549L781.127 84.0695M779.092 76.9239H827.139M779.092 76.9239H731.047M827.139 76.9239L830.191 84.0695M827.139 76.9239H875.185M875.185 76.9239L879.254 84.0695M781.127 84.0695H830.191M781.127 84.0695H732.063M833.374 91.5241L830.191 84.0695M833.374 91.5241L836.699 99.3079M833.374 91.5241H883.499M830.191 84.0695H879.254M732.063 84.0695H683M732.063 84.0695L731.805 82.255L731.297 78.6822L731.047 76.9239M879.254 84.0695L883.499 91.5241M731.047 76.9239H683M836.699 99.3079L839.29 105.376L840.174 107.444M836.699 99.3079H887.932M883.499 91.5241L887.932 99.3079M887.932 99.3079L890.222 103.331L892.566 107.444M787.783 107.444L790.206 115.957M787.783 107.444H840.174M787.783 107.444H735.391M840.174 107.444L843.81 115.957M840.174 107.444H892.566M892.566 107.444L897.413 115.957M790.206 115.957H843.81M790.206 115.957H736.603M847.618 124.873L846.648 122.605L843.81 115.957M847.618 124.873L851.61 134.221M847.618 124.873H902.49M843.81 115.957H897.413M736.603 115.957H683M736.603 115.957L735.391 107.444M897.413 115.957L902.49 124.873M735.391 107.444H683M851.61 134.221L855.801 144.034M851.61 134.221H907.813M902.49 124.873L907.813 134.221M907.813 134.221L913.402 144.034M798.201 144.034L801.137 154.347M798.201 144.034H855.801M798.201 144.034H740.601M855.801 144.034L860.206 154.347M855.801 144.034H913.402M913.402 144.034L919.275 154.347M801.137 154.347H860.206M801.137 154.347H742.068M864.841 165.199L860.206 154.347M864.841 165.199L869.725 176.635M864.841 165.199H925.454M860.206 154.347H919.275M742.068 154.347H683M742.068 154.347L740.779 145.295L740.601 144.034M919.275 154.347L925.454 165.199M740.601 144.034H683M869.725 176.635L874.879 188.703M869.725 176.635H931.967M925.454 165.199L930.306 173.72L931.967 176.635M931.967 176.635L938.839 188.703M810.919 188.703L814.55 201.454M810.919 188.703H874.879M810.919 188.703H746.96M874.879 188.703L880.325 201.454M874.879 188.703H938.839M938.839 188.703L946.1 201.454M814.55 201.454H880.325M814.55 201.454H748.775M886.09 214.952L880.325 201.454M886.09 214.952L892.201 229.26M886.09 214.952H953.786M880.325 201.454H946.1M748.775 201.454H683M748.775 201.454L746.96 188.703M946.1 201.454L953.786 214.952M746.96 188.703H683M892.201 229.26L898.692 244.459M892.201 229.26H961.935M953.786 214.952L961.935 229.26M961.935 229.26L970.59 244.459M826.795 244.459L831.399 260.629M826.795 244.459H898.692M826.795 244.459H754.897M898.692 244.459L905.598 260.629M898.692 244.459H970.59M970.59 244.459L979.798 260.629M831.399 260.629H905.598M831.399 260.629H757.199M912.962 277.869L905.598 260.629M912.962 277.869L920.829 296.289M912.962 277.869H989.616M905.598 260.629H979.798M757.199 260.629H683M757.199 260.629L754.897 244.459M979.798 260.629L989.616 277.869M754.897 244.459H683M920.829 296.289L929.253 316.014M920.829 296.289H1000.1M989.616 277.869L1000.1 296.289M1000.1 296.289L1011.34 316.014M847.169 316.014L853.198 337.188M847.169 316.014H929.253M847.169 316.014H765.085M929.253 316.014L938.296 337.188M929.253 316.014H1011.34M1011.34 316.014L1023.4 337.188M853.198 337.188H938.296M853.198 337.188H768.099M948.029 359.976L938.296 337.188M948.029 359.976L958.533 384.57M948.029 359.976H1036.37M938.296 337.188H1023.4M768.099 337.188H683M768.099 337.188L765.085 316.014M1023.4 337.188L1036.37 359.976M765.085 316.014H683M958.533 384.57L969.905 411.195M958.533 384.57H1050.38M1036.37 359.976L1050.38 384.57M1050.38 384.57L1065.54 411.195M874.27 411.195L882.503 440.111M874.27 411.195H969.905M874.27 411.195H778.635M969.905 411.195L982.255 440.111M969.905 411.195H1065.54M1065.54 411.195L1082.01 440.111M882.503 440.111H982.255M882.503 440.111H782.752M995.716 471.629L982.255 440.111M995.716 471.629L1010.45 506.116M995.716 471.629H1099.96M982.255 440.111H1082.01M782.752 440.111H683M782.752 440.111L778.635 411.195M1082.01 440.111L1099.96 471.629M778.635 411.195H683M1010.45 506.116L1026.63 544.013M1010.45 506.116H1119.59M1099.96 471.629L1119.59 506.116M1119.59 506.116L1141.17 544.013M912.087 544.013L924 585.851M912.087 544.013H1026.63M912.087 544.013H797.544M1026.63 544.013L1044.5 585.851M1026.63 544.013H1141.17M1141.17 544.013L1165 585.851M1044.5 585.851H924M1044.5 585.851H1165M924 585.851H803.5M803.5 585.851H683M803.5 585.851L797.544 544.013M797.544 544.013H683M600.579 28.9098L600.395 29.5547L600.211 30.2021L600.025 30.8528L599.84 31.5069L599.465 32.8227L599.276 33.4852L599.086 34.1511M600.579 28.9098H641.789M600.579 28.9098H559.368M642.509 23.8517L643.205 18.9673M642.509 23.8517L641.789 28.9098M642.509 23.8517H683M643.205 18.9673L643.29 18.3686L643.375 17.7724L643.459 17.1788L643.877 14.2483M643.205 18.9673H683M604.754 14.2483L604.918 13.6689L605.57 11.3783L606.053 9.68556M604.754 14.2483H643.877M604.754 14.2483H565.63M641.789 28.9098L641.697 29.5547L641.606 30.2021L641.512 30.8528L641.043 34.1511M641.789 28.9098H683M683 23.8517V18.9673M683 23.8517V28.9098M683 18.9673V14.2483M643.877 14.2483H683M643.877 14.2483L644.122 12.5194L644.205 11.9476L644.526 9.68556M683 28.9098V34.1511M722.123 14.2483L721.878 12.5194L721.796 11.9476L721.715 11.3783L721.634 10.8116L721.554 10.2473L721.474 9.68556M722.123 14.2483H683M683 14.2483V9.68556M599.086 34.1511H641.043M599.086 34.1511H557.13M640.27 39.5854L640.17 40.2781L640.072 40.9751L639.467 45.2238M640.27 39.5854L641.043 34.1511M640.27 39.5854H683M641.043 34.1511H683M557.13 34.1511H515.173M557.13 34.1511L557.696 32.8227L557.979 32.1636L558.258 31.5069L558.538 30.8528L558.816 30.2021L559.093 29.5547L559.368 28.9098M683 34.1511V39.5854M559.368 28.9098H518.157M639.467 45.2238L638.633 51.078M639.467 45.2238H683M683 39.5854V45.2238M683 45.2238V51.078M594.267 51.078L592.535 57.1614M594.267 51.078H638.633M594.267 51.078H549.9M638.633 51.078L637.767 57.1614M638.633 51.078H683M683 51.078V57.1614M592.535 57.1614H637.767M592.535 57.1614H547.302M636.867 63.4867L637.767 57.1614M636.867 63.4867L635.93 70.0689M636.867 63.4867H683M637.767 57.1614H683M547.302 57.1614H502.069M547.302 57.1614L549.9 51.078M683 57.1614V63.4867M549.9 51.078H505.533M635.93 70.0689L635.569 72.6063L635.202 75.1833L634.953 76.9239M635.93 70.0689H683M683 63.4867V70.0689M683 70.0689V76.9239M586.908 76.9239L585.901 80.4589L585.646 81.3549L584.873 84.0695M586.908 76.9239H634.953M586.908 76.9239H538.861M634.953 76.9239L634.704 78.6822L634.195 82.255L633.937 84.0695M634.953 76.9239H683M683 76.9239V84.0695M584.873 84.0695H633.937M584.873 84.0695H535.809M632.876 91.5241L633.01 90.5745L633.937 84.0695M632.876 91.5241L631.767 99.3079M632.876 91.5241H683M633.937 84.0695H683M535.809 84.0695H486.746M535.809 84.0695L538.861 76.9239M683 84.0695V91.5241M538.861 76.9239H490.815M631.767 99.3079L630.609 107.444M631.767 99.3079H683M683 91.5241V99.3079M683 99.3079V107.444M578.217 107.444L575.794 115.957M578.217 107.444H630.609M578.217 107.444H525.826M630.609 107.444L629.397 115.957M630.609 107.444H683M683 107.444V115.957M575.794 115.957H629.397M575.794 115.957H522.19M628.128 124.873L629.397 115.957M628.128 124.873L626.797 134.221M628.128 124.873H683M629.397 115.957H683M522.19 115.957H468.587M522.19 115.957L525.826 107.444M683 115.957V124.873M525.826 107.444H473.434M626.797 134.221L625.399 144.034M626.797 134.221H683M683 124.873V134.221M683 134.221V144.034M567.799 144.034L564.863 154.347M567.799 144.034H625.399M567.799 144.034H510.199M625.399 144.034L623.932 154.347M625.399 144.034H683M683 144.034V154.347M564.863 154.347H623.932M564.863 154.347H505.794M622.386 165.199L623.932 154.347M622.386 165.199L620.759 176.635M622.386 165.199H683M623.932 154.347H683M505.794 154.347H446.725M505.794 154.347L510.199 144.034M683 154.347V165.199M510.199 144.034H452.598M620.759 176.635L619.04 188.703M620.759 176.635H683M683 165.199V176.635M683 176.635V188.703M555.081 188.703L551.45 201.454M555.081 188.703H619.04M555.081 188.703H491.121M619.04 188.703L617.225 201.454M619.04 188.703H683M683 188.703V201.454M551.45 201.454H617.225M551.45 201.454H485.675M615.304 214.952L617.225 201.454M615.304 214.952L613.266 229.26M615.304 214.952H683M617.225 201.454H683M485.675 201.454H419.9M485.675 201.454L491.121 188.703M683 201.454V214.952M491.121 188.703H427.161M613.266 229.26L611.103 244.459M613.266 229.26H683M683 214.952V229.26M683 229.26V244.459M539.205 244.459L534.601 260.629M539.205 244.459H611.103M539.205 244.459H467.308M611.103 244.459L608.801 260.629M611.103 244.459H683M683 244.459V260.629M534.601 260.629H608.801M534.601 260.629H460.402M606.346 277.869L608.801 260.629M606.346 277.869L603.724 296.289M606.346 277.869H683M608.801 260.629H683M460.402 260.629H386.202M460.402 260.629L467.308 244.459M683 260.629V277.869M467.308 244.459H395.41M603.724 296.289L600.915 316.014M603.724 296.289H683M683 277.869V296.289M683 296.289V316.014M518.831 316.014L512.802 337.188M518.831 316.014H600.915M518.831 316.014H436.747M600.915 316.014L597.901 337.188M600.915 316.014H683M683 316.014V337.188M512.802 337.188H597.901M512.802 337.188H427.704M594.657 359.976L597.901 337.188M594.657 359.976L591.156 384.57M594.657 359.976H683M597.901 337.188H683M427.704 337.188H342.605M427.704 337.188L436.747 316.014M683 337.188V359.976M436.747 316.014H354.662M591.156 384.57L587.365 411.195M591.156 384.57H683M683 359.976V384.57M683 384.57V411.195M491.73 411.195L483.497 440.111M491.73 411.195H587.365M491.73 411.195H396.095M587.365 411.195L583.248 440.111M587.365 411.195H683M683 411.195V440.111M483.497 440.111H583.248M483.497 440.111H383.745M578.761 471.629L583.248 440.111M578.761 471.629L573.852 506.116M578.761 471.629H683M583.248 440.111H683M383.745 440.111H283.993M383.745 440.111L396.095 411.195M683 440.111V471.629M396.095 411.195H300.461M573.852 506.116L568.456 544.013M573.852 506.116H683M683 471.629V506.116M683 506.116V544.013M453.913 544.013L442 585.851M453.913 544.013H568.456M453.913 544.013H339.369M568.456 544.013L562.5 585.851M568.456 544.013H683M683 544.013V585.851M562.5 585.851H442M562.5 585.851H683M442 585.851H321.5M321.5 585.851H201M321.5 585.851L339.369 544.013M339.369 544.013H224.825M435.736 28.9098L433.518 31.5069L431.259 34.1511M435.736 28.9098H476.947M435.736 28.9098H394.525M480.547 23.8517L484.024 18.9673M480.547 23.8517L476.947 28.9098M480.547 23.8517H521.038M484.024 18.9673H523.819M484.024 18.9673L486.554 15.4129L487.383 14.2483M448.26 14.2483H487.383M448.26 14.2483L449.737 12.5194L452.157 9.68556M448.26 14.2483H409.136M476.947 28.9098L473.216 34.1511M476.947 28.9098H518.157M521.038 23.8517L523.819 18.9673M521.038 23.8517L518.157 28.9098M523.819 18.9673L525.175 16.5877L526.176 14.8294L526.506 14.2483M487.383 14.2483H526.506M487.383 14.2483L489.829 10.8116L490.631 9.68556M518.157 28.9098L515.929 32.8227L515.173 34.1511M565.63 14.2483L565.877 13.6689L566.368 12.5194L567.097 10.8116L567.579 9.68556M565.63 14.2483H526.506M526.506 14.2483L526.836 13.6689L527.491 12.5194L529.104 9.68556M431.259 34.1511H473.216M431.259 34.1511H389.302M469.347 39.5854L469.839 38.8952L470.328 38.2075L472.262 35.4903L473.216 34.1511M469.347 39.5854L466.351 43.7939L465.333 45.2238M469.347 39.5854H512.078M473.216 34.1511H515.173M389.302 34.1511H347.345M389.302 34.1511L393.237 30.2021L394.525 28.9098M515.173 34.1511L512.078 39.5854M394.525 28.9098H353.314M465.333 45.2238L464.822 45.9434L464.307 46.6664L462.748 48.8571L462.223 49.5935L461.167 51.078M465.333 45.2238H508.867M512.078 39.5854L511.683 40.2781L508.867 45.2238M508.867 45.2238L508.458 45.9434L508.045 46.6664L507.632 47.3935L505.533 51.078M416.8 51.078L411.604 57.1614M416.8 51.078H461.167M416.8 51.078H372.433M461.167 51.078L456.836 57.1614M461.167 51.078H505.533M505.533 51.078L502.069 57.1614M411.604 57.1614H456.836M411.604 57.1614H366.371M452.334 63.4867L456.836 57.1614M452.334 63.4867L447.649 70.0689M452.334 63.4867H498.467M456.836 57.1614H502.069M366.371 57.1614H321.138M366.371 57.1614L372.433 51.078M502.069 57.1614L498.467 63.4867M372.433 51.078H328.066M447.649 70.0689L442.769 76.9239M447.649 70.0689H494.719M498.467 63.4867L497.544 65.1072L494.719 70.0689M494.719 70.0689L493.273 72.6063L491.806 75.1833L490.815 76.9239M394.722 76.9239L391.702 80.4589L388.619 84.0695M394.722 76.9239H442.769M394.722 76.9239H346.676M442.769 76.9239L437.682 84.0695M442.769 76.9239H490.815M490.815 76.9239L486.746 84.0695M388.619 84.0695H437.682M388.619 84.0695H339.556M432.376 91.5241L437.682 84.0695M432.376 91.5241L426.835 99.3079M432.376 91.5241H482.501M437.682 84.0695H486.746M339.556 84.0695H290.491M339.556 84.0695L346.676 76.9239M486.746 84.0695L482.501 91.5241M346.676 76.9239H298.63M426.835 99.3079L425.411 101.308L421.044 107.444M426.835 99.3079H478.068M482.501 91.5241L478.068 99.3079M478.068 99.3079L477.5 100.305L475.778 103.331L473.434 107.444M368.652 107.444L361.381 115.957M368.652 107.444H421.044M368.652 107.444H316.261M421.044 107.444L414.984 115.957M421.044 107.444H473.434M473.434 107.444L468.587 115.957M361.381 115.957H414.984M361.381 115.957H307.778M408.637 124.873L412.639 119.252L414.984 115.957M408.637 124.873L401.983 134.221M408.637 124.873H463.51M414.984 115.957H468.587M307.778 115.957H254.174M307.778 115.957L316.261 107.444M468.587 115.957L463.51 124.873M316.261 107.444H263.87M401.983 134.221L394.998 144.034M401.983 134.221H458.187M463.51 124.873L458.187 134.221M458.187 134.221L452.598 144.034M337.397 144.034L328.588 154.347M337.397 144.034H394.998M337.397 144.034H279.797M394.998 144.034L387.657 154.347M394.998 144.034H452.598M452.598 144.034L446.725 154.347M328.588 154.347H387.657M328.588 154.347H269.519M379.932 165.199L387.657 154.347M379.932 165.199L371.791 176.635M379.932 165.199H440.546M387.657 154.347H446.725M269.519 154.347H210.451M269.519 154.347L279.797 144.034M446.725 154.347L440.546 165.199M279.797 144.034H222.197M371.791 176.635L363.202 188.703M371.791 176.635H434.033M440.546 165.199L434.033 176.635M434.033 176.635L427.161 188.703M299.242 188.703L288.349 201.454M299.242 188.703H363.202M299.242 188.703H235.282M363.202 188.703L354.125 201.454M363.202 188.703H427.161M427.161 188.703L419.9 201.454M288.349 201.454H354.125M288.349 201.454H222.574M344.517 214.952L354.125 201.454M344.517 214.952L334.331 229.26M344.517 214.952H412.214M354.125 201.454H419.9M222.574 201.454H156.799M222.574 201.454L235.282 188.703M419.9 201.454L412.214 214.952M235.282 188.703H171.323M334.331 229.26L323.513 244.459M334.331 229.26H404.065M412.214 214.952L404.065 229.26M404.065 229.26L395.41 244.459M251.616 244.459L237.803 260.629M251.616 244.459H323.513M251.616 244.459H179.718M323.513 244.459L312.003 260.629M323.513 244.459H395.41M395.41 244.459L386.202 260.629M237.803 260.629H312.003M237.803 260.629H163.604M299.731 277.869L312.003 260.629M299.731 277.869L286.618 296.289M299.731 277.869H376.384M312.003 260.629H386.202M163.604 260.629H89.4041M163.604 260.629L179.718 244.459M386.202 260.629L376.384 277.869M179.718 244.459H107.821M286.618 296.289L272.578 316.014M286.618 296.289H365.895M376.384 277.869L365.895 296.289M365.895 296.289L354.662 316.014M190.493 316.014L172.407 337.188M190.493 316.014H272.578M190.493 316.014H108.409M272.578 316.014L257.506 337.188M272.578 316.014H354.662M354.662 316.014L342.605 337.188M172.407 337.188H257.506M172.407 337.188H87.3083M241.284 359.976L257.506 337.188M241.284 359.976L223.778 384.57M241.284 359.976H329.628M257.506 337.188H342.605M87.3083 337.188H2.20949M87.3083 337.188L108.409 316.014M342.605 337.188L329.628 359.976M108.409 316.014H26.3239M223.778 384.57L204.825 411.195M223.778 384.57H315.622M329.628 359.976L315.622 384.57M315.622 384.57L300.461 411.195M109.191 411.195L84.4902 440.111M109.191 411.195H204.825M109.191 411.195H13.5556M204.825 411.195L184.242 440.111M204.825 411.195H300.461M300.461 411.195L283.993 440.111M84.4902 440.111H184.242M84.4902 440.111H-15.2614M161.806 471.629L184.242 440.111M161.806 471.629L137.257 506.116M161.806 471.629H266.045M184.242 440.111H283.993M-15.2614 440.111H-115.013M-15.2614 440.111L13.5556 411.195M283.993 440.111L266.045 471.629M13.5556 411.195H-82.0789M137.257 506.116L110.282 544.013M137.257 506.116H246.406M266.045 471.629L246.406 506.116M246.406 506.116L224.825 544.013M-4.26197 544.013L-39.9997 585.851M-4.26197 544.013H110.282M-4.26197 544.013H-118.806M110.282 544.013L80.5005 585.851M110.282 544.013H224.825M224.825 544.013L201 585.851M80.5005 585.851H-39.9997M80.5005 585.851H201M-39.9997 585.851L-138.558 585.851M-118.806 544.013L-138.558 563.833M-118.806 544.013H-138.558M270.893 28.9098L263.431 34.1511M270.893 28.9098H312.104M270.893 28.9098H229.683M318.584 23.8517L324.843 18.9673M318.584 23.8517L312.104 28.9098M318.584 23.8517H359.075M324.843 18.9673H364.638M324.843 18.9673L330.89 14.2483M291.766 14.2483H330.89M291.766 14.2483L294.228 12.5194L298.262 9.68556M291.766 14.2483H252.642M312.104 28.9098L305.388 34.1511M312.104 28.9098H353.314M359.075 23.8517L364.638 18.9673M359.075 23.8517L353.314 28.9098M364.638 18.9673L368.687 15.4129L370.013 14.2483M330.89 14.2483L331.631 13.6689L336.736 9.68556M330.89 14.2483H370.013M353.314 28.9098L347.345 34.1511M409.136 14.2483L413.683 9.68556M409.136 14.2483H370.013M370.013 14.2483L371.982 12.5194L375.209 9.68556M263.431 34.1511H305.388M263.431 34.1511H221.475M298.425 39.5854L305.388 34.1511M298.425 39.5854L291.201 45.2238M298.425 39.5854H341.156M305.388 34.1511H347.345M221.475 34.1511H179.518M221.475 34.1511L229.683 28.9098M347.345 34.1511L341.156 39.5854M229.683 28.9098H188.472M291.201 45.2238L289.352 46.6664L283.699 51.078M291.201 45.2238H334.734M341.156 39.5854L334.734 45.2238M334.734 45.2238L328.066 51.078M239.332 51.078L238.269 51.8261L230.673 57.1614M239.332 51.078H283.699M239.332 51.078H194.966M283.699 51.078L275.905 57.1614M283.699 51.078H328.066M328.066 51.078L327.215 51.8261L321.138 57.1614M230.673 57.1614H275.905M230.673 57.1614H185.44M267.801 63.4867L275.905 57.1614M267.801 63.4867L259.367 70.0689M267.801 63.4867H313.934M275.905 57.1614H321.138M185.44 57.1614H140.207M185.44 57.1614L194.966 51.078M321.138 57.1614L313.934 63.4867M194.966 51.078H150.599M259.367 70.0689L250.583 76.9239M259.367 70.0689H306.437M313.934 63.4867L306.437 70.0689M306.437 70.0689L298.63 76.9239M202.538 76.9239L192.365 84.0695M202.538 76.9239H250.583M202.538 76.9239H154.491M250.583 76.9239L241.428 84.0695M250.583 76.9239H298.63M298.63 76.9239L290.491 84.0695M192.365 84.0695H241.428M192.365 84.0695H143.301M231.877 91.5241L241.428 84.0695M231.877 91.5241L221.903 99.3079M231.877 91.5241H282.001M241.428 84.0695H290.491M143.301 84.0695H94.2376M143.301 84.0695L154.491 76.9239M290.491 84.0695L282.001 91.5241M154.491 76.9239H106.445M221.903 99.3079L211.478 107.444M221.903 99.3079H273.136M282.001 91.5241L273.136 99.3079M273.136 99.3079L263.87 107.444M159.087 107.444L146.968 115.957M159.087 107.444H211.478M159.087 107.444H106.695M211.478 107.444L200.571 115.957M211.478 107.444H263.87M263.87 107.444L254.174 115.957M146.968 115.957H200.571M146.968 115.957H93.3647M189.147 124.873L200.571 115.957M189.147 124.873L177.17 134.221M189.147 124.873H244.02M200.571 115.957H254.174M93.3647 115.957H39.7615M93.3647 115.957L106.695 107.444M254.174 115.957L244.02 124.873M106.695 107.444H54.3039M177.17 134.221L164.596 144.034M177.17 134.221H233.373M244.02 124.873L233.373 134.221M233.373 134.221L222.197 144.034M106.996 144.034L92.3138 154.347M106.996 144.034H164.596M106.996 144.034H49.396M164.596 144.034L151.382 154.347M164.596 144.034H222.197M222.197 144.034L210.451 154.347M92.3138 154.347H151.382M92.3138 154.347H33.2447M137.476 165.199L151.382 154.347M137.476 165.199L122.824 176.635M137.476 165.199H198.09M151.382 154.347H210.451M33.2447 154.347H-25.8236M33.2447 154.347L49.396 144.034M210.451 154.347L198.09 165.199M49.396 144.034H-8.20459M122.824 176.635L107.363 188.703M122.824 176.635H185.066M198.09 165.199L185.066 176.635M185.066 176.635L171.323 188.703M43.4029 188.703L25.249 201.454M43.4029 188.703H107.363M43.4029 188.703H-20.5562M107.363 188.703L91.0241 201.454M107.363 188.703H171.323M171.323 188.703L156.799 201.454M25.249 201.454H91.0241M25.249 201.454H-40.526M73.7304 214.952L91.0241 201.454M73.7304 214.952L55.3959 229.26M73.7304 214.952H141.427M91.0241 201.454H156.799M-40.526 201.454H-106.301M-40.526 201.454L-20.5562 188.703M156.799 201.454L141.427 214.952M-20.5562 188.703H-84.5162M55.3959 229.26L35.9233 244.459M55.3959 229.26H125.13M141.427 214.952L125.13 229.26M125.13 229.26L107.821 244.459M-35.9741 244.459L-58.9948 260.629M-35.9741 244.459H35.9233M-35.9741 244.459H-107.872M35.9233 244.459L15.2047 260.629M35.9233 244.459H107.821M107.821 244.459L89.4041 260.629M-58.9948 260.629H15.2047M-58.9948 260.629H-133.194M-6.88583 277.869L15.2047 260.629M-6.88583 277.869L-30.4868 296.289M-6.88583 277.869H69.768M15.2047 260.629H89.4041M-133.194 260.629L-107.872 244.459M-133.194 260.629H-138.558M-133.194 260.629L-138.558 264.053M89.4041 260.629L69.768 277.869M-107.872 244.459H-138.558M-30.4868 296.289L-55.76 316.014M-30.4868 296.289H48.7892M69.768 277.869L48.7892 296.289M48.7892 296.289L26.3239 316.014M-137.845 316.014H-55.76M-137.845 316.014H-138.558M-137.845 316.014L-138.558 316.514M-55.76 316.014L-82.8902 337.188M-55.76 316.014H26.3239M26.3239 316.014L2.20949 337.188M-112.088 359.976L-82.8902 337.188M-112.088 359.976H-23.7449M-112.088 359.976H-138.558M-112.088 359.976L-138.558 380.634M-82.8902 337.188H2.20949M-82.8902 337.188H-138.558M2.20949 337.188L-23.7449 359.976M-23.7449 359.976L-51.7557 384.57M-51.7557 384.57L-82.0789 411.195M-51.7557 384.57H-138.558M-82.0789 411.195L-115.013 440.111M-82.0789 411.195H-138.558M-115.013 440.111H-138.558M-115.013 440.111L-138.558 460.784M106.05 28.9098L95.6043 34.1511M106.05 28.9098H147.261M106.05 28.9098H64.8396M156.622 23.8517L165.662 18.9673M156.622 23.8517L147.261 28.9098M156.622 23.8517H197.113M165.662 18.9673H205.457M165.662 18.9673L174.396 14.2483M135.273 14.2483H174.396M135.273 14.2483L144.366 9.68556M135.273 14.2483H96.1495M147.261 28.9098L137.561 34.1511M147.261 28.9098H188.472M197.113 23.8517L205.457 18.9673M197.113 23.8517L188.472 28.9098M205.457 18.9673L213.519 14.2483M174.396 14.2483L175.467 13.6689L182.84 9.68556M174.396 14.2483H213.519M188.472 28.9098L179.518 34.1511M252.642 14.2483L259.787 9.68556M252.642 14.2483H213.519M213.519 14.2483L214.508 13.6689L221.314 9.68556M95.6043 34.1511H137.561M95.6043 34.1511H53.6475M127.503 39.5854L137.561 34.1511M127.503 39.5854L117.067 45.2238M127.503 39.5854H170.234M137.561 34.1511H179.518M53.6475 34.1511H11.6908M53.6475 34.1511L64.8396 28.9098M179.518 34.1511L170.234 39.5854M64.8396 28.9098H23.629M117.067 45.2238L106.232 51.078M117.067 45.2238H160.601M170.234 39.5854L169.049 40.2781L160.601 45.2238M160.601 45.2238L150.599 51.078M61.8657 51.078L49.7417 57.1614M61.8657 51.078H106.232M61.8657 51.078H17.499M106.232 51.078L94.9745 57.1614M106.232 51.078H150.599M150.599 51.078L140.207 57.1614M49.7417 57.1614H94.9745M49.7417 57.1614H4.509M83.2681 63.4867L94.9745 57.1614M83.2681 63.4867L71.086 70.0689M83.2681 63.4867H129.401M94.9745 57.1614H140.207M4.509 57.1614H-40.7237M4.509 57.1614L17.499 51.078M140.207 57.1614L129.401 63.4867M17.499 51.078H-26.8676M71.086 70.0689L58.3989 76.9239M71.086 70.0689H118.156M129.401 63.4867L118.156 70.0689M118.156 70.0689L106.445 76.9239M10.3523 76.9239L-3.88971 84.0695M10.3523 76.9239H58.3989M10.3523 76.9239H-37.6942M58.3989 76.9239L45.1744 84.0695M58.3989 76.9239H106.445M106.445 76.9239L94.2376 84.0695M-3.88971 84.0695H45.1744M-3.88971 84.0695H-52.953M31.3774 91.5241L45.1744 84.0695M31.3774 91.5241L16.971 99.3079M31.3774 91.5241H81.5027M45.1744 84.0695H94.2376M-52.953 84.0695H-102.016M-52.953 84.0695L-37.6942 76.9239M94.2376 84.0695L81.5027 91.5241M-37.6942 76.9239H-85.74M16.971 99.3079L1.91254 107.444M16.971 99.3079H68.2037M81.5027 91.5241L68.2037 99.3079M68.2037 99.3079L54.3039 107.444M-50.4789 107.444L-67.4449 115.957M-50.4789 107.444H1.91254M-50.4789 107.444H-102.869M1.91254 107.444L-13.8417 115.957M1.91254 107.444H54.3039M54.3039 107.444L39.7615 115.957M-67.4449 115.957H-13.8417M-30.343 124.873L-13.8417 115.957M-30.343 124.873L-47.6436 134.221M-30.343 124.873H24.5302M-13.8417 115.957H39.7615M39.7615 115.957L24.5302 124.873M-102.869 107.444H-138.558M-47.6436 134.221L-65.8052 144.034M-47.6436 134.221H8.55946M24.5302 124.873L8.55946 134.221M8.55946 134.221L-8.20459 144.034M-123.406 144.034H-65.8052M-123.406 144.034H-138.558M-123.406 144.034L-138.558 151.636M-65.8052 144.034L-84.8927 154.347M-65.8052 144.034H-8.20459M-8.20459 144.034L-25.8236 154.347M-104.978 165.199L-84.8927 154.347M-104.978 165.199L-126.143 176.635M-104.978 165.199H-44.3643M-104.978 165.199H-138.558M-84.8927 154.347H-25.8236M-84.8927 154.347H-138.558M-25.8236 154.347L-44.3643 165.199M-138.724 151.719L-138.558 151.636M-126.143 176.635H-63.9011M-126.143 176.635H-138.558M-126.143 176.635L-138.558 183.343M-44.3643 165.199L-63.9011 176.635M-63.9011 176.635L-84.5162 188.703M-84.5162 188.703L-106.301 201.454M-84.5162 188.703H-138.558M-129.36 214.952L-106.301 201.454M-129.36 214.952H-138.558M-129.36 214.952L-138.558 220.335M-106.301 201.454H-138.558M-58.792 28.9098L-72.2228 34.1511M-58.792 28.9098H-17.5815M-58.792 28.9098H-100.003M-5.34028 23.8517L6.48076 18.9673M-5.34028 23.8517L-17.5815 28.9098M-5.34028 23.8517H35.1505M6.48076 18.9673H46.2758M6.48076 18.9673L17.9021 14.2483M-21.2212 14.2483H17.9021M-21.2212 14.2483L-9.52935 9.68556M-21.2212 14.2483H-60.3444M-17.5815 28.9098L-30.266 34.1511M-17.5815 28.9098H23.629M35.1505 23.8517L46.2758 18.9673M35.1505 23.8517L23.629 28.9098M46.2758 18.9673L57.0254 14.2483M17.9021 14.2483H57.0254M17.9021 14.2483L28.9452 9.68556M23.629 28.9098L11.6908 34.1511M96.1495 14.2483L105.893 9.68556M96.1495 14.2483H57.0254M57.0254 14.2483L67.4189 9.68556M-72.2228 34.1511H-30.266M-72.2228 34.1511H-114.18M-43.4186 39.5854L-30.266 34.1511M-43.4186 39.5854L-57.065 45.2238M-43.4186 39.5854H-0.688202M-30.266 34.1511H11.6908M-114.18 34.1511L-100.003 28.9098M-114.18 34.1511H-138.558M11.6908 34.1511L-0.688202 39.5854M-100.003 28.9098H-138.558M-57.065 45.2238L-71.2343 51.078M-57.065 45.2238H-13.5319M-0.688202 39.5854L-13.5319 45.2238M-13.5319 45.2238L-26.8676 51.078M-115.601 51.078L-131.189 57.1614M-115.601 51.078H-71.2343M-115.601 51.078H-138.558M-71.2343 51.078L-85.9565 57.1614M-71.2343 51.078H-26.8676M-26.8676 51.078L-40.7237 57.1614M-101.265 63.4867L-85.9565 57.1614M-101.265 63.4867L-117.195 70.0689M-101.265 63.4867H-55.1318M-101.265 63.4867H-138.558M-85.9565 57.1614H-131.189M-85.9565 57.1614H-40.7237M-131.189 57.1614L-138.558 60.0364M-131.189 57.1614H-138.558M-40.7237 57.1614L-55.1318 63.4867M-117.195 70.0689L-133.787 76.9239M-117.195 70.0689H-70.1252M-117.195 70.0689H-138.558M-55.1318 63.4867L-70.1252 70.0689M-70.1252 70.0689L-85.74 76.9239M-133.787 76.9239H-85.74M-133.787 76.9239L-138.558 78.8949M-133.787 76.9239H-138.558M-85.74 76.9239L-102.016 84.0695M-118.997 91.5241L-102.016 84.0695M-118.997 91.5241L-136.728 99.3079M-118.997 91.5241H-138.558M-102.016 84.0695H-138.558M-138.814 84.0695H-138.558M-136.728 99.3079H-138.558M-136.728 99.3079L-138.558 100.111M-139 100.305L-138.558 100.111M-126.812 23.8517L-112.905 18.9673M-126.812 23.8517H-138.558M-126.812 23.8517L-138.558 27.9766M-112.905 18.9673L-99.4677 14.2483M-112.905 18.9673H-138.558M-60.3444 14.2483L-48.0031 9.68556M-60.3444 14.2483H-99.4677M-99.4677 14.2483L-86.4768 9.68556M-99.4677 14.2483H-138.558M1221.63 9.68556H1260.11M1221.63 9.68556H1183.16M1250.68 5.27223L1253.01 6.36213L1260.11 9.68556M1250.68 5.27223H1288.53M1260.11 9.68556H1298.58M1288.53 5.27223L1291.01 6.36213L1292.26 6.9096L1298.58 9.68556M1298.58 9.68556H1337.05M1337.05 9.68556H1375.53M1183.16 9.68556H1144.69M1375.53 9.68556H1414M1414 9.68556L1402.06 5.27223M1414 9.68556H1452.48M1402.06 5.27223H1439.91M1067.74 9.68556H1106.21M1067.74 9.68556H1029.26M1099.3 5.27223L1101.01 6.36213L1101.87 6.9096L1106.21 9.68556M1099.3 5.27223H1137.15M1106.21 9.68556H1144.69M1137.15 5.27223L1144.69 9.68556M1029.26 9.68556H990.791M913.843 9.68556H952.317M913.843 9.68556H875.369M947.918 5.27223L948.461 5.8155L949.004 6.36213L949.551 6.9096L952.317 9.68556M947.918 5.27223H985.764M952.317 9.68556H990.791M985.764 5.27223L990.791 9.68556M875.369 9.68556H836.895M759.947 9.68556H798.421M759.947 9.68556H721.474M796.537 5.27223L798.421 9.68556M796.537 5.27223H834.382M798.421 9.68556H836.895M834.382 5.27223L834.692 5.8155L835.003 6.36213L835.315 6.9096L836.895 9.68556M721.474 9.68556H683M606.053 9.68556H644.526M606.053 9.68556H567.579M645.154 5.27223L644.526 9.68556M645.154 5.27223H683M644.526 9.68556H683M683 5.27223V9.68556M567.579 9.68556H529.104M452.157 9.68556H490.631M452.157 9.68556H413.683M493.772 5.27223L492.997 6.36213L491.426 8.56796L490.631 9.68556M493.772 5.27223H531.618M490.631 9.68556H529.104M531.618 5.27223L531.308 5.8155L530.997 6.36213L530.685 6.9096L529.104 9.68556M413.683 9.68556H375.209M298.262 9.68556H336.736M298.262 9.68556H259.787M342.391 5.27223L340.994 6.36213L340.292 6.9096L336.736 9.68556M342.391 5.27223H380.236M336.736 9.68556H375.209M380.236 5.27223L379.617 5.8155L375.209 9.68556M259.787 9.68556H221.314M144.366 9.68556H182.84M144.366 9.68556H105.893M191.009 5.27223L188.991 6.36213L187.976 6.9096L182.84 9.68556M191.009 5.27223H228.854M182.84 9.68556H221.314M228.854 5.27223L227.925 5.8155L221.314 9.68556M105.893 9.68556H67.4189M-9.52935 9.68556H28.9452M-9.52935 9.68556H-48.0031M39.6263 5.27223L28.9452 9.68556M39.6263 5.27223H77.4719M28.9452 9.68556H67.4189M77.4719 5.27223L74.9901 6.36213L73.7406 6.9096L67.4189 9.68556M-48.0031 9.68556H-86.4768M-111.755 5.27223L-124.951 9.68556M-111.755 5.27223H-73.9095M-111.755 5.27223H-138.558M-124.951 9.68556H-86.4768M-124.951 9.68556L-138.558 14.2372M-124.951 9.68556H-138.558M-73.9095 5.27223L-77.0126 6.36213L-86.4768 9.68556M1439.91 5.27223L1443.01 6.36213L1452.48 9.68556M1452.48 9.68556H1490.95M1490.95 9.68556L1504.56 14.2372M1490.95 9.68556H1504.56M1504.56 220.335V214.952M1504.56 220.335V229.26M1504.56 214.952V201.454M1504.56 229.26V231.928V244.459M1504.56 244.459V260.629M1504.56 115.957V107.444M1504.56 115.957V124.156M1504.56 5.27223V9.68556M1504.56 9.68556V14.2372M1504.56 14.2372L1504.59 14.2483H1504.56M1504.56 14.2372V14.2483M1504.56 14.2483V18.9673M1504.56 18.9673V23.8517M1504.56 23.8517V27.9766M1504.56 27.9766V28.9098M1504.56 28.9098V34.1511M1504.56 34.1511V39.5854M1504.56 39.5854V43.1625M1504.56 43.1625V45.2238M1504.56 45.2238V51.078M1504.56 51.078V57.1614M1504.56 57.1614V60.0364M1504.56 60.0364V63.4867M1504.56 63.4867V70.0689M1504.56 70.0689V76.9239M1504.56 76.9239V78.8949M1504.56 78.8949V84.0695M1504.56 84.0695V91.5241M1504.56 91.5241V99.3079M1504.56 99.3079V100.111M1504.56 100.111V107.444M1504.56 124.873V134.221M1504.56 124.873V124.156M1504.56 134.221V144.034M1504.56 144.034V151.636M1504.56 151.636V154.347M1504.56 154.347V165.199M1504.56 165.199V176.635M1504.56 176.635V183.343M1504.56 183.343V188.703M1504.56 188.703V201.454M1504.56 260.629V264.053M1504.56 264.053V277.869M1504.56 277.869V296.289M1504.56 296.289V316.014M1504.56 316.014V316.514M1504.56 316.514V337.188M1504.56 337.188V359.976M1504.56 359.976V380.634M1504.56 380.634V384.57M1504.56 384.57V411.195M1504.56 411.195V440.111M1504.56 440.111V460.784M1504.56 460.784V471.629M1504.56 471.629V506.116M1504.56 506.116V544.013M1504.56 544.013V563.833M1504.56 563.833V585.851M1504.56 585.851V586H-138.558V585.851M-138.558 124.873V134.221M-138.558 124.873V124.156M-138.558 124.156V115.957M-138.558 115.957V107.444M-138.558 107.444V100.111M-138.558 100.111V99.3079M-138.558 99.3079V91.5241M-138.558 91.5241V84.0695M-138.558 84.0695V78.8949M-138.558 78.8949V76.9239M-138.558 76.9239V70.0689M-138.558 70.0689V63.4867M-138.558 63.4867V60.0364M-138.558 60.0364V57.1614M-138.558 57.1614V51.078M-138.558 51.078V45.2238M-138.558 45.2238V43.1625M-138.558 43.1625V39.5854M-138.558 39.5854V34.1511M-138.558 34.1511V28.9098M-138.558 28.9098V27.9766M-138.558 27.9766V23.8517M-138.558 23.8517V18.9673M-138.558 18.9673V14.2483M-138.558 14.2483H-138.591L-138.558 14.2372M-138.558 14.2483V14.2372M-138.558 14.2372V9.68556M-138.558 9.68556V5.27223M-138.558 585.851V563.833M-138.558 563.833V544.013M-138.558 544.013V506.117M-138.558 506.117V471.629M-138.558 471.629V460.784M-138.558 460.784V440.111M-138.558 440.111V411.195M-138.558 411.195V384.57M-138.558 384.57V380.634M-138.558 380.634V359.976M-138.558 359.976V337.188M-138.558 337.188V316.514M-138.558 316.514V316.014M-138.558 316.014V296.289M-138.558 296.289V277.869M-138.558 277.869V264.053M-138.558 264.053V260.629M-138.558 260.629V244.459M-138.558 244.459V229.26M-138.558 229.26V220.335M-138.558 220.335V214.952M-138.558 214.952V201.454M-138.558 201.454V188.703M-138.558 188.703V183.343M-138.558 183.343V176.635M-138.558 176.635V165.199M-138.558 165.199V154.347M-138.558 154.347V151.636M-138.558 151.636V144.034M-138.558 144.034V134.221" stroke="url(#paint0_linear_2168_8362)" stroke-width="1.2" stroke-miterlimit="10" stroke-linecap="round" stroke-linejoin="round"/>
<defs>
<linearGradient id="paint0_linear_2168_8362" x1="683" y1="1" x2="683" y2="878" gradientUnits="userSpaceOnUse">
<stop stop-color="#001F47"/>
<stop offset="1" stop-color="#ADADAD"/>
</linearGradient>
</defs>
</svg>
