<svg width="24" height="25" viewBox="0 0 24 25" fill="none" xmlns="http://www.w3.org/2000/svg">
<path d="M21 12.5C21 17.4706 16.9706 21.5 12 21.5M21 12.5C21 7.52944 16.9706 3.5 12 3.5M21 12.5C21 10.567 16.9706 9 12 9C7.02944 9 3 10.567 3 12.5M21 12.5C21 14.433 16.9706 16 12 16C7.02944 16 3 14.433 3 12.5M12 21.5C7.02944 21.5 3 17.4706 3 12.5M12 21.5C14.2091 21.5 16 17.4706 16 12.5C16 7.52944 14.2091 3.5 12 3.5M12 21.5C9.79086 21.5 8 17.4706 8 12.5C8 7.52944 9.79086 3.5 12 3.5M3 12.5C3 7.52944 7.02944 3.5 12 3.5" stroke="#030303"/>
</svg>
