<svg width="131" height="35" viewBox="0 0 131 35" fill="none" xmlns="http://www.w3.org/2000/svg">
<path d="M25.5799 13.6406C27.7536 13.6406 29.5156 11.8786 29.5156 9.70496L29.5156 8.72104C29.5156 6.54742 27.7536 4.78535 25.5799 4.78535L19.6764 4.78535C17.5028 4.78535 15.7407 6.54742 15.7407 8.72104L15.7407 9.70496C15.7407 11.8786 17.5028 13.6406 19.6764 13.6406L25.5799 13.6406Z" fill="#72A9F3"/>
<path d="M3.93569 4.78518C1.76207 4.78518 7.70224e-08 6.54725 1.72034e-07 8.72087L6.45129e-07 19.544C7.40141e-07 21.7176 1.76207 23.4797 3.93569 23.4797L9.83922 23.4797C12.0128 23.4797 13.7749 21.7176 13.7749 19.544L13.7749 8.72087C13.7749 6.54725 12.0128 4.78518 9.83922 4.78518L3.93569 4.78518Z" fill="#F07575"/>
<path d="M25.5838 34.3028C27.7575 34.3028 29.5195 32.5407 29.5195 30.3671L29.5195 19.5439C29.5195 17.3703 27.7575 15.6082 25.5838 15.6082L19.6803 15.6082C17.5067 15.6082 15.7446 17.3703 15.7446 19.5439L15.7446 30.3671C15.7446 32.5407 17.5067 34.3028 19.6803 34.3028L25.5838 34.3028Z" fill="#D8C38C"/>
<path d="M9.83775 34.3028C12.0114 34.3028 13.7734 32.5407 13.7734 30.3671L13.7734 29.3831C13.7734 27.2095 12.0114 25.4475 9.83775 25.4475L3.93422 25.4475C1.7606 25.4475 -0.0014712 27.2095 -0.00147071 29.3831L-0.00147049 30.3671C-0.00147001 32.5407 1.7606 34.3028 3.93422 34.3028L9.83775 34.3028Z" fill="#99CCB0"/>
<path d="M89.4215 11.5646H95.1282V34.3129H89.8938L89.4608 31.2824C88.2801 33.4077 86.1942 34.5884 83.1244 34.5884C76.5124 34.5884 76.5518 29.0784 76.5518 22.7026V11.5252H82.2585V24.4737C82.2585 27.1106 82.416 29.0784 84.2264 29.0784C86.9026 29.0784 89.4215 27.819 89.4215 23.1355V11.5646Z" fill="#004AAD"/>
<path d="M110.048 11.2497H111.464V16.9565H110.048C106.702 16.9565 105.325 19.1998 105.325 22.309V34.3129H99.618V11.5646H104.813L105.167 13.8473C106.112 12.3124 107.647 11.2497 110.048 11.2497Z" fill="#004AAD"/>
<path d="M122.613 11.7614C128.005 11.7614 130.996 14.0441 130.996 19.4753V34.3129H125.801L125.408 32.1089C123.834 33.88 121.511 34.7852 119.268 34.7852C115.923 34.7852 112.814 32.7386 112.814 28.37C112.814 25.8905 113.798 23.1749 118.087 21.64L125.172 19.0818C124.817 17.5468 123.873 16.5629 122.141 16.5629H114.86V11.7614H122.613ZM125.29 25.7724V23.8439L120.488 25.9299C119.74 26.2447 119.229 26.9925 119.229 27.7796C119.229 29.1571 120.291 29.8262 121.551 29.8262C123.243 29.8262 125.29 28.5274 125.29 25.7724Z" fill="#004AAD"/>
<path fill-rule="evenodd" clip-rule="evenodd" d="M74.4416 33.6063L62.105 6.44321C61.8535 5.85217 61.4574 5.55664 60.9166 5.55664H60.6337C60.0803 5.55664 59.6716 5.84588 59.4075 6.42435L47.1087 33.5875C46.9704 33.9144 46.9641 34.1785 47.0898 34.3797C47.2282 34.5809 47.4734 34.6816 47.8255 34.6816H52.7865C53.3524 34.6816 53.736 34.3923 53.9372 33.8138L54.8804 31.4937H66.6699L67.6319 33.8327C67.8709 34.4112 68.2481 34.7004 68.7637 34.7004H73.7625C74.102 34.7004 74.3347 34.5998 74.4604 34.3986C74.5988 34.1848 74.5925 33.9207 74.4416 33.6063ZM63.5036 24.9548L63.7064 24.8379C64.459 24.4044 64.7246 23.3327 64.2817 22.5168L61.8611 18.0566C61.2977 17.0186 59.9692 17.0186 59.4058 18.0566L56.9852 22.5168C56.5423 23.3327 56.808 24.4044 57.5605 24.8379L59.9216 26.1982C59.9155 26.2246 59.9123 26.2522 59.9123 26.2807V26.6084C59.9123 26.7894 60.0415 26.9361 60.2008 26.9361H61.0661C61.2254 26.9361 61.3546 26.7894 61.3546 26.6084V26.2807C61.3546 26.2522 61.3514 26.2246 61.3454 26.1982L63.417 25.0047H63.5311L63.5036 24.9548Z" fill="#004AAD"/>
<path d="M111.247 5.72709L112.154 6.55667C111.486 7.35626 110.54 7.77605 109.643 7.77605C108.258 7.77605 106.982 6.78655 106.982 4.67763C106.982 2.73861 108.367 1.80908 109.693 1.80908C110.918 1.80908 112.094 2.59868 112.094 4.11791C112.094 4.23785 112.094 4.36778 112.074 4.49772L108.816 5.907C109.105 6.23683 109.513 6.38676 109.922 6.38676C110.44 6.38676 110.968 6.14688 111.247 5.72709ZM108.427 4.70761V4.74759L110.55 3.82806C110.55 3.41826 110.151 3.1584 109.703 3.1584C109.115 3.1584 108.427 3.59817 108.427 4.70761Z" fill="#667085"/>
<path d="M115.024 3.56819C115.024 4.08792 117.126 4.29782 117.126 5.95698C117.126 6.63663 116.778 7.74607 114.974 7.74607C113.988 7.74607 113.21 7.23633 112.602 6.4967L113.559 5.53719C113.559 5.53719 114.177 6.46672 114.974 6.46672C115.303 6.46672 115.612 6.3068 115.612 5.95698C115.612 5.01745 113.3 5.10741 113.3 3.51821C113.3 2.83856 113.718 1.84906 115.173 1.84906C116.329 1.84906 116.977 2.47874 117.196 2.84855L116.22 3.61816C116.22 3.61816 115.921 3.18838 115.452 3.18838C115.173 3.18838 115.024 3.32831 115.024 3.56819Z" fill="#667085"/>
<path d="M126.905 1.27935C126.427 1.27935 126.218 1.54921 126.138 1.90903H127.095V3.06844H126.088V7.6861H124.653V3.06844H124.294V1.90903H124.693C124.823 0.949518 125.271 0 126.895 0H127.772V1.27935H126.905Z" fill="#667085"/>
<path d="M129.961 1.90412H130.997V3.06564H129.961V7.37084L128.516 7.99052V3.06839H127.48L127.48 1.90128H128.516V0.634259H129.961V1.90412Z" fill="#667085"/>
<path d="M122.66 3.04158C122.757 2.96561 122.899 2.98312 122.967 3.08683C123.306 3.60563 123.47 4.22277 123.431 4.84611C123.391 5.46945 123.15 6.06075 122.748 6.53219C122.668 6.62644 122.525 6.6258 122.438 6.53802L121.803 5.90023C121.715 5.81244 121.717 5.67104 121.791 5.57143C121.965 5.33668 122.068 5.05527 122.087 4.76033C122.106 4.46538 122.038 4.17306 121.896 3.9181C121.835 3.80992 121.851 3.66944 121.949 3.59348L122.66 3.04158Z" fill="#667085"/>
<path d="M118.937 2.58289C118.861 2.48544 118.877 2.34338 118.98 2.27445C119.494 1.92962 120.108 1.75994 120.73 1.79443C121.352 1.82893 121.943 2.0655 122.417 2.46513C122.511 2.54502 122.512 2.68801 122.425 2.7764L121.794 3.41853C121.708 3.50691 121.567 3.5064 121.467 3.43327C121.231 3.26094 120.95 3.15926 120.656 3.14294C120.361 3.12661 120.07 3.19654 119.817 3.34177C119.71 3.40339 119.57 3.38831 119.493 3.29086L118.937 2.58289Z" fill="#667085"/>
<path d="M118.512 6.32182C118.416 6.39948 118.274 6.38445 118.204 6.28194C117.856 5.76914 117.681 5.15496 117.71 4.53102C117.739 3.90709 117.969 3.31168 118.363 2.83328C118.442 2.73764 118.584 2.73579 118.673 2.82203L119.319 3.44863C119.408 3.53488 119.409 3.67629 119.337 3.77717C119.167 4.01493 119.069 4.2981 119.055 4.59333C119.041 4.88855 119.114 5.17966 119.261 5.43209C119.323 5.53919 119.309 5.67993 119.213 5.75759L118.512 6.32182Z" fill="#667085"/>
<path d="M122.243 6.71471C122.321 6.81077 122.307 6.95309 122.206 7.02385C121.698 7.37784 121.087 7.55848 120.465 7.53511C119.842 7.51175 119.247 7.28581 118.766 6.8947C118.67 6.81652 118.667 6.67356 118.752 6.58364L119.371 5.93033C119.457 5.84041 119.598 5.8384 119.699 5.90972C119.937 6.07781 120.22 6.17444 120.515 6.1855C120.809 6.19655 121.099 6.12143 121.349 5.97169C121.456 5.90816 121.596 5.92074 121.674 6.0168L122.243 6.71471Z" fill="#667085"/>
<path fill-rule="evenodd" clip-rule="evenodd" d="M106.84 7.56745L103.658 0.539765C103.593 0.386848 103.491 0.310389 103.351 0.310389H103.278C103.136 0.310389 103.03 0.385221 102.962 0.534885L99.7898 7.56257C99.7541 7.64716 99.7525 7.71548 99.7849 7.76754C99.8206 7.8196 99.8838 7.84563 99.9746 7.84563H101.254C101.4 7.84563 101.499 7.77079 101.551 7.62113L101.794 7.02085H104.835L105.084 7.62601C105.145 7.77567 105.242 7.85051 105.375 7.85051H106.665C106.752 7.85051 106.812 7.82448 106.845 7.77242C106.881 7.71711 106.879 7.64879 106.84 7.56745ZM104.019 5.32914L104.071 5.29892C104.265 5.18675 104.334 4.90949 104.219 4.69839L103.595 3.54446C103.45 3.27589 103.107 3.27589 102.962 3.54446L102.337 4.69839C102.223 4.90949 102.292 5.18675 102.486 5.29892L103.095 5.65086C103.093 5.65768 103.092 5.66483 103.092 5.6722V5.75698C103.092 5.8038 103.126 5.84176 103.167 5.84176H103.39C103.431 5.84176 103.464 5.8038 103.464 5.75698V5.6722C103.464 5.66483 103.463 5.65768 103.462 5.65086L103.996 5.34201H104.026L104.019 5.32914Z" fill="#667085"/>
</svg>
