<svg width="639" height="585" viewBox="0 0 639 585" fill="none" xmlns="http://www.w3.org/2000/svg">
<g filter="url(#filter0_f_1_2)">
<path d="M399.448 117.801C410.964 120.789 422.786 129.516 431.185 137.301C433.888 139.17 435.899 141.47 438.286 142.679C442.082 144.603 444.897 148.969 448.626 151.201C452.58 153.568 455.758 157.186 459.748 159.669C462.881 161.618 467.742 162.318 471.374 163.078C480.463 164.981 490.942 163.367 498.092 169.994C507.319 178.547 504.363 190.871 501.343 201.623C498.048 213.356 497.119 224.768 502.314 236.098C504.167 240.138 508.226 243.223 511 246.699C515.109 251.847 517.827 256.388 521.117 262.097C526.692 271.77 539.407 289.886 529.811 300.826C520.561 311.371 506.976 319.85 501.656 333.094C498.91 339.931 500.037 348.906 499.448 356.121C498.793 364.128 500.851 372.066 500.528 380.072C500.161 389.193 499.666 397.276 492.742 404.163C487.212 409.662 481.944 414.197 474.854 417.757C466.819 421.791 458.021 424.368 450.461 429.287C442.479 434.481 434.538 439.805 427.24 445.872C416.848 454.511 402.495 471.206 387.182 469.798C375.881 468.76 364.844 465.021 353.72 463.007C346.593 461.717 343.053 463.835 337.83 468.323C326.46 478.095 314.888 480.756 300.068 477.309C291.822 475.391 283.993 471.103 276.229 467.891C268.583 464.727 260.727 462.08 253.066 458.958C231.459 450.155 217.378 431.315 200.214 416.699C194.122 411.51 190.035 413.311 182.698 413.071C177.448 412.9 172.922 411.181 168.38 408.795C161.189 405.018 155.415 398.053 149.573 392.637L132.295 376.622C119.606 364.861 106.806 355.88 105.823 337.636C104.984 322.066 118.863 307.842 123.675 293.41C128.764 278.148 123.097 262.727 123.994 247.381C124.882 232.189 131.74 220.071 143.226 210.1C154.772 200.077 166.656 189.286 175.057 176.635C178.232 171.853 180.939 166.088 184.395 161.562C188.727 155.888 195.54 152.557 201.319 148.491C213.024 140.255 222.817 132.652 236.913 128.714C253.028 124.213 269.326 119.734 285.94 117.421C297.207 115.853 309.178 109.525 320.514 110.015C331.48 110.489 342.873 112.52 353.779 112.445C361.773 112.389 369.757 110.5 377.872 110.906C385.707 111.298 392.155 115.909 399.448 117.801Z" stroke="#9EFAFF" stroke-width="10.89" stroke-linecap="round" stroke-dasharray="0.89 8.89"/>
</g>
<path d="M287.217 479.785C274.536 478.269 260.64 470.735 250.521 463.709C247.363 462.12 244.871 459.977 242.152 459.04C237.826 457.548 234.162 453.337 229.859 451.511C225.297 449.575 221.363 446.206 216.745 444.152C213.119 442.539 207.853 442.492 203.883 442.207C193.945 441.492 183.08 444.69 174.466 438.708C163.348 430.988 164.57 417.549 166.102 405.762C167.775 392.9 166.987 380.714 159.715 369.486C157.122 365.483 152.336 362.802 148.854 359.526C143.695 354.674 140.107 350.265 135.729 344.703C128.312 335.28 112.01 317.956 120.489 305.034C128.662 292.577 141.756 281.686 145.341 266.939C147.192 259.325 144.601 250.006 144.106 242.301C143.556 233.751 140.14 225.659 139.238 217.156C138.21 207.47 137.479 198.862 143.754 190.601C148.765 184.005 153.649 178.464 160.617 173.694C168.514 168.288 177.446 164.313 184.701 158.04C192.361 151.417 199.958 144.662 206.757 137.214C216.438 126.609 229.069 106.93 245.532 106.235C257.681 105.722 269.97 108.099 282.083 108.641C289.843 108.989 293.27 106.247 298.114 100.762C308.656 88.8211 320.518 84.3622 336.774 85.8918C345.82 86.7429 354.791 90.1562 363.526 92.4433C372.129 94.6956 380.873 96.3733 389.485 98.5789C413.774 104.799 431.639 122.694 452.116 135.687C459.385 140.299 463.441 137.815 471.261 137.023C476.857 136.457 481.925 137.627 487.114 139.5C495.329 142.466 502.536 149 509.575 153.888L530.392 168.343C545.68 178.958 560.653 186.621 564.531 205.751C567.84 222.078 555.328 239.08 552.466 255.009C549.439 271.855 557.847 287.336 559.28 303.673C560.699 319.846 555.307 333.624 544.672 345.792C533.982 358.024 523.052 371.115 516.106 385.674C513.481 391.178 511.506 397.653 508.543 402.926C504.829 409.536 498.119 414.025 492.621 419.143C481.484 429.51 472.277 438.936 457.936 445.103C441.541 452.154 424.948 459.207 407.683 464.016C395.976 467.277 384.26 475.667 372.158 476.765C360.452 477.826 348.052 477.303 336.493 478.937C328.022 480.134 319.847 483.267 311.176 483.994C302.803 484.696 295.247 480.745 287.217 479.785Z" stroke="#DEECFA" stroke-width="0.888889" stroke-linecap="round"/>
<path d="M182.773 416.886C173.748 408.668 167.376 394.964 163.659 383.753C162.137 380.738 161.469 377.647 159.901 375.394C157.405 371.811 157.057 366.419 154.781 362.581C152.367 358.512 151.304 353.644 148.917 349.449C147.043 346.155 142.947 343.209 140.008 340.787C132.652 334.726 122.227 331.282 119.062 321.737C114.978 309.42 123.984 299.344 132.244 290.761C141.257 281.395 147.939 271.211 148.968 258.211C149.335 253.576 147.192 248.788 146.426 244.243C145.292 237.512 145.122 232.002 145.024 225.134C144.859 213.499 142.466 190.634 156.846 184.98C170.709 179.53 187.488 178.051 199.128 168.233C205.138 163.165 208.691 154.279 212.917 147.841C217.608 140.697 219.779 132.336 224.164 125.036C229.161 116.719 233.744 109.429 243.607 106.287C251.483 103.778 258.627 102.043 266.941 102.076C276.364 102.114 285.741 103.868 295.181 102.858C305.148 101.792 315.143 100.585 324.929 98.3821C338.864 95.2458 360.544 86.4802 373.855 95.0189C383.678 101.32 391.88 110.011 401.043 117.136C406.913 121.701 411.239 121.401 418.318 119.688C433.727 115.96 445.688 118.945 457.505 129.15C464.081 134.828 469.063 142.514 474.535 149.169C479.924 155.723 485.768 161.896 491.193 168.418C506.492 186.812 509.767 210.997 518.024 232.704C520.955 240.409 525.619 240.662 532.219 244.349C536.941 246.987 540.21 250.723 543.152 255.088C547.811 261.999 549.542 271.207 552.128 279.006L559.775 302.07C565.392 319.008 572.53 333.409 564.109 350.856C556.923 365.745 536.94 372.434 525.157 383.597C512.697 395.401 510.01 412.431 501.348 426.292C492.773 440.014 480.297 448.057 464.68 451.917C448.981 455.797 432.578 460.232 418.418 468.043C413.066 470.995 407.641 475.084 402.162 477.666C395.293 480.902 387.349 480.787 379.978 481.843C365.045 483.984 352.188 486.439 337.262 483.451C320.198 480.034 302.977 476.51 286.574 470.82C275.45 466.961 261.249 467.201 251.113 461.394C241.308 455.776 231.909 448.507 221.877 443.429C214.525 439.707 206.245 437.697 199.018 433.489C192.039 429.425 188.487 422.09 182.773 416.886Z" stroke="#DAE9F9" stroke-width="0.888889" stroke-linecap="round"/>
<path d="M138.732 308.827C136.584 297.272 139.797 282.797 143.596 271.78C144.209 268.529 145.536 265.689 145.656 263.022C145.847 258.779 148.802 254.276 149.317 249.95C149.862 245.364 151.943 240.884 152.585 236.213C153.089 232.544 151.645 227.926 150.793 224.367C148.661 215.458 142.56 206.947 145.794 197.568C149.968 185.465 163.05 182.383 174.655 180.082C187.318 177.572 198.645 173.12 207.23 163.296C210.292 159.792 211.479 154.781 213.6 150.724C216.741 144.716 219.905 140.217 223.939 134.672C230.773 125.278 242.585 105.676 257.228 109.098C271.345 112.397 285.367 120.481 300.358 119.061C308.096 118.328 316.196 113.186 323.359 110.373C331.307 107.251 338.011 101.766 345.814 98.3518C354.704 94.4621 362.656 91.1647 372.258 94.0999C379.926 96.4439 386.559 99.002 393.049 103.621C400.404 108.855 406.697 115.436 414.693 119.842C423.134 124.494 431.683 129.049 440.664 132.693C453.452 137.882 475.673 142.847 480.985 157.026C484.905 167.489 486.126 178.967 489.035 189.724C490.899 196.616 494.466 198.765 501.034 201.305C515.331 206.835 522.909 215.828 526.055 230.513C527.805 238.684 527.105 247.58 527.407 255.924C527.704 264.14 528.585 272.303 528.929 280.513C529.899 303.669 517.989 324.813 511.462 346.729C509.146 354.508 512.646 357.286 515.607 363.878C517.726 368.596 518.049 373.388 517.74 378.503C517.252 386.601 513.096 394.92 510.453 402.583L502.637 425.246C496.897 441.89 493.867 457.346 476.832 466.644C462.294 474.579 442.644 468.891 426.737 471.308C409.916 473.864 397.62 485.995 382.542 492.293C367.615 498.528 353.033 498.069 338.495 492.529C323.88 486.961 308.384 481.447 292.622 479.872C286.663 479.276 279.969 479.549 274.134 478.587C266.819 477.381 260.668 472.901 254.263 469.675C241.291 463.14 229.754 458.002 219.856 447.368C208.54 435.212 197.165 422.884 187.727 409.275C181.327 400.047 170.064 392.396 165.603 382.154C161.288 372.248 158.279 361.245 153.464 351.645C149.935 344.609 144.654 338.429 141.515 331.073C138.483 323.97 140.092 316.143 138.732 308.827Z" stroke="#B8DDF9" stroke-width="0.888889" stroke-linecap="round"/>
<path d="M169.03 198.131C174.26 187.711 185.431 177.916 194.992 171.21C197.416 168.949 200.153 167.413 201.842 165.347C204.529 162.062 209.534 160.094 212.524 156.921C215.694 153.557 220.001 151.126 223.297 147.747C225.885 145.093 227.517 140.605 228.979 137.29C232.639 128.993 232.955 118.822 241.094 113.112C251.599 105.744 263.679 110.504 274.135 115.073C285.545 120.059 297.07 122.755 309.664 119.644C314.155 118.535 318.081 115.185 322.167 113.114C328.217 110.047 333.384 108.199 339.857 105.994C350.822 102.26 371.788 93.1157 381.2 103.936C390.273 114.367 396.411 128.571 408.989 135.713C415.483 139.4 424.897 139.762 432.184 141.469C440.27 143.363 448.796 142.681 456.944 144.261C466.226 146.061 474.42 147.816 480.179 155.464C484.777 161.572 488.437 167.278 490.753 174.553C493.379 182.798 494.366 191.532 497.988 199.468C501.812 207.847 505.777 216.208 510.625 224.079C517.528 235.287 531.946 251.524 527.624 265.789C524.434 276.315 518.524 286.163 514.368 296.366C511.705 302.904 513.21 306.591 516.83 312.247C524.711 324.561 525.263 335.932 518.942 349.405C515.424 356.902 509.556 363.626 504.803 370.46C500.121 377.191 495.929 384.202 491.288 390.953C478.199 409.994 456.234 420.317 438.021 434.228C431.556 439.166 432.633 443.319 431.008 450.223C429.844 455.163 427.231 459.171 423.931 463.089C418.705 469.291 410.479 473.644 403.828 478.31L384.158 492.107C369.713 502.239 358.098 512.919 339.208 510.944C323.086 509.258 311.112 493.862 297.22 487.011C282.529 479.765 265.653 482.672 250.087 479.38C234.678 476.121 223.543 467.702 215.48 455.247C207.375 442.727 198.546 429.764 187.155 419.802C182.848 416.036 177.447 412.558 173.456 408.567C168.454 403.564 166.32 396.588 163.238 390.473C156.995 378.087 151.041 367.611 149.654 353.647C148.07 337.684 146.542 321.55 147.296 305.463C147.807 294.554 143.57 282.22 146.204 271.572C148.752 261.272 152.977 250.818 154.951 240.486C156.397 232.914 155.961 225.06 157.904 217.447C159.779 210.096 165.719 204.73 169.03 198.131Z" stroke="#C5E2F8" stroke-width="0.888888" stroke-linecap="round"/>
<path d="M506.655 200.598C514.043 210.342 517.864 224.9 519.526 236.518C520.485 239.745 520.594 242.878 521.732 245.373C523.543 249.341 522.933 254.649 524.485 258.821C526.13 263.246 526.313 268.184 527.91 272.725C529.164 276.29 532.656 279.951 535.107 282.877C541.241 290.201 550.843 295.579 552.258 305.47C554.084 318.234 543.486 326.271 533.883 333.002C523.403 340.348 515.063 348.942 511.761 361.373C510.584 365.806 511.838 370.876 511.786 375.442C511.708 382.204 510.903 387.591 509.786 394.284C507.896 405.623 506.204 428.308 491.123 431C476.586 433.595 459.893 431.763 446.761 439.035C439.982 442.789 434.934 450.732 429.659 456.165C423.805 462.193 420.204 469.894 414.621 476.134C408.26 483.242 402.485 489.433 392.272 490.565C384.117 491.468 376.814 491.762 368.678 490.11C359.456 488.238 350.583 484.706 341.16 483.848C331.211 482.943 321.21 482.169 311.237 482.402C297.037 482.735 274.259 487.029 262.73 476.138C254.223 468.101 247.724 458.058 240.008 449.349C235.065 443.77 230.775 443.218 223.541 443.503C207.792 444.124 196.605 438.893 186.833 426.675C181.396 419.876 177.873 411.437 173.689 403.903C169.567 396.484 164.933 389.347 160.772 381.953C149.035 361.098 150.096 336.959 145.84 314.257C144.329 306.198 139.806 305.043 133.993 300.175C129.834 296.692 127.292 292.424 125.181 287.61C121.838 279.987 121.768 270.701 120.611 262.619L117.192 238.717C114.681 221.163 110.231 205.778 121.556 190.466C131.221 177.397 151.971 174.79 165.48 166.239C179.766 157.196 185.402 141.171 196.33 129.389C207.15 117.726 220.786 112.341 236.761 111.633C252.82 110.921 269.666 109.808 284.911 104.976C290.674 103.15 296.708 100.234 302.53 98.7926C309.827 96.986 317.586 98.6457 324.992 99.055C339.993 99.8841 353.017 100.003 367.108 105.816C383.216 112.46 399.458 119.24 414.518 127.965C424.731 133.882 438.68 136.416 447.582 144.034C456.193 151.402 464.115 160.297 473.043 167.186C479.586 172.236 487.341 175.802 493.676 181.299C499.793 186.608 501.977 194.428 506.655 200.598Z" stroke="#A9D1EE" stroke-width="0.888889" stroke-linecap="round"/>
<path d="M519.77 334.13C517.663 345.751 509.505 358.37 502.031 367.529C500.301 370.399 498.049 372.646 496.987 375.126C495.298 379.072 490.933 382.355 488.911 386.272C486.768 390.426 483.228 393.974 480.965 398.176C479.188 401.476 478.893 406.313 478.422 409.956C477.242 419.072 479.914 429.118 473.552 436.915C465.341 446.977 452.015 445.59 440.35 443.95C427.62 442.161 415.447 442.645 403.924 449.105C399.815 451.409 396.921 455.753 393.494 458.888C388.419 463.532 383.859 466.742 378.114 470.655C368.382 477.284 350.361 491.921 337.893 483.877C325.873 476.122 315.645 463.877 301.128 460.293C293.634 458.443 284.232 460.639 276.535 460.943C267.995 461.28 259.776 464.259 251.266 464.92C241.572 465.674 232.966 466.176 225.035 460.248C218.702 455.514 213.414 450.918 208.993 444.422C203.981 437.06 200.444 428.775 194.539 421.986C188.305 414.817 181.936 407.705 174.84 401.312C164.734 392.208 145.733 380.216 145.816 365.076C145.878 353.904 148.824 342.659 149.935 331.541C150.646 324.418 148.078 321.215 142.844 316.657C131.449 306.736 127.568 295.75 129.857 280.844C131.131 272.55 134.953 264.375 137.642 256.394C140.29 248.534 142.373 240.533 144.975 232.664C152.313 210.471 170.975 194.409 184.879 175.85C189.814 169.262 187.531 165.487 187.111 158.287C186.811 153.134 188.215 148.501 190.325 143.77C193.665 136.281 200.511 129.787 205.71 123.416L221.086 104.575C232.377 90.7373 240.713 77.1316 259.946 73.9454C276.361 71.2262 292.702 83.0565 308.43 86C325.063 89.1127 340.875 81.6924 357.212 80.6971C373.384 79.7118 386.85 84.9373 398.466 94.9475C410.143 105.01 422.665 115.311 436.836 121.978C442.193 124.499 448.548 126.441 453.659 129.267C460.067 132.81 464.221 139.063 469.058 144.215C478.857 154.652 487.81 163.296 493.276 176.594C499.524 191.796 505.766 207.18 509.742 223.137C512.438 233.958 520.241 244.887 520.763 256.028C521.269 266.804 520.164 278.187 521.246 288.839C522.039 296.646 524.775 304.219 525.09 312.2C525.394 319.906 521.104 326.771 519.77 334.13Z" stroke="#06C2F4" stroke-width="0.888889" stroke-linecap="round"/>
<path d="M452.035 428.749C443.436 436.874 429.507 442.457 418.182 445.651C415.112 446.989 412.007 447.542 409.693 448.938C406.011 451.159 400.632 451.373 396.708 453.388C392.547 455.525 387.656 456.406 383.372 458.515C380.008 460.172 376.884 463.875 374.337 466.527C367.962 473.162 364.045 482.667 354.404 485.386C341.962 488.895 332.366 480.429 324.22 472.677C315.33 464.218 305.518 457.884 292.638 456.685C288.046 456.257 283.183 458.131 278.627 458.745C271.88 459.655 266.392 459.703 259.557 459.659C247.978 459.583 225.126 461.333 220.182 448.019C215.415 435.183 214.736 419.748 205.522 408.868C200.765 403.251 192.095 399.815 185.892 395.809C179.009 391.362 170.797 389.205 163.743 385.035C155.708 380.285 148.674 375.934 146.015 366.817C143.891 359.536 142.503 352.943 142.928 345.31C143.41 336.658 145.597 328.082 145.038 319.395C144.447 310.223 143.718 301.022 141.99 291.993C139.528 279.137 131.833 259.059 140.953 247.004C147.683 238.108 156.713 230.747 164.231 222.473C169.048 217.172 168.954 213.194 167.584 206.661C164.603 192.44 168.137 181.515 178.842 170.865C184.799 164.938 192.678 160.514 199.555 155.62C206.328 150.8 212.742 145.554 219.484 140.701C238.498 127.014 262.705 124.48 284.682 117.322C292.483 114.782 292.955 110.504 296.932 104.517C299.779 100.232 303.648 97.3041 308.128 94.6877C315.221 90.5455 324.46 89.1358 332.338 86.914L355.636 80.3431C372.746 75.5175 387.404 69.2448 404.358 77.3179C418.826 84.2078 424.536 102.687 435.081 113.724C446.233 125.396 463.042 128.196 476.418 136.42C489.661 144.562 497.071 156.174 500.172 170.589C503.29 185.08 506.927 200.227 514.027 213.382C516.711 218.354 520.521 223.415 522.83 228.497C525.724 234.866 525.235 242.158 525.938 248.947C527.363 262.7 529.198 274.553 525.521 288.2C521.318 303.801 517.001 319.544 510.569 334.494C506.207 344.632 505.775 357.676 499.521 366.87C493.472 375.763 485.8 384.251 480.277 393.362C476.228 400.04 473.839 407.604 469.313 414.157C464.942 420.485 457.48 423.603 452.035 428.749Z" stroke="#ADD8F8" stroke-width="0.888889" stroke-linecap="round"/>
<path d="M342.411 466.881C330.83 468.629 316.601 465.405 305.837 461.708C302.636 461.084 299.878 459.812 297.234 459.651C293.028 459.395 288.694 456.598 284.421 456.043C279.891 455.455 275.539 453.46 270.928 452.782C267.308 452.249 262.652 453.485 259.075 454.198C250.123 455.983 241.377 461.416 232.214 458.27C220.388 454.209 217.947 442.15 216.212 431.462C214.32 419.799 210.435 409.324 201.082 401.26C197.747 398.385 192.824 397.2 188.895 395.177C183.076 392.181 178.756 389.192 173.439 385.385C164.431 378.937 145.517 367.727 149.612 354.361C153.56 341.476 162.257 328.768 161.558 314.992C161.198 307.879 156.473 300.351 154.019 293.727C151.295 286.377 146.164 280.123 143.143 272.9C139.701 264.671 136.802 257.314 140.175 248.562C142.867 241.574 145.724 235.539 150.62 229.675C156.17 223.028 163.007 217.383 167.764 210.133C172.787 202.479 177.718 194.725 181.765 186.558C187.527 174.927 193.515 154.64 207.853 150.04C218.434 146.645 229.895 145.745 240.72 143.283C247.656 141.705 249.961 138.475 252.796 132.499C258.968 119.491 268.263 112.713 283.001 110.109C291.202 108.66 300.007 109.473 308.31 109.356C316.488 109.241 324.639 108.589 332.812 108.431C355.863 107.986 376.304 119.316 397.766 125.722C405.385 127.996 408.311 124.839 415.001 122.249C419.788 120.397 424.564 120.192 429.631 120.573C437.653 121.176 445.72 125.148 453.208 127.719L475.353 135.323C491.615 140.907 506.827 143.982 515.255 159.786C522.448 173.273 515.864 191.188 517.51 205.825C519.25 221.303 530.718 232.814 536.259 246.765C541.745 260.576 540.596 273.943 534.402 287.172C528.176 300.47 521.962 314.578 519.649 329.006C518.774 334.46 518.727 340.606 517.494 345.939C515.949 352.626 511.206 358.182 507.697 363.994C500.588 375.768 494.936 386.251 483.902 395.127C471.288 405.274 458.499 415.47 444.531 423.866C435.059 429.56 426.923 439.744 416.537 443.639C406.49 447.407 395.416 449.956 385.65 454.189C378.492 457.291 372.102 462.016 364.644 464.755C357.443 467.4 349.745 465.774 342.411 466.881Z" stroke="#88CDF9" stroke-width="0.888889" stroke-linecap="round"/>
<path d="M133.638 296.013C132.309 284.067 136.659 269.506 141.349 258.517C142.215 255.239 143.778 252.43 144.099 249.714C144.609 245.395 147.954 240.998 148.8 236.617C149.697 231.971 152.15 227.539 153.151 222.812C153.938 219.101 152.81 214.287 152.206 210.594C150.697 201.351 145.114 192.242 149.106 182.887C154.259 170.813 167.816 168.561 179.81 167.006C192.898 165.309 204.769 161.538 214.247 152.093C217.626 148.726 219.209 143.689 221.671 139.692C225.318 133.772 228.876 129.395 233.398 124.009C241.059 114.884 254.551 95.6753 269.215 100.172C283.352 104.506 297.037 113.721 312.415 113.296C320.353 113.077 328.988 108.381 336.495 105.998C344.824 103.355 352.062 98.2125 360.266 95.26C369.612 91.8964 377.959 89.0734 387.524 92.7278C395.162 95.646 401.728 98.7119 407.997 103.872C415.102 109.721 421.023 116.872 428.842 121.918C437.096 127.246 445.467 132.482 454.346 136.817C466.989 142.991 489.258 149.582 493.616 164.423C496.831 175.375 497.222 187.18 499.386 198.363C500.773 205.528 504.247 207.967 510.749 211.011C524.904 217.635 531.956 227.337 534.069 242.547C535.244 251.011 533.87 260.047 533.556 268.588C533.248 276.998 533.539 285.394 533.279 293.801C532.545 317.512 518.838 338.289 510.56 360.221C507.621 368.006 510.981 371.082 513.507 378.016C515.315 382.978 515.288 387.894 514.593 393.096C513.493 401.332 508.64 409.542 505.378 417.186L495.73 439.794C488.644 456.397 484.408 471.972 466.361 480.301C450.959 487.409 431.363 480.256 414.977 481.635C397.65 483.094 384.221 494.641 368.39 500.04C352.719 505.386 337.897 503.919 323.497 497.267C309.022 490.581 293.644 483.891 277.703 481.203C271.677 480.187 264.836 480.008 258.962 478.626C251.6 476.894 245.666 471.899 239.381 468.166C226.65 460.605 215.279 454.569 205.985 443.034C195.36 429.847 184.689 416.479 176.085 401.937C170.251 392.076 159.345 383.492 155.562 372.729C151.903 362.318 149.655 350.877 145.463 340.745C142.391 333.318 137.471 326.646 134.819 318.92C132.258 311.459 134.479 303.577 133.638 296.013Z" stroke="#D8EBFA" stroke-width="0.888889" stroke-linecap="round"/>
<path d="M172.631 185.023C178.739 174.737 190.857 165.496 201.104 159.3C203.743 157.157 206.648 155.774 208.524 153.78C211.507 150.608 216.757 148.941 220.041 145.904C223.523 142.685 228.095 140.496 231.707 137.27C234.543 134.736 236.541 130.263 238.279 126.977C242.628 118.753 243.707 108.384 252.43 103.109C263.688 96.3015 275.649 101.99 285.969 107.373C297.23 113.246 308.78 116.789 321.851 114.472C326.512 113.646 330.764 110.493 335.084 108.657C341.48 105.938 346.886 104.403 353.649 102.595C365.106 99.5304 387.162 91.6238 395.951 103.32C404.425 114.596 409.625 129.524 421.917 137.68C428.263 141.89 437.833 142.905 445.135 145.147C453.238 147.635 461.981 147.521 470.17 149.692C479.5 152.166 487.723 154.519 493.024 162.726C497.258 169.279 500.564 175.358 502.384 182.947C504.447 191.549 504.803 200.538 507.905 208.893C511.179 217.713 514.599 226.524 518.956 234.896C525.159 246.817 538.65 264.389 533.181 278.664C529.145 289.198 522.387 298.853 517.39 308.991C514.189 315.487 515.449 319.356 518.718 325.382C525.836 338.499 525.552 350.152 518.104 363.482C513.96 370.899 507.477 377.366 502.122 384.022C496.848 390.577 492.052 397.451 486.818 404.03C472.056 422.585 448.894 431.626 429.29 444.59C422.331 449.192 423.121 453.508 420.949 460.448C419.396 465.415 416.433 469.33 412.777 473.106C406.988 479.084 398.276 482.968 391.148 487.279L370.068 500.027C354.587 509.388 341.951 519.503 322.839 516.193C306.528 513.368 295.467 496.823 281.814 488.874C267.376 480.468 249.954 482.282 234.33 477.855C218.863 473.471 208.138 464.11 200.845 450.837C193.513 437.494 185.477 423.648 174.606 412.693C170.496 408.551 165.248 404.629 161.476 400.279C156.749 394.827 155.093 387.555 152.406 381.098C146.964 368.019 141.673 356.911 141.299 342.552C140.872 326.138 140.516 309.554 142.482 293.172C143.815 282.064 140.414 269.176 143.892 258.479C147.256 248.133 152.342 237.743 155.124 227.324C157.162 219.689 157.302 211.636 159.85 203.992C162.309 196.612 168.764 191.537 172.631 185.023Z" stroke="#A3D0ED" stroke-width="0.888889" stroke-linecap="round"/>
<path d="M385.674 117.891C397.121 120.045 409.272 127.767 418.017 134.795C420.787 136.437 422.912 138.544 425.326 139.566C429.166 141.19 432.221 145.256 436.017 147.184C440.042 149.229 443.4 152.543 447.468 154.699C450.662 156.391 455.454 156.754 459.051 157.255C468.054 158.511 478.163 156.252 485.608 162.235C495.216 169.957 493.203 182.151 491.018 192.818C488.634 204.458 488.536 215.631 494.407 226.321C496.5 230.133 500.679 232.871 503.631 236.073C508.004 240.816 510.977 245.058 514.591 250.402C520.715 259.454 534.402 276.258 525.815 287.54C517.537 298.415 504.883 307.561 500.63 320.806C498.435 327.643 500.17 336.308 500.105 343.372C500.034 351.21 502.603 358.805 502.855 366.621C503.142 375.526 503.232 383.428 496.963 390.588C491.958 396.305 487.139 401.067 480.475 404.998C472.92 409.454 464.52 412.54 457.492 417.826C450.072 423.407 442.702 429.111 436.011 435.498C426.484 444.591 413.663 461.789 398.623 461.423C387.525 461.154 376.491 458.238 365.497 457.007C358.452 456.219 355.147 458.513 350.369 463.226C339.968 473.487 328.867 476.837 314.165 474.453C305.983 473.127 298.042 469.467 290.24 466.848C282.556 464.27 274.705 462.207 267.009 459.671C245.306 452.518 230.234 435.098 212.455 421.993C206.143 417.342 202.284 419.363 195.109 419.611C189.975 419.789 185.437 418.412 180.837 416.387C173.554 413.181 167.428 406.779 161.344 401.89L143.354 387.43C130.141 376.811 117.019 368.908 114.768 351.208C112.848 336.103 125.381 321.343 129.054 306.975C132.939 291.781 126.319 277.138 126.107 262.138C125.898 247.288 131.731 235.038 142.231 224.576C152.786 214.059 163.617 202.773 170.917 189.903C173.677 185.039 175.909 179.248 178.961 174.614C182.786 168.806 189.197 165.115 194.547 160.777C205.384 151.99 214.4 143.944 227.874 139.185C243.277 133.744 258.861 128.314 274.907 124.972C285.787 122.705 297.019 115.758 308.113 115.491C318.846 115.232 330.104 116.463 340.74 115.674C348.535 115.095 356.19 112.731 364.136 112.594C371.808 112.462 378.425 116.527 385.674 117.891Z" stroke="#9ACCF5" stroke-width="0.888889" stroke-linecap="round"/>
<path d="M519.972 347.91C516.96 359.631 507.71 371.958 499.413 380.799C497.436 383.611 494.975 385.751 493.708 388.211C491.694 392.124 487.001 395.178 484.65 399.04C482.158 403.134 478.287 406.514 475.668 410.651C473.611 413.898 472.951 418.817 472.2 422.504C470.319 431.732 472.295 442.171 465.232 449.697C456.117 459.41 442.643 457.083 430.879 454.611C418.041 451.913 405.603 451.575 393.381 457.383C389.023 459.454 385.75 463.692 382.026 466.659C376.51 471.053 371.625 474.019 365.48 477.622C355.07 483.725 335.62 497.438 323.514 488.372C311.845 479.632 302.334 466.43 287.81 461.778C280.312 459.376 270.568 460.976 262.704 460.76C253.977 460.52 245.381 463 236.661 463.094C226.727 463.2 217.921 463.125 210.282 456.529C204.182 451.263 199.136 446.209 195.114 439.274C190.556 431.414 187.568 422.713 182.057 415.377C176.238 407.632 170.278 399.934 163.524 392.921C153.905 382.935 135.436 369.391 136.648 353.939C137.542 342.535 141.381 331.256 143.34 319.98C144.595 312.755 142.217 309.309 137.223 304.298C126.351 293.389 123.214 281.906 126.656 266.843C128.571 258.461 133.073 250.376 136.407 242.411C139.69 234.567 142.408 226.54 145.644 218.683C154.773 196.524 174.983 181.401 190.53 163.402C196.049 157.013 194.004 153.003 194.112 145.622C194.189 140.34 195.965 135.705 198.467 131.019C202.427 123.601 209.887 117.439 215.658 111.289L232.726 93.1024C245.261 79.7459 254.766 66.4238 274.6 64.4857C291.527 62.8316 307.297 76.0281 323.103 80.1089C339.819 84.4244 356.482 77.9291 373.201 78.0299C389.753 78.1295 403.084 84.3857 414.175 95.4008C425.324 106.474 437.316 117.847 451.259 125.624C456.529 128.564 462.86 130.981 467.857 134.216C474.122 138.272 477.89 144.94 482.435 150.532C491.642 161.858 500.121 171.296 504.701 185.248C509.936 201.197 515.151 217.331 518.015 233.896C519.956 245.129 527.093 256.822 526.797 268.232C526.51 279.27 524.537 290.817 524.847 301.767C525.074 309.792 527.298 317.711 527.025 325.882C526.762 333.772 521.879 340.487 519.972 347.91Z" stroke="#72E5F2" stroke-width="0.888889" stroke-linecap="round" stroke-dasharray="44.44 1.78"/>
<path d="M129.491 282.585C129.026 270.302 134.538 255.738 140.13 244.843C141.256 241.556 143.057 238.796 143.585 236.047C144.425 231.673 148.159 227.415 149.346 223.001C150.605 218.32 153.432 213.965 154.803 209.209C155.88 205.475 155.089 200.484 154.75 196.674C153.9 187.137 148.891 177.459 153.652 168.184C159.797 156.214 173.77 154.842 186.099 154.075C199.553 153.239 211.922 150.202 222.276 141.21C225.968 138.004 227.954 132.972 230.758 129.061C234.912 123.268 238.861 119.044 243.866 113.856C252.346 105.067 267.513 86.3846 282.112 91.9764C296.185 97.367 309.437 107.708 325.128 108.326C333.228 108.645 342.371 104.442 350.192 102.524C358.871 100.396 366.623 95.6422 375.197 93.1898C384.965 90.396 393.674 88.0855 403.143 92.4693C410.704 95.97 417.163 99.5483 423.163 105.244C429.964 111.699 435.462 119.402 443.049 125.087C451.059 131.089 459.194 137.006 467.913 142.038C480.328 149.203 502.516 157.453 505.851 172.898C508.311 184.296 507.831 196.37 509.204 207.933C510.083 215.34 513.439 218.067 519.835 221.618C533.757 229.347 540.217 239.731 541.238 255.399C541.805 264.118 539.734 273.247 538.78 281.942C537.841 290.505 537.513 299.094 536.623 307.656C534.113 331.806 518.611 352.074 508.55 373.892C504.979 381.637 508.172 385.006 510.229 392.256C511.701 397.444 511.308 402.459 510.214 407.721C508.481 416.051 502.929 424.099 499.039 431.678L487.533 454.092C479.084 470.552 473.612 486.159 454.615 493.426C438.402 499.627 418.978 490.987 402.19 491.274C384.436 491.578 369.902 502.444 353.38 506.873C337.024 511.257 322.04 508.746 307.871 500.972C293.627 493.158 278.464 485.279 262.43 481.446C256.369 479.997 249.416 479.346 243.538 477.534C236.169 475.263 230.498 469.759 224.376 465.519C211.973 456.932 200.842 449.994 192.235 437.585C182.396 423.399 172.522 409.026 164.842 393.596C159.634 383.133 149.167 373.626 146.114 362.383C143.161 351.507 141.723 339.676 138.208 329.048C135.631 321.258 131.117 314.112 128.99 306.045C126.937 298.255 129.785 290.363 129.491 282.585Z" stroke="#004AAD" stroke-width="0.888889" stroke-linecap="round" stroke-dasharray="0.89 8.89"/>
<path d="M177.35 171.94C184.339 161.856 197.375 153.25 208.277 147.625C211.126 145.618 214.189 144.405 216.248 142.497C219.525 139.463 224.998 138.119 228.571 135.244C232.358 132.195 237.18 130.273 241.101 127.227C244.18 124.834 246.548 120.404 248.563 117.168C253.607 109.069 255.478 98.5574 264.759 93.7683C276.738 87.5879 288.503 94.2137 298.618 100.415C309.657 107.181 321.162 111.588 334.654 110.117C339.465 109.592 344.033 106.664 348.571 105.085C355.291 102.746 360.914 101.549 367.94 100.165C379.843 97.8205 402.906 91.2567 410.992 103.799C418.788 115.89 422.976 131.487 434.896 140.654C441.049 145.387 450.725 147.077 457.999 149.865C466.071 152.959 474.989 153.441 483.172 156.218C492.495 159.381 500.699 162.347 505.491 171.087C509.317 178.067 512.234 184.5 513.524 192.372C514.986 201.295 514.681 210.497 517.219 219.238C519.9 228.467 522.729 237.697 526.546 246.542C531.981 259.136 544.42 278 537.785 292.199C532.889 302.678 525.285 312.072 519.438 322.081C515.692 328.494 516.689 332.53 519.572 338.906C525.849 352.784 524.693 364.662 516.112 377.761C511.337 385.051 504.25 391.209 498.298 397.638C492.436 403.97 487.038 410.66 481.215 417.019C464.792 434.952 440.517 442.599 419.576 454.493C412.142 458.716 412.626 463.176 409.897 470.113C407.944 475.077 404.634 478.872 400.627 482.477C394.283 488.184 385.117 491.554 377.533 495.468L355.104 507.04C338.632 515.539 325.003 525.001 305.775 520.315C289.364 516.316 279.324 498.667 266.002 489.618C251.915 480.049 234.027 480.71 218.436 475.121C203.001 469.588 192.768 459.298 186.324 445.247C179.846 431.124 172.687 416.439 162.424 404.511C158.544 400.001 153.488 395.638 149.969 390.939C145.557 385.05 144.41 377.512 142.153 370.736C137.58 357.011 133.015 345.308 133.703 330.624C134.489 313.836 135.36 296.881 138.581 280.291C140.766 269.041 138.259 255.651 142.599 244.968C146.797 234.635 152.753 224.375 156.363 213.929C159.008 206.273 159.75 198.061 162.914 190.432C165.969 183.065 172.924 178.325 177.35 171.94Z" stroke="#3E94E2" stroke-width="0.888889" stroke-linecap="round" stroke-dasharray="0.89 8.89"/>
<path d="M399.448 117.801C410.964 120.789 422.786 129.516 431.185 137.301C433.888 139.17 435.899 141.47 438.286 142.679C442.082 144.603 444.897 148.969 448.626 151.201C452.58 153.568 455.758 157.186 459.748 159.669C462.881 161.618 467.742 162.318 471.374 163.078C480.463 164.981 490.942 163.367 498.092 169.994C507.319 178.547 504.363 190.871 501.343 201.623C498.048 213.356 497.119 224.768 502.314 236.098C504.167 240.138 508.226 243.223 511 246.699C515.109 251.847 517.827 256.388 521.117 262.097C526.692 271.77 539.407 289.886 529.811 300.826C520.561 311.371 506.976 319.85 501.656 333.094C498.91 339.931 500.037 348.906 499.448 356.121C498.793 364.128 500.851 372.066 500.528 380.072C500.161 389.193 499.666 397.276 492.742 404.163C487.212 409.662 481.944 414.197 474.854 417.757C466.819 421.791 458.021 424.368 450.461 429.287C442.479 434.481 434.538 439.805 427.24 445.872C416.848 454.511 402.495 471.206 387.182 469.798C375.881 468.76 364.844 465.021 353.72 463.007C346.593 461.717 343.053 463.835 337.83 468.323C326.46 478.095 314.888 480.756 300.068 477.309C291.822 475.391 283.993 471.103 276.229 467.891C268.583 464.727 260.727 462.08 253.066 458.958C231.459 450.155 217.378 431.315 200.214 416.699C194.122 411.51 190.035 413.311 182.698 413.071C177.448 412.9 172.922 411.181 168.38 408.795C161.189 405.018 155.415 398.053 149.573 392.637L132.295 376.622C119.606 364.861 106.806 355.88 105.823 337.636C104.984 322.066 118.863 307.842 123.675 293.41C128.764 278.148 123.097 262.727 123.994 247.381C124.882 232.189 131.74 220.071 143.226 210.1C154.772 200.077 166.656 189.286 175.057 176.635C178.232 171.853 180.939 166.088 184.395 161.562C188.727 155.888 195.54 152.557 201.319 148.491C213.024 140.255 222.817 132.652 236.913 128.714C253.028 124.213 269.326 119.734 285.94 117.421C297.207 115.853 309.178 109.525 320.514 110.015C331.48 110.489 342.873 112.52 353.779 112.445C361.773 112.389 369.757 110.5 377.872 110.906C385.707 111.298 392.155 115.909 399.448 117.801Z" stroke="#7580FF" stroke-width="0.888889" stroke-linecap="round" stroke-dasharray="0.89 8.89"/>
<path d="M516.318 280.41C518.201 291.589 514.942 305.286 511.174 315.639C510.546 318.722 509.243 321.372 509.092 323.921C508.852 327.974 505.977 332.134 505.427 336.25C504.844 340.615 502.802 344.797 502.126 349.238C501.596 352.725 502.906 357.223 503.667 360.677C505.572 369.32 511.26 377.79 508.052 386.604C503.912 397.979 491.419 400.251 480.344 401.85C468.259 403.595 457.418 407.269 449.112 416.232C446.15 419.428 444.95 424.167 442.875 427.941C439.803 433.532 436.729 437.677 432.813 442.777C426.179 451.419 414.667 469.579 400.78 465.54C387.392 461.645 374.16 453.172 359.875 453.752C352.501 454.052 344.721 458.555 337.866 460.877C330.259 463.452 323.804 468.357 316.33 471.221C307.816 474.484 300.204 477.228 291.106 473.917C283.842 471.273 277.566 468.478 271.454 463.716C264.527 458.32 258.63 451.689 251.082 447.052C243.114 442.158 235.042 437.35 226.546 433.392C214.449 427.757 193.372 421.844 188.514 407.988C184.929 397.763 183.926 386.706 181.307 376.251C179.629 369.553 176.265 367.309 170.05 364.534C156.521 358.494 149.434 349.486 146.645 335.257C145.093 327.34 145.883 318.855 145.712 310.849C145.543 302.963 144.818 295.099 144.604 287.218C144.003 264.989 155.631 245.357 162.146 224.707C164.459 217.376 161.166 214.533 158.44 208.065C156.489 203.437 156.248 198.83 156.613 193.947C157.191 186.216 161.261 178.465 163.882 171.263L171.635 149.963C177.328 134.32 180.426 119.674 196.766 111.656C210.712 104.812 229.332 111.283 244.503 109.796C260.546 108.224 272.415 97.2447 286.851 91.9972C301.143 86.8024 315.013 88.0016 328.771 94.064C342.601 100.158 357.271 106.245 372.249 108.575C377.911 109.456 384.285 109.543 389.825 110.768C396.769 112.304 402.56 116.914 408.61 120.338C420.864 127.273 431.771 132.794 441.043 143.494C451.643 155.726 462.296 168.126 471.088 181.651C477.051 190.823 487.662 198.738 491.765 208.779C495.734 218.492 498.444 229.186 502.893 238.632C506.154 245.555 511.093 251.749 513.979 258.958C516.765 265.919 515.125 273.331 516.318 280.41Z" stroke="#73BAEB" stroke-width="0.888889" stroke-linecap="round" stroke-dasharray="0.89 8.89"/>
<g filter="url(#filter1_f_1_2)">
<path d="M515.04 312.538C514.954 323.874 509.366 336.797 503.857 346.339C502.703 349.265 500.96 351.65 500.369 354.133C499.428 358.083 495.875 361.681 494.618 365.639C493.287 369.836 490.549 373.6 489.112 377.856C487.984 381.198 488.493 385.855 488.643 389.389C489.018 398.232 493.149 407.56 488.459 415.684C482.407 426.167 469.71 426.234 458.525 425.886C446.321 425.506 435.007 427.242 425.27 434.627C421.798 437.26 419.793 441.718 417.095 445.075C413.098 450.047 409.352 453.595 404.61 457.938C396.576 465.297 382.085 481.182 369.11 474.792C356.602 468.632 345.042 457.99 330.874 456.081C323.559 455.095 315.116 458.179 307.962 459.275C300.023 460.491 292.814 464.2 284.957 465.723C276.006 467.458 268.032 468.838 259.648 463.998C252.953 460.132 247.258 456.29 242.065 450.539C236.181 444.022 231.525 436.468 224.897 430.591C217.899 424.387 210.785 418.251 203.106 412.878C192.171 405.227 172.441 395.745 170.062 381.255C168.307 370.563 169.24 359.5 168.476 348.749C167.987 341.862 165.063 339.067 159.425 335.255C147.151 326.958 141.736 316.856 141.46 302.359C141.306 294.293 143.557 286.074 144.779 278.159C145.982 270.364 146.633 262.494 147.792 254.695C151.06 232.7 165.92 215.385 175.922 196.18C179.472 189.362 176.723 185.991 175.162 179.148C174.045 174.251 174.607 169.672 175.814 164.927C177.725 157.413 183.08 150.487 186.912 143.849L198.245 124.219C206.569 109.803 212.163 95.9175 229.647 90.8581C244.569 86.5401 261.783 96.1461 276.981 97.3162C293.053 98.5535 306.649 89.8021 321.777 87.1412C336.754 84.5071 350.205 88.0965 362.701 96.4559C375.263 104.859 388.653 113.401 402.999 118.296C408.422 120.147 414.684 121.339 419.927 123.508C426.499 126.226 431.401 131.772 436.765 136.194C447.629 145.152 457.411 152.483 464.684 164.631C472.999 178.517 481.337 192.579 487.647 207.426C491.926 217.494 501.002 227.131 503.299 237.732C505.521 247.986 506.333 258.989 509.074 269.064C511.083 276.448 514.872 283.405 516.462 291.006C517.997 298.345 515.095 305.36 515.04 312.538Z" stroke="#72E5F2" stroke-width="0.888889" stroke-linecap="round" stroke-dasharray="0.89 8.89"/>
</g>
<path d="M515.04 312.538C514.954 323.874 509.366 336.797 503.857 346.339C502.703 349.265 500.96 351.65 500.369 354.133C499.428 358.083 495.875 361.681 494.618 365.639C493.287 369.836 490.549 373.6 489.112 377.856C487.984 381.198 488.493 385.855 488.643 389.389C489.018 398.232 493.149 407.56 488.459 415.684C482.407 426.167 469.71 426.234 458.525 425.886C446.321 425.506 435.007 427.242 425.27 434.627C421.798 437.26 419.793 441.718 417.095 445.075C413.098 450.047 409.352 453.595 404.61 457.938C396.576 465.297 382.085 481.182 369.11 474.792C356.602 468.632 345.042 457.99 330.874 456.081C323.559 455.095 315.116 458.179 307.962 459.275C300.023 460.491 292.814 464.2 284.957 465.723C276.006 467.458 268.032 468.838 259.648 463.998C252.953 460.132 247.258 456.29 242.065 450.539C236.181 444.022 231.525 436.468 224.897 430.591C217.899 424.387 210.785 418.251 203.106 412.878C192.171 405.227 172.441 395.745 170.062 381.255C168.307 370.563 169.24 359.5 168.476 348.749C167.987 341.862 165.063 339.067 159.425 335.255C147.151 326.958 141.736 316.856 141.46 302.359C141.306 294.293 143.557 286.074 144.779 278.159C145.982 270.364 146.633 262.494 147.792 254.695C151.06 232.7 165.92 215.385 175.922 196.18C179.472 189.362 176.723 185.991 175.162 179.148C174.045 174.251 174.607 169.672 175.814 164.927C177.725 157.413 183.08 150.487 186.912 143.849L198.245 124.219C206.569 109.803 212.163 95.9175 229.647 90.8581C244.569 86.5401 261.783 96.1461 276.981 97.3162C293.053 98.5535 306.649 89.8021 321.777 87.1412C336.754 84.5071 350.205 88.0965 362.701 96.4559C375.263 104.859 388.653 113.401 402.999 118.296C408.422 120.147 414.684 121.339 419.927 123.508C426.499 126.226 431.401 131.772 436.765 136.194C447.629 145.152 457.411 152.483 464.684 164.631C472.999 178.517 481.337 192.579 487.647 207.426C491.926 217.494 501.002 227.131 503.299 237.732C505.521 247.986 506.333 258.989 509.074 269.064C511.083 276.448 514.872 283.405 516.462 291.006C517.997 298.345 515.095 305.36 515.04 312.538Z" stroke="#72E5F2" stroke-width="0.888889" stroke-linecap="round" stroke-dasharray="0.89 8.89"/>
<path d="M508.203 343.956C506.149 355.105 498.402 366.861 491.32 375.302C489.676 377.983 487.545 380.028 486.531 382.371C484.919 386.099 480.795 389.024 478.871 392.704C476.83 396.606 473.48 399.837 471.327 403.779C469.635 406.875 469.328 411.55 468.862 415.055C467.696 423.829 470.144 433.734 464.115 440.919C456.334 450.192 443.818 448.054 432.864 445.768C420.911 443.275 409.467 443.02 398.596 448.602C394.719 450.592 391.971 454.634 388.731 457.471C383.932 461.674 379.626 464.517 374.201 467.971C365.012 473.823 347.983 486.951 336.314 478.405C325.066 470.166 315.53 457.679 301.908 453.338C294.876 451.097 286.025 452.668 278.79 452.505C270.761 452.324 263.017 454.725 255.015 454.86C245.898 455.014 237.806 454.989 230.39 448.766C224.468 443.797 219.526 439.024 215.412 432.459C210.748 425.019 207.475 416.771 201.968 409.833C196.154 402.508 190.213 395.229 183.584 388.605C174.143 379.172 156.359 366.407 156.534 351.725C156.662 340.89 159.502 330.157 160.616 319.437C161.33 312.569 158.936 309.309 154.045 304.576C143.399 294.273 139.82 283.385 142.065 269.06C143.315 261.089 146.958 253.387 149.536 245.804C152.075 238.337 154.083 230.699 156.578 223.22C163.616 202.126 181.257 187.655 194.442 170.478C199.122 164.381 197.001 160.583 196.651 153.573C196.401 148.556 197.75 144.145 199.763 139.681C202.95 132.614 209.426 126.723 214.352 120.851L228.922 103.488C239.622 90.7356 247.543 78.0324 265.64 76.086C281.085 74.4248 296.369 86.8739 311.133 90.6654C326.747 94.6749 341.655 88.4173 357.016 88.4239C372.222 88.4303 384.846 94.301 395.7 104.703C406.612 115.16 418.316 125.898 431.593 133.21C436.613 135.974 442.573 138.236 447.359 141.282C453.359 145.1 457.224 151.413 461.738 156.699C470.882 167.407 479.243 176.326 484.296 189.552C490.073 204.671 495.842 219.967 499.478 235.684C501.944 246.342 509.209 257.408 509.63 268.247C510.037 278.732 508.927 289.709 509.876 300.106C510.573 307.727 513.096 315.237 513.342 322.998C513.579 330.492 509.503 336.897 508.203 343.956Z" stroke="#01C6FE" stroke-width="0.888889" stroke-linecap="round" stroke-dasharray="0.89 8.89"/>
<path d="M496.014 373.709C492.055 384.332 482.385 394.565 473.944 401.647C471.859 404.002 469.406 405.647 468.001 407.778C465.766 411.169 461.196 413.334 458.662 416.623C455.975 420.112 452.115 422.712 449.31 426.22C447.107 428.975 445.992 433.526 444.924 436.897C442.252 445.335 442.943 455.514 435.758 461.544C426.485 469.325 414.531 465.045 404.14 460.893C392.801 456.361 381.576 454.123 369.9 457.732C365.737 459.019 362.329 462.522 358.645 464.754C353.189 468.06 348.455 470.112 342.513 472.572C332.447 476.739 313.397 486.71 303.39 476.267C293.743 466.201 286.52 452.247 273.859 445.607C267.323 442.179 258.334 442.19 251.237 440.772C243.361 439.2 235.318 440.219 227.414 438.963C218.409 437.532 210.444 436.102 204.221 428.686C199.252 422.764 195.215 417.205 192.302 410.025C189.001 401.888 187.211 393.198 182.992 385.408C178.538 377.185 173.952 368.985 168.573 361.31C160.914 350.381 145.617 334.722 148.338 320.293C150.346 309.646 155.007 299.569 157.965 289.205C159.861 282.565 158.07 278.939 154.075 273.429C145.379 261.434 143.745 250.089 148.444 236.373C151.059 228.74 155.985 221.787 159.84 214.767C163.637 207.854 166.941 200.681 170.697 193.749C181.29 174.198 201.176 163.01 217.144 148.383C222.812 143.191 221.382 139.083 222.255 132.118C222.88 127.135 224.975 123.025 227.732 118.978C232.097 112.572 239.498 107.894 245.369 102.968L262.733 88.3977C275.485 77.6975 285.491 66.5628 303.651 67.7885C319.15 68.8345 332.04 83.7485 345.922 90.0462C360.602 96.706 376.37 93.1324 391.496 95.8061C406.471 98.4531 417.883 106.427 426.766 118.556C435.696 130.749 445.358 143.355 457.164 152.862C461.627 156.455 467.104 159.718 471.289 163.549C476.534 168.351 479.244 175.239 482.772 181.229C489.917 193.362 496.602 203.597 499.282 217.5C502.346 233.392 505.371 249.458 506.223 265.567C506.801 276.491 512.033 288.651 510.566 299.399C509.146 309.795 506.147 320.412 505.276 330.817C504.639 338.442 505.819 346.276 504.714 353.962C503.646 361.384 498.52 366.983 496.014 373.709Z" stroke="#DBECFA" stroke-width="0.888889" stroke-linecap="round" stroke-dasharray="0.89 8.89"/>
<path d="M478.843 400.894C473.1 410.668 461.8 419.066 452.258 424.575C449.795 426.533 447.094 427.726 445.34 429.581C442.55 432.532 437.674 433.87 434.607 436.67C431.355 439.639 427.102 441.53 423.73 444.497C421.082 446.828 419.194 451.116 417.557 454.251C413.461 462.096 412.374 472.241 404.251 476.931C393.767 482.983 382.738 476.693 373.226 470.799C362.846 464.368 352.18 460.214 340.055 461.741C335.732 462.285 331.767 465.144 327.752 466.702C321.805 469.01 316.786 470.209 310.507 471.6C299.87 473.955 279.378 480.467 271.337 468.445C263.585 456.857 258.894 441.861 247.579 433.123C241.738 428.612 232.883 427.061 226.14 424.433C218.657 421.517 210.559 421.124 202.993 418.515C194.373 415.541 186.778 412.75 181.937 404.366C178.072 397.671 175.061 391.496 173.44 383.92C171.602 375.333 171.347 366.463 168.545 358.06C165.587 349.188 162.494 340.317 158.53 331.824C152.885 319.731 140.54 301.654 145.725 287.917C149.551 277.779 155.891 268.665 160.605 258.972C163.624 252.763 162.49 248.881 159.513 242.76C153.032 229.437 153.393 217.982 160.402 205.289C164.303 198.226 170.361 192.234 175.377 185.991C180.316 179.842 184.816 173.351 189.718 167.177C203.546 149.762 225.073 142.198 243.337 130.566C249.821 126.437 249.126 122.143 251.195 115.436C252.676 110.636 255.453 106.952 258.871 103.446C264.282 97.8952 272.383 94.5738 279.02 90.7416L298.65 79.4083C313.067 71.085 324.854 61.8569 342.526 66.2175C357.607 69.939 367.712 86.8648 380.289 95.4773C393.589 104.585 409.739 103.804 424.171 109.064C438.458 114.271 448.312 124.105 454.955 137.592C461.632 151.15 468.957 165.244 478.933 176.655C482.705 180.969 487.532 185.134 490.988 189.633C495.32 195.273 496.793 202.527 499.226 209.039C504.156 222.228 508.962 233.469 509.188 247.625C509.445 263.809 509.635 280.155 507.676 296.168C506.348 307.026 509.389 319.91 506.078 330.239C502.875 340.231 498.077 350.166 495.413 360.261C493.461 367.661 493.264 375.58 490.84 382.958C488.5 390.081 482.48 394.705 478.843 400.894Z" stroke="#CFF3FD" stroke-width="0.888889" stroke-linecap="round" stroke-dasharray="0.89 8.89"/>
<path d="M457.213 424.684C449.86 433.313 437.273 439.621 426.919 443.389C424.154 444.889 421.287 445.595 419.237 447.118C415.977 449.539 410.943 450.011 407.436 452.235C403.719 454.594 399.202 455.718 395.366 458.055C392.353 459.89 389.75 463.785 387.593 466.588C382.196 473.603 379.364 483.405 370.55 486.613C359.175 490.753 349.405 482.643 341.061 475.187C331.956 467.051 322.173 461.109 309.968 460.507C305.615 460.292 301.214 462.418 296.989 463.256C290.732 464.496 285.581 464.805 279.157 465.084C268.272 465.557 246.961 468.411 241.129 455.176C235.507 442.418 233.492 426.835 223.866 416.265C218.896 410.808 210.445 407.743 204.261 403.984C197.398 399.813 189.491 398.02 182.494 394.136C174.521 389.711 167.526 385.644 164.215 376.547C161.571 369.282 159.678 362.677 159.397 354.935C159.078 346.16 160.368 337.38 159.067 328.618C157.695 319.367 156.189 310.094 153.76 301.042C150.301 288.152 141.282 268.206 148.774 255.578C154.303 246.259 162.129 238.384 168.453 229.657C172.506 224.066 172.063 220.046 170.193 213.502C166.125 199.256 168.47 188.037 177.577 176.754C182.644 170.476 189.651 165.627 195.674 160.349C201.607 155.152 207.165 149.541 213.065 144.312C229.707 129.563 252.22 125.851 272.227 117.568C279.329 114.628 279.39 110.278 282.593 104.032C284.885 99.5627 288.259 96.4169 292.234 93.5576C298.527 89.0306 307.081 87.1663 314.283 84.5449L335.583 76.7924C351.226 71.099 364.437 64.058 381.083 71.421C395.289 77.7049 402.301 96.1281 413.191 106.794C424.708 118.073 440.748 120.108 454.047 127.794C467.213 135.403 475.21 146.798 479.409 161.234C483.631 175.746 488.398 190.897 496.24 203.868C499.205 208.771 503.236 213.711 505.858 218.742C509.145 225.048 509.336 232.448 510.602 239.283C513.167 253.128 515.948 265.032 513.711 279.013C511.154 294.995 508.503 311.127 503.793 326.556C500.6 337.019 501.358 350.235 496.303 359.832C491.414 369.116 484.963 378.067 480.587 387.546C477.38 394.494 475.81 402.259 472.142 409.104C468.601 415.713 461.869 419.221 457.213 424.684Z" stroke="#05596B" stroke-width="0.888889" stroke-linecap="round" stroke-dasharray="0.89 8.89"/>
<g filter="url(#filter2_f_1_2)">
<path d="M290.644 485.616C278.649 484.882 265.064 478.355 255.056 472.101C251.978 470.739 249.483 468.796 246.865 468.042C242.699 466.842 238.951 462.954 234.782 461.427C230.363 459.807 226.424 456.755 221.943 455.024C218.425 453.665 213.488 453.928 209.746 453.883C200.382 453.769 190.442 457.522 181.922 452.198C170.927 445.327 171.063 432.16 171.614 420.584C172.216 407.952 170.564 396.124 162.908 385.609C160.178 381.86 155.493 379.529 151.985 376.54C146.788 372.115 143.095 368.029 138.576 362.865C130.92 354.118 114.346 338.192 121.32 325.103C128.044 312.485 139.495 301.105 141.747 286.524C142.91 278.997 139.784 270.068 138.741 262.589C137.585 254.289 133.777 246.604 132.294 238.372C130.604 228.993 129.274 220.648 134.533 212.23C138.734 205.508 142.893 199.822 149.064 194.766C156.057 189.035 164.128 184.638 170.455 178.1C177.135 171.197 183.746 164.17 189.557 156.513C197.832 145.611 208.19 125.694 223.562 124.052C234.907 122.84 246.599 124.436 257.989 124.254C265.286 124.138 268.291 121.266 272.417 115.636C281.399 103.382 292.178 98.3421 307.524 98.8795C316.063 99.1785 324.724 101.979 333.08 103.695C341.309 105.386 349.628 106.508 357.862 108.152C381.086 112.79 399.166 129.18 419.327 140.641C426.484 144.709 430.097 142.05 437.365 140.82C442.565 139.94 447.401 140.784 452.404 142.305C460.323 144.713 467.566 150.658 474.528 155.008L495.117 167.873C510.237 177.321 524.84 183.91 529.908 202.324C534.234 218.04 523.787 235.341 522.3 251.032C520.728 267.624 529.767 282.217 532.335 298.053C534.878 313.729 530.86 327.471 521.809 339.952C512.711 352.498 503.452 365.895 498.037 380.49C495.99 386.007 494.625 392.432 492.245 397.744C489.261 404.403 483.311 409.171 478.544 414.481C468.886 425.235 460.968 434.961 447.994 441.811C433.162 449.643 418.144 457.488 402.329 463.187C391.605 467.051 381.258 475.913 370.002 477.692C359.113 479.413 347.456 479.631 336.749 481.9C328.902 483.563 321.477 487.096 313.407 488.313C305.615 489.487 298.239 486.08 290.644 485.616Z" stroke="#06C2F4" stroke-width="0.888889" stroke-linecap="round" stroke-dasharray="1.78 7.11"/>
</g>
<path d="M290.644 485.616C278.649 484.882 265.064 478.355 255.056 472.101C251.978 470.739 249.483 468.796 246.865 468.042C242.699 466.842 238.951 462.954 234.782 461.427C230.363 459.807 226.424 456.755 221.943 455.024C218.425 453.665 213.488 453.928 209.746 453.883C200.382 453.769 190.442 457.522 181.922 452.198C170.927 445.327 171.063 432.16 171.614 420.584C172.216 407.952 170.564 396.124 162.908 385.609C160.178 381.86 155.493 379.529 151.985 376.54C146.788 372.115 143.095 368.029 138.576 362.865C130.92 354.118 114.346 338.192 121.32 325.103C128.044 312.485 139.495 301.105 141.747 286.524C142.91 278.997 139.784 270.068 138.741 262.589C137.585 254.289 133.777 246.604 132.294 238.372C130.604 228.993 129.274 220.648 134.533 212.23C138.734 205.508 142.893 199.822 149.064 194.766C156.057 189.035 164.128 184.638 170.455 178.1C177.135 171.197 183.746 164.17 189.557 156.513C197.832 145.611 208.19 125.694 223.562 124.052C234.907 122.84 246.599 124.436 257.989 124.254C265.286 124.138 268.291 121.266 272.417 115.636C281.399 103.382 292.178 98.3421 307.524 98.8795C316.063 99.1785 324.724 101.979 333.08 103.695C341.309 105.386 349.628 106.508 357.862 108.152C381.086 112.79 399.166 129.18 419.327 140.641C426.484 144.709 430.097 142.05 437.365 140.82C442.565 139.94 447.401 140.784 452.404 142.305C460.323 144.713 467.566 150.658 474.528 155.008L495.117 167.873C510.237 177.321 524.84 183.91 529.908 202.324C534.234 218.04 523.787 235.341 522.3 251.032C520.728 267.624 529.767 282.217 532.335 298.053C534.878 313.729 530.86 327.471 521.809 339.952C512.711 352.498 503.452 365.895 498.037 380.49C495.99 386.007 494.625 392.432 492.245 397.744C489.261 404.403 483.311 409.171 478.544 414.481C468.886 425.235 460.968 434.961 447.994 441.811C433.162 449.643 418.144 457.488 402.329 463.187C391.605 467.051 381.258 475.913 370.002 477.692C359.113 479.413 347.456 479.631 336.749 481.9C328.902 483.563 321.477 487.096 313.407 488.313C305.615 489.487 298.239 486.08 290.644 485.616Z" stroke="#06C2F4" stroke-width="0.888889" stroke-linecap="round" stroke-dasharray="1.78 7.11"/>
<defs>
<filter id="filter0_f_1_2" x="0.249123" y="4.6669" width="638.594" height="579.399" filterUnits="userSpaceOnUse" color-interpolation-filters="sRGB">
<feFlood flood-opacity="0" result="BackgroundImageFix"/>
<feBlend mode="normal" in="SourceGraphic" in2="BackgroundImageFix" result="shape"/>
<feGaussianBlur stdDeviation="50" result="effect1_foregroundBlur_1_2"/>
</filter>
<filter id="filter1_f_1_2" x="121.01" y="65.8508" width="415.991" height="430.518" filterUnits="userSpaceOnUse" color-interpolation-filters="sRGB">
<feFlood flood-opacity="0" result="BackgroundImageFix"/>
<feBlend mode="normal" in="SourceGraphic" in2="BackgroundImageFix" result="shape"/>
<feGaussianBlur stdDeviation="10" result="effect1_foregroundBlur_1_2"/>
</filter>
<filter id="filter2_f_1_2" x="100.226" y="79.4116" width="452.305" height="428.446" filterUnits="userSpaceOnUse" color-interpolation-filters="sRGB">
<feFlood flood-opacity="0" result="BackgroundImageFix"/>
<feBlend mode="normal" in="SourceGraphic" in2="BackgroundImageFix" result="shape"/>
<feGaussianBlur stdDeviation="9.5" result="effect1_foregroundBlur_1_2"/>
</filter>
</defs>
</svg>
