<svg width="108" height="108" viewBox="0 0 108 108" fill="none" xmlns="http://www.w3.org/2000/svg">
<path d="M72.3914 38.1684C67.3289 38.1684 54.3246 33.9285 52.7109 33.4012C48.8508 32.2516 38.1562 29.2773 34.5809 29.2773C31.248 29.2773 22.0406 31.6504 17.2734 32.9793V82.0328C21.798 80.7777 30.5309 78.4996 34.3277 78.4996C39.2426 78.4996 52.4578 82.3598 53.9449 82.8027L53.9766 82.8133C58.1109 84.1105 69.723 87.4539 73.7309 87.3906C76.8211 87.3379 85.0687 84.7645 89.3613 83.3195V34.266C84.8578 35.6687 76.2938 38.1684 72.3914 38.1684Z" fill="white"/>
<path d="M93.5957 28.4652L90.8219 29.3828C86.9723 30.6484 76.1512 33.9496 72.3965 33.9496C68.6523 33.9496 57.8629 30.6484 54.0133 29.3828L53.9605 29.3617C52.4945 28.9187 39.448 25.0586 34.5859 25.0586C29.5762 25.0586 16.1078 28.9187 14.5891 29.3617L13.0703 29.8047V87.6438L15.7703 86.8527C19.6832 85.7031 30.6625 82.7184 34.3434 82.7184C37.982 82.7184 48.8453 85.6926 52.7477 86.8422C54.4035 87.359 68.1355 91.6094 73.6516 91.6094H73.8203C78.598 91.525 90.8113 87.2957 92.193 86.8211L93.6062 86.3254L93.5957 28.4652ZM53.9816 82.8133L53.95 82.8027C52.4629 82.3598 39.2477 78.4996 34.3328 78.4996C30.5359 78.4996 21.8031 80.7777 17.2785 82.0328V32.9793C22.0457 31.6504 31.2531 29.2773 34.5859 29.2773C38.1719 29.2773 48.8664 32.241 52.716 33.4012C54.3297 33.9285 67.334 38.1684 72.3965 38.1684C76.2883 38.1684 84.8629 35.6793 89.3664 34.2766V83.3195C85.0633 84.7645 76.8262 87.3379 73.7359 87.3906C69.7281 87.4539 58.116 84.1105 53.9816 82.8133Z" fill="#004AAD"/>
<path d="M76.1164 17.7812C66.909 17.7812 59.4102 25.2695 59.4102 34.4875C59.4102 41.6383 63.9559 47.998 70.727 50.2973C71.4969 50.5609 72.6781 51.2254 75.009 54.0941C75.3781 54.5477 75.7367 55.0117 76.0637 55.4441C79.2383 51.025 80.6621 50.5715 81.1789 50.4027C88.1926 48.1773 92.8648 41.7227 92.8121 34.3609C92.7488 25.2168 85.25 17.7812 76.1164 17.7812Z" fill="white"/>
<path d="M90.8609 19.6172C86.927 15.7043 81.6852 13.5527 76.1164 13.5527C64.5781 13.5527 55.1914 22.9395 55.1914 34.4777C55.1914 43.4215 60.8762 51.3738 69.3242 54.2742C70.0098 54.6328 72.0242 56.9004 74.2285 60.1066C74.6504 60.7289 75.357 61.0875 76.1059 61.0875H76.1375C76.8969 61.077 77.6035 60.6867 78.0148 60.0539C80.0188 56.9742 81.8645 54.7805 82.5289 54.3902C86.6633 53.0613 90.3652 50.393 92.9598 46.8809C95.6598 43.2211 97.073 38.8758 97.0309 34.3195C96.9887 28.7508 94.8055 23.5301 90.8609 19.6172ZM70.727 50.298C63.9559 47.9883 59.4102 41.6391 59.4102 34.4883C59.4102 25.2809 66.8984 17.782 76.1164 17.782C85.2605 17.782 92.7488 25.2176 92.8227 34.3617C92.8754 41.734 88.2031 48.1781 81.1895 50.4035C80.6727 50.5723 79.2383 51.0258 76.0742 55.4449C75.7473 55.0125 75.3887 54.5484 75.0195 54.0949C72.6781 51.2262 71.4969 50.5617 70.727 50.298Z" fill="#004AAD"/>
<path d="M84.1031 42.7457C83.85 42.7457 83.5969 42.6508 83.3965 42.4715C82.9641 42.0813 82.9324 41.4168 83.3227 40.9844C84.9574 39.1809 85.8434 36.8395 85.8328 34.3926C85.7906 29.077 81.4348 24.7527 76.1191 24.7527C74.7691 24.7527 73.4613 25.027 72.2379 25.5543C71.7 25.7863 71.0777 25.5438 70.8457 25.0059C70.6137 24.468 70.8563 23.8457 71.3941 23.6137C72.8918 22.9598 74.4738 22.6328 76.1191 22.6328C79.2727 22.6328 82.2258 23.8457 84.4512 26.0605C86.6766 28.2648 87.9106 31.218 87.9422 34.3715C87.9633 37.3457 86.877 40.1934 84.8941 42.3871C84.6727 42.6297 84.3879 42.7457 84.1031 42.7457Z" fill="#06F3FF"/>
<path d="M23.3086 63.4501C23.2559 63.4501 23.2031 63.4501 23.1399 63.4396C22.5598 63.3446 22.1695 62.8067 22.2645 62.2372C22.2645 62.2267 22.2961 62.0263 22.3594 61.6782C22.4649 61.1087 23.0238 60.729 23.5934 60.845C24.1629 60.9505 24.5426 61.5095 24.4266 62.079C24.3633 62.3849 24.3422 62.5536 24.3422 62.5642C24.2684 63.081 23.8149 63.4501 23.3086 63.4501ZM72.9106 80.6521H72.5942C72.3199 80.6521 72.0457 80.631 71.782 80.6099C71.202 80.5677 70.7695 80.0614 70.8117 79.4813C70.8539 78.9013 71.3602 78.4689 71.9402 78.511C72.1723 78.5321 72.4043 78.5427 72.6258 78.5427H72.9106C73.4906 78.5427 73.9652 79.0173 73.9547 79.6079C73.9652 80.188 73.4906 80.6521 72.9106 80.6521ZM77.0871 80.1985C76.6125 80.1985 76.1801 79.8716 76.0641 79.397C75.927 78.8274 76.275 78.2579 76.8445 78.1208C77.1609 78.047 77.4774 77.9521 77.7832 77.8571C78.3422 77.6778 78.9328 77.9837 79.1121 78.5321C79.2914 79.0911 78.9856 79.6817 78.4371 79.861C78.0891 79.9771 77.7199 80.0825 77.3508 80.1669C77.2453 80.188 77.1609 80.1985 77.0871 80.1985ZM67.7953 79.5974C67.6582 79.5974 67.5106 79.5657 67.3734 79.513C67.0359 79.3653 66.6879 79.1966 66.3504 79.0173C65.8336 78.7431 65.6438 78.0997 65.918 77.5935C66.1922 77.0767 66.8356 76.8868 67.3418 77.161C67.6266 77.3192 67.9219 77.4563 68.2172 77.5829C68.7551 77.8149 68.9977 78.4372 68.7656 78.9751C68.5863 79.3653 68.2066 79.5974 67.7953 79.5974ZM81.8121 77.9731C81.4957 77.9731 81.1898 77.836 80.9789 77.5724C80.6203 77.1189 80.7047 76.4544 81.1582 76.0958C81.4113 75.906 81.6434 75.695 81.8754 75.4735C82.2973 75.0728 82.9617 75.0833 83.3625 75.5052C83.7633 75.9271 83.7527 76.5915 83.3309 76.9923C83.0566 77.256 82.7613 77.5091 82.4555 77.7517C82.2656 77.8993 82.0336 77.9731 81.8121 77.9731ZM63.4711 76.6442C63.2074 76.6442 62.9438 76.5493 62.7328 76.3489C62.4692 76.0958 62.2055 75.8216 61.9524 75.5474C61.5621 75.1149 61.5832 74.4505 62.0156 74.0603C62.4481 73.67 63.1125 73.6911 63.5027 74.1235C63.7242 74.3661 63.9563 74.6087 64.1883 74.8302C64.6102 75.231 64.6207 75.906 64.2094 76.3173C64.0195 76.5388 63.7453 76.6442 63.4711 76.6442ZM84.9973 73.8493C84.8602 73.8493 84.7125 73.8177 84.5754 73.7544C84.0375 73.5224 83.8055 72.9001 84.0375 72.3622C84.1641 72.0774 84.2801 71.7716 84.3856 71.4657C84.5754 70.9173 85.166 70.622 85.725 70.8013C86.2734 70.9911 86.5688 71.5817 86.3895 72.1407C86.2629 72.4993 86.1258 72.8685 85.9781 73.206C85.7883 73.6173 85.3981 73.8493 84.9973 73.8493ZM60.2649 72.4993C59.8957 72.4993 59.5477 72.3095 59.3473 71.972C59.1574 71.645 58.9887 71.3181 58.8199 70.9911C58.5563 70.4743 58.7777 69.8415 59.2945 69.5778C59.8113 69.3142 60.4441 69.5356 60.7078 70.0524C60.8555 70.3478 61.0137 70.6431 61.1719 70.9278C61.4566 71.4341 61.2879 72.0774 60.7817 72.3622C60.6234 72.4466 60.4442 72.4993 60.2649 72.4993ZM58.4086 67.5845C57.934 67.5845 57.5121 67.2681 57.3856 66.7935C57.3012 66.477 57.2168 66.1396 57.1219 65.8021C56.9637 65.2431 57.2906 64.663 57.8496 64.5048C58.4086 64.3466 58.9887 64.6735 59.1469 65.2325C59.2524 65.5911 59.3367 65.9392 59.4317 66.2767C59.5793 66.8462 59.2313 67.4157 58.6723 67.5634C58.5879 67.5739 58.5035 67.5845 58.4086 67.5845ZM56.8371 62.5536C56.4047 62.5536 56.0039 62.2899 55.8457 61.8575C55.7297 61.5306 55.6031 61.2142 55.4766 60.8872C55.2656 60.3493 55.5293 59.7376 56.0777 59.5161C56.6156 59.3052 57.2274 59.5688 57.4488 60.1173C57.5754 60.4442 57.702 60.7923 57.8285 61.1192C58.0289 61.6677 57.7442 62.2688 57.2063 62.4692C57.0797 62.5325 56.9637 62.5536 56.8371 62.5536ZM24.4477 58.8622C24.3422 58.8622 24.2367 58.8411 24.1313 58.8095C23.5723 58.6302 23.2664 58.0396 23.4457 57.4806C23.5512 57.1325 23.6672 56.795 23.7938 56.4575C23.9836 55.9091 24.5848 55.6138 25.1332 55.8142C25.6816 56.004 25.977 56.6052 25.7766 57.1536C25.6606 57.47 25.5551 57.797 25.4496 58.1239C25.3125 58.5774 24.9012 58.8622 24.4477 58.8622ZM54.7699 57.702C54.3797 57.702 54.0106 57.4911 53.8207 57.1114C53.6731 56.8056 53.5149 56.4997 53.3567 56.1938C53.0824 55.677 53.2828 55.0442 53.7996 54.77C54.3164 54.4958 54.9492 54.6962 55.2234 55.213C55.3922 55.5294 55.5504 55.8563 55.7086 56.1728C55.9617 56.7001 55.7508 57.3224 55.234 57.586C55.0863 57.6704 54.9281 57.702 54.7699 57.702ZM26.4199 53.979C26.2617 53.979 26.093 53.9474 25.9453 53.863C25.4285 53.5993 25.2176 52.9665 25.4813 52.4497C25.65 52.1228 25.8188 51.7958 25.9981 51.4794C26.2828 50.9731 26.9262 50.7833 27.4324 51.0681C27.9387 51.3528 28.1285 51.9962 27.8438 52.5024C27.6856 52.7872 27.5274 53.0931 27.3691 53.3989C27.1793 53.7681 26.7996 53.979 26.4199 53.979ZM52.1332 53.1563C51.7957 53.1563 51.4688 52.9981 51.2578 52.7028C51.068 52.4181 50.8676 52.1438 50.6672 51.8696C50.3192 51.4056 50.4246 50.7411 50.8887 50.3931C51.3527 50.045 52.0172 50.1505 52.3652 50.6145C52.5762 50.8993 52.7871 51.2052 52.9981 51.5005C53.325 51.9856 53.209 52.6396 52.7238 52.9665C52.5445 53.0931 52.3336 53.1563 52.1332 53.1563ZM29.2781 49.581C29.0356 49.581 28.793 49.4966 28.5926 49.3278C28.1496 48.9481 28.0969 48.2837 28.466 47.8407C28.7086 47.556 28.9617 47.2712 29.2149 47.0075C29.6156 46.5856 30.2906 46.5751 30.702 46.9759C31.1238 47.3767 31.1344 48.0517 30.7336 48.463C30.5121 48.695 30.2906 48.9376 30.0691 49.1907C29.8793 49.4544 29.584 49.581 29.2781 49.581ZM48.7477 49.1274C48.484 49.1274 48.2309 49.0325 48.0199 48.8427C47.7774 48.6106 47.5242 48.3892 47.2816 48.1782C46.8387 47.7985 46.7859 47.1341 47.1656 46.6911C47.5453 46.2481 48.2098 46.1954 48.6527 46.5751C48.927 46.8071 49.2117 47.0603 49.4754 47.3134C49.8973 47.7142 49.9184 48.3786 49.5176 48.8005C49.3067 49.022 49.0219 49.1274 48.7477 49.1274ZM33.307 46.2376C32.9274 46.2376 32.5688 46.0372 32.3789 45.6786C32.1047 45.1618 32.2945 44.529 32.8113 44.2548C33.1488 44.0755 33.4969 43.9067 33.8449 43.7591C34.3828 43.5271 35.0051 43.7802 35.2266 44.3181C35.4481 44.856 35.2055 45.4782 34.6676 45.6997C34.3828 45.8263 34.0875 45.9634 33.8027 46.111C33.6445 46.1954 33.4758 46.2376 33.307 46.2376ZM44.4551 46.1321C44.3074 46.1321 44.1492 46.1005 44.0016 46.0267C43.7063 45.8896 43.4109 45.763 43.1051 45.647C42.5567 45.436 42.2824 44.8349 42.4934 44.2864C42.7043 43.738 43.3055 43.4638 43.8539 43.6747C44.202 43.8118 44.55 43.9595 44.8981 44.1177C45.4254 44.3708 45.6469 44.9931 45.4043 45.5204C45.225 45.9106 44.8453 46.1321 44.4551 46.1321ZM39.3926 44.8771H39.2555C38.9707 44.8665 38.6649 44.8665 38.3801 44.8771C37.8 44.8981 37.3043 44.4446 37.2832 43.8646C37.2621 43.2845 37.7156 42.7888 38.2957 42.7677C38.6438 42.7571 38.9918 42.7571 39.3293 42.7677H39.4242C40.0043 42.7888 40.4578 43.2845 40.4367 43.8646C40.4156 44.4341 39.9516 44.8771 39.3926 44.8771ZM86.0731 68.7446H86.0414C85.4613 68.7235 84.9973 68.2384 85.0184 67.6583C85.0184 67.5001 85.0289 67.3313 85.0289 67.1626C85.0289 66.5825 85.493 66.1079 86.0836 66.1079C86.6637 66.1079 87.1383 66.5825 87.1383 67.1626C87.1383 67.3524 87.1383 67.5423 87.1277 67.7216C87.1172 68.2911 86.6426 68.7446 86.0731 68.7446Z" fill="#004AAD"/>
<path d="M23.3086 66.6992C21.9164 66.6992 20.7773 67.8383 20.7773 69.2305C20.7773 70.6227 21.9164 71.7617 23.3086 71.7617C24.7008 71.7617 25.8398 70.6227 25.8398 69.2305C25.8398 67.8383 24.7008 66.6992 23.3086 66.6992Z" fill="#E6E6E6"/>
<path d="M23.3086 64.5898C20.7562 64.5898 18.668 66.6676 18.668 69.2305C18.668 71.7934 20.7457 73.8711 23.3086 73.8711C25.8715 73.8711 27.9492 71.7934 27.9492 69.2305C27.9492 66.6676 25.8609 64.5898 23.3086 64.5898ZM23.3086 71.7512C21.9164 71.7512 20.7773 70.6121 20.7773 69.2199C20.7773 67.8277 21.9164 66.6887 23.3086 66.6887C24.7008 66.6887 25.8398 67.8277 25.8398 69.2199C25.8398 70.6121 24.7008 71.7512 23.3086 71.7512Z" fill="#004AAD"/>
<path d="M55.6238 56.5C53.6938 56.5 52.1328 58.0715 52.1328 59.991C52.1328 61.9105 53.7043 63.482 55.6238 63.482C57.5539 63.482 59.1148 61.9105 59.1148 59.991C59.1148 58.0715 57.5539 56.5 55.6238 56.5Z" fill="#E6E6E6"/>
<path d="M55.6238 54.3906C52.5336 54.3906 50.0234 56.9008 50.0234 59.991C50.0234 63.0812 52.5336 65.5914 55.6238 65.5914C58.7141 65.5914 61.2242 63.0812 61.2242 59.991C61.2242 56.9008 58.7141 54.3906 55.6238 54.3906ZM55.6238 63.4926C53.6938 63.4926 52.1328 61.9211 52.1328 60.0016C52.1328 58.082 53.7043 56.5105 55.6238 56.5105C57.5539 56.5105 59.1148 58.082 59.1148 60.0016C59.1148 61.9211 57.5539 63.4926 55.6238 63.4926Z" fill="#004AAD"/>
</svg>
