<svg width="29" height="20" viewBox="0 0 29 20" fill="none" xmlns="http://www.w3.org/2000/svg">
<g clip-path="url(#clip0_2168_8403)">
<path d="M27.8162 3.11944C27.6531 2.51651 27.3348 1.96683 26.8932 1.52514C26.4515 1.08346 25.9018 0.765179 25.2989 0.602C23.0916 0 14.2078 0 14.2078 0C14.2078 0 5.32358 0.0182222 3.11624 0.620222C2.5133 0.783411 1.96362 1.10171 1.52196 1.54341C1.08029 1.98512 0.762046 2.53482 0.59891 3.13778C-0.0687564 7.05978 -0.327756 13.036 0.617244 16.8011C0.780396 17.404 1.09865 17.9537 1.54032 18.3954C1.98198 18.8371 2.53165 19.1554 3.13458 19.3186C5.34191 19.9206 14.2259 19.9206 14.2259 19.9206C14.2259 19.9206 23.1098 19.9206 25.317 19.3186C25.92 19.1554 26.4697 18.8371 26.9113 18.3954C27.353 17.9537 27.6713 17.4041 27.8345 16.8011C28.5387 12.8736 28.7557 6.901 27.8162 3.11944Z" fill="#FF0000"/>
<path d="M11.3789 14.2287L18.7487 9.96007L11.3789 5.69141V14.2287Z" fill="white"/>
</g>
<defs>
<clipPath id="clip0_2168_8403">
<rect width="28.4444" height="20" fill="white"/>
</clipPath>
</defs>
</svg>
