<svg width="214" height="40" viewBox="0 0 214 40" fill="none" xmlns="http://www.w3.org/2000/svg">
<g clip-path="url(#clip0_2590_8217)">
<path d="M119.632 28.8477H124.188V11.6617H119.632V28.8477ZM119.632 8.98171H124.188V4.89459H119.632V8.98171Z" fill="#667085"/>
<path d="M127.125 34.476H131.681V26.9048H131.747C132.718 28.3789 134.294 29.3504 136.705 29.3504C141.127 29.3504 144.143 25.8328 144.143 20.2717C144.143 14.9115 141.228 11.1929 136.672 11.1929C134.327 11.1929 132.718 12.2985 131.613 13.806H131.513V11.6619H127.125V34.476ZM135.734 25.5648C133.02 25.5648 131.58 23.5213 131.58 20.4057C131.58 17.3236 132.718 14.878 135.567 14.878C138.381 14.878 139.519 17.1561 139.519 20.4057C139.519 23.6552 138.046 25.5648 135.734 25.5648Z" fill="#667085"/>
<path d="M153.231 29.3504C157.52 29.3504 160.468 27.2734 160.468 23.8227C160.468 19.8027 157.285 18.9986 154.404 18.3956C151.958 17.8931 149.68 17.7591 149.68 16.2851C149.68 15.0455 150.853 14.3755 152.628 14.3755C154.572 14.3755 155.744 15.0455 155.945 16.8881H160.065C159.731 13.4375 157.218 11.1929 152.696 11.1929C148.775 11.1929 145.694 12.9685 145.694 16.6871C145.694 20.4392 148.709 21.2766 151.791 21.8797C154.136 22.3487 156.313 22.5162 156.313 24.1578C156.313 25.3638 155.175 26.1344 153.165 26.1344C151.121 26.1344 149.713 25.2633 149.413 23.2868H145.191C145.459 26.9383 148.24 29.3504 153.231 29.3504Z" fill="#667085"/>
<path d="M177.765 28.8479V11.6619H173.209V21.5782C173.209 23.8562 171.902 25.4642 169.759 25.4642C167.815 25.4642 166.911 24.3587 166.911 22.3487V11.6619H162.388V23.1192C162.388 26.8713 164.532 29.3169 168.351 29.3169C170.764 29.3169 172.104 28.4124 173.276 26.8379H173.377V28.8479H177.765Z" fill="#667085"/>
<path d="M180.711 28.8479H185.267V18.8647C185.267 16.5865 186.507 15.1125 188.35 15.1125C190.025 15.1125 190.996 16.1175 190.996 18.0606V28.8479H195.552V18.8647C195.552 16.5865 196.725 15.1125 198.634 15.1125C200.31 15.1125 201.281 16.1175 201.281 18.0606V28.8479H205.837V17.29C205.837 13.5379 203.793 11.1929 200.175 11.1929C197.998 11.1929 196.188 12.3319 195.016 14.2079H194.949C194.112 12.3989 192.37 11.1929 190.192 11.1929C187.814 11.1929 186.139 12.3989 185.201 13.9734H185.1V11.6619H180.711V28.8479Z" fill="#667085"/>
<path d="M0.882568 28.848H5.43869V4.89484H0.882568V28.848Z" fill="#667085"/>
<path d="M16.5786 29.3504C21.9053 29.3504 25.5568 25.3973 25.5568 20.2717C25.5568 15.146 21.9053 11.1929 16.5786 11.1929C11.2519 11.1929 7.60034 15.146 7.60034 20.2717C7.60034 25.3973 11.2519 29.3504 16.5786 29.3504ZM16.5786 25.8663C13.7646 25.8663 12.2235 23.6217 12.2235 20.2717C12.2235 16.9216 13.7646 14.6435 16.5786 14.6435C19.3592 14.6435 20.9337 16.9216 20.9337 20.2717C20.9337 23.6217 19.3592 25.8663 16.5786 25.8663Z" fill="#667085"/>
<path d="M35.2459 34.7105C37.7919 34.7105 40.003 34.1076 41.4435 32.7675C42.7166 31.5949 43.4871 29.9534 43.4871 27.5414V11.6619H39.0985V13.471H39.0315C37.9929 12.0304 36.4184 11.1929 34.2743 11.1929C29.9193 11.1929 26.8372 14.476 26.8372 19.6016C26.8372 24.7942 30.5893 27.8093 34.4084 27.8093C36.5859 27.8093 37.8925 26.9383 38.8974 25.7993H38.998V27.6754C38.998 30.0204 37.7584 31.26 35.1788 31.26C33.0683 31.26 32.0967 30.4224 31.7283 29.3504H27.2056C27.6746 32.7005 30.5557 34.7105 35.2459 34.7105ZM35.1788 24.1578C32.8338 24.1578 31.2928 22.4492 31.2928 19.5347C31.2928 16.6535 32.8338 14.8445 35.1453 14.8445C37.8925 14.8445 39.2325 16.9886 39.2325 19.5011C39.2325 22.0472 38.06 24.1578 35.1788 24.1578Z" fill="#667085"/>
<path d="M54.562 29.3505C59.8886 29.3505 63.5403 25.3974 63.5403 20.2718C63.5403 15.1461 59.8886 11.193 54.562 11.193C49.2354 11.193 45.5837 15.1461 45.5837 20.2718C45.5837 25.3974 49.2354 29.3505 54.562 29.3505ZM54.562 25.8665C51.7479 25.8665 50.2069 23.6218 50.2069 20.2718C50.2069 16.9217 51.7479 14.6437 54.562 14.6437C57.3426 14.6437 58.9172 16.9217 58.9172 20.2718C58.9172 23.6218 57.3426 25.8665 54.562 25.8665Z" fill="#667085"/>
<path d="M207.494 8.84063C207.494 8.06971 208.119 7.44476 208.89 7.44476H211.682C212.452 7.44476 213.078 8.06971 213.078 8.84063C213.078 9.61155 212.452 10.2365 211.682 10.2365H208.89C208.119 10.2365 207.494 9.61155 207.494 8.84063Z" fill="#667085"/>
<path fill-rule="evenodd" clip-rule="evenodd" d="M91.1718 0C101.964 0 110.714 8.74935 110.714 19.5422C110.714 30.3351 101.964 39.0844 91.1718 39.0844C80.379 39.0844 71.6296 30.3351 71.6296 19.5422C71.6296 8.74935 80.379 0 91.1718 0ZM90.4655 1.46233C88.236 1.77608 86.1131 3.56751 84.4652 6.56364C83.9872 7.43271 83.556 8.39285 83.1802 9.42954C85.4209 8.86646 87.8823 8.53449 90.4655 8.48314V1.46233ZM81.5284 9.89891C81.9959 8.43205 82.5676 7.08248 83.2274 5.88284C84.0443 4.39757 85.0138 3.11498 86.1061 2.12988C80.1664 3.85492 75.4845 8.53681 73.7594 14.4766C74.7446 13.3843 76.0271 12.4148 77.5124 11.5979C78.7121 10.9381 80.0616 10.3663 81.5284 9.89891ZM81.0591 11.5505C80.496 13.7912 80.1641 16.2527 80.1127 18.8358H73.0919C73.4056 16.6064 75.1971 14.4835 78.1933 12.8357C79.0623 12.3577 80.0224 11.9264 81.0591 11.5505ZM81.5257 18.8358C81.584 16.0168 81.9899 13.3702 82.6614 11.0318C84.9998 10.3603 87.6464 9.95441 90.4655 9.89607V12.9475C89.4138 15.6398 87.2689 17.7846 84.5764 18.8358H81.5257ZM80.1127 20.2486H73.0919C73.4056 22.478 75.1971 24.6008 78.1933 26.2487C79.0623 26.7267 80.0224 27.158 81.0591 27.5339C80.496 25.2932 80.1641 22.8317 80.1127 20.2486ZM82.6614 28.0526C81.9899 25.7142 81.584 23.0676 81.5257 20.2486H84.5764C87.2689 21.2998 89.4138 23.4446 90.4655 26.1369V29.1883C87.6464 29.13 84.9998 28.7241 82.6614 28.0526ZM81.5284 29.1855C80.0616 28.7181 78.7121 28.1463 77.5124 27.4865C76.0271 26.6696 74.7446 25.7001 73.7594 24.6078C75.4845 30.5476 80.1664 35.2295 86.1061 36.9545C85.0138 35.9694 84.0443 34.6868 83.2274 33.2015C82.5676 32.0019 81.9959 30.6523 81.5284 29.1855ZM90.4655 37.6221C88.236 37.3083 86.1131 35.5169 84.4652 32.5208C83.9872 31.6517 83.556 30.6915 83.1802 29.6549C85.4209 30.2179 87.8823 30.5499 90.4655 30.6012V37.6221ZM96.2375 36.9545C97.3298 35.9694 98.2992 34.6868 99.116 33.2015C99.7756 32.0019 100.348 30.6523 100.815 29.1855C102.282 28.7181 103.631 28.1463 104.831 27.4865C106.316 26.6696 107.599 25.7001 108.584 24.6078C106.859 30.5476 102.177 35.2295 96.2375 36.9545ZM99.1639 29.6549C98.7877 30.6915 98.3559 31.6517 97.878 32.5208C96.2304 35.5169 94.1076 37.3083 91.8781 37.6221V30.6012C94.4613 30.5499 96.9227 30.2179 99.1639 29.6549ZM101.284 27.5339C102.321 27.158 103.281 26.7267 104.15 26.2487C107.147 24.6009 108.938 22.478 109.252 20.2486H102.231C102.179 22.8317 101.847 25.2932 101.284 27.5339ZM100.818 20.2486C100.76 23.0676 100.354 25.7142 99.6818 28.0526C97.3438 28.7241 94.6972 29.13 91.8781 29.1883V26.1392C92.9295 23.4459 95.0749 21.3001 97.768 20.2486H100.818ZM102.231 18.8358H109.252C108.938 16.6064 107.147 14.4835 104.15 12.8357C103.281 12.3577 102.321 11.9264 101.284 11.5505C101.847 13.7912 102.179 16.2527 102.231 18.8358ZM99.6818 11.0318C100.354 13.3702 100.76 16.0168 100.818 18.8358H97.7681C95.0749 17.7843 92.9295 15.6385 91.8781 12.9452V9.89607C94.6972 9.95441 97.3438 10.3603 99.6818 11.0318ZM100.815 9.89891C102.282 10.3663 103.631 10.9381 104.831 11.5979C106.316 12.4148 107.599 13.3843 108.584 14.4766C106.859 8.53681 102.177 3.85492 96.2375 2.12988C97.3298 3.11498 98.2992 4.39757 99.116 5.88284C99.7756 7.08248 100.348 8.43205 100.815 9.89891ZM91.8781 1.46233C94.1076 1.77608 96.2304 3.56751 97.878 6.56364C98.3559 7.43272 98.7877 8.39285 99.1639 9.42954C96.9227 8.86646 94.4613 8.53449 91.8781 8.48314V1.46233Z" fill="#667085"/>
</g>
<defs>
<clipPath id="clip0_2590_8217">
<rect width="213.01" height="39.0844" fill="white" transform="translate(0.0771484)"/>
</clipPath>
</defs>
</svg>
