<svg width="172" height="40" viewBox="0 0 172 40" fill="none" xmlns="http://www.w3.org/2000/svg">
<g clip-path="url(#clip0_2590_8211)">
<path fill-rule="evenodd" clip-rule="evenodd" d="M14.6567 27.3591C13.3609 27.3591 12.1183 26.8444 11.202 25.9281C10.2858 25.0119 9.7711 23.7693 9.7711 22.4735V0H0V22.4735C0 30.5679 6.56227 37.1302 14.6567 37.1302H25.4049V27.3591H14.6567ZM43.97 9.7711C42.8151 9.7711 41.6716 9.99856 40.6046 10.4405C39.5377 10.8824 38.5683 11.5302 37.7517 12.3468C36.9351 13.1634 36.2873 14.1328 35.8454 15.1998C35.4034 16.2667 35.176 17.4102 35.176 18.5651C35.176 19.7199 35.4034 20.8635 35.8454 21.9304C36.2873 22.9973 36.9351 23.9668 37.7517 24.7834C38.5683 25.6 39.5377 26.2477 40.6046 26.6897C41.6716 27.1316 42.8151 27.3591 43.97 27.3591C46.3023 27.3591 48.5391 26.4326 50.1882 24.7834C51.8374 23.1342 52.7639 20.8974 52.7639 18.5651C52.7639 16.2328 51.8374 13.996 50.1882 12.3468C48.5391 10.6976 46.3023 9.7711 43.97 9.7711ZM25.4049 18.5651C25.4049 8.31228 33.7171 0 43.97 0C54.2228 0 62.535 8.31228 62.535 18.5651C62.535 28.8179 54.2228 37.1302 43.97 37.1302C33.7171 37.1302 25.4049 28.8179 25.4049 18.5651ZM149.498 9.7711C147.166 9.7711 144.929 10.6976 143.28 12.3468C141.63 13.996 140.704 16.2328 140.704 18.5651C140.704 20.8974 141.63 23.1342 143.28 24.7834C144.929 26.4326 147.166 27.3591 149.498 27.3591C151.83 27.3591 154.067 26.4326 155.716 24.7834C157.365 23.1342 158.292 20.8974 158.292 18.5651C158.292 16.2328 157.365 13.996 155.716 12.3468C154.067 10.6976 151.83 9.7711 149.498 9.7711ZM130.933 18.5651C130.933 8.31228 139.245 0 149.498 0C159.751 0 168.063 8.31228 168.063 18.5651C168.063 28.8179 159.751 37.1302 149.498 37.1302C139.245 37.1302 130.933 28.8179 130.933 18.5651ZM83.0544 0C72.8015 0 64.4893 8.31228 64.4893 18.5651C64.4893 28.8179 72.8015 37.1302 83.0544 37.1302H110.413C112.337 37.1302 114.193 36.8371 115.938 36.2938L121.162 39.0844L126.798 28.5277C128.229 25.8403 128.978 22.8422 128.979 19.7972V18.5651C128.979 8.31228 120.666 0 110.413 0H83.0544ZM119.207 18.5651C119.207 16.2328 118.281 13.996 116.632 12.3468C114.983 10.6976 112.746 9.7711 110.413 9.7711H83.0544C81.8995 9.7711 80.756 9.99856 79.689 10.4405C78.6221 10.8824 77.6527 11.5302 76.8361 12.3468C76.0195 13.1634 75.3717 14.1328 74.9298 15.1998C74.4878 16.2667 74.2604 17.4102 74.2604 18.5651C74.2604 19.7199 74.4878 20.8635 74.9298 21.9304C75.3717 22.9973 76.0195 23.9668 76.8361 24.7834C77.6527 25.6 78.6221 26.2477 79.689 26.6897C80.756 27.1316 81.8995 27.3591 83.0544 27.3591H110.413C112.734 27.3592 114.96 26.442 116.608 24.8076C118.255 23.1732 119.189 20.9539 119.207 18.6335V18.5651Z" fill="#667085"/>
<path d="M171.971 2.44278C171.971 3.09064 171.714 3.71197 171.256 4.17008C170.798 4.62819 170.177 4.88555 169.529 4.88555C168.881 4.88555 168.26 4.62819 167.801 4.17008C167.343 3.71197 167.086 3.09064 167.086 2.44278C167.086 1.79491 167.343 1.17358 167.801 0.715472C168.26 0.257363 168.881 0 169.529 0C170.177 0 170.798 0.257363 171.256 0.715472C171.714 1.17358 171.971 1.79491 171.971 2.44278Z" fill="#667085"/>
</g>
<defs>
<clipPath id="clip0_2590_8211">
<rect width="171.971" height="39.0844" fill="white"/>
</clipPath>
</defs>
</svg>
