<svg width="104" height="40" viewBox="0 0 104 40" fill="none" xmlns="http://www.w3.org/2000/svg">
<g clip-path="url(#clip0_2590_8229)">
<path d="M47.8547 34.4314H50.5265V24.3532H47.8547V34.4314ZM47.8547 22.7815H50.5265V20.3848H47.8547V22.7815Z" fill="#667085"/>
<path d="M52.2478 37.7318H54.9196V33.2919H54.959C55.5286 34.1563 56.452 34.726 57.8665 34.726C60.4597 34.726 62.2278 32.6632 62.2278 29.402C62.2278 26.2587 60.5186 24.0781 57.8468 24.0781C56.4717 24.0781 55.5286 24.7264 54.8803 25.6104H54.8214V24.3531H52.2478V37.7318ZM57.2968 32.506C55.7055 32.506 54.8607 31.3077 54.8607 29.4806C54.8607 27.6732 55.5286 26.239 57.1985 26.239C58.8488 26.239 59.5167 27.5749 59.5167 29.4806C59.5167 31.3863 58.6524 32.506 57.2968 32.506Z" fill="#667085"/>
<path d="M67.5564 34.726C70.0709 34.726 71.7997 33.508 71.7997 31.4845C71.7997 29.127 69.9335 28.6555 68.2439 28.3019C66.8097 28.0072 65.4738 27.9286 65.4738 27.0642C65.4738 26.3373 66.1614 25.9443 67.2027 25.9443C68.3421 25.9443 69.0297 26.3373 69.1476 27.4178H71.5641C71.3676 25.3943 69.8942 24.0781 67.242 24.0781C64.9435 24.0781 63.136 25.1193 63.136 27.2999C63.136 29.5002 64.9042 29.9914 66.7115 30.3451C68.0867 30.62 69.3637 30.7183 69.3637 31.681C69.3637 32.3882 68.6958 32.84 67.517 32.84C66.3186 32.84 65.4935 32.3293 65.3167 31.1701H62.8413C62.9985 33.3116 64.6291 34.726 67.5564 34.726Z" fill="#667085"/>
<path d="M81.9448 34.4315V24.3533H79.273V30.1684C79.273 31.5043 78.5069 32.4473 77.2495 32.4473C76.1101 32.4473 75.5797 31.799 75.5797 30.6202V24.3533H72.9275V31.0721C72.9275 33.2724 74.1848 34.7066 76.4245 34.7066C77.8389 34.7066 78.6247 34.1761 79.3124 33.2528H79.3713V34.4315H81.9448Z" fill="#667085"/>
<path d="M83.6719 34.4313H86.3438V28.5769C86.3438 27.241 87.0707 26.3766 88.1511 26.3766C89.1334 26.3766 89.7032 26.9659 89.7032 28.1054V34.4313H92.375V28.5769C92.375 27.241 93.0626 26.3766 94.1824 26.3766C95.1646 26.3766 95.7344 26.9659 95.7344 28.1054V34.4313H98.4062V27.6536C98.4062 25.4532 97.2078 24.0781 95.0861 24.0781C93.8091 24.0781 92.7483 24.746 92.0607 25.8461H92.0214C91.5302 24.7853 90.5086 24.0781 89.2316 24.0781C87.8368 24.0781 86.8545 24.7853 86.3044 25.7087H86.2455V24.3531H83.6719V34.4313Z" fill="#667085"/>
<path d="M47.8928 17.1698H50.5646V3.12311H47.8928V17.1698Z" fill="#667085"/>
<path d="M57.0988 17.4644C60.2225 17.4644 62.3639 15.1462 62.3639 12.1404C62.3639 9.13459 60.2225 6.81641 57.0988 6.81641C53.9752 6.81641 51.8337 9.13459 51.8337 12.1404C51.8337 15.1462 53.9752 17.4644 57.0988 17.4644ZM57.0988 15.4212C55.4486 15.4212 54.5449 14.105 54.5449 12.1404C54.5449 10.1758 55.4486 8.83991 57.0988 8.83991C58.7294 8.83991 59.6528 10.1758 59.6528 12.1404C59.6528 14.105 58.7294 15.4212 57.0988 15.4212Z" fill="#667085"/>
<path d="M68.0453 20.6077C69.5385 20.6077 70.8351 20.2541 71.6798 19.4682C72.4263 18.7806 72.8782 17.818 72.8782 16.4035V7.09144H70.3046V8.15231H70.2653C69.6563 7.30754 68.7329 6.81641 67.4756 6.81641C64.9217 6.81641 63.1143 8.74168 63.1143 11.7475C63.1143 14.7925 65.3146 16.5606 67.5542 16.5606C68.8312 16.5606 69.5974 16.0499 70.1868 15.3819H70.2457V16.4821C70.2457 17.8573 69.5188 18.5841 68.0061 18.5841C66.7684 18.5841 66.1987 18.093 65.9826 17.4644H63.3304C63.6055 19.4289 65.295 20.6077 68.0453 20.6077ZM68.0061 14.4193C66.6309 14.4193 65.7271 13.4174 65.7271 11.7082C65.7271 10.0187 66.6309 8.95778 67.9864 8.95778C69.5974 8.95778 70.3832 10.2151 70.3832 11.6886C70.3832 13.1816 69.6956 14.4193 68.0061 14.4193Z" fill="#667085"/>
<path d="M79.372 17.4645C82.4956 17.4645 84.6371 15.1463 84.6371 12.1405C84.6371 9.13471 82.4956 6.81653 79.372 6.81653C76.2484 6.81653 74.1069 9.13471 74.1069 12.1405C74.1069 15.1463 76.2484 17.4645 79.372 17.4645ZM79.372 15.4213C77.7218 15.4213 76.818 14.1051 76.818 12.1405C76.818 10.1759 77.7218 8.84004 79.372 8.84004C81.0026 8.84004 81.926 10.1759 81.926 12.1405C81.926 14.1051 81.0026 15.4213 79.372 15.4213Z" fill="#667085"/>
<path d="M86.9792 13.3193H98.5307V11.0208H86.9792V13.3193Z" fill="#667085"/>
<path d="M99.3779 22.6413C99.3779 22.1892 99.7444 21.8227 100.197 21.8227H101.833C102.286 21.8227 102.652 22.1892 102.652 22.6413C102.652 23.0933 102.286 23.4598 101.833 23.4598H100.197C99.7444 23.4598 99.3779 23.0933 99.3779 22.6413Z" fill="#667085"/>
<path fill-rule="evenodd" clip-rule="evenodd" d="M20.8715 0C31.6644 0 40.4137 8.74934 40.4137 19.5422C40.4137 30.3351 31.6644 39.0844 20.8715 39.0844C10.0787 39.0844 1.32935 30.3351 1.32935 19.5422C1.32935 8.74934 10.0787 0 20.8715 0ZM20.1652 1.46233C17.9358 1.77608 15.8129 3.56751 14.165 6.56364C13.687 7.43271 13.2558 8.39285 12.8799 9.42954C15.1206 8.86646 17.582 8.53449 20.1652 8.48314V1.46233ZM11.2282 9.89891C11.6956 8.43205 12.2674 7.08248 12.9272 5.88284C13.7441 4.39757 14.7136 3.11498 15.8059 2.12988C9.86616 3.85492 5.18426 8.53681 3.45923 14.4766C4.44432 13.3843 5.72692 12.4148 7.21219 11.5979C8.41184 10.9381 9.76139 10.3663 11.2282 9.89891ZM10.7588 11.5505C10.1958 13.7912 9.86384 16.2527 9.81249 18.8358H2.79167C3.10543 16.6064 4.89686 14.4835 7.89299 12.8357C8.76206 12.3577 9.7222 11.9264 10.7588 11.5505ZM11.2255 18.8358C11.2838 16.0168 11.6896 13.3702 12.3611 11.0318C14.6995 10.3603 17.3462 9.95441 20.1652 9.89607V12.9475C19.1135 15.6398 16.9686 17.7846 14.2761 18.8358H11.2255ZM9.81249 20.2486H2.79167C3.10543 22.478 4.89686 24.6008 7.89299 26.2487C8.76206 26.7267 9.7222 27.158 10.7588 27.5339C10.1958 25.2932 9.86384 22.8317 9.81249 20.2486ZM12.3611 28.0526C11.6896 25.7142 11.2838 23.0676 11.2255 20.2486H14.2761C16.9686 21.2998 19.1136 23.4446 20.1652 26.1369V29.1883C17.3462 29.13 14.6995 28.7241 12.3611 28.0526ZM11.2282 29.1855C9.76139 28.7181 8.41184 28.1463 7.21219 27.4865C5.72692 26.6696 4.44432 25.7001 3.45923 24.6078C5.18426 30.5476 9.86616 35.2295 15.8059 36.9545C14.7136 35.9694 13.7441 34.6868 12.9272 33.2015C12.2674 32.0019 11.6956 30.6523 11.2282 29.1855ZM20.1652 37.6221C17.9358 37.3083 15.8129 35.5169 14.165 32.5208C13.687 31.6517 13.2558 30.6915 12.8799 29.6549C15.1206 30.2179 17.582 30.5499 20.1652 30.6012V37.6221ZM25.9372 36.9545C27.0295 35.9694 27.999 34.6868 28.8159 33.2015C29.4757 32.0019 30.0475 30.6523 30.5148 29.1855C31.9817 28.7181 33.3313 28.1463 34.531 27.4865C36.0162 26.6696 37.2988 25.7001 38.2838 24.6078C36.5589 30.5476 31.8769 35.2295 25.9372 36.9545ZM28.8632 29.6549C28.4873 30.6915 28.056 31.6517 27.578 32.5208C25.9302 35.5169 23.8074 37.3083 21.5779 37.6221V30.6012C24.1611 30.5499 26.6225 30.2179 28.8632 29.6549ZM30.9842 27.5339C32.0209 27.158 32.9811 26.7267 33.8501 26.2487C36.8462 24.6008 38.6377 22.478 38.9514 20.2486H31.9306C31.8793 22.8317 31.5473 25.2932 30.9842 27.5339ZM30.5177 20.2486C30.4593 23.0676 30.0534 25.7142 29.382 28.0526C27.0436 28.7241 24.397 29.13 21.5779 29.1883V26.1392C22.6292 23.4459 24.7746 21.3001 27.4678 20.2486H30.5177ZM31.9306 18.8358H38.9514C38.6377 16.6064 36.8462 14.4835 33.8501 12.8357C32.9811 12.3577 32.0209 11.9264 30.9842 11.5505C31.5473 13.7912 31.8793 16.2527 31.9306 18.8358ZM29.382 11.0318C30.0534 13.3702 30.4593 16.0168 30.5177 18.8358H27.4678C24.7746 17.7843 22.6292 15.6385 21.5779 12.9452V9.89607C24.397 9.95441 27.0436 10.3603 29.382 11.0318ZM30.5148 9.89891C31.9817 10.3663 33.3313 10.9381 34.531 11.5979C36.0162 12.4148 37.2988 13.3843 38.2838 14.4766C36.5589 8.53681 31.8769 3.85492 25.9372 2.12988C27.0295 3.11498 27.999 4.39757 28.8159 5.88284C29.4757 7.08248 30.0475 8.43205 30.5148 9.89891ZM21.5779 1.46233C23.8074 1.77608 25.9302 3.56751 27.578 6.56364C28.056 7.43272 28.4873 8.39285 28.8632 9.42954C26.6225 8.86646 24.1611 8.53449 21.5779 8.48314V1.46233Z" fill="#667085"/>
</g>
<defs>
<clipPath id="clip0_2590_8229">
<rect width="102.597" height="39.0844" fill="white" transform="translate(0.819824)"/>
</clipPath>
</defs>
</svg>
