<svg width="84" height="40" viewBox="0 0 84 40" fill="none" xmlns="http://www.w3.org/2000/svg">
<g clip-path="url(#clip0_2590_8214)">
<path d="M75.2564 38.0538V38.1464C75.2335 38.1988 75.206 38.2492 75.174 38.2968L75.0564 38.4356L74.9387 38.5398C74.816 38.6424 74.6769 38.7244 74.527 38.7827H74.4682C74.3221 38.84 74.1667 38.8714 74.0094 38.8753H69.3041C69.1786 38.8793 69.0537 38.8565 68.9379 38.8087C68.8222 38.7607 68.7184 38.6887 68.6336 38.5976L63.4931 33.368L60.117 38.4125L60.0464 38.505L59.9288 38.6438H59.8699H59.8111H59.7288C59.6345 38.723 59.5271 38.7856 59.4112 38.829L59.2936 38.8868C59.146 38.9397 58.9915 38.9709 58.8348 38.9794H54.1294C54.004 38.9834 53.879 38.9607 53.7633 38.9127C53.6475 38.8649 53.5437 38.7928 53.4589 38.7017L51.7062 36.7233L45.5422 38.8868C45.3981 38.9506 45.2414 38.9822 45.0834 38.9794C44.8698 38.9851 44.6611 38.9153 44.4953 38.7827L44.4011 38.6901L41.4603 35.3812C41.3427 35.7745 41.2486 36.1679 41.1192 36.5382L41.0487 36.7002C41.0283 36.7537 41.0006 36.8043 40.9663 36.8505L40.8957 36.9431L40.7663 37.0819L40.6016 37.2324C40.5107 37.301 40.412 37.3592 40.3075 37.4059L39.9664 37.8224C39.8046 37.8821 39.6334 37.9133 39.4606 37.915H35.6022C35.4775 37.9213 35.3529 37.9006 35.2371 37.8547C35.1213 37.8087 35.0171 37.7385 34.9318 37.6488L33.6613 36.2142L33.1084 38.0191C33.0953 38.0805 33.0713 38.1392 33.0378 38.1927L32.9672 38.3431L32.8966 38.4356L32.7791 38.5745C32.73 38.6304 32.6747 38.6809 32.6143 38.7248C32.5165 38.7895 32.4143 38.8475 32.3085 38.8984L32.1556 38.9794C31.9981 39.0414 31.831 39.0767 31.6615 39.0835H24.674C24.5466 39.0892 24.4194 39.0673 24.3016 39.0193C24.1836 38.9714 24.0779 38.8985 23.9918 38.8058L22.9684 37.6488H19.263L19.1806 37.9265C19.1664 37.986 19.1466 38.0441 19.1218 38.1001C19.0899 38.1477 19.0623 38.1981 19.0394 38.2504L18.9689 38.3431L18.8513 38.4819C18.8022 38.5379 18.747 38.5883 18.6866 38.6323C18.5888 38.6969 18.4866 38.7549 18.3807 38.8058L18.2278 38.8868C18.0703 38.9489 17.9033 38.9841 17.7337 38.991H13.3696C13.244 38.995 13.1191 38.9722 13.0033 38.9244C12.8877 38.8764 12.7838 38.8044 12.6991 38.7133L11.3463 37.1976H7.31143C7.18671 37.2039 7.06214 37.1833 6.94634 37.1374C6.83053 37.0914 6.72631 37.0211 6.64094 36.9315L1.14746 31.0772C1.19145 31.1209 1.24331 31.1562 1.30039 31.1813C1.19864 31.1219 1.11371 31.0384 1.05337 30.9383C0.975947 30.7897 0.935547 30.6252 0.935547 30.4582C0.935547 30.2912 0.975947 30.1267 1.05337 29.978C4.16029 23.7011 6.70682 17.1704 8.66423 10.4598V10.3788L8.27603 9.93907C8.27603 9.93907 8.33486 9.93907 8.37015 10.0201C8.23999 9.90252 8.14817 9.74966 8.10629 9.58081C8.06443 9.41195 8.07436 9.23466 8.13488 9.07136L9.41707 4.83681C9.52409 4.51725 9.72572 4.2364 9.99608 4.03027C10.2664 3.82414 10.5932 3.70211 10.9345 3.67983H15.6399L16.4045 1.15759C16.5129 0.838853 16.7149 0.558856 16.985 0.352937C17.255 0.147018 17.5811 0.0244096 17.9219 0.00061299H22.3215C22.4522 -0.00439437 22.5823 0.0213343 22.701 0.0756609C22.8197 0.129987 22.9234 0.211352 23.0037 0.313004L24.5094 2.01378L24.627 1.70138C24.7334 1.37924 24.9364 1.09631 25.2093 0.889801C25.4823 0.683291 25.8125 0.562875 26.1563 0.544397H41.6956C41.8259 0.5421 41.9552 0.569044 42.0735 0.62317C42.1916 0.677295 42.2957 0.757186 42.3779 0.856787L47.0832 6.19048L47.0009 1.74767C47.0075 1.55195 47.0547 1.35962 47.1396 1.18253C47.2246 1.00544 47.3454 0.847325 47.4949 0.717938C47.7792 0.427411 48.1674 0.25727 48.5772 0.243588H53.2825C53.4332 0.239025 53.5825 0.274155 53.7149 0.345346C53.8472 0.416537 53.9578 0.521195 54.0353 0.648521C54.0149 0.602049 53.9872 0.559083 53.953 0.521252L57.482 4.46657L58.0819 2.48814C58.1861 2.16691 58.387 1.88434 58.6579 1.67776C58.9289 1.47119 59.2571 1.35033 59.5994 1.33116H76.7739C76.9052 1.32568 77.0361 1.34996 77.1565 1.4021C77.2768 1.45426 77.3833 1.5329 77.4679 1.63196L82.8319 7.68298L82.9025 7.76398C82.96 7.85104 82.9963 7.95005 83.0084 8.05323C83.0084 8.05323 83.0084 8.05323 83.0084 8.11108C83.0143 8.19582 83.0143 8.28085 83.0084 8.3656C83.0125 8.43109 83.0125 8.4968 83.0084 8.5623L77.609 26.2526L77.5384 26.4261L77.4561 26.5765C77.4561 26.5765 77.4561 26.6344 77.3855 26.6691L77.2679 26.8079L77.0914 26.9584C76.9973 27.0277 76.8915 27.0741 76.7973 27.1319C76.7032 27.1898 76.6915 27.2013 76.6444 27.2129C76.4849 27.2816 76.3128 27.3171 76.1386 27.317H73.786L74.7153 28.3583V28.4393C74.775 28.5464 74.811 28.6646 74.8211 28.7863L75.3387 37.51V37.8224C75.3387 37.8224 75.3387 37.8224 75.3387 37.9034C75.3387 37.9844 75.2564 38.0191 75.2564 38.0538Z" fill="#667085"/>
<path d="M2.20654 30.1977C5.34778 23.8487 7.9257 17.2448 9.91154 10.4596H13.5699C11.6367 17.2284 9.14231 23.8299 6.11197 30.1977H2.20654ZM25.8508 1.67808L24.5686 5.86638H40.0845L41.3666 1.67808H25.8508ZM13.9464 30.6027H18.3223C21.0669 26.0561 23.2432 21.2002 24.8038 16.1404H20.9102C19.2935 21.2458 16.9403 26.0968 13.9228 30.5449L13.9464 30.6027ZM21.5807 10.0547L20.2867 14.3123H27.7094L23.604 27.7912H20.922L19.628 32.0141H26.6154L32.0031 14.3123H39.214L40.5197 10.0547H21.5807ZM18.287 13.4215L19.6045 9.10591H22.3219L23.6158 4.87137H20.922L22.0983 1.20374H17.6165L16.4402 4.87137H10.6173L9.32337 9.10591H15.205L8.26465 32.0373H12.6288L16.7224 18.5931L18.2634 20.0857L19.828 14.9487L18.287 13.4215ZM32.6382 16.2793C32.7509 21.179 32.0679 26.065 30.615 30.7531H34.4851C35.9463 26.0588 36.7382 21.1877 36.8377 16.2793H32.6382ZM53.024 1.36571H48.2599L48.3893 8.75883H53.1652L53.024 1.36571ZM43.0605 11.0728L41.6842 15.6082H44.9662L39.9668 32.0373L48.4011 29.0755L49.9421 23.9963L46.5777 25.1533L50.8714 11.0612L43.0605 11.0728ZM53.7534 32.0141L59.5762 23.3021H54.871L48.9893 32.0141H53.7534ZM59.3292 2.46484L53.9064 20.2361H71.0807L76.4919 2.46484H59.3292ZM67.9399 15.8049H59.7644L62.4701 6.88451H70.7044L67.987 15.8049M63.4934 23.2674L64.0111 31.9795H68.7163L68.187 23.2674H63.4934Z" fill="#D0D5DD"/>
</g>
<defs>
<clipPath id="clip0_2590_8214">
<rect width="82.0773" height="39.0844" fill="white" transform="translate(0.935547)"/>
</clipPath>
</defs>
</svg>
