<svg width="216" height="40" viewBox="0 0 216 40" fill="none" xmlns="http://www.w3.org/2000/svg">
<g clip-path="url(#clip0_2590_8208)">
<path d="M19.8064 39.0844C30.5995 39.0844 39.3486 30.3354 39.3486 19.5422V5.86266C39.3486 4.30779 38.7309 2.8166 37.6314 1.71713C36.532 0.617671 35.0408 0 33.4859 0L20.7835 0V8.57316C20.7835 10.5293 20.9027 12.5559 21.9286 14.2209C22.6631 15.4141 23.6457 16.4354 24.8096 17.2155C25.9736 17.9956 27.2917 18.5162 28.6746 18.7419L29.0488 18.8025C29.2031 18.8553 29.3371 18.9549 29.4319 19.0876C29.5267 19.2202 29.5777 19.3792 29.5777 19.5422C29.5777 19.7052 29.5267 19.8642 29.4319 19.9968C29.3371 20.1295 29.2031 20.2291 29.0488 20.2819L28.6746 20.3425C26.6541 20.6725 24.7883 21.6289 23.3407 23.0765C21.893 24.5242 20.9367 26.39 20.6066 28.4105L20.546 28.7847C20.4933 28.939 20.3936 29.0729 20.261 29.1677C20.1284 29.2626 19.9694 29.3135 19.8064 29.3135C19.6433 29.3135 19.4843 29.2626 19.3517 29.1677C19.2191 29.0729 19.1194 28.939 19.0667 28.7847L19.0061 28.4105C18.7803 27.0276 18.2596 25.7095 17.4796 24.5455C16.6995 23.3816 15.6782 22.399 14.485 21.6645C12.82 20.6385 10.7935 20.5193 8.83731 20.5193H0.287598C0.798626 30.8581 9.3415 39.0844 19.8064 39.0844Z" fill="#667085"/>
<path d="M0.264648 18.5651H8.83781C10.794 18.5651 12.8205 18.4459 14.4855 17.4199C15.787 16.618 16.8826 15.5224 17.6846 14.2209C18.7105 12.5559 18.8297 10.5293 18.8297 8.57316V0H6.12731C4.57243 0 3.08124 0.617671 1.98178 1.71713C0.88232 2.8166 0.264648 4.30779 0.264648 5.86266L0.264648 18.5651ZM45.6563 1.95422C45.6563 2.47251 45.4504 2.96958 45.0839 3.33606C44.7174 3.70255 44.2204 3.90844 43.7021 3.90844C43.1838 3.90844 42.6867 3.70255 42.3202 3.33606C41.9538 2.96958 41.7479 2.47251 41.7479 1.95422C41.7479 1.43593 41.9538 0.938865 42.3202 0.572378C42.6867 0.205891 43.1838 0 43.7021 0C44.2204 0 44.7174 0.205891 45.0839 0.572378C45.4504 0.938865 45.6563 1.43593 45.6563 1.95422ZM207.13 11.8269C212.593 11.8269 215.229 15.6426 215.229 20.062V28.3626H209.512V21.047C209.512 19.0439 208.781 17.3906 206.685 17.3906C204.589 17.3906 203.89 19.0439 203.89 21.047V28.3616H198.173V21.047C198.173 19.0439 197.475 17.3906 195.378 17.3906C193.282 17.3906 192.551 19.0439 192.551 21.047V28.3616H186.835V20.061C186.835 15.6416 189.47 11.826 194.933 11.826C197.919 11.826 200.079 13.0024 201.064 14.942C202.111 13.0024 204.399 11.825 207.13 11.825V11.8269ZM176.562 23.2748C178.404 23.2748 179.198 21.5892 179.198 19.5852V12.4621H184.914V20.2848C184.914 24.9593 182.183 28.8394 176.562 28.8394C170.939 28.8394 168.208 24.9603 168.208 20.2848V12.4621H173.925V19.5852C173.925 21.5883 174.719 23.2748 176.562 23.2748ZM159.802 28.8707C156.213 28.8707 153.895 27.6307 152.529 25.2143L156.658 22.8927C157.23 23.9099 158.086 24.419 159.516 24.419C160.691 24.419 161.231 24.0056 161.231 23.4966C161.231 21.557 152.846 23.5288 152.846 17.3603C152.846 14.3704 155.387 11.954 159.707 11.954C163.486 11.954 165.551 13.7978 166.472 15.579L162.343 17.9319C161.994 16.9783 160.913 16.4057 159.834 16.4057C159.008 16.4057 158.563 16.7555 158.563 17.2323C158.563 19.2041 166.948 17.3916 166.948 23.3695C166.948 26.7083 163.677 28.8707 159.802 28.8707ZM139.828 35.6762H134.111V20.3806C134.111 15.5146 137.764 11.9852 142.846 11.9852C147.8 11.9852 151.58 15.7696 151.58 20.3806C151.58 25.4684 148.213 28.8394 143.163 28.8394C141.988 28.8394 140.813 28.4896 139.828 27.9483V35.6762ZM142.846 23.4653C144.656 23.4653 145.863 22.0661 145.863 20.4118C145.863 18.7273 144.656 17.3593 142.846 17.3593C141.035 17.3593 139.828 18.7273 139.828 20.4128C139.828 22.0661 141.035 23.4653 142.846 23.4653ZM128.384 10.7775C126.51 10.7775 124.955 9.21903 124.955 7.34298C124.955 5.46693 126.51 3.90844 128.384 3.90844C130.258 3.90844 131.815 5.46693 131.815 7.34298C131.815 9.21903 130.258 10.7775 128.384 10.7775ZM125.526 12.4621H131.243V28.3626H125.526V12.4621ZM114.557 28.8394C109.602 28.8394 105.823 25.0238 105.823 20.3806C105.823 15.7696 109.602 11.954 114.557 11.954C119.512 11.954 123.292 15.7696 123.292 20.3806C123.292 25.0238 119.512 28.8394 114.557 28.8394ZM114.557 23.4653C116.368 23.4653 117.575 22.0661 117.575 20.4118C117.575 18.7273 116.368 17.3281 114.557 17.3281C112.747 17.3281 111.54 18.7273 111.54 20.4118C111.54 22.0661 112.747 23.4653 114.557 23.4653ZM95.0277 36.1531C91.09 36.1531 88.2309 34.404 86.7702 31.2871L91.5023 28.7436C92.0104 29.8253 92.9631 30.9382 94.932 30.9382C96.9976 30.9382 98.3626 29.6338 98.5219 27.3444C97.7597 28.0128 96.552 28.5209 94.7424 28.5209C90.3268 28.5209 86.7692 25.1186 86.7692 20.3483C86.7692 15.7383 90.5496 11.9852 95.5046 11.9852C100.587 11.9852 104.239 15.5155 104.239 20.3806V26.6771C104.239 32.401 100.268 36.1531 95.0277 36.1531ZM95.4088 23.1477C97.1236 23.1477 98.4261 21.9703 98.4261 20.2213C98.4261 18.5045 97.1246 17.3593 95.4088 17.3593C93.7252 17.3593 92.3915 18.5045 92.3915 20.2223C92.3915 21.9713 93.7252 23.1468 95.4088 23.1468V23.1477ZM77.0723 28.8394C72.1174 28.8394 68.337 25.0238 68.337 20.3806C68.337 15.7696 72.1174 11.954 77.0723 11.954C82.0263 11.954 85.8067 15.7696 85.8067 20.3806C85.8067 25.0238 82.0273 28.8394 77.0723 28.8394ZM77.0723 23.4653C78.8829 23.4653 80.0897 22.0661 80.0897 20.4118C80.0897 18.7273 78.8829 17.3281 77.0723 17.3281C75.2618 17.3281 74.055 18.7273 74.055 20.4118C74.055 22.0661 75.2618 23.4653 77.0723 23.4653ZM57.9269 6.8984V22.9562H67.3921V28.3626H57.1325C53.5123 28.3626 52.0515 26.4543 52.0515 23.4331V6.8984H57.9269Z" fill="#667085"/>
</g>
<defs>
<clipPath id="clip0_2590_8208">
<rect width="214.964" height="39.0844" fill="white" transform="translate(0.264648)"/>
</clipPath>
</defs>
</svg>
