<svg width="123" height="40" viewBox="0 0 123 40" fill="none" xmlns="http://www.w3.org/2000/svg">
<g clip-path="url(#clip0_2590_8242)">
<path d="M87.6875 36.373C88.4291 36.373 88.8678 35.8111 88.8678 34.9327C88.8678 34.022 88.3969 33.4924 87.7031 33.4924C87.3064 33.4924 87.0309 33.6683 86.8247 33.9478H86.8149V32.5085H86.385V36.2928H86.8149V35.9333H86.8247C87.0475 36.2401 87.3172 36.373 87.6875 36.373ZM87.6562 36.0124C87.0739 36.0124 86.7876 35.5522 86.7876 34.9376C86.7876 34.3455 87.0631 33.8579 87.6611 33.8579C88.18 33.8579 88.4291 34.324 88.4291 34.9376C88.4291 35.5571 88.18 36.0124 87.6562 36.0124ZM89.5938 37.1986C89.927 37.1986 90.1391 37.0814 90.3609 36.5146L91.5314 33.5559H91.0761L90.4508 35.261C90.3667 35.4887 90.271 35.7955 90.271 35.7955H90.2612C90.2612 35.7955 90.1596 35.4887 90.0756 35.261L89.4297 33.5559H88.9636L90.0326 36.2137L89.927 36.4834C89.8215 36.7482 89.6994 36.8175 89.5196 36.8175C89.4191 36.8226 89.319 36.8025 89.2284 36.7589H89.2069V37.14C89.3242 37.1879 89.4297 37.1986 89.5938 37.1986ZM92.6287 36.2928H93.3489V32.5085H92.6287V36.2928ZM95.1096 36.373C95.9509 36.373 96.5284 35.7476 96.5284 34.9376C96.5284 34.1276 95.9519 33.5032 95.1096 33.5032C94.2683 33.5032 93.6909 34.1285 93.6909 34.9376C93.6909 35.7486 94.2674 36.373 95.1096 36.373ZM95.1096 35.8219C94.665 35.8219 94.4217 35.4672 94.4217 34.9376C94.4217 34.409 94.665 34.0484 95.1096 34.0484C95.5493 34.0484 95.7975 34.409 95.7975 34.9376C95.7975 35.4672 95.5493 35.8219 95.1096 35.8219ZM98.0595 37.2191C98.4621 37.2191 98.8109 37.1244 99.0386 36.9123C99.2399 36.7267 99.362 36.4677 99.362 36.0867V33.5774H98.6683V33.8637H98.6575C98.4934 33.6361 98.2452 33.5032 97.9051 33.5032C97.2182 33.5032 96.7306 34.022 96.7306 34.8321C96.7306 35.6528 97.3238 36.1287 97.9276 36.1287C98.2716 36.1287 98.4777 35.9919 98.636 35.8111H98.6526V36.1082C98.6526 36.4785 98.4572 36.6749 98.0488 36.6749C97.7156 36.6749 97.5622 36.542 97.5035 36.372H96.7893C96.8626 36.9016 97.3179 37.2191 98.0595 37.2191ZM98.0498 35.5522C97.6785 35.5522 97.4342 35.2825 97.4342 34.8213C97.4342 34.366 97.6784 34.0807 98.0439 34.0807C98.4777 34.0807 98.6898 34.4187 98.6898 34.8164C98.6898 35.219 98.5041 35.5522 98.0488 35.5522H98.0498ZM101.112 36.373C101.953 36.373 102.531 35.7476 102.531 34.9376C102.531 34.1276 101.953 33.5032 101.112 33.5032C100.27 33.5032 99.6933 34.1285 99.6933 34.9376C99.6933 35.7486 100.27 36.373 101.112 36.373ZM101.112 35.8219C100.667 35.8219 100.423 35.4672 100.423 34.9376C100.423 34.409 100.667 34.0484 101.112 34.0484C101.551 34.0484 101.8 34.409 101.8 34.9376C101.8 35.4672 101.551 35.8219 101.112 35.8219ZM102.865 36.2928H103.585V33.5774H102.865V36.2928ZM102.865 33.1544H103.585V32.5085H102.865V33.1544ZM104.049 37.182H104.769V35.987H104.779C104.933 36.2205 105.182 36.3739 105.563 36.3739C106.261 36.3739 106.738 35.817 106.738 34.9386C106.738 34.0914 106.278 33.5042 105.558 33.5042C105.401 33.5016 105.246 33.538 105.106 33.6102C104.967 33.6823 104.847 33.7879 104.759 33.9175H104.743V33.5784H104.049V37.184V37.182ZM105.409 35.775C104.98 35.775 104.753 35.4515 104.753 34.9591C104.753 34.4725 104.933 34.0855 105.383 34.0855C105.828 34.0855 106.007 34.4451 106.007 34.9591C106.007 35.473 105.775 35.775 105.409 35.775ZM108.175 36.373C108.852 36.373 109.318 36.0446 109.318 35.4994C109.318 34.8643 108.815 34.7373 108.359 34.6415C107.973 34.5624 107.614 34.5409 107.614 34.3083C107.614 34.1129 107.798 34.0054 108.079 34.0054C108.387 34.0054 108.571 34.1129 108.604 34.4031H109.254C109.202 33.8579 108.805 33.5042 108.09 33.5042C107.47 33.5042 106.983 33.7836 106.983 34.3718C106.983 34.964 107.459 35.0968 107.947 35.1926C108.317 35.2659 108.661 35.2923 108.661 35.5522C108.661 35.7427 108.481 35.8649 108.164 35.8649C107.841 35.8649 107.619 35.7271 107.571 35.4144H106.904C106.946 35.9909 107.386 36.373 108.175 36.373ZM112.052 36.2928V33.5774H111.332V35.1447C111.332 35.5043 111.124 35.7584 110.786 35.7584C110.48 35.7584 110.336 35.5834 110.336 35.2659V33.5774H109.622V35.388C109.622 35.9811 109.961 36.3671 110.564 36.3671C110.945 36.3671 111.157 36.2244 111.342 35.9762H111.358V36.2928H112.052ZM112.517 36.2928H113.237V34.7168C113.237 34.3562 113.432 34.1236 113.724 34.1236C113.988 34.1236 114.142 34.2829 114.142 34.5897V36.2938H114.862V34.7168C114.862 34.3562 115.048 34.1236 115.349 34.1236C115.614 34.1236 115.768 34.2829 115.768 34.5897V36.2938H116.488V34.4676C116.488 33.8745 116.164 33.5042 115.593 33.5042C115.249 33.5042 114.963 33.6839 114.778 33.981H114.767C114.702 33.8368 114.596 33.7148 114.462 33.63C114.329 33.5453 114.173 33.5016 114.015 33.5042C113.856 33.5002 113.699 33.5389 113.56 33.6162C113.422 33.6936 113.306 33.8067 113.226 33.9439H113.211V33.5784H112.517V36.2948V36.2928Z" fill="#667085"/>
<path d="M116.63 2.1C116.63 0.944078 117.567 0.00605228 118.723 0.00605228H120.119C120.675 0.00605228 121.207 0.226664 121.6 0.619355C121.993 1.01205 122.213 1.54465 122.213 2.1C122.213 2.65535 121.993 3.18795 121.6 3.58064C121.207 3.97333 120.675 4.19395 120.119 4.19395H118.723C118.448 4.19395 118.176 4.13978 117.922 4.03453C117.668 3.92929 117.437 3.77504 117.243 3.58058C117.048 3.38613 116.894 3.15529 116.789 2.90124C116.684 2.6472 116.63 2.37493 116.63 2.1ZM58.0121 13.9631C58.0121 21.6705 51.7645 27.9192 44.056 27.9192C36.3486 27.9192 30.1 21.6705 30.1 13.9631C30.1 6.25369 36.3486 0.00702939 44.056 0.00702939C51.7645 0.00702939 58.0121 6.25369 58.0121 13.9631ZM27.3778 13.8937C28.1497 13.8937 28.7809 14.5191 28.7037 15.2871C28.4399 17.9153 27.4356 20.4148 25.8076 22.4949C24.1796 24.575 21.9947 26.1504 19.5068 27.0379C17.019 27.9255 14.3303 28.0888 11.7533 27.5089C9.17627 26.9289 6.81676 25.6295 4.94897 23.7618C3.08117 21.894 1.7818 19.5344 1.20186 16.9574C0.621911 14.3804 0.785212 11.6918 1.67278 9.20388C2.56035 6.71601 4.13573 4.5311 6.21585 2.90309C8.29597 1.27508 10.7954 0.270824 13.4236 0.00702939C14.1907 -0.0711394 14.817 0.562028 14.817 1.33199V12.4974C14.817 13.2693 15.4424 13.8937 16.2133 13.8937H27.3778ZM77.5514 30.7108C78.6618 30.7108 79.7268 31.1519 80.512 31.9371C81.2972 32.7223 81.7383 33.7872 81.7383 34.8977C81.7383 36.0081 81.2972 37.0731 80.512 37.8583C79.7268 38.6435 78.6618 39.0846 77.5514 39.0846H70.5738C69.4634 39.0846 68.3984 38.6435 67.6132 37.8583C66.828 37.0731 66.3869 36.0081 66.3869 34.8977C66.3869 33.7872 66.828 32.7223 67.6132 31.9371C68.3984 31.1519 69.4634 30.7108 70.5738 30.7108H77.5514ZM73.3645 27.9192C81.0729 27.9192 87.3215 21.6705 87.3215 13.9631C87.3248 11.5955 86.7231 9.26633 85.5735 7.19661L87.8794 4.89063C88.145 4.62488 88.3557 4.30943 88.4994 3.96227C88.6431 3.61511 88.717 3.24304 88.7169 2.86732C88.7169 2.49159 88.6428 2.11956 88.4989 1.77247C88.355 1.42538 88.1442 1.11003 87.8785 0.844413C87.6127 0.578799 87.2973 0.368127 86.9501 0.224427C86.6029 0.0807272 86.2309 0.00681236 85.8551 0.0069031C85.4794 0.00699384 85.1074 0.0810883 84.7603 0.224956C84.4132 0.368824 84.0979 0.579648 83.8322 0.84539L81.8194 2.85824C79.3911 1.00359 76.4191 0.00113563 73.3635 0.00605228C65.657 0.00702939 59.4094 6.25369 59.4094 13.9631C59.4094 21.6705 65.657 27.9192 73.3645 27.9192ZM116.63 13.9631C116.63 21.6705 110.381 27.9192 102.673 27.9192C94.9654 27.9192 88.7168 21.6705 88.7168 13.9631C88.7168 6.25369 94.9654 0.00702939 102.673 0.00702939C110.381 0.00702939 116.63 6.25467 116.63 13.9631Z" fill="#667085"/>
</g>
<defs>
<clipPath id="clip0_2590_8242">
<rect width="122.139" height="39.0844" fill="white" transform="translate(0.861328)"/>
</clipPath>
</defs>
</svg>
