<svg width="108" height="108" viewBox="0 0 108 108" fill="none" xmlns="http://www.w3.org/2000/svg">
<path d="M54 81C68.9117 81 81 68.9117 81 54C81 39.0883 68.9117 27 54 27C39.0883 27 27 39.0883 27 54C27 68.9117 39.0883 81 54 81Z" fill="white"/>
<path d="M84.4055 23.5945C76.2839 15.4727 65.4857 11 54 11C42.5143 11 31.7161 15.4727 23.5945 23.5945C15.4728 31.7161 11 42.5143 11 54C11 65.4857 15.4728 76.2839 23.5945 84.4055C31.7161 92.5273 42.5143 97 54 97C65.4857 97 76.2839 92.5273 84.4055 84.4055C92.5272 76.2839 97 65.4857 97 54C97 42.5143 92.5272 31.7161 84.4055 23.5945ZM82.5014 82.5013C74.8883 90.1141 64.7663 94.307 54 94.307C43.2337 94.307 33.1117 90.1141 25.4986 82.5013C17.8857 74.8883 13.693 64.7663 13.693 54C13.693 43.2337 17.8857 33.1117 25.4986 25.4987C33.1117 17.8859 43.2337 13.693 54 13.693C64.7663 13.693 74.8883 17.8859 82.5014 25.4987C90.1143 33.1116 94.307 43.2335 94.307 54C94.307 64.7665 90.1143 74.8883 82.5014 82.5013Z" fill="#004AAD"/>
<path d="M82.9913 25.0087C75.2475 17.2646 64.9515 13 54 13C43.0485 13 32.7526 17.2646 25.0087 25.0087C17.2648 32.7526 13 43.0485 13 54C13 64.9515 17.2648 75.2475 25.0087 82.9913C32.7526 90.7354 43.0485 95 54 95C64.9515 95 75.2475 90.7354 82.9913 82.9913C90.7352 75.2475 95 64.9515 95 54C95 43.0485 90.7352 32.7526 82.9913 25.0087ZM81.1758 81.1756C73.9167 88.4344 64.2655 92.4322 54 92.4322C43.7345 92.4322 34.0833 88.4344 26.8242 81.1756C19.5654 73.9167 15.5678 64.2655 15.5678 54C15.5678 43.7345 19.5654 34.0833 26.8242 26.8244C34.0833 19.5656 43.7345 15.5678 54 15.5678C64.2655 15.5678 73.9167 19.5656 81.1758 26.8244C88.4346 34.0831 92.4322 43.7343 92.4322 54C92.4322 64.2657 88.4346 73.9167 81.1758 81.1756Z" fill="#004AAD"/>
<path d="M54 22C36.355 22 22 36.355 22 54C22 71.645 36.355 86 54 86C71.645 86 86 71.645 86 54C86 36.355 71.645 22 54 22ZM54 83.594C37.6817 83.594 24.406 70.3181 24.406 54C24.406 37.6819 37.6817 24.406 54 24.406C70.3183 24.406 83.594 37.6819 83.594 54C83.594 70.3181 70.3183 83.594 54 83.594Z" fill="#06F3FF"/>
<path d="M64.5471 44.8235C64.5471 45.4733 65.0962 46 65.7736 46C66.4508 46 67 45.4734 67 44.8235C67 42.499 65.5725 40.3535 62.9803 38.7821C61.5097 37.8906 59.7524 37.2446 57.8426 36.8739V35.1765C57.8426 34.5267 57.2936 34 56.6162 34C55.9388 34 55.3897 34.5265 55.3897 35.1765V36.5576C54.931 36.5271 54.4674 36.5099 53.9998 36.5099C53.5323 36.5099 53.0687 36.5271 52.6098 36.5576V35.1765C52.6098 34.5267 52.0608 34 51.3834 34C50.706 34 50.1569 34.5265 50.1569 35.1765V36.8739C48.2471 37.2446 46.49 37.8907 45.0195 38.7821C42.4276 40.3535 41.0002 42.4992 41.0002 44.8235C41.0002 49.8649 45.0293 52.2741 50.1572 54.0397V68.7097C46.2752 67.8207 43.4529 65.6457 43.4529 63.1765C43.4529 62.5267 42.9038 62 42.2264 62C41.549 62 41 62.5266 41 63.1765C41 65.501 42.4275 67.6465 45.0197 69.2179C46.4903 70.1094 48.2474 70.7554 50.1572 71.1261V72.8235C50.1572 73.4733 50.7063 74 51.3837 74C52.0611 74 52.6101 73.4734 52.6101 72.8235V71.4424C53.069 71.4729 53.5326 71.4901 54.0001 71.4901C54.4676 71.4901 54.931 71.4729 55.3901 71.4424V72.8235C55.3901 73.4733 55.9391 74 56.6165 74C57.2937 74 57.8429 73.4734 57.8429 72.8235V71.126C59.7527 70.7553 61.51 70.1091 62.9806 69.2178C65.5725 67.6463 67 65.5008 67 63.1764C67 58.135 62.9708 55.7256 57.8429 53.9602V39.2901C61.7248 40.1792 64.5471 42.3541 64.5471 44.8235ZM43.453 44.8235C43.453 42.3543 46.2754 40.1793 50.1574 39.2903V51.5283C45.7063 49.8894 43.453 48.0704 43.453 44.8235ZM54.0001 69.1372C53.5298 69.1372 53.0663 69.1169 52.6101 69.0814V54.8219C52.9535 54.9245 53.2988 55.0262 53.6467 55.1265C54.2537 55.3018 54.8332 55.4751 55.3899 55.648V69.0814C54.9337 69.1169 54.4703 69.1372 54.0001 69.1372ZM64.5471 63.1764C64.5471 65.6458 61.7248 67.8207 57.8428 68.7096V56.4714C62.2939 58.1105 64.5471 59.9295 64.5471 63.1764ZM55.3901 53.178C55.0466 53.0754 54.7015 52.9737 54.3536 52.8733C53.7466 52.6981 53.1669 52.5248 52.6101 52.3519V38.9186C53.0663 38.8828 53.5297 38.8627 54.0001 38.8627C54.4703 38.8627 54.9337 38.8829 55.3901 38.9186V53.178Z" fill="#004AAD"/>
</svg>
