<svg width="108" height="108" viewBox="0 0 108 108" fill="none" xmlns="http://www.w3.org/2000/svg">
<path d="M92.8546 16.6641C92.8546 15.5039 91.9054 14.5547 90.7453 14.5547H53.789C48.5156 14.5547 43.4003 15.5883 38.5804 17.6238C33.9292 19.5961 29.7527 22.4121 26.1667 25.998C22.5808 29.584 19.7648 33.7605 17.7925 38.4117C15.757 43.2316 14.7234 48.3469 14.7234 53.6203C14.7234 54.7805 15.6726 55.7297 16.8328 55.7297C17.9929 55.7297 18.9421 54.7805 18.9421 53.6203C18.9421 34.4039 34.5726 18.7734 53.789 18.7734H83.4574V24.5215C83.4574 25.4602 84.5859 25.9242 85.2503 25.2598L92.3273 18.1828C92.496 18.0141 92.591 17.8242 92.6226 17.6238C92.7703 17.3391 92.8546 17.0121 92.8546 16.6641ZM90.7453 51.5109C89.5851 51.5109 88.6359 52.4602 88.6359 53.6203C88.6359 72.8367 73.0054 88.4672 53.789 88.4672H24.2894V82.582C24.2894 81.6434 23.1609 81.1793 22.4964 81.8438L15.4195 88.9207C15.314 89.0262 15.2296 89.1527 15.1769 89.2793C14.8921 89.6379 14.7234 90.0914 14.7234 90.5871C14.7234 91.7473 15.6726 92.6965 16.8328 92.6965H53.789C59.0625 92.6965 64.1777 91.6629 68.9976 89.6273C73.6488 87.6551 77.8253 84.8391 81.4113 81.2531C84.9972 77.6672 87.8132 73.4906 89.7855 68.8395C91.821 64.0195 92.8546 58.9043 92.8546 53.6309C92.8546 52.4602 91.916 51.5109 90.7453 51.5109Z" fill="#004AAD"/>
<path d="M29.6221 53.6858C29.6221 60.1782 32.2011 66.4046 36.7919 70.9953C41.3827 75.5861 47.6091 78.1651 54.1014 78.1651C60.5937 78.1651 66.8201 75.5861 71.4108 70.9953C76.0016 66.4046 78.5807 60.1782 78.5807 53.6858C78.5807 47.1935 76.0016 40.9671 71.4108 36.3764C66.8201 31.7856 60.5937 29.2065 54.1014 29.2065C47.6091 29.2065 41.3827 31.7856 36.7919 36.3764C32.2011 40.9671 29.6221 47.1935 29.6221 53.6858Z" fill="white"/>
<path d="M76.2285 43.1494H31.8051C31.4781 43.835 31.1828 44.5416 30.9297 45.2588H77.1144C76.8508 44.5416 76.5555 43.835 76.2285 43.1494Z" fill="#06F3FF"/>
<path d="M74.3619 33.2668C68.9303 27.8352 61.7057 24.8398 54.017 24.8398C46.3283 24.8398 39.1037 27.8352 33.6721 33.2668C28.2404 38.6984 25.2451 45.923 25.2451 53.6117C25.2451 61.3004 28.2404 68.525 33.6721 73.9566C39.1037 79.3883 46.3283 82.3836 54.017 82.3836C61.7057 82.3836 68.9303 79.3883 74.3619 73.9566C79.7936 68.525 82.7889 61.3004 82.7889 53.6117C82.7889 45.923 79.8041 38.6984 74.3619 33.2668ZM32.0795 64.6121H41.2658C41.3818 64.9496 41.5084 65.2871 41.635 65.6246C42.7951 68.6199 44.4088 71.4887 46.4232 74.1465C47.499 75.5598 48.5643 76.7621 49.5346 77.743C41.8881 76.3297 35.4756 71.3621 32.0795 64.6121ZM52.9623 78.0805C51.6967 76.9836 49.8615 75.2117 48.0475 72.807C46.4971 70.7504 44.7885 67.9977 43.5123 64.6016H52.9623V78.0805ZM55.0717 78.0805V64.6121H64.5217C63.2455 67.9977 61.5369 70.7609 59.9865 72.8176C58.1725 75.2223 56.3373 76.9836 55.0717 78.0805ZM58.51 77.7535C59.4803 76.7621 60.5455 75.5703 61.6213 74.157C63.6463 71.4887 65.26 68.6305 66.4096 65.6352C66.5361 65.2977 66.6627 64.9602 66.7787 64.6227H75.965C72.5689 71.3621 66.1564 76.3297 58.51 77.7535ZM76.9037 62.5027H67.4326C68.2025 59.7078 68.5928 56.818 68.5928 53.8754C68.5928 50.9539 68.2025 48.0641 67.4432 45.248H65.2389C65.9982 47.8426 66.4729 50.7219 66.4729 53.8754C66.4729 57.0395 65.9877 59.9293 65.2283 62.5027H55.0717V45.2586H52.9623V62.5027H42.8057C42.0463 59.9293 41.5611 57.05 41.5611 53.8754C41.5611 50.7324 42.0463 47.8426 42.7951 45.248H40.5908C39.8314 48.0641 39.4412 50.9539 39.4412 53.8754C39.4412 56.818 39.8314 59.6973 40.6014 62.5027H31.1303C30.0545 59.7395 29.4639 56.7441 29.4639 53.6117C29.4639 50.6797 29.9807 47.8637 30.9299 45.2586C31.1936 44.5414 31.4889 43.8348 31.8053 43.1492C35.1486 36.0828 41.7721 30.8516 49.7033 29.4383C48.6908 30.5035 47.5518 31.8008 46.4127 33.3512C44.3982 36.0934 42.7846 39.0254 41.6244 42.0523C41.4873 42.4109 41.3607 42.7801 41.2342 43.1492H43.4807C44.7674 39.6688 46.4971 36.8 48.058 34.659C49.8721 32.191 51.6967 30.3559 52.9623 29.2062V43.1492H55.0717V29.2062C56.3373 30.3559 58.1619 32.2016 59.976 34.659C61.5475 36.8 63.2771 39.6582 64.5533 43.1492H66.7998C66.6732 42.7801 66.5467 42.4215 66.4096 42.0523C65.2494 39.0148 63.6463 36.0934 61.6213 33.3512C60.4928 31.8008 59.3537 30.493 58.3412 29.4383C66.2725 30.8516 72.8959 36.0828 76.2393 43.1492C76.5662 43.8348 76.8615 44.5414 77.1146 45.2586C78.0639 47.8637 78.5807 50.6797 78.5807 53.6117C78.5701 56.7441 77.9795 59.75 76.9037 62.5027Z" fill="#004AAD"/>
</svg>
