<svg width="108" height="108" viewBox="0 0 108 108" fill="none" xmlns="http://www.w3.org/2000/svg">
<path d="M61.1 25.8395C58.1891 23.8566 56.0902 21.7578 54.7613 20.2285C53.4324 21.7578 51.323 23.8461 48.4016 25.8395C42.9488 29.552 36.7051 31.598 29.7969 31.9461V56.5098C29.7969 57.4062 29.9129 58.4504 30.1555 59.6105C30.1555 59.6105 33.1613 78.5316 54.7613 88.3086C54.7613 88.3086 70.4445 82.3707 77.3316 65.7383C78.9348 62.0785 79.6941 58.7984 79.6941 56.5098V31.9461C72.7859 31.598 66.5422 29.552 61.1 25.8395Z" fill="white"/>
<path d="M65.2637 52.8078L69.957 42.7461H63.2809L58.5875 52.8078H65.2637ZM44.5285 42.7461L39.8352 52.8078H46.5113L51.2047 42.7461H44.5285ZM60.5809 42.7461H53.9047L49.2113 52.8078H55.8875L60.5809 42.7461ZM31.5664 42.7461V52.8078H37.1352L41.8285 42.7461H31.5664ZM77.9305 52.8078V42.7461H72.657L67.9637 52.8078H77.9305Z" fill="#E6E6E6"/>
<path d="M54.7478 88.3094C46.2681 84.6391 40.1298 78.7012 36.0587 72.7527C33.8544 72.0145 31.7345 71.2234 29.7095 70.4113C30.5638 72.0145 31.5235 73.6176 32.5888 75.1574C36.354 80.6312 43.104 88.0879 53.8724 92.507C54.1571 92.623 54.4524 92.6863 54.7478 92.6863C55.0431 92.6863 55.3384 92.6336 55.6231 92.5176C63.4595 89.2902 69.1653 84.4703 73.1415 79.9668C71.3802 79.8824 69.5661 79.7453 67.7204 79.566C64.2294 82.9832 59.9263 86.0734 54.7478 88.3094ZM94.0032 58.3457C93.2228 57.6496 92.3263 56.943 91.3138 56.2469C89.2571 54.802 86.7575 53.357 83.8993 51.9648V30.1117C83.8993 28.825 82.8657 27.7809 81.6001 27.7809C74.7974 27.7492 68.7013 25.9246 63.47 22.3598C59.4095 19.5965 57.2263 16.675 56.6462 15.8418C56.2138 15.2195 55.5071 14.8398 54.7478 14.8398C53.9989 14.8398 53.2817 15.209 52.8493 15.8313C52.2692 16.6645 50.0755 19.5859 46.0149 22.3492C40.7731 25.9141 34.6665 27.7387 27.8743 27.7703C26.6087 27.7809 25.5751 28.825 25.5751 30.1012V39.8676C24.2673 39.952 23.0333 40.068 21.8731 40.2262C19.2681 40.5742 17.0532 41.1016 15.2497 41.7977C12.1911 42.9895 10.4087 44.6559 9.94463 46.7547C9.50166 48.7586 10.3243 50.9102 12.3704 53.1672L12.381 53.1777C12.4231 53.2199 12.4548 53.2621 12.497 53.3043C14.406 55.3504 17.2958 57.4387 21.0927 59.5164C21.3458 59.6535 21.6095 59.8012 21.8731 59.9383C23.2864 60.6871 24.8052 61.4254 26.3978 62.132C26.8618 63.8828 27.5157 65.7074 28.3278 67.5531C30.2052 68.3652 32.188 69.1457 34.2657 69.8945C33.1478 67.9539 32.2407 66.0449 31.5446 64.252C37.3771 66.4773 43.9794 68.4391 50.9298 69.9789C58.7345 71.7086 66.3704 72.7633 73.1942 73.0902C72.129 74.6195 70.9372 76.1383 69.5978 77.6148C71.4013 77.7625 73.1626 77.868 74.8606 77.9207C75.62 76.9609 76.295 76.0328 76.8962 75.1574C77.3392 74.5141 77.761 73.8602 78.1724 73.1957C79.6384 73.1852 81.0411 73.143 82.4017 73.048C85.9349 72.816 88.9302 72.3203 91.3243 71.5715C91.8517 71.4027 92.3474 71.234 92.8114 71.0441C93.729 70.675 94.5306 70.2531 95.2056 69.7996C94.8575 69.209 94.4146 68.6395 93.9294 68.1016C93.2333 68.5656 92.3579 68.977 91.3243 69.3355C89.0356 70.1371 85.956 70.6961 82.2645 70.9387C81.347 71.0019 80.3978 71.0441 79.4169 71.0652C82.2435 65.9184 83.9099 60.6133 83.9099 56.5V54.3168C86.863 55.8145 89.3731 57.3543 91.3243 58.8625C91.7884 59.2211 92.2103 59.5691 92.611 59.9277C94.3302 61.457 96.2813 63.7035 95.8384 65.7285C95.7645 66.0449 95.638 66.3402 95.4587 66.6355C95.9966 67.2156 96.4501 67.7957 96.8087 68.3652C97.3571 67.7008 97.7157 66.973 97.895 66.182C98.4224 63.7562 97.1145 61.1195 94.0032 58.3457ZM22.1052 57.6496C22.0314 57.6074 21.947 57.5652 21.8731 57.523C18.2978 55.5508 15.5872 53.5469 13.9103 51.6906C13.8997 51.6906 13.8997 51.7012 13.8892 51.7012C13.2247 51.0262 12.7923 50.2879 12.6341 50.0031C12.0435 48.9801 11.8114 48.0414 12.0013 47.1977C12.5075 44.8879 16.1146 43.1582 21.8731 42.3461C23.0228 42.1879 24.2567 42.0613 25.5751 41.977V56.5105C25.5751 57.4598 25.67 58.4828 25.8388 59.548C24.531 58.9258 23.2759 58.293 22.1052 57.6496ZM79.6911 56.5105C79.6911 59.8539 78.0563 65.3594 74.5442 71.0336C67.5411 70.791 59.5677 69.7258 51.3938 67.9117C43.8739 66.2453 36.7759 64.0938 30.6587 61.6363C30.0786 59.6535 29.7938 57.8922 29.7938 56.5105V31.9469C36.7021 31.5988 42.9458 29.5527 48.3985 25.8402C51.32 23.8574 53.4188 21.7586 54.7583 20.2293C56.0872 21.7586 58.186 23.8469 61.097 25.8402C66.5392 29.5527 72.7829 31.5988 79.6911 31.9469V56.5105Z" fill="#004AAD"/>
<path d="M25.5422 46.7441C21.3129 47.0078 17.843 47.6617 15.2484 48.6742C14.2359 49.0645 13.3605 49.518 12.6328 50.0137C12.9492 50.5621 13.3816 51.1211 13.909 51.7117C16.1449 50.2352 20.1844 49.2332 25.5422 48.8746V46.7441Z" fill="#06F3FF"/>
<path d="M12.6242 50.002C12.7824 50.2867 13.2254 51.025 13.8793 51.7C13.8898 51.7 13.8898 51.6895 13.9004 51.6895C13.3836 51.1094 12.9512 50.5504 12.6242 50.002C12.6347 50.002 12.6347 50.002 12.6242 50.002ZM96.7988 68.3641C96.4297 67.7945 95.9762 67.2145 95.4488 66.6344C95.0164 66.1703 94.5418 65.6957 94.0039 65.2211C91.5992 63.0801 88.0871 60.8758 83.7734 58.777C83.7312 59.0617 83.5414 60.3273 83.4148 60.9602C87.2961 62.8902 90.439 64.8836 92.6012 66.8031C93.0441 67.1934 93.4976 67.6363 93.9195 68.1004C94.4047 68.6277 94.8476 69.2078 95.1957 69.7984C95.7336 70.716 96.0289 71.6863 95.8285 72.6039C95.2168 75.3566 90.1437 77.3078 82.2652 77.8246C79.966 77.9723 77.4769 78.0039 74.8613 77.9195C73.1633 77.8668 71.4019 77.7613 69.5984 77.6137C63.882 77.1391 57.7015 76.1898 51.3945 74.7871C45.309 73.4371 39.5082 71.7707 34.2769 69.8828C32.1992 69.134 30.2164 68.3535 28.339 67.5414C26.1031 66.5711 24.0148 65.5586 22.1164 64.525C15.1871 60.7387 11.4113 56.8258 12.0125 54.073C12.0863 53.7566 12.2129 53.4508 12.3922 53.166L12.3816 53.1555C12.2867 53.0605 11.6855 52.4488 11.0316 51.4363C10.4832 52.1008 10.1246 52.8285 9.94529 53.6195C9.49178 55.6656 10.3566 57.8699 12.5082 60.1691C14.4172 62.2152 17.307 64.3035 21.1039 66.3813C23.6773 67.784 26.5777 69.1445 29.7312 70.4102C31.7457 71.2223 33.8656 72.0027 36.0805 72.7516C40.7211 74.3125 45.7308 75.7047 50.941 76.8543C56.7207 78.1305 62.4054 79.048 67.7316 79.5648C69.5879 79.7441 71.4019 79.8813 73.1527 79.9656C74.7031 80.0395 76.2008 80.0816 77.6562 80.0816C79.3015 80.0816 80.8941 80.0289 82.4023 79.934C86.716 79.6492 90.2176 78.9742 92.8121 77.9301C95.7336 76.7488 97.4422 75.1141 97.8957 73.068C98.2226 71.5703 97.8535 69.9988 96.7988 68.3641Z" fill="#06F3FF"/>
<path d="M12.3816 53.1668C12.3816 53.1668 12.3711 53.1668 12.3711 53.1562C12.3711 53.1562 12.3816 53.1563 12.3816 53.1668Z" fill="#06F3FF"/>
</svg>
