<svg width="21" height="20" viewBox="0 0 21 20" fill="none" xmlns="http://www.w3.org/2000/svg">
<g clip-path="url(#clip0_2168_8406)">
<path d="M15.7568 0H5.13184C2.543 0 0.444336 2.09867 0.444336 4.6875V15.3125C0.444336 17.9013 2.543 20 5.13184 20H15.7568C18.3457 20 20.4443 17.9013 20.4443 15.3125V4.6875C20.4443 2.09867 18.3457 0 15.7568 0Z" fill="url(#paint0_radial_2168_8406)"/>
<path d="M15.7568 0H5.13184C2.543 0 0.444336 2.09867 0.444336 4.6875V15.3125C0.444336 17.9013 2.543 20 5.13184 20H15.7568C18.3457 20 20.4443 17.9013 20.4443 15.3125V4.6875C20.4443 2.09867 18.3457 0 15.7568 0Z" fill="url(#paint1_radial_2168_8406)"/>
<path d="M10.445 2.1875C8.32332 2.1875 8.05699 2.1968 7.22371 2.23469C6.39199 2.27281 5.82426 2.40445 5.32754 2.59766C4.81363 2.79719 4.37777 3.06414 3.94355 3.49852C3.50895 3.93281 3.24199 4.36867 3.04184 4.88234C2.84809 5.37922 2.71629 5.94719 2.67887 6.77852C2.6416 7.61188 2.63184 7.87828 2.63184 10.0001C2.63184 12.1219 2.64121 12.3873 2.67902 13.2206C2.7173 14.0523 2.84895 14.6201 3.04199 15.1168C3.24168 15.6307 3.50863 16.0666 3.94301 16.5008C4.37715 16.9354 4.81301 17.203 5.32652 17.4025C5.82363 17.5957 6.39145 17.7273 7.22301 17.7655C8.05637 17.8034 8.32246 17.8127 10.4441 17.8127C12.5661 17.8127 12.8315 17.8034 13.6648 17.7655C14.4965 17.7273 15.0649 17.5957 15.562 17.4025C16.0757 17.203 16.5109 16.9354 16.945 16.5008C17.3796 16.0666 17.6464 15.6307 17.8467 15.117C18.0387 14.6201 18.1706 14.0522 18.2096 13.2208C18.2471 12.3875 18.2568 12.1219 18.2568 10.0001C18.2568 7.87828 18.2471 7.61203 18.2096 6.77867C18.1706 5.94695 18.0387 5.3793 17.8467 4.88258C17.6464 4.36867 17.3796 3.93281 16.945 3.49852C16.5104 3.06398 16.0758 2.79703 15.5615 2.59773C15.0635 2.40445 14.4954 2.27273 13.6637 2.23469C12.8304 2.1968 12.565 2.1875 10.4426 2.1875H10.445ZM9.74418 3.59539C9.95223 3.59508 10.1843 3.59539 10.445 3.59539C12.5311 3.59539 12.7782 3.60289 13.602 3.64031C14.3637 3.67516 14.7771 3.80242 15.0525 3.90938C15.4171 4.05094 15.6771 4.22023 15.9504 4.49375C16.2238 4.76719 16.393 5.02758 16.535 5.39219C16.6419 5.66719 16.7693 6.08063 16.804 6.84234C16.8414 7.66594 16.8496 7.91328 16.8496 9.99828C16.8496 12.0833 16.8414 12.3307 16.804 13.1542C16.7692 13.9159 16.6419 14.3294 16.535 14.6045C16.3934 14.9691 16.2238 15.2287 15.9504 15.502C15.6769 15.7754 15.4173 15.9446 15.0525 16.0863C14.7775 16.1937 14.3637 16.3206 13.602 16.3555C12.7784 16.3929 12.5311 16.401 10.445 16.401C8.35895 16.401 8.11168 16.3929 7.28816 16.3555C6.52645 16.3203 6.11301 16.193 5.83738 16.0861C5.47285 15.9445 5.21238 15.7752 4.93895 15.5018C4.66551 15.2284 4.49629 14.9686 4.35434 14.6038C4.24738 14.3287 4.11996 13.9153 4.08527 13.1536C4.04785 12.33 4.04035 12.0827 4.04035 9.99633C4.04035 7.91 4.04785 7.66398 4.08527 6.84039C4.12012 6.07867 4.24738 5.66523 4.35434 5.38984C4.49598 5.02523 4.66551 4.76484 4.93902 4.49141C5.21254 4.21797 5.47285 4.04867 5.83746 3.9068C6.11285 3.79938 6.52645 3.67242 7.28816 3.63742C8.00887 3.60484 8.28816 3.59508 9.74418 3.59344V3.59539ZM14.6154 4.89258C14.0978 4.89258 13.6779 5.31211 13.6779 5.82977C13.6779 6.34734 14.0978 6.76727 14.6154 6.76727C15.1329 6.76727 15.5529 6.34734 15.5529 5.82977C15.5529 5.31219 15.1329 4.89227 14.6154 4.89227V4.89258ZM10.445 5.98797C8.22941 5.98797 6.43301 7.78438 6.43301 10.0001C6.43301 12.2158 8.22941 14.0113 10.445 14.0113C12.6607 14.0113 14.4565 12.2158 14.4565 10.0001C14.4565 7.78445 12.6606 5.98797 10.4449 5.98797H10.445ZM10.445 7.39586C11.8832 7.39586 13.0493 8.56172 13.0493 10.0001C13.0493 11.4383 11.8832 12.6043 10.445 12.6043C9.00684 12.6043 7.8409 11.4383 7.8409 10.0001C7.8409 8.56172 9.00676 7.39586 10.445 7.39586Z" fill="white"/>
</g>
<defs>
<radialGradient id="paint0_radial_2168_8406" cx="0" cy="0" r="1" gradientUnits="userSpaceOnUse" gradientTransform="translate(5.75684 21.5404) rotate(-90) scale(19.8215 18.4355)">
<stop stop-color="#FFDD55"/>
<stop offset="0.1" stop-color="#FFDD55"/>
<stop offset="0.5" stop-color="#FF543E"/>
<stop offset="1" stop-color="#C837AB"/>
</radialGradient>
<radialGradient id="paint1_radial_2168_8406" cx="0" cy="0" r="1" gradientUnits="userSpaceOnUse" gradientTransform="translate(-2.90574 1.4407) rotate(78.681) scale(8.86031 36.5225)">
<stop stop-color="#3771C8"/>
<stop offset="0.128" stop-color="#3771C8"/>
<stop offset="1" stop-color="#6600FF" stop-opacity="0"/>
</radialGradient>
<clipPath id="clip0_2168_8406">
<rect width="20" height="20" fill="white" transform="translate(0.444336)"/>
</clipPath>
</defs>
</svg>
