<svg width="108" height="108" viewBox="0 0 108 108" fill="none" xmlns="http://www.w3.org/2000/svg">
<path d="M39.0336 77.7824L40.4785 78.5523C42.1238 79.4172 43.959 80.1977 45.8891 80.7777L47.4395 81.2629V88.5086C47.4395 90.2488 48.5996 90.6391 49.5699 90.6391H58.2606C59.2309 90.6391 60.391 90.2488 60.391 88.5086V81.2629L61.9414 80.7777C63.8715 80.1977 65.7066 79.4277 67.352 78.5523L68.7969 77.7824L69.957 78.9426C71.982 80.9676 73.3426 82.423 73.9227 82.8027C74.4078 83.2879 74.893 83.5727 75.3676 83.5727C76.2324 83.5727 77.0129 82.8977 77.0129 82.8027L83.1934 76.6223C83.8684 75.9473 84.4484 74.7871 83.1934 73.532L78.0781 68.4168L78.848 66.9719C79.7129 65.3266 80.4934 63.4914 81.0734 61.5613L81.5586 60.0109H88.8043C90.5445 60.0109 90.9348 58.8508 90.9348 57.8805V49.1898C90.9348 48.2195 90.5445 47.0594 88.8043 47.0594H81.5586L81.0734 45.509C80.3984 43.6738 79.7234 41.8387 78.7531 40.1934L77.9832 38.7484L79.1434 37.5883L83.109 33.6227C83.5941 33.1375 83.8789 32.6523 83.8789 32.1777C83.8789 31.5027 83.3938 30.8277 83.109 30.5324L76.9074 24.3625C76.7176 24.1727 76.0426 23.5926 75.2621 23.5926C74.777 23.5926 74.2918 23.7824 73.8172 24.3625L68.702 29.4777L67.257 28.7078C65.6117 27.843 63.7766 27.0625 61.9414 26.4824L60.391 26.0922V18.7516C60.391 16.9164 58.8406 16.6211 58.1656 16.6211H49.5699C48.8949 16.6211 47.4395 16.9059 47.4395 18.7516V26.0922L45.8891 26.5773C44.0539 27.1574 42.2188 27.8324 40.5734 28.8027L39.1285 29.5727L33.9184 24.3625C33.4332 23.8773 32.948 23.6875 32.5684 23.6875C31.7984 23.6875 31.018 24.2676 30.8281 24.4574L24.6477 30.543C24.2574 31.0281 23.2977 32.2832 24.6477 33.6332L29.7629 38.759L28.993 40.2039C28.1281 41.8492 27.3477 43.6844 26.7676 45.5195L26.2824 47.0699H19.0367C17.2965 47.1648 16.9062 48.5148 16.9062 49.3902V57.9859C16.9062 58.6609 17.191 60.1164 19.0367 60.1164H26.2824L26.7676 61.6668C27.3477 63.5969 28.1176 65.3371 28.993 67.0773L29.7629 68.5223L24.6477 73.6375C23.3926 74.8926 24.1625 76.1477 24.6477 76.7277L30.7332 82.8133C30.923 82.9082 31.7035 83.4883 32.3785 83.4883C32.8637 83.4883 33.2434 83.2984 33.7285 82.8133L39.0336 77.7824Z" fill="white"/>
<path d="M52.3535 73.7341H52.2692C51.9 73.7024 51.5309 73.6603 51.1618 73.6181C50.5817 73.5442 50.1809 73.0064 50.2547 72.4263C50.3285 71.8462 50.8664 71.4454 51.4465 71.5192C51.7735 71.5614 52.111 71.6036 52.4379 71.6247C53.018 71.6669 53.4504 72.1837 53.4082 72.7638C53.3555 73.3228 52.8914 73.7341 52.3535 73.7341ZM56.5512 73.6181C56.0344 73.6181 55.5809 73.2384 55.5071 72.711C55.4227 72.131 55.834 71.6036 56.4035 71.5192C56.7305 71.4771 57.0575 71.4243 57.3844 71.361C57.9539 71.245 58.5129 71.6247 58.6184 72.1942C58.7239 72.7638 58.3547 73.3228 57.7852 73.4282C57.4266 73.5021 57.0575 73.5653 56.6883 73.6075C56.6567 73.6181 56.6039 73.6181 56.5512 73.6181ZM47.2172 72.595C47.0907 72.595 46.9746 72.5739 46.8481 72.5317C46.5 72.4052 46.152 72.2575 45.8145 72.1099C45.2766 71.8778 45.034 71.2556 45.2766 70.7177C45.5086 70.1798 46.1309 69.9372 46.6688 70.1798C46.9746 70.3169 47.2805 70.4435 47.5969 70.5595C48.1453 70.7599 48.4196 71.3716 48.2192 71.92C48.0504 72.3314 47.6496 72.595 47.2172 72.595ZM61.6137 72.1942C61.2129 72.1942 60.8227 71.9622 60.6434 71.5614C60.4114 71.0235 60.6539 70.4013 61.1813 70.1692C61.4871 70.0321 61.7825 69.895 62.0778 69.7474C62.5946 69.4837 63.2274 69.6946 63.491 70.2114C63.7547 70.7282 63.5438 71.361 63.027 71.6247C62.7 71.7935 62.3625 71.9517 62.025 72.0993C61.8985 72.1626 61.7614 72.1942 61.6137 72.1942ZM42.5977 70.0954C42.3762 70.0954 42.1653 70.0321 41.9754 69.895C41.6801 69.6735 41.3848 69.4415 41.1 69.2095C40.6465 68.8403 40.5832 68.1759 40.9524 67.7224C41.3215 67.2688 41.986 67.2056 42.4395 67.5747C42.6926 67.7856 42.9563 67.9966 43.2305 68.1864C43.7051 68.5345 43.8 69.1884 43.452 69.663C43.241 69.9478 42.9141 70.0954 42.5977 70.0954ZM66.0856 69.431C65.7797 69.431 65.4844 69.3044 65.2735 69.0513C64.9043 68.5978 64.9676 67.9333 65.4106 67.5642C65.6637 67.3532 65.9168 67.1317 66.1594 66.9103C66.5918 66.52 67.2563 66.5411 67.6465 66.9735C68.0368 67.406 68.0157 68.0704 67.5832 68.4606C67.309 68.7138 67.0348 68.9563 66.75 69.1884C66.5602 69.3571 66.3176 69.431 66.0856 69.431ZM38.8219 66.4356C38.5055 66.4356 38.1996 66.2985 37.9887 66.0349C37.7567 65.7396 37.5352 65.4442 37.3242 65.1384C36.9868 64.6638 37.1133 63.9993 37.5879 63.6724C38.0625 63.3349 38.727 63.4614 39.0539 63.936C39.2438 64.2103 39.4442 64.4739 39.6446 64.7376C40.0032 65.2017 39.9188 65.8556 39.4653 66.2142C39.2754 66.3618 39.0539 66.4356 38.8219 66.4356ZM69.6399 65.5708C69.4289 65.5708 69.218 65.5075 69.0387 65.381C68.5641 65.054 68.4375 64.3896 68.775 63.9149C68.9649 63.6407 69.1442 63.3665 69.3235 63.0817C69.6293 62.586 70.2832 62.4278 70.7789 62.7337C71.2746 63.0396 71.4328 63.6935 71.127 64.1892C70.9371 64.5056 70.7262 64.8114 70.5153 65.1173C70.3043 65.4126 69.9774 65.5708 69.6399 65.5708ZM36.1852 61.8899C35.7739 61.8899 35.3731 61.6474 35.2043 61.236C35.0672 60.8985 34.9301 60.5399 34.8141 60.1919C34.6243 59.6435 34.9196 59.0423 35.468 58.8524C36.0164 58.6626 36.6176 58.9579 36.8075 59.5063C36.9129 59.8228 37.0289 60.1286 37.1555 60.4345C37.377 60.9724 37.1133 61.5946 36.5754 61.8056C36.4594 61.8583 36.3223 61.8899 36.1852 61.8899ZM72.0235 60.8774C71.9075 60.8774 71.7914 60.8563 71.686 60.8247C71.1375 60.6349 70.8422 60.0337 71.0321 59.4853C71.1375 59.1688 71.243 58.8524 71.3274 58.536C71.4856 57.9771 72.0657 57.6501 72.6246 57.8083C73.1836 57.9665 73.5106 58.5466 73.3524 59.1056C73.2469 59.4642 73.1414 59.8228 73.0254 60.1708C72.8672 60.6032 72.4559 60.8774 72.0235 60.8774ZM34.8985 56.7958C34.3711 56.7958 33.9071 56.395 33.8543 55.8571C33.8121 55.488 33.7805 55.1188 33.7594 54.7497C33.7278 54.1696 34.1707 53.6739 34.7508 53.6423C35.3309 53.6106 35.8266 54.0536 35.8582 54.6337C35.8793 54.9606 35.9004 55.2981 35.9426 55.6251C36.0059 56.2052 35.5946 56.722 35.0145 56.7853C34.9723 56.7958 34.9301 56.7958 34.8985 56.7958ZM73.0254 55.72H72.9621C72.3821 55.6884 71.9391 55.1927 71.9707 54.6126C71.9918 54.2856 72.0024 53.9481 72.0024 53.6212C72.0024 53.0411 72.477 52.5665 73.0571 52.5665C73.6371 52.5665 74.1118 53.0411 74.1118 53.6212C74.1118 53.9903 74.1012 54.3595 74.0801 54.7286C74.0485 55.2876 73.5844 55.72 73.0254 55.72ZM35.0356 51.5435C34.9828 51.5435 34.9196 51.5435 34.8668 51.5329C34.2868 51.438 33.9071 50.9001 34.002 50.32C34.0653 49.9509 34.1285 49.5923 34.2129 49.2231C34.3395 48.6536 34.8985 48.295 35.468 48.4216C36.0375 48.5481 36.3961 49.1071 36.2696 49.6767C36.1957 50.0036 36.1325 50.3306 36.0797 50.6575C35.9848 51.1743 35.5418 51.5435 35.0356 51.5435ZM72.7828 51.4591C72.2766 51.4591 71.8336 51.0899 71.7492 50.5837C71.6965 50.2567 71.6332 49.9298 71.5594 49.6028C71.4328 49.0333 71.7914 48.4743 72.3504 48.3372C72.92 48.2106 73.4789 48.5692 73.616 49.1282C73.7004 49.4868 73.7743 49.856 73.827 50.2251C73.9219 50.7946 73.5317 51.3431 72.9621 51.438C72.8989 51.4591 72.8461 51.4591 72.7828 51.4591ZM36.586 46.5231C36.4383 46.5231 36.2801 46.4915 36.1325 46.4177C35.6051 46.1646 35.3836 45.5423 35.6262 45.0149C35.7844 44.6774 35.9532 44.3505 36.1325 44.0235C36.4067 43.5067 37.05 43.3169 37.5668 43.6017C38.0836 43.8759 38.2735 44.5192 37.9887 45.036C37.8305 45.3313 37.6828 45.6267 37.5352 45.922C37.3664 46.3017 36.9868 46.5231 36.586 46.5231ZM71.2008 46.4493C70.8106 46.4493 70.4309 46.2278 70.2516 45.8481C70.1145 45.5528 69.9563 45.247 69.7981 44.9622C69.5239 44.456 69.7032 43.8126 70.22 43.5278C70.7262 43.2536 71.3696 43.4329 71.6543 43.9497C71.8336 44.2767 72.0024 44.6036 72.1606 44.9411C72.4137 45.4685 72.1922 46.1013 71.6649 46.3438C71.5067 46.4177 71.359 46.4493 71.2008 46.4493ZM39.4653 42.1145C39.2227 42.1145 38.9696 42.0302 38.7692 41.8509C38.3262 41.4712 38.284 40.8067 38.6637 40.3638C38.9063 40.0896 39.1594 39.8048 39.4125 39.5411C39.8133 39.1192 40.4883 39.1087 40.8996 39.52C41.3215 39.9208 41.3321 40.5958 40.9207 41.0071C40.6887 41.2392 40.4672 41.4923 40.2457 41.7454C40.0559 41.9985 39.7606 42.1145 39.4653 42.1145ZM68.3215 42.0618C68.0262 42.0618 67.7414 41.9353 67.5305 41.7032C67.309 41.4501 67.0875 41.2075 66.8555 40.9755C66.4442 40.5536 66.4547 39.8892 66.8766 39.4884C67.2879 39.0771 67.9629 39.0876 68.3637 39.5095C68.6168 39.7731 68.8805 40.0474 69.1231 40.3216C69.5028 40.7645 69.4606 41.429 69.0282 41.8087C68.8067 41.9774 68.5641 42.0618 68.3215 42.0618ZM43.4203 38.6552C43.0723 38.6552 42.7453 38.4864 42.5344 38.1806C42.218 37.6954 42.3551 37.0415 42.8403 36.7251C43.1461 36.5247 43.4625 36.3243 43.7895 36.145C44.2957 35.8497 44.9391 36.029 45.2344 36.5247C45.5297 37.031 45.361 37.6743 44.8547 37.9696C44.57 38.1384 44.2852 38.3071 44.011 38.497C43.8211 38.6024 43.6207 38.6552 43.4203 38.6552ZM64.3453 38.6235C64.145 38.6235 63.9446 38.5708 63.7758 38.4548C63.5016 38.2755 63.2168 38.0962 62.9215 37.938C62.4153 37.6427 62.2465 36.9993 62.5313 36.4931C62.816 35.9868 63.47 35.8181 63.9762 36.1028C64.2926 36.2821 64.6196 36.4825 64.9254 36.6829C65.4106 36.9993 65.5477 37.6532 65.2313 38.1384C65.0309 38.4548 64.6934 38.6235 64.3453 38.6235ZM48.1664 36.4087C47.7129 36.4087 47.3016 36.1239 47.1645 35.6704C46.9852 35.1114 47.3016 34.5208 47.85 34.3521C48.1981 34.236 48.5672 34.1411 48.9153 34.0462C49.4848 33.8985 50.0543 34.2466 50.202 34.8056C50.3496 35.3751 50.0016 35.9446 49.4426 36.0923C49.1262 36.1767 48.7993 36.261 48.4828 36.3665C48.3774 36.3876 48.2719 36.4087 48.1664 36.4087ZM59.5887 36.3876C59.4832 36.3876 59.3778 36.3771 59.2723 36.3349C58.9559 36.2399 58.6395 36.145 58.3125 36.0712C57.743 35.9341 57.4055 35.354 57.5426 34.795C57.6797 34.2255 58.2598 33.888 58.8188 34.0251C59.1774 34.12 59.536 34.2149 59.8946 34.3204C60.4536 34.4892 60.7594 35.0798 60.5907 35.6388C60.4535 36.0923 60.0422 36.3876 59.5887 36.3876ZM53.345 35.5333C52.7754 35.5333 52.3114 35.0798 52.2903 34.5103C52.2692 33.9302 52.7332 33.445 53.3133 33.4239C53.6825 33.4134 54.0621 33.4134 54.4207 33.4239C55.0008 33.4345 55.4649 33.9196 55.4438 34.5103C55.4332 35.0798 54.9586 35.5333 54.3891 35.5333H54.3575C54.0305 35.5228 53.693 35.5228 53.3555 35.5333H53.345Z" fill="#004AAD"/>
<path d="M58.2606 92.7184H49.5699C47.0387 92.7184 45.3301 91.0203 45.3301 88.4785V82.7832L45.2773 82.7621C43.2945 82.1609 41.3539 81.3699 39.4977 80.3891L39.3816 80.3258L35.1945 84.2914C34.6355 84.8399 33.7391 85.5676 32.368 85.5676C31.2184 85.5676 30.248 84.9664 29.784 84.6711C29.7629 84.6606 29.7523 84.65 29.7312 84.6395L29.4781 84.5129L23.0867 78.1215L23.0234 78.0477C21.4203 76.1281 21.473 73.7973 23.15 72.1098L27.1684 68.0914L27.1051 67.9754C26.3668 66.5094 25.4387 64.5371 24.7531 62.2379L24.732 62.1852H19.0367C16.1258 62.1852 14.7969 59.9914 14.7969 57.9453V49.3602C14.7969 47.2719 16.073 45.0887 18.9102 44.9305H24.7215L24.7426 44.8672C25.3543 42.9266 26.177 40.9754 27.1156 39.193L27.1578 39.1191L23.1395 35.1008C22.5066 34.468 20.6187 32.1582 22.9812 29.1945L23.0551 29.0996L29.3305 22.9297C29.4781 22.782 30.7965 21.548 32.5473 21.548C33.5492 21.548 34.5617 22.0121 35.3949 22.8453L39.5082 26.9586L39.5398 26.9375C41.4805 25.7984 43.6109 25.0602 45.2457 24.5434L45.3195 24.5223V18.732C45.3195 15.8211 47.5133 14.4922 49.5594 14.4922H58.1551C58.6824 14.4922 59.6949 14.5871 60.6547 15.1988C61.8359 15.9582 62.4793 17.2027 62.4793 18.7215V24.4168L62.5531 24.4379C64.4832 25.0496 66.4449 25.8617 68.2168 26.8109L68.2906 26.8531L72.2457 22.898C73.2793 21.7063 74.45 21.4426 75.241 21.4426C76.8547 21.4426 78.0465 22.5078 78.3734 22.8348L84.5539 29.0152C85.2289 29.6902 85.9461 30.8609 85.9461 32.1477C85.9461 33.1812 85.482 34.1621 84.5539 35.0902L80.5355 39.1086L80.5566 39.1402C81.6113 40.9332 82.318 42.8738 83.0141 44.7512L83.0668 44.9199H88.7621C91.2934 44.9199 93.002 46.618 93.002 49.1598V57.8504C93.002 60.3816 91.3039 62.0902 88.7621 62.0902H83.0668L83.0457 62.143C82.4445 64.1258 81.6535 66.077 80.6727 67.9227L80.6305 67.9965L84.6488 72.0148C85.6719 73.0379 86.1465 74.293 85.9672 75.5586C85.8406 76.4762 85.3871 77.3516 84.6488 78.0898L78.6055 84.1648C77.8566 85.1141 76.4434 85.6625 75.357 85.6625C74.3762 85.6625 73.4375 85.2406 72.5516 84.4074C72.0031 83.9961 71.3176 83.3 69.9676 81.9395C69.5141 81.4859 69.0078 80.9691 68.4594 80.4102L68.4066 80.3574L68.3328 80.3996C66.4766 81.3805 64.5359 82.182 62.5531 82.7727L62.5004 82.7937V88.4891C62.5004 91.0203 60.7918 92.7184 58.2606 92.7184ZM49.5488 88.4996H58.2606V79.6824L61.3086 78.7332C63.0383 78.2164 64.7258 77.5203 66.3395 76.666L69.166 75.1578L71.4336 77.4254C72.0031 77.9949 72.5094 78.5117 72.9629 78.9758C73.8594 79.8934 74.798 80.832 75.0723 81.0324L75.2516 81.1484L75.3887 81.2961L75.4414 81.3488L81.6746 75.1156C81.6957 75.0945 81.7063 75.0734 81.7273 75.0629C81.7168 75.0418 81.6957 75.0313 81.6746 75.0102L75.452 68.7875L76.9602 65.9609C77.8145 64.3578 78.5 62.6598 79.0273 60.9406L79.0379 60.9195L79.9871 57.8926H88.8043V49.1914V49.1809H79.9871L79.059 46.2066C78.4051 44.4242 77.7828 42.7473 76.918 41.2812L76.8758 41.2074L75.3676 38.3809L81.5902 32.1582L81.643 32.1055C81.6219 32.0844 81.6113 32.0633 81.5902 32.0422L75.4098 25.8617C75.3887 25.8512 75.3781 25.8301 75.3465 25.809L69.0816 32.0527L66.2551 30.5445C64.7258 29.7324 63.0277 29.0258 61.3613 28.4879L58.2816 27.718V18.732V18.7215C58.2395 18.7109 58.2078 18.7109 58.1656 18.7109H49.5699H49.5594V27.6125L46.5324 28.5617C45.098 29.0152 43.2418 29.6586 41.6598 30.5867L41.5859 30.6289L38.7594 32.1371L32.4629 25.8406C32.3996 25.8723 32.3469 25.9145 32.3047 25.9461L26.2402 31.9156C26.1875 31.9789 26.1559 32.0316 26.1242 32.0738L26.1559 32.1055L32.3785 38.3281L30.8703 41.1547C30.0477 42.7051 29.3305 44.4137 28.8031 46.1117L27.8645 49.1281H19.1422C19.1211 49.1281 19.1 49.1387 19.0789 49.1387C19.0684 49.1914 19.0578 49.2547 19.0578 49.3391V57.9453H27.8645L28.8137 60.9934C29.2777 62.5332 29.9211 64.0941 30.8914 66.0453L32.3891 68.8508L26.1664 75.0734L26.1348 75.1051C26.1559 75.1473 26.1875 75.2 26.2402 75.2633L32.0621 81.0852C32.1254 81.1168 32.2098 81.1801 32.3047 81.2223L38.7172 75.1578L41.5016 76.6449C43.1047 77.4992 44.8027 78.1848 46.5219 78.7121L46.543 78.7227L49.5699 79.6719V88.4891C49.5488 88.4891 49.5488 88.4996 49.5488 88.4996ZM32.3152 25.925L32.2941 25.9461C32.3047 25.9355 32.3152 25.9355 32.3152 25.925Z" fill="#004AAD"/>
<path d="M69.1349 64.0304L67.9748 62.9546L68.3545 62.2374C71.1916 56.8796 70.158 50.1507 65.8443 45.8793C62.3006 42.3671 57.1853 41.0593 52.4498 42.346L60.7607 50.5726C62.6697 52.4605 62.6802 55.5507 60.7924 57.4597L57.8392 60.4445C56.9216 61.3726 55.7088 61.8789 54.4009 61.8894H54.3798C53.0931 61.8894 51.8697 61.3937 50.9521 60.4761L42.6412 52.2496C41.4072 56.9957 42.7677 62.1003 46.3115 65.6124C50.6252 69.8839 57.3646 70.8437 62.6908 67.9539L63.408 67.5636L82.6138 87.898C83.2045 88.5308 84.006 88.8789 84.8709 88.8894C85.7357 88.8999 86.5478 88.5625 87.149 87.9507L88.6045 86.4847C89.2162 85.873 89.5326 85.0609 89.522 84.196C89.5009 83.3312 89.1423 82.5296 88.5095 81.9496L69.5252 64.3785L69.1349 64.0304Z" fill="#E6E6E6"/>
<path d="M70.5816 62.4895C71.8789 59.684 72.3535 56.4988 71.9 53.4297C72.3535 56.5094 71.8789 59.6945 70.5816 62.4895ZM91.4328 82.8449C91.475 83.0137 91.5172 83.1824 91.5488 83.3617C91.5172 83.1824 91.4855 83.0137 91.4328 82.8449Z" fill="#004AAD"/>
<path d="M91.5497 83.3624C91.518 83.1937 91.4758 83.0144 91.4337 82.8456C91.402 82.7296 91.3704 82.6136 91.3282 82.4976C91.0434 81.7066 90.5794 80.9894 89.9465 80.3988L70.9622 62.8277L70.593 62.4902C71.8903 59.6847 72.3649 56.4996 71.9114 53.4304C71.4051 49.971 69.8231 46.8492 67.334 44.3812C62.7883 39.8882 56.0278 38.5277 50.1004 40.9218L48.6133 41.523L59.2762 52.0699C59.8036 52.5867 60.0883 53.2828 60.0989 54.021C60.0989 54.7593 59.8141 55.4554 59.2973 55.9722L56.3442 58.957C55.8274 59.4843 55.1313 59.7691 54.393 59.7796H54.3825C53.6547 59.7796 52.9587 59.4949 52.4419 58.9781L41.7684 48.4312L41.1883 49.9289C38.8575 55.8773 40.2919 62.6273 44.8376 67.1203C47.3266 69.5882 50.4696 71.1281 53.929 71.6027C57.0087 72.014 60.1833 71.5183 62.9782 70.1894L81.0872 89.3636C82.0786 90.4078 83.418 90.9984 84.8524 91.0089H84.9157C86.329 91.0089 87.6579 90.4605 88.6598 89.448L90.1153 87.982C91.1278 86.9589 91.6657 85.5984 91.634 84.164C91.6235 83.8898 91.6024 83.6156 91.5497 83.3624ZM84.8735 88.8996C84.0087 88.889 83.2071 88.541 82.6165 87.9081L63.4106 67.5738L62.6934 67.964C57.3672 70.8539 50.6278 69.8941 46.3141 65.6226C42.7704 62.1105 41.4098 57.0164 42.6438 52.2597L50.9547 60.4863C51.8723 61.3933 53.0852 61.8996 54.3825 61.8996H54.4036C55.7008 61.889 56.9243 61.3828 57.8419 60.4546L60.795 57.4699C62.6829 55.5609 62.6723 52.4706 60.7633 50.5828L52.4524 42.3562C57.1879 41.0695 62.3032 42.3773 65.8469 45.8894C70.1606 50.1609 71.1942 56.8792 68.3571 62.2476L67.9774 62.9648L69.1376 64.0406L69.5172 64.3992L88.5016 81.9703C89.1344 82.5609 89.493 83.3519 89.5141 84.2167C89.5352 85.0816 89.2083 85.8937 88.5965 86.5054L87.1516 87.9609C86.5504 88.5726 85.7383 88.8996 84.8735 88.8996Z" fill="#004AAD"/>
<path d="M88.4363 81.507C88.1832 81.507 87.9195 81.4121 87.7191 81.2222L70.4644 65.2543C70.032 64.8535 70.0109 64.189 70.4117 63.7672C70.8125 63.3347 71.4769 63.3137 71.8988 63.7144L89.1535 79.6824C89.5859 80.0832 89.607 80.7476 89.2062 81.1695C88.9953 81.391 88.7105 81.507 88.4363 81.507Z" fill="#06F3FF"/>
</svg>
