<svg width="111" height="31" viewBox="0 0 111 31" fill="none" xmlns="http://www.w3.org/2000/svg">
<path d="M21.7895 12.3511C23.629 12.3511 25.1201 10.8599 25.1201 9.02048L25.1201 8.18783C25.1201 6.34839 23.629 4.85723 21.7895 4.85723L16.7936 4.85724C14.9542 4.85724 13.463 6.34839 13.463 8.18783L13.463 9.02048C13.463 10.8599 14.9542 12.3511 16.7936 12.3511L21.7895 12.3511Z" fill="#72A9F3"/>
<path d="M3.47122 4.85693C1.63179 4.85693 0.140625 6.34809 0.140625 8.18753L0.140626 17.3467C0.140626 19.1861 1.63178 20.6773 3.47122 20.6773L8.46711 20.6773C10.3065 20.6773 11.7977 19.1861 11.7977 17.3467L11.7977 8.18753C11.7977 6.34809 10.3065 4.85693 8.46711 4.85693L3.47122 4.85693Z" fill="#F07575"/>
<path d="M21.7895 29.8359C23.629 29.8359 25.1201 28.3448 25.1201 26.5053L25.1201 17.3462C25.1201 15.5068 23.629 14.0156 21.7895 14.0156L16.7936 14.0156C14.9542 14.0156 13.463 15.5068 13.463 17.3462L13.463 26.5053C13.463 28.3448 14.9542 29.8359 16.7936 29.8359L21.7895 29.8359Z" fill="#D8C38C"/>
<path d="M8.46726 29.8359C10.3067 29.8359 11.7979 28.3448 11.7979 26.5053L11.7979 25.6727C11.7979 23.8333 10.3067 22.3421 8.46725 22.3421L3.47137 22.3421C1.63193 22.3421 0.14077 23.8333 0.14077 25.6727L0.14077 26.5053C0.140771 28.3448 1.63193 29.8359 3.47137 29.8359L8.46726 29.8359Z" fill="#99CCB0"/>
<path d="M75.8174 10.7449H80.6467V29.9957H76.217L75.8507 27.4312C74.8515 29.2297 73.0863 30.2289 70.4884 30.2289C64.893 30.2289 64.9263 25.5661 64.9263 20.1705V10.7116H69.7557V21.6693C69.7557 23.9008 69.8889 25.5661 71.421 25.5661C73.6858 25.5661 75.8174 24.5003 75.8174 20.5369V10.7449Z" fill="#004AAD"/>
<path d="M93.2723 10.4785H94.4713V15.3078H93.2723C90.4413 15.3078 89.2756 17.2063 89.2756 19.8374V29.9957H84.4462V10.7449H88.8426L89.1423 12.6767C89.9417 11.3777 91.2406 10.4785 93.2723 10.4785Z" fill="#004AAD"/>
<path d="M103.906 10.9114C108.469 10.9114 111 12.8432 111 17.4394V29.9957H106.604L106.271 28.1306C104.939 29.6294 102.974 30.3954 101.075 30.3954C98.2442 30.3954 95.6131 28.6635 95.6131 24.9665C95.6131 22.8683 96.4457 20.5702 100.076 19.2712L106.071 17.1063C105.771 15.8074 104.972 14.9748 103.507 14.9748H97.345V10.9114H103.906ZM106.171 22.7684V21.1364L102.108 22.9016C101.475 23.168 101.042 23.8008 101.042 24.467C101.042 25.6327 101.941 26.1989 103.007 26.1989C104.439 26.1989 106.171 25.0998 106.171 22.7684Z" fill="#004AAD"/>
<path fill-rule="evenodd" clip-rule="evenodd" d="M63.1405 29.3978L52.7006 6.41091C52.4878 5.91073 52.1526 5.66064 51.695 5.66064H51.4555C50.9873 5.66064 50.6414 5.90541 50.4179 6.39495L40.0099 29.3819C39.8929 29.6586 39.8876 29.8821 39.994 30.0523C40.111 30.2226 40.3186 30.3077 40.6165 30.3077H44.8149C45.2937 30.3077 45.6183 30.063 45.7886 29.5734L46.5868 27.61H56.5637L57.3778 29.5894C57.58 30.0789 57.8993 30.3237 58.3356 30.3237H62.5659C62.8532 30.3237 63.0501 30.2386 63.1565 30.0683C63.2736 29.8874 63.2682 29.6639 63.1405 29.3978ZM53.8842 22.0764L54.0559 21.9775C54.6927 21.6106 54.9175 20.7037 54.5427 20.0132L52.4943 16.2388C52.0175 15.3603 50.8932 15.3603 50.4165 16.2388L48.368 20.0132C47.9932 20.7037 48.218 21.6106 48.8548 21.9775L50.8529 23.1287C50.8478 23.151 50.8451 23.1744 50.8451 23.1985V23.4758C50.8451 23.6289 50.9544 23.7531 51.0892 23.7531H51.8215C51.9563 23.7531 52.0656 23.6289 52.0656 23.4758V23.1985C52.0656 23.1744 52.0629 23.151 52.0578 23.1287L53.8109 22.1186H53.9075L53.8842 22.0764Z" fill="#004AAD"/>
</svg>
